G04*
G04 #@! TF.GenerationSoftware,Altium Limited,Altium Designer,22.10.1 (41)*
G04*
G04 Layer_Color=65535*
%FSLAX25Y25*%
%MOIN*%
G70*
G04*
G04 #@! TF.SameCoordinates,7E2FA8D9-6AC0-4BAC-87FB-5E19DC16A301*
G04*
G04*
G04 #@! TF.FilePolarity,Positive*
G04*
G01*
G75*
%ADD10C,0.00787*%
%ADD11C,0.00984*%
%ADD12C,0.01000*%
%ADD13C,0.00600*%
%ADD14C,0.00500*%
%ADD15C,0.00591*%
%ADD16C,0.00800*%
D10*
X103181Y67602D02*
G03*
X103181Y67602I-394J0D01*
G01*
X29913Y35153D02*
G03*
X29913Y35153I-394J0D01*
G01*
X134276Y76720D02*
G03*
X134276Y76720I-394J0D01*
G01*
X161016Y54291D02*
X175976D01*
Y40709D02*
Y54291D01*
X161016Y40709D02*
X175976D01*
X161016D02*
Y54291D01*
X87921Y240D02*
Y4571D01*
Y240D02*
X153079D01*
X153079D02*
Y4571D01*
X46933Y22433D02*
X48606D01*
X46933D02*
Y24106D01*
X74394Y22433D02*
X76067D01*
Y24106D01*
Y49894D02*
Y51567D01*
X74394D02*
X76067D01*
X46933D02*
X48606D01*
X46933Y49894D02*
Y51567D01*
X13370Y85630D02*
X34630D01*
Y64370D02*
Y64862D01*
Y70571D02*
Y79429D01*
Y85138D02*
Y85630D01*
X13370Y64370D02*
X34630D01*
X13370D02*
Y64862D01*
Y70571D02*
Y79429D01*
Y85138D02*
Y85630D01*
X101402Y88886D02*
Y93650D01*
X136598Y88886D02*
Y93650D01*
X101402Y104358D02*
Y110224D01*
X136598D01*
Y104358D02*
Y110224D01*
D11*
X151469Y45039D02*
G03*
X151469Y45039I-492J0D01*
G01*
X44866Y50976D02*
G03*
X44866Y50976I-492J0D01*
G01*
X8252Y83661D02*
G03*
X8252Y83661I-492J0D01*
G01*
X76992Y80700D02*
G03*
X76992Y80700I-492J0D01*
G01*
D12*
X133275Y49000D02*
Y51500D01*
X123300Y47500D02*
X123900D01*
X163000Y76000D02*
X159801D01*
X160867Y77066D01*
X159801Y78133D01*
X163000D01*
X159801Y81332D02*
Y80265D01*
Y80799D01*
X162467D01*
X163000Y80265D01*
Y79732D01*
X162467Y79199D01*
X163000Y82398D02*
X159801D01*
X160867Y83464D01*
X159801Y84531D01*
X163000D01*
Y90929D02*
Y88796D01*
X160867Y90929D01*
X160334D01*
X159801Y90395D01*
Y89329D01*
X160334Y88796D01*
Y91995D02*
X159801Y92528D01*
Y93594D01*
X160334Y94128D01*
X162467D01*
X163000Y93594D01*
Y92528D01*
X162467Y91995D01*
X160334D01*
X163000Y97326D02*
Y95194D01*
X160867Y97326D01*
X160334D01*
X159801Y96793D01*
Y95727D01*
X160334Y95194D01*
X163000Y100525D02*
Y98393D01*
X160867Y100525D01*
X160334D01*
X159801Y99992D01*
Y98926D01*
X160334Y98393D01*
X155500Y71500D02*
X152301D01*
Y73099D01*
X152834Y73633D01*
X153901D01*
X154434Y73099D01*
Y71500D01*
Y72566D02*
X155500Y73633D01*
X152301Y76832D02*
Y74699D01*
X155500D01*
Y76832D01*
X153901Y74699D02*
Y75765D01*
X152301Y77898D02*
X154434D01*
X155500Y78964D01*
X154434Y80031D01*
X152301D01*
X153367Y81097D02*
Y81630D01*
X153901D01*
Y81097D01*
X153367D01*
X154967D02*
Y81630D01*
X155500D01*
Y81097D01*
X154967D01*
X152834Y86962D02*
X152301Y87495D01*
Y88561D01*
X152834Y89094D01*
X154967D01*
X155500Y88561D01*
Y87495D01*
X154967Y86962D01*
X152834D01*
X155500Y90161D02*
X154967D01*
Y90694D01*
X155500D01*
Y90161D01*
X152834Y92826D02*
X152301Y93360D01*
Y94426D01*
X152834Y94959D01*
X154967D01*
X155500Y94426D01*
Y93360D01*
X154967Y92826D01*
X152834D01*
X155500Y96025D02*
X154967D01*
Y96559D01*
X155500D01*
Y96025D01*
X152834Y98691D02*
X152301Y99224D01*
Y100291D01*
X152834Y100824D01*
X153367D01*
X153901Y100291D01*
Y99757D01*
Y100291D01*
X154434Y100824D01*
X154967D01*
X155500Y100291D01*
Y99224D01*
X154967Y98691D01*
D13*
X137925Y53100D02*
X145625D01*
X137925Y39900D02*
X145625D01*
X125850Y37850D02*
Y44150D01*
X116150Y37850D02*
Y44150D01*
X81296Y63806D02*
Y66546D01*
X74996Y56646D02*
X81296D01*
Y59386D01*
X74996Y66546D02*
X81296D01*
D14*
X36130Y42437D02*
X37870D01*
X36130Y34563D02*
X37870D01*
D15*
X60988Y77807D02*
X72012D01*
X60988Y91193D02*
X72012D01*
D16*
X98453Y19276D02*
X99519D01*
X98986D01*
Y22475D01*
X98453Y21941D01*
X143499Y19276D02*
X141366D01*
X143499Y21408D01*
Y21941D01*
X142966Y22475D01*
X141899D01*
X141366Y21941D01*
X144565D02*
X145098Y22475D01*
X146165D01*
X146698Y21941D01*
Y19809D01*
X146165Y19276D01*
X145098D01*
X144565Y19809D01*
Y21941D01*
X101334Y73599D02*
Y70934D01*
X101867Y70401D01*
X102934D01*
X103467Y70934D01*
Y73599D01*
X106666D02*
X104533D01*
Y72000D01*
X105599Y72533D01*
X106133D01*
X106666Y72000D01*
Y70934D01*
X106133Y70401D01*
X105066D01*
X104533Y70934D01*
X139334Y58600D02*
Y55934D01*
X139867Y55401D01*
X140934D01*
X141467Y55934D01*
Y58600D01*
X144133Y55401D02*
Y58600D01*
X142533Y57000D01*
X144666D01*
X97400Y41666D02*
X100600D01*
Y40066D01*
X100066Y39533D01*
X99000D01*
X98467Y40066D01*
Y41666D01*
Y40600D02*
X97400Y39533D01*
X100600Y36334D02*
X100066Y37400D01*
X99000Y38467D01*
X97934D01*
X97400Y37934D01*
Y36867D01*
X97934Y36334D01*
X98467D01*
X99000Y36867D01*
Y38467D01*
X117566Y62866D02*
X118099Y63399D01*
Y64465D01*
X117566Y64999D01*
X115434D01*
X114901Y64465D01*
Y63399D01*
X115434Y62866D01*
X114901Y61800D02*
Y60733D01*
Y61267D01*
X118099D01*
X117566Y61800D01*
X114901Y57534D02*
X118099D01*
X116500Y59134D01*
Y57001D01*
X142366Y27434D02*
X142899Y26901D01*
X143965D01*
X144499Y27434D01*
Y29566D01*
X143965Y30099D01*
X142899D01*
X142366Y29566D01*
X141300Y30099D02*
X140233D01*
X140767D01*
Y26901D01*
X141300Y27434D01*
X138634D02*
X138101Y26901D01*
X137034D01*
X136501Y27434D01*
Y27967D01*
X137034Y28500D01*
X137568D01*
X137034D01*
X136501Y29033D01*
Y29566D01*
X137034Y30099D01*
X138101D01*
X138634Y29566D01*
X26434Y49134D02*
X25901Y48601D01*
Y47534D01*
X26434Y47001D01*
X28566D01*
X29100Y47534D01*
Y48601D01*
X28566Y49134D01*
X29100Y50200D02*
Y51267D01*
Y50733D01*
X25901D01*
X26434Y50200D01*
X29100Y54999D02*
Y52866D01*
X26967Y54999D01*
X26434D01*
X25901Y54466D01*
Y53399D01*
X26434Y52866D01*
X89566Y71833D02*
X90100Y72366D01*
Y73432D01*
X89566Y73966D01*
X87434D01*
X86901Y73432D01*
Y72366D01*
X87434Y71833D01*
X86901Y70767D02*
Y69700D01*
Y70233D01*
X90100D01*
X89566Y70767D01*
X86901Y68101D02*
Y67035D01*
Y67568D01*
X90100D01*
X89566Y68101D01*
X41066Y62866D02*
X41600Y63399D01*
Y64465D01*
X41066Y64999D01*
X38934D01*
X38401Y64465D01*
Y63399D01*
X38934Y62866D01*
X38401Y61800D02*
Y60733D01*
Y61267D01*
X41600D01*
X41066Y61800D01*
Y59134D02*
X41600Y58601D01*
Y57534D01*
X41066Y57001D01*
X38934D01*
X38401Y57534D01*
Y58601D01*
X38934Y59134D01*
X41066D01*
X51566Y71033D02*
X52100Y71566D01*
Y72633D01*
X51566Y73166D01*
X49434D01*
X48900Y72633D01*
Y71566D01*
X49434Y71033D01*
Y69967D02*
X48900Y69434D01*
Y68367D01*
X49434Y67834D01*
X51566D01*
X52100Y68367D01*
Y69434D01*
X51566Y69967D01*
X51033D01*
X50500Y69434D01*
Y67834D01*
X79434Y9967D02*
X78900Y9434D01*
Y8367D01*
X79434Y7834D01*
X81566D01*
X82099Y8367D01*
Y9434D01*
X81566Y9967D01*
X79434Y11033D02*
X78900Y11566D01*
Y12633D01*
X79434Y13166D01*
X79967D01*
X80500Y12633D01*
X81033Y13166D01*
X81566D01*
X82099Y12633D01*
Y11566D01*
X81566Y11033D01*
X81033D01*
X80500Y11566D01*
X79967Y11033D01*
X79434D01*
X80500Y11566D02*
Y12633D01*
X85467Y43066D02*
X84934Y43600D01*
X83867D01*
X83334Y43066D01*
Y40934D01*
X83867Y40400D01*
X84934D01*
X85467Y40934D01*
X86533Y43600D02*
X88666D01*
Y43066D01*
X86533Y40934D01*
Y40400D01*
X25967Y30566D02*
X25434Y31100D01*
X24367D01*
X23834Y30566D01*
Y28434D01*
X24367Y27900D01*
X25434D01*
X25967Y28434D01*
X29166Y31100D02*
X28100Y30566D01*
X27033Y29500D01*
Y28434D01*
X27566Y27900D01*
X28633D01*
X29166Y28434D01*
Y28967D01*
X28633Y29500D01*
X27033D01*
X25967Y17566D02*
X25434Y18100D01*
X24367D01*
X23834Y17566D01*
Y15434D01*
X24367Y14900D01*
X25434D01*
X25967Y15434D01*
X29166Y18100D02*
X27033D01*
Y16500D01*
X28100Y17033D01*
X28633D01*
X29166Y16500D01*
Y15434D01*
X28633Y14900D01*
X27566D01*
X27033Y15434D01*
X54566Y95033D02*
X55099Y95566D01*
Y96633D01*
X54566Y97166D01*
X52434D01*
X51901Y96633D01*
Y95566D01*
X52434Y95033D01*
X51901Y92367D02*
X55099D01*
X53500Y93967D01*
Y91834D01*
X87066Y89033D02*
X87599Y89566D01*
Y90633D01*
X87066Y91166D01*
X84934D01*
X84400Y90633D01*
Y89566D01*
X84934Y89033D01*
X87066Y87967D02*
X87599Y87434D01*
Y86367D01*
X87066Y85834D01*
X86533D01*
X86000Y86367D01*
Y86901D01*
Y86367D01*
X85467Y85834D01*
X84934D01*
X84400Y86367D01*
Y87434D01*
X84934Y87967D01*
X157599Y53867D02*
X154401D01*
Y55467D01*
X154934Y56000D01*
X156000D01*
X156533Y55467D01*
Y53867D01*
X157599Y57066D02*
Y58133D01*
Y57600D01*
X154401D01*
X154934Y57066D01*
X159599Y8533D02*
Y9600D01*
Y9066D01*
X156934D01*
X156401Y9600D01*
Y10133D01*
X156934Y10666D01*
X156401Y5334D02*
Y7467D01*
X158533Y5334D01*
X159066D01*
X159599Y5867D01*
Y6934D01*
X159066Y7467D01*
X24867Y42099D02*
Y41566D01*
X25934Y40500D01*
X27000Y41566D01*
Y42099D01*
X25934Y40500D02*
Y38901D01*
X28066D02*
X29133D01*
X28600D01*
Y42099D01*
X28066Y41566D01*
X60334Y97100D02*
Y94434D01*
X60867Y93901D01*
X61934D01*
X62467Y94434D01*
Y97100D01*
X63533Y96566D02*
X64066Y97100D01*
X65133D01*
X65666Y96566D01*
Y96033D01*
X65133Y95500D01*
X64600D01*
X65133D01*
X65666Y94967D01*
Y94434D01*
X65133Y93901D01*
X64066D01*
X63533Y94434D01*
X76834Y71600D02*
Y68934D01*
X77367Y68401D01*
X78434D01*
X78967Y68934D01*
Y71600D01*
X82166Y68401D02*
X80033D01*
X82166Y70533D01*
Y71066D01*
X81633Y71600D01*
X80566D01*
X80033Y71066D01*
X83100Y24133D02*
X80434D01*
X79900Y23599D01*
Y22533D01*
X80434Y22000D01*
X83100D01*
X79900Y20934D02*
Y19867D01*
Y20401D01*
X83100D01*
X82566Y20934D01*
X5934Y73901D02*
X5401Y73367D01*
Y72301D01*
X5934Y71768D01*
X6467D01*
X7000Y72301D01*
Y73367D01*
X7533Y73901D01*
X8066D01*
X8600Y73367D01*
Y72301D01*
X8066Y71768D01*
X5401Y74967D02*
X8600D01*
X7533Y76033D01*
X8600Y77100D01*
X5401D01*
X8600Y78166D02*
Y79232D01*
Y78699D01*
X5401D01*
X5934Y78166D01*
X10334Y52400D02*
Y55599D01*
X11934D01*
X12467Y55066D01*
Y54000D01*
X11934Y53467D01*
X10334D01*
X11400D02*
X12467Y52400D01*
X15666Y55599D02*
X13533D01*
Y54000D01*
X14600Y54533D01*
X15133D01*
X15666Y54000D01*
Y52934D01*
X15133Y52400D01*
X14066D01*
X13533Y52934D01*
X30834Y93901D02*
Y97100D01*
X32434D01*
X32967Y96566D01*
Y95500D01*
X32434Y94967D01*
X30834D01*
X31901D02*
X32967Y93901D01*
X35633D02*
Y97100D01*
X34033Y95500D01*
X36166D01*
X60100Y66334D02*
X56901D01*
Y67934D01*
X57434Y68467D01*
X58500D01*
X59033Y67934D01*
Y66334D01*
Y67400D02*
X60100Y68467D01*
X57434Y69533D02*
X56901Y70066D01*
Y71133D01*
X57434Y71666D01*
X57967D01*
X58500Y71133D01*
Y70600D01*
Y71133D01*
X59033Y71666D01*
X59566D01*
X60100Y71133D01*
Y70066D01*
X59566Y69533D01*
X103401Y41666D02*
X106599D01*
Y40066D01*
X106066Y39533D01*
X105000D01*
X104467Y40066D01*
Y41666D01*
Y40600D02*
X103401Y39533D01*
Y36334D02*
Y38467D01*
X105533Y36334D01*
X106066D01*
X106599Y36867D01*
Y37934D01*
X106066Y38467D01*
X109400Y41133D02*
X112600D01*
Y39533D01*
X112066Y39000D01*
X111000D01*
X110467Y39533D01*
Y41133D01*
Y40066D02*
X109400Y39000D01*
Y37934D02*
Y36867D01*
Y37400D01*
X112600D01*
X112066Y37934D01*
X95500Y72900D02*
X96566D01*
X96033D01*
Y75566D01*
X96566Y76099D01*
X97100D01*
X97633Y75566D01*
X94434Y76099D02*
X93367D01*
X93901D01*
Y72900D01*
X94434Y73434D01*
X25901Y24100D02*
X23768D01*
Y22500D01*
X24834D01*
X23768D01*
Y20900D01*
X26967Y24100D02*
Y20900D01*
X29100D01*
X30166D02*
X31232D01*
X30699D01*
Y24100D01*
X30166Y23566D01*
X131566Y43099D02*
X132099Y43633D01*
Y44699D01*
X131566Y45232D01*
X129434D01*
X128901Y44699D01*
Y43633D01*
X129434Y43099D01*
X128901Y42033D02*
X132099D01*
Y40434D01*
X131566Y39900D01*
X130500D01*
X129967Y40434D01*
Y42033D01*
Y40967D02*
X128901Y39900D01*
Y38834D02*
Y37768D01*
Y38301D01*
X132099D01*
X131566Y38834D01*
X18467Y97066D02*
X17934Y97600D01*
X16867D01*
X16334Y97066D01*
Y94934D01*
X16867Y94401D01*
X17934D01*
X18467Y94934D01*
X21666Y94401D02*
X19533D01*
X21666Y96533D01*
Y97066D01*
X21133Y97600D01*
X20066D01*
X19533Y97066D01*
X62434Y10500D02*
X61901Y9967D01*
Y8901D01*
X62434Y8367D01*
X64566D01*
X65100Y8901D01*
Y9967D01*
X64566Y10500D01*
X65100Y11566D02*
Y12633D01*
Y12100D01*
X61901D01*
X62434Y11566D01*
M02*
