G04*
G04 #@! TF.GenerationSoftware,Altium Limited,Altium Designer,22.11.1 (43)*
G04*
G04 Layer_Color=8388736*
%FSLAX25Y25*%
%MOIN*%
G70*
G04*
G04 #@! TF.SameCoordinates,A18BC286-AB2E-4323-AA0E-794CC3FCAC91*
G04*
G04*
G04 #@! TF.FilePolarity,Negative*
G04*
G01*
G75*
%ADD18O,0.01575X0.04528*%
%ADD19O,0.04528X0.01575*%
%ADD20R,0.03937X0.03937*%
%ADD21R,0.03543X0.02559*%
%ADD22R,0.02410X0.07107*%
%ADD23R,0.02559X0.03543*%
%ADD24R,0.01260X0.02165*%
%ADD25R,0.03150X0.01260*%
%ADD26R,0.03750X0.02200*%
%ADD27R,0.03150X0.03543*%
%ADD28R,0.05118X0.02756*%
%ADD29R,0.01400X0.02900*%
%ADD30R,0.02756X0.05118*%
%ADD31R,0.03543X0.03150*%
%ADD32R,0.12402X0.08858*%
%ADD33R,0.06890X0.03740*%
%ADD34R,0.01772X0.05315*%
%ADD35R,0.11221X0.12402*%
%ADD36R,0.22638X0.22638*%
%ADD37R,0.04528X0.04410*%
%ADD38R,0.03937X0.02756*%
%ADD39R,0.03740X0.04134*%
%ADD40R,0.09173X0.08465*%
%ADD41R,0.01772X0.05118*%
%ADD42R,0.02953X0.05118*%
%ADD43R,0.04600X0.01800*%
%ADD44C,0.12402*%
%ADD45C,0.03150*%
D18*
X81858Y69980D02*
D03*
X79890D02*
D03*
X77921D02*
D03*
X75953D02*
D03*
X73984D02*
D03*
X62173D02*
D03*
X64142D02*
D03*
X66110D02*
D03*
X68079D02*
D03*
X70047D02*
D03*
X72016D02*
D03*
X83827D02*
D03*
Y42421D02*
D03*
X81858D02*
D03*
X79890D02*
D03*
X77921D02*
D03*
X75953D02*
D03*
X73984D02*
D03*
X72016D02*
D03*
X70047D02*
D03*
X68079D02*
D03*
X66110D02*
D03*
X64142D02*
D03*
X62173D02*
D03*
D19*
X59220Y47342D02*
D03*
X86779Y67027D02*
D03*
Y65058D02*
D03*
Y63090D02*
D03*
Y61121D02*
D03*
Y59153D02*
D03*
Y57184D02*
D03*
Y55216D02*
D03*
Y53247D02*
D03*
Y51279D02*
D03*
Y49310D02*
D03*
Y47342D02*
D03*
Y45373D02*
D03*
X59220D02*
D03*
Y49310D02*
D03*
Y51279D02*
D03*
Y53247D02*
D03*
Y55216D02*
D03*
Y57184D02*
D03*
Y59153D02*
D03*
Y61121D02*
D03*
Y63090D02*
D03*
Y65058D02*
D03*
Y67027D02*
D03*
D20*
X43900Y87457D02*
D03*
Y94543D02*
D03*
D21*
X72100Y13754D02*
D03*
Y8046D02*
D03*
X66700Y13754D02*
D03*
Y8046D02*
D03*
X61200D02*
D03*
Y13754D02*
D03*
D22*
X37640Y72070D02*
D03*
X30160D02*
D03*
Y81129D02*
D03*
X33900D02*
D03*
X37640D02*
D03*
D23*
X145554Y61900D02*
D03*
X139846D02*
D03*
X145554Y67200D02*
D03*
X139846D02*
D03*
X76354Y82800D02*
D03*
X70646D02*
D03*
X145554Y72500D02*
D03*
X139846D02*
D03*
D24*
X134962Y61546D02*
D03*
X133387D02*
D03*
X131813D02*
D03*
X130238D02*
D03*
X134962Y67254D02*
D03*
X133387D02*
D03*
X131813D02*
D03*
X130238D02*
D03*
D25*
X134962Y63613D02*
D03*
Y65187D02*
D03*
X130238Y63613D02*
D03*
Y65187D02*
D03*
D26*
X151475Y76540D02*
D03*
Y72800D02*
D03*
Y69060D02*
D03*
X161925D02*
D03*
Y72800D02*
D03*
Y76540D02*
D03*
D27*
X130800Y55900D02*
D03*
X136706D02*
D03*
X50753Y51100D02*
D03*
X44847D02*
D03*
X44747Y38400D02*
D03*
X50653D02*
D03*
X63753Y89800D02*
D03*
X57847D02*
D03*
X93747Y67100D02*
D03*
X99653D02*
D03*
D28*
X169300Y68960D02*
D03*
Y76440D02*
D03*
D29*
X119659Y62700D02*
D03*
X117100D02*
D03*
X114541D02*
D03*
Y70900D02*
D03*
X117100D02*
D03*
X119659D02*
D03*
D30*
X37640Y64100D02*
D03*
X30160D02*
D03*
X37640Y89500D02*
D03*
X30160D02*
D03*
D31*
X49800Y74247D02*
D03*
Y80153D02*
D03*
X56400Y76947D02*
D03*
Y82853D02*
D03*
X63000Y76947D02*
D03*
Y82853D02*
D03*
X84800Y35453D02*
D03*
Y29547D02*
D03*
X61200Y19347D02*
D03*
Y25253D02*
D03*
X78500Y29747D02*
D03*
Y35653D02*
D03*
D32*
X167709Y60000D02*
D03*
Y35000D02*
D03*
D33*
X156291Y49961D02*
D03*
Y45039D02*
D03*
D34*
X133295Y19079D02*
D03*
X131327D02*
D03*
X129358D02*
D03*
X127390D02*
D03*
X125421D02*
D03*
X123453D02*
D03*
X117547D02*
D03*
X115579D02*
D03*
X109673D02*
D03*
X107705D02*
D03*
X105736D02*
D03*
X103768D02*
D03*
X101799D02*
D03*
X111642D02*
D03*
X113610D02*
D03*
X119516D02*
D03*
X121484D02*
D03*
X135264D02*
D03*
X137232D02*
D03*
X139201D02*
D03*
D35*
X94201Y11756D02*
D03*
X146799D02*
D03*
D36*
X73000Y56200D02*
D03*
D37*
X44906Y44800D02*
D03*
X50694D02*
D03*
D38*
X31489Y23983D02*
D03*
X55111D02*
D03*
X31489Y9416D02*
D03*
X55111D02*
D03*
D39*
X45946Y67642D02*
D03*
Y60358D02*
D03*
X51654D02*
D03*
Y67642D02*
D03*
D40*
X98882Y99004D02*
D03*
X139118D02*
D03*
X98882Y83531D02*
D03*
X139118D02*
D03*
D41*
X118016Y81268D02*
D03*
X119984D02*
D03*
X116047D02*
D03*
X121953D02*
D03*
X114079D02*
D03*
X123921D02*
D03*
X112110D02*
D03*
X125890D02*
D03*
D42*
X106402D02*
D03*
X109551D02*
D03*
X128449D02*
D03*
X131598D02*
D03*
D43*
X69650Y92759D02*
D03*
Y87641D02*
D03*
X77350Y90200D02*
D03*
D44*
X12500Y37000D02*
D03*
X165000Y17500D02*
D03*
D45*
X107622Y85500D02*
D03*
X130378D02*
D03*
M02*
