G04*
G04 #@! TF.GenerationSoftware,Altium Limited,Altium Designer,22.10.1 (41)*
G04*
G04 Layer_Color=8388736*
%FSLAX25Y25*%
%MOIN*%
G70*
G04*
G04 #@! TF.SameCoordinates,BCF9BF11-B90B-48D3-9820-12A764DB1872*
G04*
G04*
G04 #@! TF.FilePolarity,Negative*
G04*
G01*
G75*
%ADD17R,0.03543X0.02559*%
%ADD18R,0.02165X0.01260*%
%ADD19R,0.01260X0.03150*%
%ADD20R,0.03750X0.02200*%
%ADD21R,0.03543X0.03150*%
%ADD22R,0.02756X0.05118*%
%ADD23R,0.01400X0.02900*%
%ADD24R,0.05118X0.02756*%
%ADD25R,0.03150X0.03543*%
%ADD26R,0.12402X0.08858*%
%ADD27R,0.06890X0.03740*%
%ADD28R,0.01772X0.05315*%
%ADD29R,0.11221X0.12402*%
%ADD30R,0.22638X0.22638*%
%ADD31O,0.01575X0.04528*%
%ADD32O,0.04528X0.01575*%
%ADD33R,0.04528X0.04410*%
%ADD34R,0.02559X0.03543*%
%ADD35R,0.03937X0.02756*%
%ADD36R,0.04134X0.03740*%
%ADD37R,0.09173X0.08465*%
%ADD38R,0.01772X0.05118*%
%ADD39R,0.02953X0.05118*%
%ADD40R,0.07107X0.02410*%
%ADD41R,0.04600X0.01800*%
%ADD42C,0.12402*%
%ADD43C,0.03150*%
D17*
X105000Y46146D02*
D03*
Y51854D02*
D03*
X99000Y45921D02*
D03*
Y51629D02*
D03*
X58500Y63354D02*
D03*
Y57646D02*
D03*
X110500Y45921D02*
D03*
Y51629D02*
D03*
D18*
X99146Y59138D02*
D03*
Y60713D02*
D03*
Y62287D02*
D03*
Y63862D02*
D03*
X104854Y59138D02*
D03*
Y60713D02*
D03*
Y62287D02*
D03*
Y63862D02*
D03*
D19*
X101213Y59138D02*
D03*
X102787D02*
D03*
X101213Y63862D02*
D03*
X102787D02*
D03*
D20*
X147000Y42760D02*
D03*
Y46500D02*
D03*
Y50240D02*
D03*
X136550D02*
D03*
Y46500D02*
D03*
Y42760D02*
D03*
D21*
X110500Y63953D02*
D03*
Y58047D02*
D03*
X33000Y47547D02*
D03*
Y53453D02*
D03*
X88646Y61548D02*
D03*
Y55643D02*
D03*
X40000Y47547D02*
D03*
Y53453D02*
D03*
X50500Y58500D02*
D03*
Y64406D02*
D03*
X75000Y15953D02*
D03*
Y10047D02*
D03*
X68500D02*
D03*
Y15953D02*
D03*
D22*
X136760Y35000D02*
D03*
X144240D02*
D03*
D23*
X123559Y36900D02*
D03*
X121000D02*
D03*
X118441D02*
D03*
Y45100D02*
D03*
X121000D02*
D03*
X123559D02*
D03*
D24*
X53500Y80760D02*
D03*
Y88240D02*
D03*
X79500Y80760D02*
D03*
Y88240D02*
D03*
D25*
X40453Y29000D02*
D03*
X34547D02*
D03*
Y16000D02*
D03*
X40453D02*
D03*
X83047Y48000D02*
D03*
X88953D02*
D03*
X17953Y90500D02*
D03*
X12047D02*
D03*
D26*
X167709Y60000D02*
D03*
Y35000D02*
D03*
D27*
X156291Y49961D02*
D03*
Y45039D02*
D03*
D28*
X133295Y19079D02*
D03*
X131327D02*
D03*
X129358D02*
D03*
X127390D02*
D03*
X125421D02*
D03*
X123453D02*
D03*
X117547D02*
D03*
X115579D02*
D03*
X109673D02*
D03*
X107705D02*
D03*
X105736D02*
D03*
X103768D02*
D03*
X101799D02*
D03*
X111642D02*
D03*
X113610D02*
D03*
X119516D02*
D03*
X121484D02*
D03*
X135264D02*
D03*
X137232D02*
D03*
X139201D02*
D03*
D29*
X94201Y11756D02*
D03*
X146799D02*
D03*
D30*
X61500Y37000D02*
D03*
D31*
X50673Y50779D02*
D03*
X52642D02*
D03*
X54610D02*
D03*
X56579D02*
D03*
X58547D02*
D03*
X60516D02*
D03*
X62484D02*
D03*
X64453D02*
D03*
X66421D02*
D03*
X68390D02*
D03*
X70358D02*
D03*
X72327D02*
D03*
Y23221D02*
D03*
X70358D02*
D03*
X68390D02*
D03*
X66421D02*
D03*
X64453D02*
D03*
X62484D02*
D03*
X60516D02*
D03*
X58547D02*
D03*
X56579D02*
D03*
X54610D02*
D03*
X52642D02*
D03*
X50673D02*
D03*
D32*
X75279Y47827D02*
D03*
Y45858D02*
D03*
Y43890D02*
D03*
Y41921D02*
D03*
Y39953D02*
D03*
Y37984D02*
D03*
Y36016D02*
D03*
Y34047D02*
D03*
Y32079D02*
D03*
Y30110D02*
D03*
Y28142D02*
D03*
Y26173D02*
D03*
X47721D02*
D03*
Y28142D02*
D03*
Y30110D02*
D03*
Y32079D02*
D03*
Y34047D02*
D03*
Y36016D02*
D03*
Y37984D02*
D03*
Y39953D02*
D03*
Y41921D02*
D03*
Y43890D02*
D03*
Y45858D02*
D03*
Y47827D02*
D03*
D33*
X34606Y22500D02*
D03*
X40394D02*
D03*
D34*
X30646Y90000D02*
D03*
X36354D02*
D03*
X12146Y59500D02*
D03*
X17854D02*
D03*
D35*
X12189Y82284D02*
D03*
X35811D02*
D03*
X12189Y67716D02*
D03*
X35811D02*
D03*
D36*
X33358Y35646D02*
D03*
X40642D02*
D03*
Y41354D02*
D03*
X33358D02*
D03*
D37*
X98882Y99004D02*
D03*
X139118D02*
D03*
X98882Y83531D02*
D03*
X139118D02*
D03*
D38*
X118016Y81268D02*
D03*
X119984D02*
D03*
X116047D02*
D03*
X121953D02*
D03*
X114079D02*
D03*
X123921D02*
D03*
X112110D02*
D03*
X125890D02*
D03*
D39*
X106402D02*
D03*
X109551D02*
D03*
X128449D02*
D03*
X131598D02*
D03*
D40*
X71030Y80760D02*
D03*
Y84500D02*
D03*
Y88240D02*
D03*
X61971D02*
D03*
Y80760D02*
D03*
D41*
X74296Y64155D02*
D03*
Y59037D02*
D03*
X81996Y61596D02*
D03*
D42*
X12500Y37000D02*
D03*
X165000Y17500D02*
D03*
D43*
X107622Y85500D02*
D03*
X130378D02*
D03*
M02*
