G04*
G04 #@! TF.GenerationSoftware,Altium Limited,Altium Designer,22.10.1 (41)*
G04*
G04 Layer_Physical_Order=3*
G04 Layer_Color=10964583*
%FSLAX25Y25*%
%MOIN*%
G70*
G04*
G04 #@! TF.SameCoordinates,DBBC4521-4BFC-45EA-AE5A-10506F5F6C22*
G04*
G04*
G04 #@! TF.FilePolarity,Positive*
G04*
G01*
G75*
%ADD58C,0.00649*%
%ADD65C,0.01772*%
%ADD66C,0.01968*%
%ADD67C,0.00529*%
G36*
X174980Y1519D02*
X25922D01*
X1020Y26422D01*
Y103981D01*
X174980D01*
Y1519D01*
D02*
G37*
%LPC*%
G36*
X71296Y92986D02*
X70704D01*
X70158Y92760D01*
X69740Y92342D01*
X69514Y91796D01*
Y91204D01*
X69740Y90658D01*
X70158Y90240D01*
X70704Y90014D01*
X71296D01*
X71842Y90240D01*
X72260Y90658D01*
X72486Y91204D01*
Y91796D01*
X72260Y92342D01*
X71842Y92760D01*
X71296Y92986D01*
D02*
G37*
G36*
X130828Y87764D02*
X129928D01*
X129096Y87419D01*
X128459Y86782D01*
X128114Y85950D01*
Y85050D01*
X128459Y84218D01*
X129096Y83581D01*
X129928Y83236D01*
X130828D01*
X131660Y83581D01*
X132297Y84218D01*
X132642Y85050D01*
Y85950D01*
X132297Y86782D01*
X131660Y87419D01*
X130828Y87764D01*
D02*
G37*
G36*
X108072D02*
X107172D01*
X106340Y87419D01*
X105703Y86782D01*
X105358Y85950D01*
Y85050D01*
X105703Y84218D01*
X106340Y83581D01*
X107172Y83236D01*
X108072D01*
X108904Y83581D01*
X109541Y84218D01*
X109886Y85050D01*
Y85950D01*
X109541Y86782D01*
X108904Y87419D01*
X108072Y87764D01*
D02*
G37*
G36*
X71296Y78986D02*
X70704D01*
X70158Y78760D01*
X69740Y78342D01*
X69514Y77796D01*
Y77204D01*
X69740Y76658D01*
X70158Y76240D01*
X70704Y76014D01*
X71296D01*
X71842Y76240D01*
X72260Y76658D01*
X72486Y77204D01*
Y77796D01*
X72260Y78342D01*
X71842Y78760D01*
X71296Y78986D01*
D02*
G37*
G36*
X128796Y77986D02*
X128204D01*
X127658Y77760D01*
X127240Y77342D01*
X127014Y76796D01*
Y76204D01*
X127240Y75658D01*
X127658Y75240D01*
X128204Y75014D01*
X128796D01*
X129342Y75240D01*
X129760Y75658D01*
X129986Y76204D01*
Y76796D01*
X129760Y77342D01*
X129342Y77760D01*
X128796Y77986D01*
D02*
G37*
G36*
X109796D02*
X109204D01*
X108658Y77760D01*
X108240Y77342D01*
X108014Y76796D01*
Y76204D01*
X108240Y75658D01*
X108658Y75240D01*
X109204Y75014D01*
X109796D01*
X110342Y75240D01*
X110760Y75658D01*
X110986Y76204D01*
Y76796D01*
X110760Y77342D01*
X110342Y77760D01*
X109796Y77986D01*
D02*
G37*
G36*
X112296Y71486D02*
X111704D01*
X111158Y71260D01*
X110841Y70943D01*
X101000D01*
X100639Y70871D01*
X100333Y70666D01*
X100333Y70666D01*
X98653Y68986D01*
X98204D01*
X97658Y68760D01*
X97240Y68342D01*
X97014Y67796D01*
Y67204D01*
X97240Y66658D01*
X97658Y66240D01*
X98204Y66014D01*
X98796D01*
X99342Y66240D01*
X99760Y66658D01*
X99986Y67204D01*
Y67653D01*
X101390Y69057D01*
X104249D01*
X104456Y68557D01*
X104240Y68342D01*
X104014Y67796D01*
Y67204D01*
X104240Y66658D01*
X104658Y66240D01*
X105204Y66014D01*
X105796D01*
X106342Y66240D01*
X106659Y66557D01*
X124341D01*
X124658Y66240D01*
X125204Y66014D01*
X125796D01*
X126342Y66240D01*
X126760Y66658D01*
X126986Y67204D01*
Y67796D01*
X126760Y68342D01*
X126342Y68760D01*
X125796Y68986D01*
X125204D01*
X124658Y68760D01*
X124341Y68443D01*
X113251D01*
X113044Y68943D01*
X113260Y69158D01*
X113486Y69704D01*
Y70296D01*
X113260Y70842D01*
X112842Y71260D01*
X112296Y71486D01*
D02*
G37*
G36*
X114796Y65486D02*
X114204D01*
X113658Y65260D01*
X113240Y64842D01*
X113014Y64296D01*
Y63704D01*
X113240Y63158D01*
X113658Y62740D01*
X114204Y62514D01*
X114796D01*
X115342Y62740D01*
X115760Y63158D01*
X115986Y63704D01*
Y64296D01*
X115760Y64842D01*
X115342Y65260D01*
X114796Y65486D01*
D02*
G37*
G36*
X95311Y63880D02*
X94720D01*
X94174Y63653D01*
X93756Y63235D01*
X93529Y62689D01*
Y62098D01*
X93756Y61552D01*
X94174Y61134D01*
X94720Y60908D01*
X95311D01*
X95857Y61134D01*
X96275Y61552D01*
X96501Y62098D01*
Y62689D01*
X96275Y63235D01*
X95857Y63653D01*
X95311Y63880D01*
D02*
G37*
G36*
X45796Y59986D02*
X45204D01*
X44658Y59760D01*
X44240Y59342D01*
X44014Y58796D01*
Y58204D01*
X44240Y57658D01*
X44658Y57240D01*
X45204Y57014D01*
X45796D01*
X46342Y57240D01*
X46760Y57658D01*
X46986Y58204D01*
Y58796D01*
X46760Y59342D01*
X46342Y59760D01*
X45796Y59986D01*
D02*
G37*
G36*
X150796Y51726D02*
X150204D01*
X149658Y51500D01*
X149240Y51082D01*
X149014Y50536D01*
Y49945D01*
X149240Y49398D01*
X149658Y48981D01*
X150204Y48754D01*
X150796D01*
X151342Y48981D01*
X151760Y49398D01*
X151986Y49945D01*
Y50536D01*
X151760Y51082D01*
X151342Y51500D01*
X150796Y51726D01*
D02*
G37*
G36*
X128796Y51486D02*
X128204D01*
X127658Y51260D01*
X127240Y50842D01*
X127014Y50296D01*
Y49705D01*
X127240Y49158D01*
X127658Y48740D01*
X128204Y48514D01*
X128796D01*
X129342Y48740D01*
X129760Y49158D01*
X129986Y49705D01*
Y50296D01*
X129760Y50842D01*
X129342Y51260D01*
X128796Y51486D01*
D02*
G37*
G36*
X143296Y47986D02*
X142704D01*
X142158Y47760D01*
X141740Y47342D01*
X141695Y47231D01*
X115305D01*
X115260Y47342D01*
X114842Y47760D01*
X114296Y47986D01*
X113704D01*
X113158Y47760D01*
X112740Y47342D01*
X112514Y46795D01*
Y46205D01*
X112740Y45658D01*
X113158Y45240D01*
X113704Y45014D01*
X114296D01*
X114842Y45240D01*
X115069Y45468D01*
X141931D01*
X142158Y45240D01*
X142704Y45014D01*
X143296D01*
X143842Y45240D01*
X144260Y45658D01*
X144486Y46205D01*
Y46795D01*
X144260Y47342D01*
X143842Y47760D01*
X143296Y47986D01*
D02*
G37*
G36*
X128796Y44486D02*
X128204D01*
X127658Y44260D01*
X127240Y43842D01*
X127014Y43295D01*
Y42704D01*
X127240Y42158D01*
X127658Y41740D01*
X128204Y41514D01*
X128796D01*
X129342Y41740D01*
X129760Y42158D01*
X129986Y42704D01*
Y43295D01*
X129760Y43842D01*
X129342Y44260D01*
X128796Y44486D01*
D02*
G37*
G36*
X25296Y91986D02*
X24704D01*
X24158Y91760D01*
X23740Y91342D01*
X23514Y90796D01*
Y90347D01*
X17333Y84167D01*
X17129Y83861D01*
X17057Y83500D01*
Y56159D01*
X16740Y55842D01*
X16514Y55296D01*
Y54704D01*
X16740Y54158D01*
X17158Y53740D01*
X17704Y53514D01*
X18153D01*
X36333Y35333D01*
X36639Y35129D01*
X37000Y35057D01*
X37000Y35057D01*
X43341D01*
X43658Y34740D01*
X44205Y34514D01*
X44796D01*
X45342Y34740D01*
X45760Y35158D01*
X45986Y35704D01*
Y36296D01*
X45760Y36842D01*
X45342Y37260D01*
X44796Y37486D01*
X44205D01*
X43658Y37260D01*
X43341Y36943D01*
X37391D01*
X28819Y45514D01*
X29026Y46014D01*
X29296D01*
X29842Y46240D01*
X30260Y46658D01*
X30486Y47205D01*
Y47796D01*
X30260Y48342D01*
X29842Y48760D01*
X29296Y48986D01*
X28705D01*
X28158Y48760D01*
X27740Y48342D01*
X27514Y47796D01*
Y47526D01*
X27014Y47319D01*
X19486Y54847D01*
Y55296D01*
X19260Y55842D01*
X18943Y56159D01*
Y83109D01*
X24847Y89014D01*
X25296D01*
X25842Y89240D01*
X26260Y89658D01*
X26486Y90204D01*
Y90796D01*
X26260Y91342D01*
X25842Y91760D01*
X25296Y91986D01*
D02*
G37*
G36*
X13179Y43890D02*
X11821D01*
X10490Y43625D01*
X9236Y43106D01*
X8108Y42352D01*
X7148Y41392D01*
X6394Y40264D01*
X5875Y39010D01*
X5610Y37679D01*
Y36321D01*
X5875Y34990D01*
X6394Y33737D01*
X7148Y32608D01*
X8108Y31648D01*
X9236Y30894D01*
X10490Y30375D01*
X11821Y30110D01*
X13179D01*
X14510Y30375D01*
X15764Y30894D01*
X16892Y31648D01*
X17852Y32608D01*
X18606Y33737D01*
X19125Y34990D01*
X19390Y36321D01*
Y37679D01*
X19125Y39010D01*
X18606Y40264D01*
X17852Y41392D01*
X16892Y42352D01*
X15764Y43106D01*
X14510Y43625D01*
X13179Y43890D01*
D02*
G37*
G36*
X29296Y24486D02*
X28705D01*
X28158Y24260D01*
X27740Y23842D01*
X27514Y23296D01*
Y22704D01*
X27740Y22158D01*
X28158Y21740D01*
X28705Y21514D01*
X29296D01*
X29842Y21740D01*
X30260Y22158D01*
X30486Y22704D01*
Y23296D01*
X30260Y23842D01*
X29842Y24260D01*
X29296Y24486D01*
D02*
G37*
G36*
X65890Y62251D02*
X65529Y62179D01*
X65223Y61975D01*
X65223Y61975D01*
X61834Y58585D01*
X61629Y58280D01*
X61557Y57919D01*
Y56659D01*
X61240Y56342D01*
X61014Y55796D01*
Y55204D01*
X61240Y54658D01*
X61658Y54240D01*
X62204Y54014D01*
X62796D01*
X63342Y54240D01*
X63760Y54658D01*
X63986Y55204D01*
Y55563D01*
X64133Y55867D01*
X64397Y55995D01*
X64887Y55826D01*
X65014Y55563D01*
Y55204D01*
X65240Y54658D01*
X65658Y54240D01*
X66204Y54014D01*
X66796D01*
X67342Y54240D01*
X67760Y54658D01*
X67986Y55204D01*
Y55563D01*
X68113Y55826D01*
X68500Y55959D01*
X68887Y55826D01*
X69014Y55563D01*
Y55204D01*
X69240Y54658D01*
X69658Y54240D01*
X70204Y54014D01*
X70796D01*
X71342Y54240D01*
X71659Y54557D01*
X75109D01*
X75870Y53797D01*
X75772Y53307D01*
X75658Y53260D01*
X75240Y52842D01*
X75014Y52296D01*
Y51704D01*
X75240Y51158D01*
X75658Y50740D01*
X76204Y50514D01*
X76796D01*
X77342Y50740D01*
X77760Y51158D01*
X77807Y51272D01*
X78297Y51370D01*
X114291Y15376D01*
X114007Y14952D01*
X113927Y14986D01*
X113336D01*
X112789Y14760D01*
X112372Y14342D01*
X112145Y13796D01*
Y13382D01*
X111871Y13071D01*
X111695Y12986D01*
X111436D01*
X111133Y13133D01*
X110986Y13437D01*
Y13796D01*
X110760Y14342D01*
X110443Y14659D01*
Y17500D01*
X110371Y17861D01*
X110167Y18167D01*
X102667Y25667D01*
X102361Y25871D01*
X102000Y25943D01*
X59000D01*
X58639Y25871D01*
X58333Y25667D01*
X53834Y21167D01*
X53629Y20861D01*
X53557Y20500D01*
Y19159D01*
X53240Y18842D01*
X53014Y18296D01*
Y17936D01*
X52867Y17633D01*
X52564Y17486D01*
X52437D01*
X52133Y17633D01*
X51986Y17936D01*
Y18296D01*
X51760Y18842D01*
X51342Y19260D01*
X50796Y19486D01*
X50204D01*
X49658Y19260D01*
X49240Y18842D01*
X49014Y18296D01*
Y17704D01*
X49240Y17158D01*
X49557Y16841D01*
Y14500D01*
X49629Y14139D01*
X49833Y13833D01*
X57383Y6284D01*
X57229Y5731D01*
X57128Y5705D01*
X48443Y14390D01*
Y19841D01*
X48760Y20158D01*
X48986Y20704D01*
Y21296D01*
X48760Y21842D01*
X48342Y22260D01*
X47796Y22486D01*
X47205D01*
X46658Y22260D01*
X46240Y21842D01*
X46014Y21296D01*
Y20704D01*
X46240Y20158D01*
X46557Y19841D01*
Y14000D01*
X46629Y13639D01*
X46833Y13333D01*
X56334Y3833D01*
X56639Y3629D01*
X57000Y3557D01*
X110484D01*
X110844Y3629D01*
X111150Y3833D01*
X116167Y8850D01*
X116371Y9156D01*
X116443Y9516D01*
Y10341D01*
X116760Y10658D01*
X116986Y11204D01*
Y11564D01*
X117113Y11826D01*
X117603Y11995D01*
X117867Y11867D01*
X118014Y11564D01*
Y11204D01*
X118240Y10658D01*
X118658Y10240D01*
X119204Y10014D01*
X119796D01*
X120342Y10240D01*
X120760Y10658D01*
X120986Y11204D01*
Y11564D01*
X121113Y11826D01*
X121603Y11995D01*
X121867Y11867D01*
X122014Y11564D01*
Y11204D01*
X122240Y10658D01*
X122658Y10240D01*
X123204Y10014D01*
X123796D01*
X124342Y10240D01*
X124760Y10658D01*
X124986Y11204D01*
Y11564D01*
X125133Y11867D01*
X125436Y12014D01*
X125796D01*
X126342Y12240D01*
X126760Y12658D01*
X126986Y13204D01*
Y13796D01*
X126760Y14342D01*
X126443Y14659D01*
Y17500D01*
X126371Y17861D01*
X126167Y18167D01*
X126166Y18167D01*
X82358Y61975D01*
X82052Y62179D01*
X81691Y62251D01*
X65890D01*
X65890Y62251D01*
D02*
G37*
G36*
X165679Y24390D02*
X164321D01*
X162990Y24125D01*
X161737Y23606D01*
X160608Y22852D01*
X159648Y21892D01*
X158894Y20764D01*
X158375Y19510D01*
X158110Y18179D01*
Y16821D01*
X158375Y15490D01*
X158894Y14236D01*
X159648Y13108D01*
X160608Y12148D01*
X161737Y11394D01*
X162990Y10875D01*
X164321Y10610D01*
X165679D01*
X167010Y10875D01*
X168263Y11394D01*
X169392Y12148D01*
X170352Y13108D01*
X171106Y14236D01*
X171625Y15490D01*
X171890Y16821D01*
Y18179D01*
X171625Y19510D01*
X171106Y20764D01*
X170352Y21892D01*
X169392Y22852D01*
X168263Y23606D01*
X167010Y24125D01*
X165679Y24390D01*
D02*
G37*
%LPD*%
G36*
X69192Y58064D02*
X69254Y58014D01*
X69319Y57969D01*
X69387Y57931D01*
X69458Y57898D01*
X69532Y57872D01*
X69609Y57851D01*
X69688Y57836D01*
X69770Y57828D01*
X69856Y57824D01*
Y57175D01*
X69770Y57173D01*
X69688Y57164D01*
X69609Y57149D01*
X69532Y57128D01*
X69458Y57102D01*
X69387Y57069D01*
X69319Y57031D01*
X69254Y56986D01*
X69192Y56936D01*
X69133Y56880D01*
Y58120D01*
X69192Y58064D01*
D02*
G37*
G36*
X66827Y56770D02*
X66836Y56688D01*
X66851Y56609D01*
X66872Y56532D01*
X66898Y56458D01*
X66931Y56387D01*
X66969Y56319D01*
X67014Y56254D01*
X67064Y56192D01*
X67120Y56133D01*
X65880D01*
X65936Y56192D01*
X65986Y56254D01*
X66031Y56319D01*
X66069Y56387D01*
X66102Y56458D01*
X66128Y56532D01*
X66149Y56609D01*
X66164Y56688D01*
X66172Y56770D01*
X66176Y56856D01*
X66825D01*
X66827Y56770D01*
D02*
G37*
G36*
X59688Y18729D02*
X59630Y18667D01*
X59578Y18602D01*
X59532Y18536D01*
X59493Y18467D01*
X59459Y18396D01*
X59432Y18323D01*
X59411Y18248D01*
X59397Y18170D01*
X59388Y18090D01*
X59386Y18009D01*
X58509Y18886D01*
X58591Y18888D01*
X58670Y18896D01*
X58748Y18911D01*
X58823Y18932D01*
X58896Y18959D01*
X58967Y18993D01*
X59036Y19032D01*
X59102Y19078D01*
X59167Y19130D01*
X59229Y19188D01*
X59688Y18729D01*
D02*
G37*
G36*
X56827Y17270D02*
X56836Y17188D01*
X56851Y17109D01*
X56872Y17032D01*
X56898Y16958D01*
X56931Y16887D01*
X56969Y16819D01*
X57014Y16754D01*
X57064Y16692D01*
X57120Y16633D01*
X55880D01*
X55936Y16692D01*
X55986Y16754D01*
X56031Y16819D01*
X56069Y16887D01*
X56102Y16958D01*
X56128Y17032D01*
X56149Y17109D01*
X56164Y17188D01*
X56173Y17270D01*
X56176Y17356D01*
X56824D01*
X56827Y17270D01*
D02*
G37*
G36*
X102883Y15283D02*
X102600Y14860D01*
X102296Y14986D01*
X101704D01*
X101158Y14760D01*
X100841Y14443D01*
X67391D01*
X63986Y17847D01*
Y18296D01*
X63778Y18798D01*
X63856Y19017D01*
X64011Y19298D01*
X98869D01*
X102883Y15283D01*
D02*
G37*
G36*
X53388Y15910D02*
X53397Y15830D01*
X53411Y15753D01*
X53432Y15677D01*
X53459Y15604D01*
X53493Y15533D01*
X53532Y15464D01*
X53578Y15398D01*
X53630Y15333D01*
X53688Y15271D01*
X53229Y14812D01*
X53167Y14870D01*
X53102Y14922D01*
X53036Y14968D01*
X52967Y15007D01*
X52896Y15041D01*
X52823Y15068D01*
X52747Y15089D01*
X52670Y15103D01*
X52591Y15112D01*
X52509Y15114D01*
X53386Y15991D01*
X53388Y15910D01*
D02*
G37*
G36*
X58867Y16367D02*
X59014Y16063D01*
Y15704D01*
X59240Y15158D01*
X59658Y14740D01*
X60204Y14514D01*
X60653D01*
X64333Y10834D01*
X64639Y10629D01*
X65000Y10557D01*
X102841D01*
X103158Y10240D01*
X103704Y10014D01*
X104296D01*
X104842Y10240D01*
X105260Y10658D01*
X105486Y11204D01*
Y11564D01*
X105489Y11570D01*
X106090Y11770D01*
X106225Y11695D01*
X106225Y11204D01*
X106451Y10658D01*
X106869Y10240D01*
X107415Y10014D01*
X107511D01*
X107783Y9514D01*
X107737Y9443D01*
X60391D01*
X55617Y14217D01*
X55900Y14640D01*
X56204Y14514D01*
X56796D01*
X57342Y14740D01*
X57760Y15158D01*
X57986Y15704D01*
Y16063D01*
X58113Y16326D01*
X58603Y16495D01*
X58867Y16367D01*
D02*
G37*
G36*
X121827Y14771D02*
X121836Y14688D01*
X121851Y14609D01*
X121872Y14532D01*
X121898Y14458D01*
X121931Y14387D01*
X121969Y14319D01*
X122014Y14254D01*
X122064Y14192D01*
X122120Y14133D01*
X120880D01*
X120936Y14192D01*
X120986Y14254D01*
X121031Y14319D01*
X121069Y14387D01*
X121102Y14458D01*
X121128Y14532D01*
X121149Y14609D01*
X121164Y14688D01*
X121172Y14771D01*
X121176Y14856D01*
X121825D01*
X121827Y14771D01*
D02*
G37*
G36*
X116833Y14630D02*
X116898Y14578D01*
X116964Y14532D01*
X117033Y14493D01*
X117104Y14459D01*
X117177Y14432D01*
X117253Y14411D01*
X117330Y14397D01*
X117409Y14388D01*
X117491Y14386D01*
X116614Y13509D01*
X116612Y13590D01*
X116603Y13670D01*
X116589Y13747D01*
X116568Y13823D01*
X116541Y13896D01*
X116507Y13967D01*
X116468Y14036D01*
X116422Y14102D01*
X116370Y14167D01*
X116312Y14229D01*
X116771Y14688D01*
X116833Y14630D01*
D02*
G37*
G36*
X105333D02*
X105398Y14578D01*
X105464Y14532D01*
X105533Y14493D01*
X105604Y14459D01*
X105677Y14432D01*
X105753Y14411D01*
X105830Y14397D01*
X105909Y14388D01*
X105991Y14386D01*
X105114Y13509D01*
X105112Y13590D01*
X105103Y13670D01*
X105089Y13747D01*
X105068Y13823D01*
X105041Y13896D01*
X105007Y13967D01*
X104968Y14036D01*
X104922Y14102D01*
X104870Y14167D01*
X104812Y14229D01*
X105271Y14688D01*
X105333Y14630D01*
D02*
G37*
G36*
X123828Y12770D02*
X123836Y12688D01*
X123851Y12609D01*
X123872Y12532D01*
X123898Y12458D01*
X123931Y12387D01*
X123969Y12319D01*
X124014Y12254D01*
X124064Y12192D01*
X124120Y12133D01*
X122880D01*
X122936Y12192D01*
X122986Y12254D01*
X123031Y12319D01*
X123069Y12387D01*
X123102Y12458D01*
X123128Y12532D01*
X123149Y12609D01*
X123164Y12688D01*
X123172Y12770D01*
X123176Y12856D01*
X123825D01*
X123828Y12770D01*
D02*
G37*
G36*
X119827D02*
X119836Y12688D01*
X119851Y12609D01*
X119872Y12532D01*
X119898Y12458D01*
X119931Y12387D01*
X119969Y12319D01*
X120014Y12254D01*
X120064Y12192D01*
X120120Y12133D01*
X118880D01*
X118936Y12192D01*
X118986Y12254D01*
X119031Y12319D01*
X119069Y12387D01*
X119102Y12458D01*
X119128Y12532D01*
X119149Y12609D01*
X119164Y12688D01*
X119173Y12770D01*
X119176Y12856D01*
X119825D01*
X119827Y12770D01*
D02*
G37*
G36*
X108038D02*
X108047Y12688D01*
X108062Y12609D01*
X108082Y12532D01*
X108109Y12458D01*
X108141Y12387D01*
X108180Y12319D01*
X108224Y12254D01*
X108274Y12192D01*
X108330Y12133D01*
X107090D01*
X107146Y12192D01*
X107197Y12254D01*
X107241Y12319D01*
X107279Y12387D01*
X107312Y12458D01*
X107339Y12532D01*
X107359Y12609D01*
X107374Y12688D01*
X107383Y12770D01*
X107386Y12856D01*
X108035D01*
X108038Y12770D01*
D02*
G37*
G36*
X114151Y12783D02*
X114089Y12733D01*
X114033Y12680D01*
X113984Y12622D01*
X113942Y12561D01*
X113906Y12495D01*
X113877Y12425D01*
X113854Y12351D01*
X113838Y12273D01*
X113828Y12190D01*
X113824Y12104D01*
X113175Y12209D01*
X113173Y12293D01*
X113165Y12375D01*
X113153Y12455D01*
X113135Y12534D01*
X113113Y12610D01*
X113085Y12685D01*
X113052Y12758D01*
X113015Y12829D01*
X112972Y12899D01*
X112924Y12966D01*
X114151Y12783D01*
D02*
G37*
G36*
X111491Y10614D02*
X111409Y10612D01*
X111330Y10603D01*
X111252Y10589D01*
X111177Y10568D01*
X111104Y10541D01*
X111033Y10507D01*
X110964Y10468D01*
X110898Y10422D01*
X110833Y10370D01*
X110771Y10312D01*
X110312Y10771D01*
X110370Y10833D01*
X110422Y10898D01*
X110468Y10964D01*
X110507Y11033D01*
X110541Y11104D01*
X110568Y11177D01*
X110589Y11253D01*
X110603Y11330D01*
X110612Y11409D01*
X110614Y11491D01*
X111491Y10614D01*
D02*
G37*
D58*
X98500Y67500D02*
X101000Y70000D01*
X112000D01*
X105500Y67500D02*
X125500D01*
X102000Y25000D02*
X109500Y17500D01*
X59000Y25000D02*
X102000D01*
X54500Y20500D02*
X59000Y25000D01*
X60741Y20241D02*
X99259D01*
X58500Y18000D02*
X60741Y20241D01*
X101710Y21290D02*
X107710Y15290D01*
X99259Y20241D02*
X106000Y13500D01*
X56500Y19500D02*
X58290Y21290D01*
X101710D01*
X47500Y14000D02*
Y21000D01*
Y14000D02*
X57000Y4500D01*
X110484D01*
X50500Y14500D02*
Y18000D01*
Y14500D02*
X58500Y6500D01*
X109500D01*
X52500Y16000D02*
X60000Y8500D01*
X108500D01*
X110484Y4500D02*
X115500Y9516D01*
X109500Y6500D02*
X113500Y10500D01*
Y13369D01*
X108500Y8500D02*
X111500Y11500D01*
X109500Y13500D02*
Y17500D01*
X54500Y18000D02*
Y20500D01*
X56500Y16000D02*
Y19500D01*
X107710Y11500D02*
Y15290D01*
X60500Y16000D02*
X65000Y11500D01*
X62500Y18000D02*
X67000Y13500D01*
X65000Y11500D02*
X104000D01*
X125500Y13500D02*
Y17500D01*
X81691Y61308D02*
X125500Y17500D01*
X65890Y61308D02*
X81691D01*
X67259Y60259D02*
X79741D01*
X123500Y16500D01*
Y11500D02*
Y16500D01*
X121500Y13500D02*
Y15500D01*
X77790Y59210D02*
X121500Y15500D01*
X67791Y59210D02*
X77790D01*
X76500Y57500D02*
X119500Y14500D01*
X68500Y57500D02*
X76500D01*
X119500Y11500D02*
Y14500D01*
X75500Y55500D02*
X117500Y13500D01*
X70500Y55500D02*
X75500D01*
X67000Y13500D02*
X102000D01*
X18000Y83500D02*
X25000Y90500D01*
X18000Y55000D02*
Y83500D01*
Y55000D02*
X37000Y36000D01*
X44500D01*
X115500Y9516D02*
Y11500D01*
X113500Y13369D02*
X113631Y13500D01*
X62500Y57919D02*
X65890Y61308D01*
X62500Y55500D02*
Y57919D01*
X64500Y57500D02*
X67259Y60259D01*
X66500Y57919D02*
X67791Y59210D01*
X66500Y55500D02*
Y57919D01*
D65*
X150000Y35000D02*
D03*
X156500Y39000D02*
D03*
X116000Y55000D02*
D03*
X143000Y46500D02*
D03*
X105500Y67500D02*
D03*
X112000Y70000D02*
D03*
X98500Y67500D02*
D03*
X125500D02*
D03*
X114000Y46500D02*
D03*
X25000Y29000D02*
D03*
X60500Y12000D02*
D03*
X81500Y16000D02*
D03*
X29500Y57000D02*
D03*
X40500Y11000D02*
D03*
X11849Y95606D02*
D03*
X25500Y79500D02*
D03*
X46500Y64500D02*
D03*
X79500Y93000D02*
D03*
X74000Y53500D02*
D03*
X58500Y18000D02*
D03*
X109500Y13500D02*
D03*
X106000D02*
D03*
X54500Y18000D02*
D03*
X52500Y16000D02*
D03*
X60500D02*
D03*
X62500Y18000D02*
D03*
X104000Y11500D02*
D03*
X102000Y13500D02*
D03*
X121000Y48000D02*
D03*
X25000Y90500D02*
D03*
X18000Y55000D02*
D03*
X44500Y36000D02*
D03*
X107710Y11500D02*
D03*
X111500D02*
D03*
X115500D02*
D03*
X117500Y13500D02*
D03*
X113631D02*
D03*
X121500D02*
D03*
X125500D02*
D03*
X123500Y11500D02*
D03*
X119500D02*
D03*
X62500Y55500D02*
D03*
X68500Y57500D02*
D03*
X64500D02*
D03*
X66500Y55500D02*
D03*
X70500D02*
D03*
X50500Y18000D02*
D03*
X56500Y16000D02*
D03*
X47500Y21000D02*
D03*
D66*
X70161Y28339D02*
D03*
X65831D02*
D03*
X61500D02*
D03*
X57169D02*
D03*
X52839D02*
D03*
X70161Y32669D02*
D03*
X65831D02*
D03*
X61500D02*
D03*
X57169D02*
D03*
X52839D02*
D03*
X70161Y37000D02*
D03*
X65831D02*
D03*
X61500D02*
D03*
X57169D02*
D03*
X52839D02*
D03*
X70161Y41331D02*
D03*
X65831D02*
D03*
X61500D02*
D03*
X57169D02*
D03*
X52839D02*
D03*
X70161Y45661D02*
D03*
X65831D02*
D03*
X61500D02*
D03*
X57169D02*
D03*
X52839D02*
D03*
D67*
X142850Y46349D02*
X143000Y46500D01*
X114000D02*
X114151Y46349D01*
X142850D01*
M02*
