G04*
G04 #@! TF.GenerationSoftware,Altium Limited,Altium Designer,23.0.1 (38)*
G04*
G04 Layer_Physical_Order=3*
G04 Layer_Color=10964583*
%FSLAX25Y25*%
%MOIN*%
G70*
G04*
G04 #@! TF.SameCoordinates,85D0D690-A68B-404B-AEBF-3C929C44368B*
G04*
G04*
G04 #@! TF.FilePolarity,Positive*
G04*
G01*
G75*
%ADD12C,0.01000*%
%ADD64C,0.01772*%
%ADD65C,0.01968*%
%ADD66C,0.00420*%
G36*
X174980Y1519D02*
X25922D01*
X1020Y26422D01*
Y103981D01*
X174980D01*
Y1519D01*
D02*
G37*
%LPC*%
G36*
X48496Y95886D02*
X47905D01*
X47358Y95660D01*
X46940Y95242D01*
X46714Y94696D01*
Y94104D01*
X46940Y93558D01*
X47358Y93140D01*
X47905Y92914D01*
X48496D01*
X49042Y93140D01*
X49460Y93558D01*
X49686Y94104D01*
Y94696D01*
X49460Y95242D01*
X49042Y95660D01*
X48496Y95886D01*
D02*
G37*
G36*
X81196Y91686D02*
X80604D01*
X80058Y91460D01*
X79640Y91042D01*
X79414Y90496D01*
Y89904D01*
X79640Y89358D01*
X80058Y88940D01*
X80604Y88714D01*
X81196D01*
X81742Y88940D01*
X82160Y89358D01*
X82386Y89904D01*
Y90496D01*
X82160Y91042D01*
X81742Y91460D01*
X81196Y91686D01*
D02*
G37*
G36*
X130828Y87764D02*
X129928D01*
X129096Y87419D01*
X128459Y86782D01*
X128114Y85950D01*
Y85050D01*
X128459Y84218D01*
X129096Y83581D01*
X129928Y83236D01*
X130828D01*
X131660Y83581D01*
X132297Y84218D01*
X132642Y85050D01*
Y85950D01*
X132297Y86782D01*
X131660Y87419D01*
X130828Y87764D01*
D02*
G37*
G36*
X108072D02*
X107172D01*
X106340Y87419D01*
X105703Y86782D01*
X105358Y85950D01*
Y85050D01*
X105703Y84218D01*
X106340Y83581D01*
X107172Y83236D01*
X108072D01*
X108904Y83581D01*
X109541Y84218D01*
X109886Y85050D01*
Y85950D01*
X109541Y86782D01*
X108904Y87419D01*
X108072Y87764D01*
D02*
G37*
G36*
X88696Y84186D02*
X88104D01*
X87558Y83960D01*
X87140Y83542D01*
X86914Y82996D01*
Y82404D01*
X87140Y81858D01*
X87558Y81440D01*
X88104Y81214D01*
X88696D01*
X89242Y81440D01*
X89660Y81858D01*
X89886Y82404D01*
Y82996D01*
X89660Y83542D01*
X89242Y83960D01*
X88696Y84186D01*
D02*
G37*
G36*
X41495Y82786D02*
X40905D01*
X40358Y82560D01*
X39940Y82142D01*
X39714Y81596D01*
Y81004D01*
X39940Y80458D01*
X40358Y80040D01*
X40905Y79814D01*
X41495D01*
X42042Y80040D01*
X42460Y80458D01*
X42686Y81004D01*
Y81596D01*
X42460Y82142D01*
X42042Y82560D01*
X41495Y82786D01*
D02*
G37*
G36*
X27196D02*
X26605D01*
X26058Y82560D01*
X25640Y82142D01*
X25414Y81596D01*
Y81004D01*
X25640Y80458D01*
X26058Y80040D01*
X26605Y79814D01*
X27196D01*
X27742Y80040D01*
X28160Y80458D01*
X28386Y81004D01*
Y81596D01*
X28160Y82142D01*
X27742Y82560D01*
X27196Y82786D01*
D02*
G37*
G36*
X162296Y81559D02*
X161704D01*
X161158Y81333D01*
X160740Y80915D01*
X160514Y80369D01*
Y79778D01*
X160740Y79232D01*
X161158Y78814D01*
X161704Y78588D01*
X162296D01*
X162842Y78814D01*
X163260Y79232D01*
X163486Y79778D01*
Y80369D01*
X163260Y80915D01*
X162842Y81333D01*
X162296Y81559D01*
D02*
G37*
G36*
X80196Y78586D02*
X79604D01*
X79058Y78360D01*
X78640Y77942D01*
X78414Y77396D01*
Y76804D01*
X78640Y76258D01*
X79058Y75840D01*
X79604Y75614D01*
X80196D01*
X80742Y75840D01*
X81160Y76258D01*
X81386Y76804D01*
Y77396D01*
X81160Y77942D01*
X80742Y78360D01*
X80196Y78586D01*
D02*
G37*
G36*
X76196D02*
X75604D01*
X75058Y78360D01*
X74640Y77942D01*
X74414Y77396D01*
Y76804D01*
X74640Y76258D01*
X75058Y75840D01*
X75604Y75614D01*
X76196D01*
X76742Y75840D01*
X77160Y76258D01*
X77386Y76804D01*
Y77396D01*
X77160Y77942D01*
X76742Y78360D01*
X76196Y78586D01*
D02*
G37*
G36*
X128796Y77286D02*
X128204D01*
X127658Y77060D01*
X127240Y76642D01*
X127014Y76096D01*
Y75504D01*
X127240Y74958D01*
X127658Y74540D01*
X128204Y74314D01*
X128796D01*
X129342Y74540D01*
X129760Y74958D01*
X129986Y75504D01*
Y76096D01*
X129760Y76642D01*
X129342Y77060D01*
X128796Y77286D01*
D02*
G37*
G36*
X109696D02*
X109104D01*
X108558Y77060D01*
X108140Y76642D01*
X107914Y76096D01*
Y75504D01*
X108140Y74958D01*
X108558Y74540D01*
X109104Y74314D01*
X109696D01*
X110242Y74540D01*
X110660Y74958D01*
X110886Y75504D01*
Y76096D01*
X110660Y76642D01*
X110242Y77060D01*
X109696Y77286D01*
D02*
G37*
G36*
X43095Y75786D02*
X42505D01*
X41958Y75560D01*
X41540Y75142D01*
X41314Y74596D01*
Y74004D01*
X41540Y73458D01*
X41958Y73040D01*
X42505Y72814D01*
X43095D01*
X43642Y73040D01*
X44060Y73458D01*
X44286Y74004D01*
Y74596D01*
X44060Y75142D01*
X43642Y75560D01*
X43095Y75786D01*
D02*
G37*
G36*
X74296Y75486D02*
X73704D01*
X73158Y75260D01*
X72740Y74842D01*
X72514Y74296D01*
Y73704D01*
X72740Y73158D01*
X73158Y72740D01*
X73704Y72514D01*
X74296D01*
X74842Y72740D01*
X75260Y73158D01*
X75486Y73704D01*
Y74296D01*
X75260Y74842D01*
X74842Y75260D01*
X74296Y75486D01*
D02*
G37*
G36*
X118531Y68386D02*
X117940D01*
X117394Y68160D01*
X117100Y67865D01*
X116806Y68160D01*
X116260Y68386D01*
X115669D01*
X115122Y68160D01*
X114705Y67742D01*
X114478Y67196D01*
Y66604D01*
X114705Y66058D01*
X115122Y65640D01*
X115669Y65414D01*
X115814D01*
Y63883D01*
X113381Y61450D01*
X95086D01*
Y61596D01*
X94860Y62142D01*
X94442Y62560D01*
X93896Y62786D01*
X93304D01*
X92758Y62560D01*
X92340Y62142D01*
X92114Y61596D01*
Y61004D01*
X92340Y60458D01*
X92635Y60164D01*
X92340Y59870D01*
X92114Y59324D01*
Y58733D01*
X92340Y58187D01*
X92758Y57769D01*
X93304Y57543D01*
X93896D01*
X94442Y57769D01*
X94860Y58187D01*
X95086Y58733D01*
Y58878D01*
X114104D01*
X114420Y58941D01*
X114688Y59120D01*
X118144Y62576D01*
X118323Y62844D01*
X118386Y63160D01*
Y65414D01*
X118531D01*
X119078Y65640D01*
X119495Y66058D01*
X119722Y66604D01*
Y67196D01*
X119495Y67742D01*
X119078Y68160D01*
X118531Y68386D01*
D02*
G37*
G36*
X78296Y75486D02*
X77704D01*
X77158Y75260D01*
X76740Y74842D01*
X76514Y74296D01*
Y73704D01*
X76740Y73158D01*
X77158Y72740D01*
X77704Y72514D01*
X77900D01*
X84378Y66035D01*
Y56600D01*
X84378Y56600D01*
X84464Y56171D01*
X84707Y55807D01*
X96107Y44407D01*
X96107Y44407D01*
X96384Y44222D01*
X96337Y43816D01*
X96301Y43722D01*
X63300D01*
X63300Y43722D01*
X62871Y43636D01*
X62507Y43393D01*
X62507Y43393D01*
X59100Y39986D01*
X58904D01*
X58358Y39760D01*
X57940Y39342D01*
X57714Y38796D01*
Y38205D01*
X57940Y37658D01*
X58358Y37240D01*
X58904Y37014D01*
X59496D01*
X60042Y37240D01*
X60460Y37658D01*
X60686Y38205D01*
Y38400D01*
X63765Y41478D01*
X64785D01*
X64992Y40978D01*
X64000Y39986D01*
X63804D01*
X63258Y39760D01*
X62840Y39342D01*
X62614Y38796D01*
Y38205D01*
X62840Y37658D01*
X63258Y37240D01*
X63804Y37014D01*
X64396D01*
X64942Y37240D01*
X65360Y37658D01*
X65586Y38205D01*
Y38400D01*
X66152Y38966D01*
X66413Y38870D01*
X66614Y38721D01*
Y38205D01*
X66840Y37658D01*
X67258Y37240D01*
X67804Y37014D01*
X68396D01*
X68942Y37240D01*
X69360Y37658D01*
X69586Y38205D01*
Y38796D01*
X69869Y39215D01*
X70231D01*
X70511Y38800D01*
X70514Y38793D01*
Y38205D01*
X70740Y37658D01*
X71158Y37240D01*
X71704Y37014D01*
X72296D01*
X72842Y37240D01*
X73260Y37658D01*
X73486Y38205D01*
Y38796D01*
X73452Y38878D01*
X73786Y39378D01*
X82085D01*
X82363Y38963D01*
X82341Y38910D01*
Y38319D01*
X82567Y37773D01*
X82985Y37355D01*
X83531Y37128D01*
X84122D01*
X84668Y37355D01*
X85086Y37773D01*
X85313Y38319D01*
Y38910D01*
X85291Y38963D01*
X85568Y39378D01*
X97935D01*
X108051Y29263D01*
X107821Y28786D01*
X107404D01*
X106858Y28560D01*
X106440Y28142D01*
X106214Y27595D01*
Y27005D01*
X106267Y26877D01*
X105966Y26480D01*
X105522Y26495D01*
X105244Y26904D01*
X105286Y27005D01*
Y27595D01*
X105060Y28142D01*
X104642Y28560D01*
X104096Y28786D01*
X103504D01*
X102958Y28560D01*
X102540Y28142D01*
X102314Y27595D01*
Y27026D01*
X102304Y26992D01*
X101955Y26564D01*
X101619Y26568D01*
X91893Y36293D01*
X91529Y36536D01*
X91100Y36622D01*
X91100Y36622D01*
X74980D01*
X74842Y36760D01*
X74296Y36986D01*
X73704D01*
X73158Y36760D01*
X72740Y36342D01*
X72514Y35796D01*
Y35204D01*
X72740Y34658D01*
X73158Y34240D01*
X73704Y34014D01*
X74296D01*
X74842Y34240D01*
X74980Y34378D01*
X90635D01*
X100214Y24800D01*
Y24604D01*
X100440Y24058D01*
X100858Y23640D01*
X101145Y23521D01*
X101046Y23021D01*
X100365D01*
X90493Y32893D01*
X90129Y33136D01*
X89700Y33222D01*
X89700Y33222D01*
X70089D01*
X69791Y33592D01*
X69994Y34014D01*
X70396D01*
X70942Y34240D01*
X71360Y34658D01*
X71586Y35204D01*
Y35796D01*
X71360Y36342D01*
X70942Y36760D01*
X70396Y36986D01*
X69804D01*
X69258Y36760D01*
X68840Y36342D01*
X68614Y35796D01*
Y35379D01*
X68137Y35149D01*
X67686Y35600D01*
Y35796D01*
X67460Y36342D01*
X67042Y36760D01*
X66496Y36986D01*
X65904D01*
X65358Y36760D01*
X64940Y36342D01*
X64714Y35796D01*
Y35204D01*
X64732Y35161D01*
X64308Y34878D01*
X63586Y35600D01*
Y35796D01*
X63360Y36342D01*
X62942Y36760D01*
X62396Y36986D01*
X61804D01*
X61258Y36760D01*
X60840Y36342D01*
X60614Y35796D01*
Y35204D01*
X60840Y34658D01*
X61258Y34240D01*
X61804Y34014D01*
X62000D01*
X66907Y29107D01*
X66907Y29107D01*
X67271Y28864D01*
X67700Y28778D01*
X67700Y28778D01*
X87835D01*
X97507Y19107D01*
X97507Y19107D01*
X97871Y18864D01*
X98300Y18778D01*
X98300Y18778D01*
X109193D01*
X109193Y18778D01*
X109622Y18864D01*
X109986Y19107D01*
X113793Y22914D01*
X113988D01*
X114535Y23140D01*
X114953Y23558D01*
X115179Y24104D01*
Y24696D01*
X114964Y25214D01*
X115012Y25313D01*
X115275Y25626D01*
X115304Y25614D01*
X115896D01*
X115913Y25621D01*
X116174Y25319D01*
X116227Y25210D01*
X116014Y24696D01*
Y24104D01*
X116240Y23558D01*
X116658Y23140D01*
X117204Y22914D01*
X117796D01*
X118342Y23140D01*
X118760Y23558D01*
X118986Y24104D01*
Y24696D01*
X118852Y25019D01*
X119185Y25392D01*
X119688Y25398D01*
X119946Y25128D01*
X120029Y24970D01*
X119916Y24696D01*
Y24104D01*
X120142Y23558D01*
X120560Y23140D01*
X121106Y22914D01*
X121697D01*
X122243Y23140D01*
X122661Y23558D01*
X122887Y24104D01*
Y24696D01*
X122754Y25018D01*
X123105Y25414D01*
X123696D01*
X123886Y25493D01*
X124129Y25251D01*
X124219Y25090D01*
X124014Y24596D01*
Y24004D01*
X124240Y23458D01*
X124658Y23040D01*
X125204Y22814D01*
X125796D01*
X126342Y23040D01*
X126760Y23458D01*
X126986Y24004D01*
Y24596D01*
X126760Y25142D01*
X126342Y25560D01*
X125796Y25786D01*
X125204D01*
X125014Y25707D01*
X124770Y25949D01*
X124681Y26110D01*
X124886Y26605D01*
Y27196D01*
X124660Y27742D01*
X124242Y28160D01*
X123696Y28386D01*
X123104D01*
X123023Y28352D01*
X122697Y28513D01*
X122507Y28680D01*
X122438Y29028D01*
X122195Y29391D01*
X103593Y47993D01*
X103229Y48236D01*
X102800Y48322D01*
X102800Y48322D01*
X98565D01*
X88422Y58465D01*
Y66204D01*
X88922Y66304D01*
X88940Y66258D01*
X89358Y65840D01*
X89904Y65614D01*
X90496D01*
X91042Y65840D01*
X91460Y66258D01*
X91686Y66804D01*
Y67396D01*
X91460Y67942D01*
X91042Y68360D01*
X90496Y68586D01*
X89904D01*
X89358Y68360D01*
X88940Y67942D01*
X88922Y67896D01*
X88422Y67996D01*
Y68500D01*
X88336Y68929D01*
X88093Y69293D01*
X88093Y69293D01*
X83386Y74000D01*
Y74196D01*
X83160Y74742D01*
X82742Y75160D01*
X82196Y75386D01*
X81604D01*
X81058Y75160D01*
X80640Y74742D01*
X80414Y74196D01*
Y73879D01*
X79914Y73672D01*
X79486Y74100D01*
Y74296D01*
X79260Y74842D01*
X78842Y75260D01*
X78296Y75486D01*
D02*
G37*
G36*
X159196Y67786D02*
X158604D01*
X158058Y67560D01*
X157640Y67142D01*
X157414Y66596D01*
Y66004D01*
X157640Y65458D01*
X158058Y65040D01*
X158604Y64814D01*
X159196D01*
X159742Y65040D01*
X160160Y65458D01*
X160386Y66004D01*
Y66596D01*
X160160Y67142D01*
X159742Y67560D01*
X159196Y67786D01*
D02*
G37*
G36*
X112196Y65686D02*
X111604D01*
X111058Y65460D01*
X110640Y65042D01*
X110414Y64496D01*
Y63904D01*
X110640Y63358D01*
X111058Y62940D01*
X111604Y62714D01*
X112196D01*
X112742Y62940D01*
X113160Y63358D01*
X113386Y63904D01*
Y64496D01*
X113160Y65042D01*
X112742Y65460D01*
X112196Y65686D01*
D02*
G37*
G36*
X126296Y63686D02*
X125704D01*
X125158Y63460D01*
X124740Y63042D01*
X124514Y62496D01*
Y61904D01*
X124740Y61358D01*
X125158Y60940D01*
X125704Y60714D01*
X126296D01*
X126842Y60940D01*
X127260Y61358D01*
X127486Y61904D01*
Y62496D01*
X127260Y63042D01*
X126842Y63460D01*
X126296Y63686D01*
D02*
G37*
G36*
X132108Y60715D02*
X131517D01*
X130971Y60489D01*
X130553Y60071D01*
X130327Y59525D01*
Y58934D01*
X130553Y58388D01*
X130971Y57969D01*
X131517Y57743D01*
X132108D01*
X132654Y57969D01*
X133072Y58388D01*
X133298Y58934D01*
Y59525D01*
X133072Y60071D01*
X132654Y60489D01*
X132108Y60715D01*
D02*
G37*
G36*
X117296Y59886D02*
X116704D01*
X116158Y59660D01*
X115740Y59242D01*
X115514Y58696D01*
Y58104D01*
X115740Y57558D01*
X116158Y57140D01*
X116704Y56914D01*
X117296D01*
X117842Y57140D01*
X118260Y57558D01*
X118486Y58104D01*
Y58696D01*
X118260Y59242D01*
X117842Y59660D01*
X117296Y59886D01*
D02*
G37*
G36*
X40696Y46186D02*
X40104D01*
X39558Y45960D01*
X39140Y45542D01*
X38914Y44995D01*
Y44405D01*
X39140Y43858D01*
X39558Y43440D01*
X40104Y43214D01*
X40696D01*
X41242Y43440D01*
X41660Y43858D01*
X41886Y44405D01*
Y44995D01*
X41660Y45542D01*
X41242Y45960D01*
X40696Y46186D01*
D02*
G37*
G36*
X13179Y43890D02*
X11821D01*
X10490Y43625D01*
X9236Y43106D01*
X8108Y42352D01*
X7148Y41392D01*
X6394Y40264D01*
X5875Y39010D01*
X5610Y37679D01*
Y36321D01*
X5875Y34990D01*
X6394Y33737D01*
X7148Y32608D01*
X8108Y31648D01*
X9236Y30894D01*
X10490Y30375D01*
X11821Y30110D01*
X13179D01*
X14510Y30375D01*
X15764Y30894D01*
X16892Y31648D01*
X17852Y32608D01*
X18606Y33737D01*
X19125Y34990D01*
X19390Y36321D01*
Y37679D01*
X19125Y39010D01*
X18606Y40264D01*
X17852Y41392D01*
X16892Y42352D01*
X15764Y43106D01*
X14510Y43625D01*
X13179Y43890D01*
D02*
G37*
G36*
X55096Y56586D02*
X54504D01*
X53958Y56360D01*
X53540Y55942D01*
X53314Y55396D01*
Y54804D01*
X53540Y54258D01*
X53678Y54120D01*
Y16000D01*
X53678Y16000D01*
X53764Y15571D01*
X54007Y15207D01*
X55514Y13700D01*
Y13504D01*
X55740Y12958D01*
X56158Y12540D01*
X56704Y12314D01*
X57296D01*
X57842Y12540D01*
X58260Y12958D01*
X58486Y13504D01*
Y14096D01*
X58260Y14642D01*
X57842Y15060D01*
X57296Y15286D01*
X57100D01*
X55922Y16465D01*
Y54120D01*
X56060Y54258D01*
X56286Y54804D01*
Y55396D01*
X56060Y55942D01*
X55642Y56360D01*
X55096Y56586D01*
D02*
G37*
G36*
X165679Y24390D02*
X164321D01*
X162990Y24125D01*
X161737Y23606D01*
X160608Y22852D01*
X159648Y21892D01*
X158894Y20764D01*
X158375Y19510D01*
X158110Y18179D01*
Y16821D01*
X158375Y15490D01*
X158894Y14236D01*
X159648Y13108D01*
X160608Y12148D01*
X161737Y11394D01*
X162990Y10875D01*
X164321Y10610D01*
X165679D01*
X167010Y10875D01*
X168263Y11394D01*
X169392Y12148D01*
X170352Y13108D01*
X171106Y14236D01*
X171625Y15490D01*
X171890Y16821D01*
Y18179D01*
X171625Y19510D01*
X171106Y20764D01*
X170352Y21892D01*
X169392Y22852D01*
X168263Y23606D01*
X167010Y24125D01*
X165679Y24390D01*
D02*
G37*
G36*
X76696Y9586D02*
X76104D01*
X75558Y9360D01*
X75140Y8942D01*
X74914Y8396D01*
Y7804D01*
X75140Y7258D01*
X75558Y6840D01*
X76104Y6614D01*
X76696D01*
X77242Y6840D01*
X77660Y7258D01*
X77886Y7804D01*
Y8396D01*
X77660Y8942D01*
X77242Y9360D01*
X76696Y9586D01*
D02*
G37*
%LPD*%
D12*
X91100Y35500D02*
X101700Y24900D01*
X74000Y35500D02*
X91100D01*
X99900Y21900D02*
X106800D01*
X69600Y32100D02*
X89700D01*
X99900Y21900D01*
X66200Y35500D02*
X69600Y32100D01*
X96900Y45200D02*
X101200D01*
X85500Y56600D02*
Y66500D01*
Y56600D02*
X96900Y45200D01*
X87300Y58000D02*
X98100Y47200D01*
X102800D02*
X121402Y28598D01*
X98100Y47200D02*
X102800D01*
X101200Y45200D02*
X119500Y26900D01*
X121402Y24400D02*
Y28598D01*
X87300Y58000D02*
Y68500D01*
X63300Y42600D02*
X100100D01*
X59200Y38500D02*
X63300Y42600D01*
X100100D02*
X115600Y27100D01*
X78000Y74000D02*
X85500Y66500D01*
X81900Y73900D02*
X87300Y68500D01*
X54800Y16000D02*
X57000Y13800D01*
X54800Y16000D02*
Y55100D01*
X88300Y29900D02*
X98300Y19900D01*
X67700Y29900D02*
X88300D01*
X98300Y19900D02*
X109193D01*
X98400Y40500D02*
X111700Y27200D01*
X66100Y40500D02*
X98400D01*
X109193Y19900D02*
X113693Y24400D01*
X106800Y21900D02*
X109700Y24800D01*
Y24800D01*
X62100Y35500D02*
X67700Y29900D01*
X64100Y38500D02*
X66100Y40500D01*
D64*
X126100Y71100D02*
D03*
X99800Y57200D02*
D03*
X118236Y66900D02*
D03*
X93600Y59028D02*
D03*
Y61300D02*
D03*
X111700Y27200D02*
D03*
X113693Y24400D02*
D03*
X62100Y35500D02*
D03*
X117100Y73300D02*
D03*
X66200Y35500D02*
D03*
X74000D02*
D03*
X101700Y24900D02*
D03*
X57000Y13800D02*
D03*
X54800Y55100D02*
D03*
X78000Y74000D02*
D03*
X81900Y73900D02*
D03*
X115600Y27100D02*
D03*
X64100Y38500D02*
D03*
X59200D02*
D03*
X109700Y24800D02*
D03*
X119500Y26900D02*
D03*
X121402Y24400D02*
D03*
X115964Y66900D02*
D03*
D65*
X81661Y47539D02*
D03*
X77331D02*
D03*
X73000D02*
D03*
X68669D02*
D03*
X64339D02*
D03*
X81661Y51869D02*
D03*
X77331D02*
D03*
X73000D02*
D03*
X68669D02*
D03*
X64339D02*
D03*
X81661Y56200D02*
D03*
X77331D02*
D03*
X73000D02*
D03*
X68669D02*
D03*
X64339D02*
D03*
X81661Y60531D02*
D03*
X77331D02*
D03*
X73000D02*
D03*
X68669D02*
D03*
X64339D02*
D03*
X81661Y64861D02*
D03*
X77331D02*
D03*
X73000D02*
D03*
X68669D02*
D03*
X64339D02*
D03*
D66*
X116640Y63541D02*
Y65978D01*
X117560D02*
X118236Y66654D01*
X115964D02*
Y66900D01*
X117560Y63160D02*
Y65978D01*
X115964Y66654D02*
X116640Y65978D01*
X118236Y66654D02*
Y66900D01*
X93600Y61300D02*
X93846D01*
X93600Y59028D02*
X93846D01*
X94522Y59704D01*
X93846Y61300D02*
X94522Y60624D01*
Y59704D02*
X114104D01*
X117560Y63160D01*
X94522Y60624D02*
X113723D01*
X116640Y63541D01*
M02*
