G04*
G04 #@! TF.GenerationSoftware,Altium Limited,Altium Designer,22.11.1 (43)*
G04*
G04 Layer_Physical_Order=4*
G04 Layer_Color=5622137*
%FSLAX25Y25*%
%MOIN*%
G70*
G04*
G04 #@! TF.SameCoordinates,A18BC286-AB2E-4323-AA0E-794CC3FCAC91*
G04*
G04*
G04 #@! TF.FilePolarity,Positive*
G04*
G01*
G75*
%ADD13C,0.01000*%
%ADD60C,0.02000*%
%ADD62C,0.11811*%
%ADD63C,0.02559*%
%ADD64C,0.01772*%
%ADD65C,0.01968*%
G36*
X174980Y1519D02*
X25922D01*
X1020Y26422D01*
Y103981D01*
X174980D01*
Y1519D01*
D02*
G37*
%LPC*%
G36*
X130828Y87764D02*
X129928D01*
X129096Y87419D01*
X128459Y86782D01*
X128114Y85950D01*
Y85050D01*
X128459Y84218D01*
X129096Y83581D01*
X129928Y83236D01*
X130828D01*
X131660Y83581D01*
X132297Y84218D01*
X132642Y85050D01*
Y85950D01*
X132297Y86782D01*
X131660Y87419D01*
X130828Y87764D01*
D02*
G37*
G36*
X108072D02*
X107172D01*
X106340Y87419D01*
X105703Y86782D01*
X105358Y85950D01*
Y85050D01*
X105703Y84218D01*
X106340Y83581D01*
X107172Y83236D01*
X108072D01*
X108904Y83581D01*
X109541Y84218D01*
X109886Y85050D01*
Y85950D01*
X109541Y86782D01*
X108904Y87419D01*
X108072Y87764D01*
D02*
G37*
G36*
X41495Y82786D02*
X40905D01*
X40358Y82560D01*
X40220Y82422D01*
X27880D01*
X27742Y82560D01*
X27196Y82786D01*
X26605D01*
X26058Y82560D01*
X25640Y82142D01*
X25414Y81596D01*
Y81004D01*
X25640Y80458D01*
X26058Y80040D01*
X26605Y79814D01*
X27196D01*
X27742Y80040D01*
X27880Y80178D01*
X40220D01*
X40358Y80040D01*
X40905Y79814D01*
X41495D01*
X42042Y80040D01*
X42460Y80458D01*
X42686Y81004D01*
Y81596D01*
X42460Y82142D01*
X42042Y82560D01*
X41495Y82786D01*
D02*
G37*
G36*
X80196Y78586D02*
X79604D01*
X79058Y78360D01*
X78640Y77942D01*
X78414Y77396D01*
Y76804D01*
X78640Y76258D01*
X79058Y75840D01*
X79604Y75614D01*
X80196D01*
X80742Y75840D01*
X81160Y76258D01*
X81386Y76804D01*
Y77396D01*
X81160Y77942D01*
X80742Y78360D01*
X80196Y78586D01*
D02*
G37*
G36*
X76196D02*
X75604D01*
X75058Y78360D01*
X74640Y77942D01*
X74414Y77396D01*
Y76804D01*
X74640Y76258D01*
X75058Y75840D01*
X75604Y75614D01*
X76196D01*
X76742Y75840D01*
X77160Y76258D01*
X77386Y76804D01*
Y77396D01*
X77160Y77942D01*
X76742Y78360D01*
X76196Y78586D01*
D02*
G37*
G36*
X78296Y75486D02*
X77704D01*
X77158Y75260D01*
X76740Y74842D01*
X76514Y74296D01*
Y73704D01*
X76740Y73158D01*
X77158Y72740D01*
X77704Y72514D01*
X78296D01*
X78842Y72740D01*
X79260Y73158D01*
X79486Y73704D01*
Y74296D01*
X79260Y74842D01*
X78842Y75260D01*
X78296Y75486D01*
D02*
G37*
G36*
X74296D02*
X73704D01*
X73158Y75260D01*
X72740Y74842D01*
X72514Y74296D01*
Y73704D01*
X72740Y73158D01*
X73158Y72740D01*
X73704Y72514D01*
X74296D01*
X74842Y72740D01*
X75260Y73158D01*
X75486Y73704D01*
Y74296D01*
X75260Y74842D01*
X74842Y75260D01*
X74296Y75486D01*
D02*
G37*
G36*
X82196Y75386D02*
X81604D01*
X81058Y75160D01*
X80640Y74742D01*
X80414Y74196D01*
Y73604D01*
X80640Y73058D01*
X81058Y72640D01*
X81604Y72414D01*
X82196D01*
X82742Y72640D01*
X83160Y73058D01*
X83386Y73604D01*
Y74196D01*
X83160Y74742D01*
X82742Y75160D01*
X82196Y75386D01*
D02*
G37*
G36*
X118531Y68386D02*
X117940D01*
X117394Y68160D01*
X117100Y67865D01*
X116806Y68160D01*
X116260Y68386D01*
X115669D01*
X115122Y68160D01*
X114705Y67742D01*
X114478Y67196D01*
Y66604D01*
X114705Y66058D01*
X115122Y65640D01*
X115669Y65414D01*
X116260D01*
X116806Y65640D01*
X117100Y65935D01*
X117394Y65640D01*
X117940Y65414D01*
X118531D01*
X119078Y65640D01*
X119495Y66058D01*
X119722Y66604D01*
Y67196D01*
X119495Y67742D01*
X119078Y68160D01*
X118531Y68386D01*
D02*
G37*
G36*
X112196Y65686D02*
X111604D01*
X111058Y65460D01*
X110640Y65042D01*
X110414Y64496D01*
Y63904D01*
X110640Y63358D01*
X111058Y62940D01*
X111604Y62714D01*
X112196D01*
X112742Y62940D01*
X113160Y63358D01*
X113386Y63904D01*
Y64496D01*
X113160Y65042D01*
X112742Y65460D01*
X112196Y65686D01*
D02*
G37*
G36*
X126296Y63686D02*
X125704D01*
X125158Y63460D01*
X124740Y63042D01*
X124514Y62496D01*
Y61904D01*
X124740Y61358D01*
X125158Y60940D01*
X125704Y60714D01*
X126296D01*
X126842Y60940D01*
X127260Y61358D01*
X127486Y61904D01*
Y62496D01*
X127260Y63042D01*
X126842Y63460D01*
X126296Y63686D01*
D02*
G37*
G36*
X80900Y91831D02*
X58700D01*
X58076Y91707D01*
X57547Y91353D01*
X41647Y75454D01*
X39246Y73053D01*
X38893Y72524D01*
X38769Y71900D01*
Y44700D01*
X38893Y44076D01*
X39246Y43547D01*
X39776Y43193D01*
X40400Y43069D01*
X41024Y43193D01*
X41554Y43547D01*
X41907Y44076D01*
X42031Y44700D01*
Y71224D01*
X43953Y73146D01*
X59376Y88569D01*
X80224D01*
X88569Y80224D01*
Y45849D01*
X82580Y39861D01*
X82543Y39805D01*
X82487Y39768D01*
X82134Y39239D01*
X82010Y38614D01*
Y16017D01*
X75247Y9253D01*
X74893Y8724D01*
X74769Y8100D01*
X74893Y7476D01*
X75247Y6946D01*
X75776Y6593D01*
X76400Y6469D01*
X77024Y6593D01*
X77553Y6946D01*
X84794Y14187D01*
X85148Y14717D01*
X85272Y15341D01*
X85272Y15341D01*
Y37938D01*
X91353Y44020D01*
X91707Y44549D01*
X91831Y45173D01*
Y58109D01*
X92331Y58209D01*
X92340Y58187D01*
X92758Y57769D01*
X93304Y57543D01*
X93896D01*
X94442Y57769D01*
X94860Y58187D01*
X95086Y58733D01*
Y59324D01*
X94860Y59870D01*
X94565Y60164D01*
X94860Y60458D01*
X95086Y61004D01*
Y61596D01*
X94860Y62142D01*
X94442Y62560D01*
X93896Y62786D01*
X93304D01*
X92758Y62560D01*
X92340Y62142D01*
X92331Y62120D01*
X91831Y62219D01*
Y80900D01*
X91707Y81524D01*
X91353Y82054D01*
X82054Y91353D01*
X81524Y91707D01*
X80900Y91831D01*
D02*
G37*
G36*
X90800Y96031D02*
X48200D01*
X47576Y95907D01*
X47047Y95553D01*
X46693Y95024D01*
X46569Y94400D01*
X46693Y93776D01*
X47047Y93247D01*
X47576Y92893D01*
X48200Y92769D01*
X90124D01*
X108247Y74647D01*
X108776Y74293D01*
X109400Y74169D01*
X127824D01*
X136135Y65858D01*
X130659Y60383D01*
X130659Y60383D01*
X130308Y60031D01*
X117000D01*
X116376Y59907D01*
X115847Y59553D01*
X115493Y59024D01*
X115369Y58400D01*
X115493Y57776D01*
X115847Y57247D01*
X116376Y56893D01*
X117000Y56769D01*
X130983D01*
X131608Y56893D01*
X132137Y57247D01*
X132966Y58076D01*
X132966Y58076D01*
X139559Y64669D01*
X158900D01*
X159524Y64793D01*
X160054Y65146D01*
X160407Y65676D01*
X160531Y66300D01*
X160524Y66338D01*
X162793Y68607D01*
X162793Y68607D01*
X163036Y68971D01*
X163122Y69400D01*
Y79094D01*
X163260Y79232D01*
X163486Y79778D01*
Y80369D01*
X163260Y80915D01*
X162842Y81333D01*
X162296Y81559D01*
X161704D01*
X161158Y81333D01*
X160740Y80915D01*
X160514Y80369D01*
Y79778D01*
X160740Y79232D01*
X160878Y79094D01*
Y69865D01*
X158938Y67924D01*
X158900Y67931D01*
X138676D01*
X129654Y76954D01*
X129124Y77307D01*
X128500Y77431D01*
X110076D01*
X91953Y95553D01*
X91424Y95907D01*
X90800Y96031D01*
D02*
G37*
G36*
X55096Y56586D02*
X54504D01*
X53958Y56360D01*
X53540Y55942D01*
X53314Y55396D01*
Y54804D01*
X53540Y54258D01*
X53958Y53840D01*
X54504Y53614D01*
X55096D01*
X55642Y53840D01*
X56060Y54258D01*
X56286Y54804D01*
Y55396D01*
X56060Y55942D01*
X55642Y56360D01*
X55096Y56586D01*
D02*
G37*
G36*
X72296Y39986D02*
X71704D01*
X71158Y39760D01*
X70740Y39342D01*
X70514Y38796D01*
Y38205D01*
X70740Y37658D01*
X71158Y37240D01*
X71704Y37014D01*
X72296D01*
X72842Y37240D01*
X73260Y37658D01*
X73486Y38205D01*
Y38796D01*
X73260Y39342D01*
X72842Y39760D01*
X72296Y39986D01*
D02*
G37*
G36*
X68396D02*
X67804D01*
X67258Y39760D01*
X66840Y39342D01*
X66614Y38796D01*
Y38205D01*
X66840Y37658D01*
X67258Y37240D01*
X67804Y37014D01*
X68396D01*
X68942Y37240D01*
X69360Y37658D01*
X69586Y38205D01*
Y38796D01*
X69360Y39342D01*
X68942Y39760D01*
X68396Y39986D01*
D02*
G37*
G36*
X64396D02*
X63804D01*
X63258Y39760D01*
X62840Y39342D01*
X62614Y38796D01*
Y38205D01*
X62840Y37658D01*
X63258Y37240D01*
X63804Y37014D01*
X64396D01*
X64942Y37240D01*
X65360Y37658D01*
X65586Y38205D01*
Y38796D01*
X65360Y39342D01*
X64942Y39760D01*
X64396Y39986D01*
D02*
G37*
G36*
X59496D02*
X58904D01*
X58358Y39760D01*
X57940Y39342D01*
X57714Y38796D01*
Y38205D01*
X57940Y37658D01*
X58358Y37240D01*
X58904Y37014D01*
X59496D01*
X60042Y37240D01*
X60460Y37658D01*
X60686Y38205D01*
Y38796D01*
X60460Y39342D01*
X60042Y39760D01*
X59496Y39986D01*
D02*
G37*
G36*
X74296Y36986D02*
X73704D01*
X73158Y36760D01*
X72740Y36342D01*
X72514Y35796D01*
Y35204D01*
X72740Y34658D01*
X73158Y34240D01*
X73704Y34014D01*
X74296D01*
X74842Y34240D01*
X75260Y34658D01*
X75486Y35204D01*
Y35796D01*
X75260Y36342D01*
X74842Y36760D01*
X74296Y36986D01*
D02*
G37*
G36*
X70396D02*
X69804D01*
X69258Y36760D01*
X68840Y36342D01*
X68614Y35796D01*
Y35204D01*
X68840Y34658D01*
X69258Y34240D01*
X69804Y34014D01*
X70396D01*
X70942Y34240D01*
X71360Y34658D01*
X71586Y35204D01*
Y35796D01*
X71360Y36342D01*
X70942Y36760D01*
X70396Y36986D01*
D02*
G37*
G36*
X66496D02*
X65904D01*
X65358Y36760D01*
X64940Y36342D01*
X64714Y35796D01*
Y35204D01*
X64940Y34658D01*
X65358Y34240D01*
X65904Y34014D01*
X66496D01*
X67042Y34240D01*
X67460Y34658D01*
X67686Y35204D01*
Y35796D01*
X67460Y36342D01*
X67042Y36760D01*
X66496Y36986D01*
D02*
G37*
G36*
X62396D02*
X61804D01*
X61258Y36760D01*
X60840Y36342D01*
X60614Y35796D01*
Y35204D01*
X60840Y34658D01*
X61258Y34240D01*
X61804Y34014D01*
X62396D01*
X62942Y34240D01*
X63360Y34658D01*
X63586Y35204D01*
Y35796D01*
X63360Y36342D01*
X62942Y36760D01*
X62396Y36986D01*
D02*
G37*
G36*
X13179Y43890D02*
X11821D01*
X10490Y43625D01*
X9236Y43106D01*
X8108Y42352D01*
X7148Y41392D01*
X6394Y40264D01*
X5875Y39010D01*
X5610Y37679D01*
Y36321D01*
X5875Y34990D01*
X6394Y33737D01*
X7148Y32608D01*
X8108Y31648D01*
X9236Y30894D01*
X10490Y30375D01*
X11821Y30110D01*
X13179D01*
X14510Y30375D01*
X15764Y30894D01*
X16892Y31648D01*
X17852Y32608D01*
X18606Y33737D01*
X19125Y34990D01*
X19390Y36321D01*
Y37679D01*
X19125Y39010D01*
X18606Y40264D01*
X17852Y41392D01*
X16892Y42352D01*
X15764Y43106D01*
X14510Y43625D01*
X13179Y43890D01*
D02*
G37*
G36*
X107996Y28786D02*
X107404D01*
X106858Y28560D01*
X106440Y28142D01*
X106214Y27595D01*
Y27005D01*
X106267Y26877D01*
X105966Y26480D01*
X105522Y26495D01*
X105244Y26904D01*
X105286Y27005D01*
Y27595D01*
X105060Y28142D01*
X104642Y28560D01*
X104096Y28786D01*
X103504D01*
X102958Y28560D01*
X102540Y28142D01*
X102314Y27595D01*
Y27005D01*
X102419Y26752D01*
X102036Y26369D01*
X101996Y26386D01*
X101404D01*
X100858Y26160D01*
X100440Y25742D01*
X100214Y25196D01*
Y24604D01*
X100440Y24058D01*
X100858Y23640D01*
X101404Y23414D01*
X101996D01*
X102542Y23640D01*
X102960Y24058D01*
X103186Y24604D01*
Y25196D01*
X103081Y25448D01*
X103442Y25809D01*
X103948Y25793D01*
X104231Y25474D01*
X104279Y25352D01*
X104214Y25196D01*
Y24604D01*
X104440Y24058D01*
X104858Y23640D01*
X105404Y23414D01*
X105996D01*
X106542Y23640D01*
X106960Y24058D01*
X107186Y24604D01*
Y25196D01*
X107102Y25398D01*
X107261Y25617D01*
X107471Y25814D01*
X107995D01*
X108348Y25419D01*
X108214Y25096D01*
Y24504D01*
X108440Y23958D01*
X108858Y23540D01*
X109404Y23314D01*
X109996D01*
X110542Y23540D01*
X110960Y23958D01*
X111186Y24504D01*
Y25096D01*
X111102Y25298D01*
X111261Y25517D01*
X111471Y25714D01*
X111996D01*
X112342Y25858D01*
X112626Y25434D01*
X112433Y25242D01*
X112207Y24696D01*
Y24104D01*
X112433Y23558D01*
X112851Y23140D01*
X113397Y22914D01*
X113988D01*
X114535Y23140D01*
X114953Y23558D01*
X115179Y24104D01*
Y24696D01*
X114964Y25214D01*
X115012Y25313D01*
X115275Y25626D01*
X115304Y25614D01*
X115896D01*
X115913Y25621D01*
X116174Y25319D01*
X116227Y25210D01*
X116014Y24696D01*
Y24104D01*
X116240Y23558D01*
X116658Y23140D01*
X117204Y22914D01*
X117796D01*
X118342Y23140D01*
X118760Y23558D01*
X118986Y24104D01*
Y24696D01*
X118852Y25019D01*
X119185Y25392D01*
X119688Y25398D01*
X119946Y25128D01*
X120029Y24970D01*
X119916Y24696D01*
Y24104D01*
X120142Y23558D01*
X120560Y23140D01*
X121106Y22914D01*
X121697D01*
X122243Y23140D01*
X122661Y23558D01*
X122887Y24104D01*
Y24696D01*
X122754Y25018D01*
X123105Y25414D01*
X123696D01*
X123886Y25493D01*
X124129Y25251D01*
X124219Y25090D01*
X124014Y24596D01*
Y24004D01*
X124240Y23458D01*
X124658Y23040D01*
X125204Y22814D01*
X125796D01*
X126342Y23040D01*
X126760Y23458D01*
X126986Y24004D01*
Y24596D01*
X126760Y25142D01*
X126342Y25560D01*
X125796Y25786D01*
X125204D01*
X125014Y25707D01*
X124770Y25949D01*
X124681Y26110D01*
X124886Y26605D01*
Y27196D01*
X124660Y27742D01*
X124242Y28160D01*
X123696Y28386D01*
X123104D01*
X122558Y28160D01*
X122140Y27742D01*
X121914Y27196D01*
Y26605D01*
X122048Y26282D01*
X121716Y25908D01*
X121214Y25902D01*
X120956Y26172D01*
X120872Y26330D01*
X120986Y26605D01*
Y27196D01*
X120760Y27742D01*
X120342Y28160D01*
X119796Y28386D01*
X119204D01*
X118658Y28160D01*
X118240Y27742D01*
X118014Y27196D01*
Y26605D01*
X118148Y26281D01*
X117796Y25886D01*
X117204D01*
X117187Y25879D01*
X116926Y26181D01*
X116873Y26289D01*
X117086Y26805D01*
Y27395D01*
X116860Y27942D01*
X116442Y28360D01*
X115896Y28586D01*
X115304D01*
X114758Y28360D01*
X114340Y27942D01*
X114114Y27395D01*
Y26805D01*
X114329Y26286D01*
X114281Y26188D01*
X114018Y25874D01*
X113988Y25886D01*
X113397D01*
X113050Y25742D01*
X112767Y26166D01*
X112960Y26358D01*
X113186Y26904D01*
Y27496D01*
X112960Y28042D01*
X112542Y28460D01*
X111996Y28686D01*
X111404D01*
X110858Y28460D01*
X110440Y28042D01*
X110214Y27496D01*
Y26904D01*
X110298Y26702D01*
X110139Y26483D01*
X109929Y26286D01*
X109405D01*
X109052Y26681D01*
X109186Y27005D01*
Y27595D01*
X108960Y28142D01*
X108542Y28560D01*
X107996Y28786D01*
D02*
G37*
G36*
X57296Y15286D02*
X56704D01*
X56158Y15060D01*
X55740Y14642D01*
X55514Y14096D01*
Y13504D01*
X55740Y12958D01*
X56158Y12540D01*
X56704Y12314D01*
X57296D01*
X57842Y12540D01*
X58260Y12958D01*
X58486Y13504D01*
Y14096D01*
X58260Y14642D01*
X57842Y15060D01*
X57296Y15286D01*
D02*
G37*
G36*
X165679Y24390D02*
X164321D01*
X162990Y24125D01*
X161737Y23606D01*
X160608Y22852D01*
X159648Y21892D01*
X158894Y20764D01*
X158375Y19510D01*
X158110Y18179D01*
Y16821D01*
X158375Y15490D01*
X158894Y14236D01*
X159648Y13108D01*
X160608Y12148D01*
X161737Y11394D01*
X162990Y10875D01*
X164321Y10610D01*
X165679D01*
X167010Y10875D01*
X168263Y11394D01*
X169392Y12148D01*
X170352Y13108D01*
X171106Y14236D01*
X171625Y15490D01*
X171890Y16821D01*
Y18179D01*
X171625Y19510D01*
X171106Y20764D01*
X170352Y21892D01*
X169392Y22852D01*
X168263Y23606D01*
X167010Y24125D01*
X165679Y24390D01*
D02*
G37*
%LPD*%
D13*
X158900Y66300D02*
X162000Y69400D01*
Y80074D01*
X26900Y81300D02*
X41200D01*
D60*
X138883Y66300D02*
X158900D01*
X90200Y45173D02*
Y80900D01*
X80900Y90200D02*
X90200Y80900D01*
X58700Y90200D02*
X80900D01*
X42800Y74300D02*
X58700Y90200D01*
X40400Y71900D02*
X42800Y74300D01*
X83734Y38707D02*
X90200Y45173D01*
X83641Y15341D02*
Y38614D01*
X48200Y94400D02*
X90800D01*
X109400Y75800D01*
X128500D01*
X76400Y8100D02*
X83641Y15341D01*
X138000Y66300D02*
X138883D01*
X40400Y44700D02*
Y71900D01*
X117000Y58400D02*
X130983D01*
X131813Y59229D01*
Y59229D02*
X138883Y66300D01*
X128500Y75800D02*
X138000Y66300D01*
D62*
X12500Y37000D02*
D03*
X165000Y17500D02*
D03*
D63*
X107622Y85500D02*
D03*
X130378D02*
D03*
D64*
X158900Y66300D02*
D03*
X88400Y82700D02*
D03*
X80900Y90200D02*
D03*
X126100Y71100D02*
D03*
X99800Y57200D02*
D03*
X48200Y94400D02*
D03*
X40400Y44700D02*
D03*
X126000Y62200D02*
D03*
X117000Y58400D02*
D03*
X118236Y66900D02*
D03*
X131813Y59229D02*
D03*
X90200Y67100D02*
D03*
X93600Y59028D02*
D03*
Y61300D02*
D03*
X123400Y26900D02*
D03*
X83827Y38614D02*
D03*
X111700Y27200D02*
D03*
X113693Y24400D02*
D03*
X62100Y35500D02*
D03*
X41200Y81300D02*
D03*
X26900D02*
D03*
X109400Y75800D02*
D03*
X162000Y80074D02*
D03*
X111900Y64200D02*
D03*
X117100Y73300D02*
D03*
X128500Y75800D02*
D03*
X42800Y74300D02*
D03*
X76400Y8100D02*
D03*
X107700Y27300D02*
D03*
X105700Y24900D02*
D03*
X66200Y35500D02*
D03*
X103800Y27300D02*
D03*
X74000Y35500D02*
D03*
X70100D02*
D03*
X72000Y38500D02*
D03*
X68100D02*
D03*
X101700Y24900D02*
D03*
X57000Y13800D02*
D03*
X54800Y55100D02*
D03*
X74000Y74000D02*
D03*
X78000D02*
D03*
X81900Y73900D02*
D03*
X79900Y77100D02*
D03*
X75900D02*
D03*
X117500Y24400D02*
D03*
X115600Y27100D02*
D03*
X64100Y38500D02*
D03*
X59200D02*
D03*
X109700Y24800D02*
D03*
X119500Y26900D02*
D03*
X121402Y24400D02*
D03*
X125500Y24300D02*
D03*
X115964Y66900D02*
D03*
D65*
X81661Y47539D02*
D03*
X77331D02*
D03*
X73000D02*
D03*
X68669D02*
D03*
X64339D02*
D03*
X81661Y51869D02*
D03*
X77331D02*
D03*
X73000D02*
D03*
X68669D02*
D03*
X64339D02*
D03*
X81661Y56200D02*
D03*
X77331D02*
D03*
X73000D02*
D03*
X68669D02*
D03*
X64339D02*
D03*
X81661Y60531D02*
D03*
X77331D02*
D03*
X73000D02*
D03*
X68669D02*
D03*
X64339D02*
D03*
X81661Y64861D02*
D03*
X77331D02*
D03*
X73000D02*
D03*
X68669D02*
D03*
X64339D02*
D03*
M02*
