G04*
G04 #@! TF.GenerationSoftware,Altium Limited,Altium Designer,22.11.1 (43)*
G04*
G04 Layer_Physical_Order=2*
G04 Layer_Color=36540*
%FSLAX25Y25*%
%MOIN*%
G70*
G04*
G04 #@! TF.SameCoordinates,DEB3DBE2-8002-4474-A54A-6D249E35E665*
G04*
G04*
G04 #@! TF.FilePolarity,Positive*
G04*
G01*
G75*
%ADD12C,0.01000*%
%ADD64C,0.01772*%
%ADD65C,0.01968*%
G36*
X174980Y1519D02*
X25922D01*
X1020Y26422D01*
Y103981D01*
X174980D01*
Y1519D01*
D02*
G37*
%LPC*%
G36*
X48496Y95886D02*
X47905D01*
X47358Y95660D01*
X46940Y95242D01*
X46714Y94696D01*
Y94104D01*
X46940Y93558D01*
X47358Y93140D01*
X47905Y92914D01*
X48496D01*
X49042Y93140D01*
X49460Y93558D01*
X49686Y94104D01*
Y94696D01*
X49460Y95242D01*
X49042Y95660D01*
X48496Y95886D01*
D02*
G37*
G36*
X81196Y91686D02*
X80604D01*
X80058Y91460D01*
X79640Y91042D01*
X79414Y90496D01*
Y89904D01*
X79640Y89358D01*
X80058Y88940D01*
X80604Y88714D01*
X81196D01*
X81742Y88940D01*
X82160Y89358D01*
X82386Y89904D01*
Y90496D01*
X82160Y91042D01*
X81742Y91460D01*
X81196Y91686D01*
D02*
G37*
G36*
X130828Y87764D02*
X129928D01*
X129096Y87419D01*
X128459Y86782D01*
X128114Y85950D01*
Y85050D01*
X128459Y84218D01*
X129096Y83581D01*
X129928Y83236D01*
X130828D01*
X131660Y83581D01*
X132297Y84218D01*
X132642Y85050D01*
Y85950D01*
X132297Y86782D01*
X131660Y87419D01*
X130828Y87764D01*
D02*
G37*
G36*
X108072D02*
X107172D01*
X106340Y87419D01*
X105703Y86782D01*
X105358Y85950D01*
Y85050D01*
X105703Y84218D01*
X106340Y83581D01*
X107172Y83236D01*
X108072D01*
X108904Y83581D01*
X109541Y84218D01*
X109886Y85050D01*
Y85950D01*
X109541Y86782D01*
X108904Y87419D01*
X108072Y87764D01*
D02*
G37*
G36*
X88696Y84186D02*
X88104D01*
X87558Y83960D01*
X87140Y83542D01*
X86914Y82996D01*
Y82404D01*
X87140Y81858D01*
X87558Y81440D01*
X88104Y81214D01*
X88696D01*
X89242Y81440D01*
X89660Y81858D01*
X89886Y82404D01*
Y82996D01*
X89660Y83542D01*
X89242Y83960D01*
X88696Y84186D01*
D02*
G37*
G36*
X41495Y82786D02*
X40905D01*
X40358Y82560D01*
X39940Y82142D01*
X39714Y81596D01*
Y81004D01*
X39940Y80458D01*
X40358Y80040D01*
X40905Y79814D01*
X41495D01*
X42042Y80040D01*
X42460Y80458D01*
X42686Y81004D01*
Y81596D01*
X42460Y82142D01*
X42042Y82560D01*
X41495Y82786D01*
D02*
G37*
G36*
X27196D02*
X26605D01*
X26058Y82560D01*
X25640Y82142D01*
X25414Y81596D01*
Y81004D01*
X25640Y80458D01*
X26058Y80040D01*
X26605Y79814D01*
X27196D01*
X27742Y80040D01*
X28160Y80458D01*
X28386Y81004D01*
Y81596D01*
X28160Y82142D01*
X27742Y82560D01*
X27196Y82786D01*
D02*
G37*
G36*
X162296Y81559D02*
X161704D01*
X161158Y81333D01*
X160740Y80915D01*
X160514Y80369D01*
Y79778D01*
X160740Y79232D01*
X161158Y78814D01*
X161704Y78588D01*
X162296D01*
X162842Y78814D01*
X163260Y79232D01*
X163486Y79778D01*
Y80369D01*
X163260Y80915D01*
X162842Y81333D01*
X162296Y81559D01*
D02*
G37*
G36*
X128796Y77286D02*
X128204D01*
X127658Y77060D01*
X127240Y76642D01*
X127014Y76096D01*
Y75504D01*
X127240Y74958D01*
X127658Y74540D01*
X128204Y74314D01*
X128796D01*
X129342Y74540D01*
X129760Y74958D01*
X129986Y75504D01*
Y76096D01*
X129760Y76642D01*
X129342Y77060D01*
X128796Y77286D01*
D02*
G37*
G36*
X109696D02*
X109104D01*
X108558Y77060D01*
X108140Y76642D01*
X107914Y76096D01*
Y75504D01*
X108140Y74958D01*
X108558Y74540D01*
X109104Y74314D01*
X109696D01*
X110242Y74540D01*
X110660Y74958D01*
X110886Y75504D01*
Y76096D01*
X110660Y76642D01*
X110242Y77060D01*
X109696Y77286D01*
D02*
G37*
G36*
X43095Y75786D02*
X42505D01*
X41958Y75560D01*
X41540Y75142D01*
X41314Y74596D01*
Y74004D01*
X41540Y73458D01*
X41958Y73040D01*
X42505Y72814D01*
X43095D01*
X43642Y73040D01*
X44060Y73458D01*
X44286Y74004D01*
Y74596D01*
X44060Y75142D01*
X43642Y75560D01*
X43095Y75786D01*
D02*
G37*
G36*
X86900Y80622D02*
X86900Y80622D01*
X78300D01*
X77871Y80536D01*
X77507Y80293D01*
X77507Y80293D01*
X75800Y78586D01*
X75604D01*
X75058Y78360D01*
X74640Y77942D01*
X74414Y77396D01*
Y76804D01*
X74640Y76258D01*
X75058Y75840D01*
X75604Y75614D01*
X76196D01*
X76742Y75840D01*
X77160Y76258D01*
X77386Y76804D01*
Y77000D01*
X77952Y77566D01*
X78213Y77470D01*
X78414Y77321D01*
Y76804D01*
X78640Y76258D01*
X79058Y75840D01*
X79604Y75614D01*
X80196D01*
X80742Y75840D01*
X80880Y75978D01*
X86120D01*
X89276Y72822D01*
X89069Y72322D01*
X83130D01*
X82923Y72822D01*
X83160Y73058D01*
X83386Y73604D01*
Y74196D01*
X83160Y74742D01*
X82742Y75160D01*
X82196Y75386D01*
X81604D01*
X81058Y75160D01*
X80640Y74742D01*
X80414Y74196D01*
Y73604D01*
X80640Y73058D01*
X80877Y72822D01*
X80670Y72322D01*
X79076D01*
X79011Y72438D01*
X78923Y72822D01*
X79260Y73158D01*
X79486Y73704D01*
Y74296D01*
X79260Y74842D01*
X78842Y75260D01*
X78296Y75486D01*
X77704D01*
X77158Y75260D01*
X76740Y74842D01*
X76514Y74296D01*
Y73779D01*
X76313Y73630D01*
X76052Y73534D01*
X75486Y74100D01*
Y74296D01*
X75260Y74842D01*
X74842Y75260D01*
X74296Y75486D01*
X73704D01*
X73158Y75260D01*
X72740Y74842D01*
X72514Y74296D01*
Y73704D01*
X72740Y73158D01*
X73158Y72740D01*
X73704Y72514D01*
X73900D01*
X76007Y70407D01*
X76007Y70407D01*
X76371Y70164D01*
X76800Y70078D01*
X76800Y70078D01*
X88935D01*
X89966Y69048D01*
X89775Y68532D01*
X89358Y68360D01*
X88940Y67942D01*
X88714Y67396D01*
Y66804D01*
X88940Y66258D01*
X89358Y65840D01*
X89904Y65614D01*
X90496D01*
X91042Y65840D01*
X91460Y66258D01*
X91632Y66675D01*
X92148Y66866D01*
X103378Y55635D01*
Y43500D01*
X103378Y43500D01*
X103464Y43071D01*
X103707Y42707D01*
X116378Y30035D01*
Y28836D01*
X115963Y28558D01*
X115896Y28586D01*
X115304D01*
X114758Y28360D01*
X114340Y27942D01*
X114114Y27395D01*
Y26805D01*
X114329Y26286D01*
X114281Y26188D01*
X114018Y25874D01*
X113988Y25886D01*
X113397D01*
X113050Y25742D01*
X112767Y26166D01*
X112960Y26358D01*
X113186Y26904D01*
Y27496D01*
X112960Y28042D01*
X112542Y28460D01*
X111996Y28686D01*
X111404D01*
X110858Y28460D01*
X110440Y28042D01*
X110214Y27496D01*
Y26904D01*
X110298Y26702D01*
X110139Y26483D01*
X109929Y26286D01*
X109405D01*
X109052Y26681D01*
X109186Y27005D01*
Y27595D01*
X108960Y28142D01*
X108542Y28560D01*
X107996Y28786D01*
X107800D01*
X105993Y30593D01*
X105629Y30836D01*
X105200Y30922D01*
X105200Y30922D01*
X87565D01*
X77307Y41179D01*
X76943Y41422D01*
X76514Y41507D01*
X76514Y41507D01*
X69986D01*
X69986Y41507D01*
X69557Y41422D01*
X69193Y41179D01*
X69193Y41179D01*
X68000Y39986D01*
X67804D01*
X67258Y39760D01*
X66840Y39342D01*
X66614Y38796D01*
Y38205D01*
X66840Y37658D01*
X67258Y37240D01*
X67804Y37014D01*
X68396D01*
X68942Y37240D01*
X69360Y37658D01*
X69586Y38205D01*
Y38400D01*
X70037Y38851D01*
X70514Y38621D01*
Y38205D01*
X70740Y37658D01*
X71158Y37240D01*
X71704Y37014D01*
X72296D01*
X72842Y37240D01*
X72860Y37259D01*
X72995Y37233D01*
X73082Y36981D01*
X73103Y36705D01*
X72740Y36342D01*
X72514Y35796D01*
Y35379D01*
X72037Y35149D01*
X71586Y35600D01*
Y35796D01*
X71360Y36342D01*
X70942Y36760D01*
X70396Y36986D01*
X69804D01*
X69258Y36760D01*
X68840Y36342D01*
X68614Y35796D01*
Y35204D01*
X68840Y34658D01*
X69258Y34240D01*
X69804Y34014D01*
X70000D01*
X71807Y32207D01*
X71807Y32207D01*
X72171Y31964D01*
X72600Y31878D01*
X76435D01*
X84007Y24307D01*
X84007Y24307D01*
X84371Y24064D01*
X84800Y23978D01*
X84800Y23979D01*
X97435D01*
X99607Y21807D01*
X99607Y21807D01*
X99971Y21564D01*
X100400Y21478D01*
X103400D01*
X103400Y21478D01*
X103829Y21564D01*
X104193Y21807D01*
X105800Y23414D01*
X105996D01*
X106542Y23640D01*
X106960Y24058D01*
X107186Y24604D01*
Y25196D01*
X107102Y25398D01*
X107261Y25617D01*
X107471Y25814D01*
X107995D01*
X108348Y25419D01*
X108214Y25096D01*
Y24504D01*
X108440Y23958D01*
X108858Y23540D01*
X109404Y23314D01*
X109996D01*
X110542Y23540D01*
X110960Y23958D01*
X111186Y24504D01*
Y25096D01*
X111102Y25298D01*
X111261Y25517D01*
X111471Y25714D01*
X111996D01*
X112342Y25858D01*
X112626Y25434D01*
X112433Y25242D01*
X112207Y24696D01*
Y24104D01*
X112433Y23558D01*
X112851Y23140D01*
X113397Y22914D01*
X113988D01*
X114535Y23140D01*
X114953Y23558D01*
X115179Y24104D01*
Y24696D01*
X114964Y25214D01*
X115012Y25313D01*
X115275Y25626D01*
X115304Y25614D01*
X115896D01*
X115913Y25621D01*
X116174Y25319D01*
X116227Y25210D01*
X116014Y24696D01*
Y24104D01*
X116240Y23558D01*
X116658Y23140D01*
X117204Y22914D01*
X117796D01*
X118342Y23140D01*
X118760Y23558D01*
X118986Y24104D01*
Y24696D01*
X118852Y25019D01*
X119185Y25392D01*
X119688Y25398D01*
X119946Y25128D01*
X120029Y24970D01*
X119916Y24696D01*
Y24104D01*
X120142Y23558D01*
X120560Y23140D01*
X121106Y22914D01*
X121697D01*
X122243Y23140D01*
X122661Y23558D01*
X122887Y24104D01*
Y24696D01*
X122754Y25018D01*
X123105Y25414D01*
X123696D01*
X123878Y25490D01*
X123897Y25482D01*
X124129Y25251D01*
X124219Y25090D01*
X124014Y24596D01*
Y24004D01*
X124240Y23458D01*
X124658Y23040D01*
X125204Y22814D01*
X125796D01*
X126342Y23040D01*
X126760Y23458D01*
X126986Y24004D01*
Y24596D01*
X126760Y25142D01*
X126622Y25280D01*
Y29300D01*
X126622Y29300D01*
X126536Y29729D01*
X126293Y30093D01*
X109622Y46765D01*
Y57900D01*
X109536Y58329D01*
X109293Y58693D01*
X109293Y58693D01*
X87693Y80293D01*
X87329Y80536D01*
X86900Y80622D01*
D02*
G37*
G36*
X118531Y68386D02*
X117940D01*
X117394Y68160D01*
X117100Y67865D01*
X116806Y68160D01*
X116260Y68386D01*
X115669D01*
X115122Y68160D01*
X114705Y67742D01*
X114478Y67196D01*
Y66604D01*
X114705Y66058D01*
X115122Y65640D01*
X115669Y65414D01*
X116260D01*
X116806Y65640D01*
X117100Y65935D01*
X117394Y65640D01*
X117940Y65414D01*
X118531D01*
X119078Y65640D01*
X119495Y66058D01*
X119722Y66604D01*
Y67196D01*
X119495Y67742D01*
X119078Y68160D01*
X118531Y68386D01*
D02*
G37*
G36*
X159196Y67786D02*
X158604D01*
X158058Y67560D01*
X157640Y67142D01*
X157414Y66596D01*
Y66004D01*
X157640Y65458D01*
X158058Y65040D01*
X158604Y64814D01*
X159196D01*
X159742Y65040D01*
X160160Y65458D01*
X160386Y66004D01*
Y66596D01*
X160160Y67142D01*
X159742Y67560D01*
X159196Y67786D01*
D02*
G37*
G36*
X112196Y65686D02*
X111604D01*
X111058Y65460D01*
X110640Y65042D01*
X110414Y64496D01*
Y63904D01*
X110640Y63358D01*
X111058Y62940D01*
X111596Y62717D01*
X112907Y61407D01*
X112907Y61407D01*
X113271Y61164D01*
X113700Y61078D01*
X125020D01*
X125158Y60940D01*
X125704Y60714D01*
X126296D01*
X126842Y60940D01*
X127260Y61358D01*
X127486Y61904D01*
Y62496D01*
X127260Y63042D01*
X126842Y63460D01*
X126296Y63686D01*
X125704D01*
X125158Y63460D01*
X125020Y63322D01*
X114165D01*
X113386Y64100D01*
Y64496D01*
X113160Y65042D01*
X112742Y65460D01*
X112196Y65686D01*
D02*
G37*
G36*
X132108Y60715D02*
X131517D01*
X130971Y60489D01*
X130553Y60071D01*
X130327Y59525D01*
Y58934D01*
X130553Y58388D01*
X130971Y57969D01*
X131517Y57743D01*
X132108D01*
X132654Y57969D01*
X133072Y58388D01*
X133298Y58934D01*
Y59525D01*
X133072Y60071D01*
X132654Y60489D01*
X132108Y60715D01*
D02*
G37*
G36*
X93896Y62786D02*
X93304D01*
X92758Y62560D01*
X92340Y62142D01*
X92114Y61596D01*
Y61004D01*
X92340Y60458D01*
X92635Y60164D01*
X92340Y59870D01*
X92114Y59324D01*
Y58733D01*
X92340Y58187D01*
X92758Y57769D01*
X93304Y57543D01*
X93896D01*
X94442Y57769D01*
X94860Y58187D01*
X95086Y58733D01*
Y59324D01*
X94860Y59870D01*
X94565Y60164D01*
X94860Y60458D01*
X95086Y61004D01*
Y61596D01*
X94860Y62142D01*
X94442Y62560D01*
X93896Y62786D01*
D02*
G37*
G36*
X117296Y59886D02*
X116704D01*
X116158Y59660D01*
X115740Y59242D01*
X115514Y58696D01*
Y58104D01*
X115740Y57558D01*
X116158Y57140D01*
X116704Y56914D01*
X117296D01*
X117842Y57140D01*
X118260Y57558D01*
X118486Y58104D01*
Y58696D01*
X118260Y59242D01*
X117842Y59660D01*
X117296Y59886D01*
D02*
G37*
G36*
X55096Y56586D02*
X54504D01*
X53958Y56360D01*
X53540Y55942D01*
X53314Y55396D01*
Y54804D01*
X53540Y54258D01*
X53958Y53840D01*
X54504Y53614D01*
X55096D01*
X55642Y53840D01*
X56060Y54258D01*
X56286Y54804D01*
Y55396D01*
X56060Y55942D01*
X55642Y56360D01*
X55096Y56586D01*
D02*
G37*
G36*
X40696Y46186D02*
X40104D01*
X39558Y45960D01*
X39140Y45542D01*
X38914Y44995D01*
Y44405D01*
X39140Y43858D01*
X39558Y43440D01*
X40104Y43214D01*
X40696D01*
X41242Y43440D01*
X41660Y43858D01*
X41886Y44405D01*
Y44995D01*
X41660Y45542D01*
X41242Y45960D01*
X40696Y46186D01*
D02*
G37*
G36*
X84122Y40100D02*
X83531D01*
X82985Y39874D01*
X82567Y39456D01*
X82341Y38910D01*
Y38319D01*
X82567Y37773D01*
X82985Y37355D01*
X83531Y37128D01*
X84122D01*
X84668Y37355D01*
X85086Y37773D01*
X85313Y38319D01*
Y38910D01*
X85086Y39456D01*
X84668Y39874D01*
X84122Y40100D01*
D02*
G37*
G36*
X64396Y39986D02*
X63804D01*
X63258Y39760D01*
X62840Y39342D01*
X62614Y38796D01*
Y38205D01*
X62840Y37658D01*
X63258Y37240D01*
X63804Y37014D01*
X64396D01*
X64942Y37240D01*
X65360Y37658D01*
X65586Y38205D01*
Y38796D01*
X65360Y39342D01*
X64942Y39760D01*
X64396Y39986D01*
D02*
G37*
G36*
X59496D02*
X58904D01*
X58358Y39760D01*
X57940Y39342D01*
X57714Y38796D01*
Y38205D01*
X57940Y37658D01*
X58358Y37240D01*
X58904Y37014D01*
X59496D01*
X60042Y37240D01*
X60460Y37658D01*
X60686Y38205D01*
Y38796D01*
X60460Y39342D01*
X60042Y39760D01*
X59496Y39986D01*
D02*
G37*
G36*
X66496Y36986D02*
X65904D01*
X65358Y36760D01*
X64940Y36342D01*
X64714Y35796D01*
Y35204D01*
X64940Y34658D01*
X65358Y34240D01*
X65904Y34014D01*
X66496D01*
X67042Y34240D01*
X67460Y34658D01*
X67686Y35204D01*
Y35796D01*
X67460Y36342D01*
X67042Y36760D01*
X66496Y36986D01*
D02*
G37*
G36*
X62396D02*
X61804D01*
X61258Y36760D01*
X60840Y36342D01*
X60614Y35796D01*
Y35204D01*
X60840Y34658D01*
X61258Y34240D01*
X61804Y34014D01*
X62396D01*
X62942Y34240D01*
X63360Y34658D01*
X63586Y35204D01*
Y35796D01*
X63360Y36342D01*
X62942Y36760D01*
X62396Y36986D01*
D02*
G37*
G36*
X13179Y43890D02*
X11821D01*
X10490Y43625D01*
X9236Y43106D01*
X8108Y42352D01*
X7148Y41392D01*
X6394Y40264D01*
X5875Y39010D01*
X5610Y37679D01*
Y36321D01*
X5875Y34990D01*
X6394Y33737D01*
X7148Y32608D01*
X8108Y31648D01*
X9236Y30894D01*
X10490Y30375D01*
X11821Y30110D01*
X13179D01*
X14510Y30375D01*
X15764Y30894D01*
X16892Y31648D01*
X17852Y32608D01*
X18606Y33737D01*
X19125Y34990D01*
X19390Y36321D01*
Y37679D01*
X19125Y39010D01*
X18606Y40264D01*
X17852Y41392D01*
X16892Y42352D01*
X15764Y43106D01*
X14510Y43625D01*
X13179Y43890D01*
D02*
G37*
G36*
X57296Y15286D02*
X56704D01*
X56158Y15060D01*
X55740Y14642D01*
X55514Y14096D01*
Y13504D01*
X55740Y12958D01*
X56158Y12540D01*
X56704Y12314D01*
X57296D01*
X57842Y12540D01*
X58260Y12958D01*
X58486Y13504D01*
Y14096D01*
X58260Y14642D01*
X57842Y15060D01*
X57296Y15286D01*
D02*
G37*
G36*
X165679Y24390D02*
X164321D01*
X162990Y24125D01*
X161737Y23606D01*
X160608Y22852D01*
X159648Y21892D01*
X158894Y20764D01*
X158375Y19510D01*
X158110Y18179D01*
Y16821D01*
X158375Y15490D01*
X158894Y14236D01*
X159648Y13108D01*
X160608Y12148D01*
X161737Y11394D01*
X162990Y10875D01*
X164321Y10610D01*
X165679D01*
X167010Y10875D01*
X168263Y11394D01*
X169392Y12148D01*
X170352Y13108D01*
X171106Y14236D01*
X171625Y15490D01*
X171890Y16821D01*
Y18179D01*
X171625Y19510D01*
X171106Y20764D01*
X170352Y21892D01*
X169392Y22852D01*
X168263Y23606D01*
X167010Y24125D01*
X165679Y24390D01*
D02*
G37*
G36*
X76696Y9586D02*
X76104D01*
X75558Y9360D01*
X75140Y8942D01*
X74914Y8396D01*
Y7804D01*
X75140Y7258D01*
X75558Y6840D01*
X76104Y6614D01*
X76696D01*
X77242Y6840D01*
X77660Y7258D01*
X77886Y7804D01*
Y8396D01*
X77660Y8942D01*
X77242Y9360D01*
X76696Y9586D01*
D02*
G37*
%LPD*%
D12*
X104500Y43500D02*
Y56100D01*
X117500Y24400D02*
Y30500D01*
X104500Y43500D02*
X117500Y30500D01*
X123313Y26987D02*
X123400Y26900D01*
X123313Y26987D02*
Y28187D01*
X106442Y45058D02*
X123313Y28187D01*
X106442Y45058D02*
Y57242D01*
X108500Y46300D02*
Y57900D01*
X125500Y24300D02*
Y29300D01*
X108500Y46300D02*
X125500Y29300D01*
X86900Y79500D02*
X108500Y57900D01*
X86584Y77100D02*
X106442Y57242D01*
X89400Y71200D02*
X104500Y56100D01*
X79900Y77100D02*
X86584D01*
X111900Y64000D02*
X113700Y62200D01*
X126000D01*
X84800Y25100D02*
X97900D01*
X100400Y22600D01*
X103400D01*
X76900Y33000D02*
X84800Y25100D01*
X103400Y22600D02*
X105700Y24900D01*
X87100Y29800D02*
X105200D01*
X76514Y40386D02*
X87100Y29800D01*
X74800Y38500D02*
X86000Y27300D01*
X103800D01*
X105200Y29800D02*
X107700Y27300D01*
X72600Y33000D02*
X76900D01*
X70100Y35500D02*
X72600Y33000D01*
X78300Y79500D02*
X86900D01*
X74000Y74000D02*
X76800Y71200D01*
X89400D01*
X111900Y64000D02*
Y64200D01*
X72000Y38500D02*
X74800D01*
X69986Y40386D02*
X76514D01*
X68100Y38500D02*
X69986Y40386D01*
X75900Y77100D02*
X78300Y79500D01*
D64*
X126100Y71100D02*
D03*
X99800Y57200D02*
D03*
X126000Y62200D02*
D03*
X123400Y26900D02*
D03*
X111900Y64200D02*
D03*
X117100Y73300D02*
D03*
X107700Y27300D02*
D03*
X105700Y24900D02*
D03*
X103800Y27300D02*
D03*
X70100Y35500D02*
D03*
X72000Y38500D02*
D03*
X68100D02*
D03*
X74000Y74000D02*
D03*
X79900Y77100D02*
D03*
X75900D02*
D03*
X117500Y24400D02*
D03*
X125500Y24300D02*
D03*
D65*
X81661Y47539D02*
D03*
X77331D02*
D03*
X73000D02*
D03*
X68669D02*
D03*
X64339D02*
D03*
X81661Y51869D02*
D03*
X77331D02*
D03*
X73000D02*
D03*
X68669D02*
D03*
X64339D02*
D03*
X81661Y56200D02*
D03*
X77331D02*
D03*
X73000D02*
D03*
X68669D02*
D03*
X64339D02*
D03*
X81661Y60531D02*
D03*
X77331D02*
D03*
X73000D02*
D03*
X68669D02*
D03*
X64339D02*
D03*
X81661Y64861D02*
D03*
X77331D02*
D03*
X73000D02*
D03*
X68669D02*
D03*
X64339D02*
D03*
M02*
