G04*
G04 #@! TF.GenerationSoftware,Altium Limited,Altium Designer,22.9.1 (49)*
G04*
G04 Layer_Color=32896*
%FSLAX25Y25*%
%MOIN*%
G70*
G04*
G04 #@! TF.SameCoordinates,D4816976-5514-483D-9E39-B707E229CF54*
G04*
G04*
G04 #@! TF.FilePolarity,Positive*
G04*
G01*
G75*
G36*
X114960Y91025D02*
X115029D01*
Y90955D01*
X114960D01*
Y70841D01*
X115029D01*
Y70772D01*
X114960D01*
Y70633D01*
X112394D01*
Y70703D01*
X112324D01*
Y88458D01*
X42620D01*
Y18754D01*
X112324D01*
Y36509D01*
X114821D01*
Y36579D01*
X114891D01*
Y36509D01*
X114960D01*
Y36440D01*
X115029D01*
Y36370D01*
X114960D01*
Y16257D01*
X115029D01*
Y16187D01*
X114960D01*
Y16049D01*
X39984D01*
Y16118D01*
X39915D01*
Y91094D01*
X39984D01*
Y91163D01*
X114960D01*
Y91025D01*
D02*
G37*
G36*
X123768Y68275D02*
X123838D01*
Y68206D01*
X123907D01*
Y68136D01*
X124254D01*
Y68206D01*
X124393D01*
Y68136D01*
X124462D01*
Y68067D01*
X124531D01*
Y67998D01*
X125086D01*
Y67928D01*
X125155D01*
Y67859D01*
X125225D01*
Y67790D01*
X125294D01*
Y67859D01*
X125710D01*
Y67790D01*
X125780D01*
Y65015D01*
X125502D01*
Y65085D01*
X125433D01*
Y65154D01*
X124670D01*
Y65293D01*
X124601D01*
Y65362D01*
X124185D01*
Y65293D01*
X124115D01*
Y65362D01*
X123976D01*
Y65501D01*
X123352D01*
Y65570D01*
X123283D01*
Y65640D01*
X123005D01*
Y65778D01*
X122936D01*
Y65848D01*
X123005D01*
Y68136D01*
X122936D01*
Y68206D01*
X123005D01*
Y68344D01*
X123768D01*
Y68275D01*
D02*
G37*
G36*
X154702Y66957D02*
X154771D01*
Y46219D01*
X154633D01*
Y46150D01*
X154563D01*
Y46219D01*
X152274D01*
Y46150D01*
X152205D01*
Y46219D01*
X152136D01*
Y46289D01*
X152066D01*
Y56137D01*
X152136D01*
Y56207D01*
X152066D01*
Y56345D01*
X146656D01*
Y56276D01*
X146587D01*
Y56207D01*
X146518D01*
Y56137D01*
X146448D01*
Y46219D01*
X146310D01*
Y46150D01*
X146240D01*
Y46219D01*
X143951D01*
Y46150D01*
X143882D01*
Y46219D01*
X143813D01*
Y46289D01*
X143743D01*
Y66957D01*
X143813D01*
Y67027D01*
X146379D01*
Y66957D01*
X146448D01*
Y59189D01*
X146587D01*
Y59051D01*
X146656D01*
Y58981D01*
X152066D01*
Y59120D01*
X152136D01*
Y59189D01*
X152066D01*
Y65986D01*
Y66056D01*
Y66957D01*
X152136D01*
Y67027D01*
X154702D01*
Y66957D01*
D02*
G37*
G36*
X139235Y60923D02*
X139304D01*
Y60854D01*
X139582D01*
Y60784D01*
X139651D01*
Y60646D01*
X139929D01*
Y60576D01*
X139998D01*
Y60507D01*
X140067D01*
Y60438D01*
X140137D01*
Y60368D01*
X140206D01*
Y60299D01*
X140276D01*
Y60230D01*
X140345D01*
Y60160D01*
X140414D01*
Y60091D01*
X140484D01*
Y60022D01*
X140414D01*
Y59952D01*
X140484D01*
Y59813D01*
X140622D01*
Y59397D01*
X140692D01*
Y59328D01*
X140761D01*
Y47884D01*
X140692D01*
Y47815D01*
X140622D01*
Y47398D01*
X140553D01*
Y47329D01*
X140484D01*
Y47260D01*
X140414D01*
Y47190D01*
X140484D01*
Y47121D01*
X140414D01*
Y47052D01*
X140345D01*
Y46982D01*
X140276D01*
Y46913D01*
X140206D01*
Y46843D01*
X140137D01*
Y46774D01*
X140067D01*
Y46705D01*
X139998D01*
Y46635D01*
X139929D01*
Y46566D01*
X139859D01*
Y46497D01*
X139651D01*
Y46427D01*
X139582D01*
Y46358D01*
X139304D01*
Y46219D01*
X139166D01*
Y46150D01*
X139096D01*
Y46219D01*
X132646D01*
Y46150D01*
X132577D01*
Y46219D01*
X132438D01*
Y46774D01*
X132507D01*
Y46843D01*
X132577D01*
Y46913D01*
X132646D01*
Y47537D01*
X132785D01*
Y48300D01*
X132854D01*
Y48369D01*
X132924D01*
Y48439D01*
X132993D01*
Y48577D01*
X132924D01*
Y48785D01*
X132993D01*
Y48855D01*
X136738D01*
Y48924D01*
X136808D01*
Y48994D01*
X136877D01*
Y49063D01*
X136946D01*
Y48994D01*
X137363D01*
Y49063D01*
X137432D01*
Y49132D01*
X137501D01*
Y49202D01*
X137571D01*
Y49271D01*
X137640D01*
Y49340D01*
X137709D01*
Y49410D01*
X137779D01*
Y49479D01*
X137848D01*
Y49549D01*
X137917D01*
Y49618D01*
X137987D01*
Y49757D01*
X137917D01*
Y51976D01*
X137987D01*
Y52115D01*
X137917D01*
Y52184D01*
X133964D01*
Y52323D01*
X133686D01*
Y52392D01*
X133617D01*
Y52531D01*
X133340D01*
Y52600D01*
X133270D01*
Y52670D01*
X133201D01*
Y52739D01*
X133132D01*
Y52808D01*
X133062D01*
Y52878D01*
X132993D01*
Y52947D01*
X132924D01*
Y53016D01*
X132854D01*
Y53086D01*
X132785D01*
Y53155D01*
X132715D01*
Y53224D01*
X132646D01*
Y53433D01*
X132577D01*
Y53502D01*
X132507D01*
Y53571D01*
X132438D01*
Y59605D01*
X132507D01*
Y59675D01*
X132577D01*
Y59744D01*
X132646D01*
Y60022D01*
X132785D01*
Y60160D01*
X132924D01*
Y60230D01*
X132993D01*
Y60299D01*
X133062D01*
Y60368D01*
X133132D01*
Y60507D01*
X133270D01*
Y60576D01*
X133340D01*
Y60646D01*
X133409D01*
Y60715D01*
X133478D01*
Y60854D01*
X133964D01*
Y60992D01*
X139235D01*
Y60923D01*
D02*
G37*
G36*
X70848D02*
X70918D01*
Y60854D01*
X71195D01*
Y60715D01*
X71264D01*
Y60646D01*
X71542D01*
Y60576D01*
X71611D01*
Y60507D01*
X71681D01*
Y60438D01*
X71750D01*
Y60368D01*
X71819D01*
Y60299D01*
X71889D01*
Y60230D01*
X71958D01*
Y60160D01*
X72027D01*
Y59883D01*
X72097D01*
Y59813D01*
X72235D01*
Y59536D01*
X72305D01*
Y59467D01*
X72374D01*
Y47676D01*
X72235D01*
Y47398D01*
X72166D01*
Y47329D01*
X72097D01*
Y47260D01*
X72027D01*
Y47052D01*
X71958D01*
Y46982D01*
X71889D01*
Y46913D01*
X71819D01*
Y46843D01*
X71750D01*
Y46774D01*
X71681D01*
Y46705D01*
X71611D01*
Y46635D01*
X71542D01*
Y46566D01*
X71473D01*
Y46497D01*
X71264D01*
Y46427D01*
X71195D01*
Y46358D01*
X70918D01*
Y46289D01*
X70848D01*
Y46219D01*
X70779D01*
Y46150D01*
X70710D01*
Y46219D01*
X64259D01*
Y46150D01*
X64190D01*
Y46219D01*
X64051D01*
Y46635D01*
X64121D01*
Y46705D01*
X64190D01*
Y46774D01*
X64259D01*
Y47537D01*
X64398D01*
Y48161D01*
X64467D01*
Y48231D01*
X64537D01*
Y48300D01*
X64606D01*
Y48439D01*
X64537D01*
Y48785D01*
X64606D01*
Y48855D01*
X68559D01*
Y48994D01*
X68698D01*
Y49063D01*
X68768D01*
Y48994D01*
X68976D01*
Y49063D01*
X69045D01*
Y49132D01*
X69114D01*
Y49202D01*
X69184D01*
Y49271D01*
X69253D01*
Y49340D01*
X69322D01*
Y49410D01*
X69392D01*
Y49479D01*
X69461D01*
Y49549D01*
X69530D01*
Y49618D01*
X69600D01*
Y49757D01*
X69530D01*
Y51976D01*
X69600D01*
Y52045D01*
X69530D01*
Y52184D01*
X65577D01*
Y52323D01*
X65300D01*
Y52392D01*
X65230D01*
Y52461D01*
X65161D01*
Y52531D01*
X64953D01*
Y52600D01*
X64884D01*
Y52670D01*
X64814D01*
Y52739D01*
X64745D01*
Y52808D01*
X64675D01*
Y52878D01*
X64606D01*
Y52947D01*
X64537D01*
Y53016D01*
X64467D01*
Y53086D01*
X64398D01*
Y53155D01*
X64329D01*
Y53224D01*
X64259D01*
Y53433D01*
X64190D01*
Y53502D01*
X64121D01*
Y53571D01*
X64051D01*
Y59605D01*
X64121D01*
Y59675D01*
X64190D01*
Y59744D01*
X64259D01*
Y60022D01*
X64398D01*
Y60160D01*
X64537D01*
Y60230D01*
X64606D01*
Y60299D01*
X64675D01*
Y60368D01*
X64745D01*
Y60507D01*
X64884D01*
Y60646D01*
X65161D01*
Y60715D01*
X65230D01*
Y60784D01*
X65300D01*
Y60854D01*
X65577D01*
Y60992D01*
X70848D01*
Y60923D01*
D02*
G37*
G36*
X107469Y68206D02*
X107539D01*
Y68136D01*
X107955D01*
Y68206D01*
X108024D01*
Y68136D01*
X108163D01*
Y67998D01*
X108995D01*
Y67859D01*
X109134D01*
Y67790D01*
X109203D01*
Y67859D01*
X109411D01*
Y67790D01*
X109481D01*
Y46219D01*
X106845D01*
Y48161D01*
Y48231D01*
Y58149D01*
X103932D01*
Y58218D01*
X103863D01*
Y58634D01*
X103793D01*
Y58704D01*
X103655D01*
Y59328D01*
X103585D01*
Y59397D01*
X103516D01*
Y60160D01*
X103377D01*
Y60230D01*
X103308D01*
Y60646D01*
X103377D01*
Y60784D01*
X103238D01*
Y60854D01*
X103169D01*
Y60992D01*
X106776D01*
Y61062D01*
X106845D01*
Y68344D01*
X107469D01*
Y68206D01*
D02*
G37*
G36*
X128415Y68275D02*
X128485D01*
Y68206D01*
X128554D01*
Y68136D01*
X128970D01*
Y68206D01*
X129040D01*
Y68136D01*
X129109D01*
Y68067D01*
X129178D01*
Y67998D01*
X129941D01*
Y67859D01*
X130080D01*
Y67790D01*
X130149D01*
Y67859D01*
X130565D01*
Y67790D01*
X130635D01*
Y66472D01*
Y66402D01*
Y46219D01*
X130496D01*
Y46150D01*
X130427D01*
Y46219D01*
X127999D01*
Y46150D01*
X127930D01*
Y46219D01*
X127791D01*
Y68275D01*
X127860D01*
Y68344D01*
X128415D01*
Y68275D01*
D02*
G37*
G36*
X123283Y60923D02*
X123352D01*
Y60854D01*
X123907D01*
Y60784D01*
X123976D01*
Y60715D01*
X124046D01*
Y60646D01*
X124462D01*
Y60715D01*
X124531D01*
Y60646D01*
X124601D01*
Y60576D01*
X124670D01*
Y60507D01*
X125433D01*
Y60438D01*
X125502D01*
Y60368D01*
X125572D01*
Y60299D01*
X125641D01*
Y46219D01*
X123144D01*
Y46150D01*
X123075D01*
Y46219D01*
X123005D01*
Y46289D01*
X122936D01*
Y46358D01*
X123005D01*
Y59467D01*
Y59536D01*
Y60992D01*
X123283D01*
Y60923D01*
D02*
G37*
G36*
X118636Y60854D02*
X119121D01*
Y60715D01*
X119191D01*
Y60646D01*
X119468D01*
Y60576D01*
X119537D01*
Y60507D01*
X119607D01*
Y60438D01*
X119676D01*
Y60368D01*
X119746D01*
Y60299D01*
X119815D01*
Y60022D01*
X119954D01*
Y59883D01*
X120023D01*
Y59813D01*
X120162D01*
Y59328D01*
X120300D01*
Y47884D01*
X120231D01*
Y47815D01*
X120162D01*
Y47398D01*
X120092D01*
Y47329D01*
X119954D01*
Y47052D01*
X119884D01*
Y46982D01*
X119815D01*
Y46913D01*
X119746D01*
Y46843D01*
X119676D01*
Y46774D01*
X119607D01*
Y46705D01*
X119537D01*
Y46635D01*
X119468D01*
Y46566D01*
X119399D01*
Y46497D01*
X119191D01*
Y46427D01*
X119121D01*
Y46358D01*
X118844D01*
Y46289D01*
X118775D01*
Y46219D01*
X118705D01*
Y46150D01*
X118636D01*
Y46219D01*
X113711D01*
Y46150D01*
X113573D01*
Y46219D01*
X113503D01*
Y46289D01*
X113434D01*
Y46358D01*
X113018D01*
Y46427D01*
X112949D01*
Y46497D01*
X112879D01*
Y46566D01*
X112810D01*
Y46635D01*
X112740D01*
Y46705D01*
X112671D01*
Y46774D01*
X112602D01*
Y46843D01*
X112532D01*
Y46913D01*
X112463D01*
Y46982D01*
X112394D01*
Y47052D01*
X112324D01*
Y47121D01*
X112255D01*
Y47190D01*
X112186D01*
Y47468D01*
X112116D01*
Y47537D01*
X111978D01*
Y50866D01*
Y50936D01*
Y59605D01*
X112047D01*
Y59675D01*
X112116D01*
Y59744D01*
X112186D01*
Y60022D01*
X112324D01*
Y60160D01*
X112463D01*
Y60299D01*
X112532D01*
Y60368D01*
X112671D01*
Y60507D01*
X112810D01*
Y60646D01*
X113087D01*
Y60715D01*
X113157D01*
Y60784D01*
X113226D01*
Y60854D01*
X113503D01*
Y60992D01*
X118636D01*
Y60854D01*
D02*
G37*
G36*
X102337Y46219D02*
X99701D01*
Y46150D01*
X99632D01*
Y46219D01*
X99493D01*
Y58149D01*
X97551D01*
Y58218D01*
X97482D01*
Y58149D01*
X97343D01*
Y58010D01*
X97066D01*
Y57941D01*
X96996D01*
Y57663D01*
X96858D01*
Y57386D01*
X96788D01*
Y57316D01*
X96719D01*
Y57247D01*
X96649D01*
Y57108D01*
X96719D01*
Y56970D01*
X96649D01*
Y56415D01*
X96719D01*
Y56276D01*
X96649D01*
Y56207D01*
X96580D01*
Y56137D01*
X96511D01*
Y56207D01*
X96095D01*
Y56137D01*
X96025D01*
Y56068D01*
X95956D01*
Y55999D01*
X95401D01*
Y55929D01*
X95332D01*
Y55860D01*
X94569D01*
Y55791D01*
X94499D01*
Y55721D01*
X94430D01*
Y55652D01*
X94083D01*
Y55721D01*
X94014D01*
Y59605D01*
X94083D01*
Y59675D01*
X94152D01*
Y59744D01*
X94222D01*
Y59813D01*
X94152D01*
Y59952D01*
X94222D01*
Y60022D01*
X94361D01*
Y60160D01*
X94499D01*
Y60299D01*
X94569D01*
Y60368D01*
X94638D01*
Y60438D01*
X94707D01*
Y60507D01*
X94846D01*
Y60646D01*
X95123D01*
Y60715D01*
X95193D01*
Y60854D01*
X95470D01*
Y60923D01*
X95540D01*
Y60992D01*
X102337D01*
Y46219D01*
D02*
G37*
G36*
X91170Y60923D02*
X91240D01*
Y60854D01*
X91517D01*
Y60715D01*
X91586D01*
Y60646D01*
X91864D01*
Y60507D01*
X92002D01*
Y60438D01*
X92072D01*
Y60368D01*
X92141D01*
Y60299D01*
X92211D01*
Y60160D01*
X92349D01*
Y59883D01*
X92419D01*
Y59813D01*
X92488D01*
Y59744D01*
X92557D01*
Y59675D01*
X92488D01*
Y59605D01*
X92557D01*
Y59536D01*
X92627D01*
Y59467D01*
X92696D01*
Y54750D01*
Y54681D01*
Y47745D01*
X92627D01*
Y47676D01*
X92557D01*
Y47606D01*
X92488D01*
Y47537D01*
X92557D01*
Y47468D01*
X92488D01*
Y47329D01*
X92349D01*
Y47052D01*
X92280D01*
Y46982D01*
X92211D01*
Y46913D01*
X92141D01*
Y46843D01*
X92072D01*
Y46774D01*
X92002D01*
Y46705D01*
X91933D01*
Y46635D01*
X91864D01*
Y46566D01*
X91794D01*
Y46497D01*
X91517D01*
Y46358D01*
X91240D01*
Y46289D01*
X91170D01*
Y46219D01*
X91101D01*
Y46150D01*
X91031D01*
Y46219D01*
X86038D01*
Y46150D01*
X85968D01*
Y46219D01*
X85899D01*
Y46289D01*
X85830D01*
Y46358D01*
X85552D01*
Y46497D01*
X85275D01*
Y46566D01*
X85205D01*
Y46635D01*
X85136D01*
Y46705D01*
X85067D01*
Y46774D01*
X84997D01*
Y46843D01*
X84928D01*
Y46913D01*
X84859D01*
Y46982D01*
X84789D01*
Y47052D01*
X84720D01*
Y47329D01*
X84581D01*
Y47398D01*
X84512D01*
Y47676D01*
X84442D01*
Y47745D01*
X84373D01*
Y59467D01*
X84442D01*
Y59536D01*
X84512D01*
Y59813D01*
X84650D01*
Y59883D01*
X84720D01*
Y60160D01*
X84789D01*
Y60230D01*
X84859D01*
Y60299D01*
X84928D01*
Y60368D01*
X84997D01*
Y60438D01*
X85067D01*
Y60507D01*
X85136D01*
Y60576D01*
X85205D01*
Y60646D01*
X85483D01*
Y60715D01*
X85552D01*
Y60854D01*
X85830D01*
Y60923D01*
X85899D01*
Y60992D01*
X91170D01*
Y60923D01*
D02*
G37*
G36*
X82500D02*
X82570D01*
Y38798D01*
X82500D01*
Y38729D01*
X82431D01*
Y38659D01*
X82362D01*
Y38729D01*
X79726D01*
Y46150D01*
X79657D01*
Y46219D01*
X75911D01*
Y46150D01*
X75842D01*
Y46219D01*
X75703D01*
Y46358D01*
X75218D01*
Y46497D01*
X75148D01*
Y46566D01*
X75079D01*
Y46635D01*
X75010D01*
Y46705D01*
X74940D01*
Y46774D01*
X74871D01*
Y46843D01*
X74802D01*
Y46913D01*
X74732D01*
Y46982D01*
X74663D01*
Y47052D01*
X74594D01*
Y47121D01*
X74524D01*
Y47190D01*
X74385D01*
Y47468D01*
X74316D01*
Y47537D01*
X74247D01*
Y59467D01*
X74177D01*
Y59536D01*
X74247D01*
Y59675D01*
X74385D01*
Y59952D01*
X74455D01*
Y60022D01*
X74524D01*
Y60091D01*
X74594D01*
Y60160D01*
X74663D01*
Y60230D01*
X74732D01*
Y60299D01*
X74802D01*
Y60368D01*
X74871D01*
Y60438D01*
X74940D01*
Y60507D01*
X75010D01*
Y60576D01*
X75079D01*
Y60646D01*
X75357D01*
Y60784D01*
X75426D01*
Y60854D01*
X75703D01*
Y60923D01*
Y60992D01*
X82500D01*
Y60923D01*
D02*
G37*
%LPC*%
G36*
X137363Y58218D02*
X137293D01*
Y58149D01*
X135975D01*
Y58218D01*
X135906D01*
Y58149D01*
X135767D01*
Y58010D01*
X135490D01*
Y57941D01*
X135421D01*
Y57871D01*
X135351D01*
Y57802D01*
X135282D01*
Y57386D01*
X135212D01*
Y57316D01*
X135143D01*
Y55860D01*
X135212D01*
Y55791D01*
X135282D01*
Y55583D01*
X135351D01*
Y55513D01*
X135421D01*
Y55444D01*
X135490D01*
Y55374D01*
X135559D01*
Y55305D01*
X135628D01*
Y55236D01*
X135698D01*
Y55166D01*
X135767D01*
Y55097D01*
X135837D01*
Y55028D01*
X137917D01*
Y55097D01*
X137987D01*
Y55236D01*
X137917D01*
Y56623D01*
Y56692D01*
Y57455D01*
X137987D01*
Y57594D01*
X137917D01*
Y57663D01*
X137848D01*
Y57733D01*
X137779D01*
Y57802D01*
X137709D01*
Y57871D01*
X137640D01*
Y57941D01*
X137571D01*
Y58010D01*
X137501D01*
Y58079D01*
X137432D01*
Y58149D01*
X137363D01*
Y58218D01*
D02*
G37*
G36*
X68976D02*
X68906D01*
Y58149D01*
X67589D01*
Y58218D01*
X67519D01*
Y58149D01*
X67380D01*
Y58010D01*
X67103D01*
Y57941D01*
X67034D01*
Y57663D01*
X66895D01*
Y57386D01*
X66825D01*
Y57316D01*
X66756D01*
Y55860D01*
X66825D01*
Y55791D01*
X66895D01*
Y55513D01*
X67034D01*
Y55444D01*
X67103D01*
Y55374D01*
X67172D01*
Y55305D01*
X67242D01*
Y55236D01*
X67311D01*
Y55166D01*
X67380D01*
Y55097D01*
X67450D01*
Y55028D01*
X69530D01*
Y55097D01*
X69600D01*
Y55236D01*
X69530D01*
Y57455D01*
X69600D01*
Y57594D01*
X69530D01*
Y57663D01*
X69461D01*
Y57733D01*
X69392D01*
Y57802D01*
X69322D01*
Y57871D01*
X69253D01*
Y57941D01*
X69184D01*
Y58010D01*
X69114D01*
Y58079D01*
X69045D01*
Y58149D01*
X68976D01*
Y58218D01*
D02*
G37*
G36*
X116902D02*
X116832D01*
Y58149D01*
X115515D01*
Y58218D01*
X115445D01*
Y58149D01*
X115307D01*
Y58010D01*
X115029D01*
Y57941D01*
X114960D01*
Y57871D01*
X114891D01*
Y57802D01*
X114821D01*
Y57525D01*
X114682D01*
Y57386D01*
X114613D01*
Y57316D01*
X114682D01*
Y53779D01*
Y53710D01*
Y49687D01*
X114821D01*
Y49410D01*
X114891D01*
Y49340D01*
X114960D01*
Y49271D01*
X115029D01*
Y49202D01*
X115099D01*
Y49132D01*
X115168D01*
Y49063D01*
X115237D01*
Y48994D01*
X115654D01*
Y49063D01*
X115723D01*
Y48994D01*
X115792D01*
Y48924D01*
X115861D01*
Y48855D01*
X116486D01*
Y48994D01*
X116624D01*
Y49063D01*
X116694D01*
Y48994D01*
X116902D01*
Y49063D01*
X116971D01*
Y49132D01*
X117041D01*
Y49202D01*
X117110D01*
Y49271D01*
X117179D01*
Y49340D01*
X117249D01*
Y49410D01*
X117318D01*
Y49479D01*
X117387D01*
Y49549D01*
X117457D01*
Y49618D01*
X117526D01*
Y49687D01*
X117457D01*
Y57525D01*
X117526D01*
Y57594D01*
X117457D01*
Y57663D01*
X117387D01*
Y57733D01*
X117318D01*
Y57802D01*
X117249D01*
Y57871D01*
X117179D01*
Y57941D01*
X117110D01*
Y58010D01*
X117041D01*
Y58079D01*
X116971D01*
Y58149D01*
X116902D01*
Y58218D01*
D02*
G37*
G36*
X89228D02*
X89159D01*
Y58149D01*
X87910D01*
Y58218D01*
X87841D01*
Y58149D01*
X87702D01*
Y58079D01*
X87633D01*
Y58010D01*
X87564D01*
Y57941D01*
X87494D01*
Y57871D01*
X87425D01*
Y57802D01*
X87355D01*
Y57733D01*
X87286D01*
Y57663D01*
X87217D01*
Y57386D01*
X87147D01*
Y57316D01*
X87009D01*
Y56762D01*
Y56692D01*
Y49895D01*
X87078D01*
Y49826D01*
X87217D01*
Y49549D01*
X87286D01*
Y49479D01*
X87355D01*
Y49202D01*
X87633D01*
Y49132D01*
X87702D01*
Y49063D01*
X87772D01*
Y48994D01*
X87980D01*
Y49063D01*
X88118D01*
Y48994D01*
X88188D01*
Y48924D01*
X88257D01*
Y48855D01*
X88812D01*
Y48924D01*
X88881D01*
Y48994D01*
X88951D01*
Y49063D01*
X89089D01*
Y48994D01*
X89297D01*
Y49063D01*
X89367D01*
Y49132D01*
X89436D01*
Y49202D01*
X89506D01*
Y49271D01*
X89575D01*
Y49340D01*
X89644D01*
Y49410D01*
X89714D01*
Y49479D01*
X89783D01*
Y49549D01*
X89852D01*
Y57663D01*
X89714D01*
Y57802D01*
X89644D01*
Y57871D01*
X89575D01*
Y57941D01*
X89506D01*
Y58010D01*
X89367D01*
Y58149D01*
X89228D01*
Y58218D01*
D02*
G37*
G36*
X77715D02*
X77645D01*
Y58149D01*
X77576D01*
Y58079D01*
X77507D01*
Y58010D01*
X77229D01*
Y57733D01*
X77160D01*
Y57663D01*
X77091D01*
Y57594D01*
X77021D01*
Y57386D01*
X76952D01*
Y57316D01*
X76882D01*
Y49895D01*
X76952D01*
Y49826D01*
X77021D01*
Y49618D01*
X77091D01*
Y49549D01*
X77160D01*
Y49479D01*
X77229D01*
Y49410D01*
X77299D01*
Y49340D01*
X77368D01*
Y49271D01*
X77437D01*
Y49202D01*
X77507D01*
Y49132D01*
X77576D01*
Y49063D01*
X77645D01*
Y48994D01*
X77853D01*
Y49063D01*
X77923D01*
Y48994D01*
X78061D01*
Y48855D01*
X79657D01*
Y48924D01*
X79726D01*
Y53363D01*
Y53433D01*
Y58149D01*
X77715D01*
Y58218D01*
D02*
G37*
%LPD*%
M02*
