G04*
G04 #@! TF.GenerationSoftware,Altium Limited,Altium Designer,22.9.1 (49)*
G04*
G04 Layer_Physical_Order=4*
G04 Layer_Color=5622137*
%FSLAX25Y25*%
%MOIN*%
G70*
G04*
G04 #@! TF.SameCoordinates,D4816976-5514-483D-9E39-B707E229CF54*
G04*
G04*
G04 #@! TF.FilePolarity,Positive*
G04*
G01*
G75*
%ADD12C,0.01000*%
%ADD55C,0.11811*%
%ADD56C,0.02559*%
%ADD57C,0.01772*%
%ADD58C,0.01968*%
G36*
X174980Y1519D02*
X25922D01*
X1020Y26422D01*
Y103981D01*
X174980D01*
Y1519D01*
D02*
G37*
%LPC*%
G36*
X25296Y91986D02*
X24704D01*
X24158Y91760D01*
X23740Y91342D01*
X23514Y90796D01*
Y90204D01*
X23740Y89658D01*
X24158Y89240D01*
X24704Y89014D01*
X25296D01*
X25842Y89240D01*
X26260Y89658D01*
X26486Y90204D01*
Y90796D01*
X26260Y91342D01*
X25842Y91760D01*
X25296Y91986D01*
D02*
G37*
G36*
X130828Y87764D02*
X129928D01*
X129096Y87419D01*
X128459Y86782D01*
X128114Y85950D01*
Y85050D01*
X128459Y84218D01*
X129096Y83581D01*
X129928Y83236D01*
X130828D01*
X131660Y83581D01*
X132297Y84218D01*
X132642Y85050D01*
Y85950D01*
X132297Y86782D01*
X131660Y87419D01*
X130828Y87764D01*
D02*
G37*
G36*
X108072D02*
X107172D01*
X106340Y87419D01*
X105703Y86782D01*
X105358Y85950D01*
Y85050D01*
X105703Y84218D01*
X106340Y83581D01*
X107172Y83236D01*
X108072D01*
X108904Y83581D01*
X109541Y84218D01*
X109886Y85050D01*
Y85950D01*
X109541Y86782D01*
X108904Y87419D01*
X108072Y87764D01*
D02*
G37*
G36*
X128796Y77986D02*
X128204D01*
X127658Y77760D01*
X127578Y77679D01*
X127572Y77680D01*
X127560Y77676D01*
X127555Y77676D01*
X127542Y77671D01*
X127528Y77668D01*
X127509Y77665D01*
X127308Y77650D01*
X127229Y77649D01*
X127164Y77622D01*
X110842D01*
X110779Y77649D01*
X110611Y77653D01*
X110497Y77664D01*
X110472Y77668D01*
X110458Y77671D01*
X110445Y77676D01*
X110440Y77676D01*
X110428Y77680D01*
X110422Y77679D01*
X110342Y77760D01*
X109796Y77986D01*
X109204D01*
X108658Y77760D01*
X108240Y77342D01*
X108014Y76796D01*
Y76204D01*
X108240Y75658D01*
X108658Y75240D01*
X109204Y75014D01*
X109796D01*
X110342Y75240D01*
X110422Y75321D01*
X110428Y75320D01*
X110440Y75323D01*
X110445Y75324D01*
X110458Y75329D01*
X110472Y75332D01*
X110491Y75335D01*
X110692Y75350D01*
X110771Y75351D01*
X110836Y75378D01*
X127158D01*
X127221Y75351D01*
X127389Y75346D01*
X127503Y75336D01*
X127528Y75332D01*
X127542Y75329D01*
X127555Y75324D01*
X127560Y75323D01*
X127572Y75320D01*
X127578Y75321D01*
X127658Y75240D01*
X128204Y75014D01*
X128796D01*
X129342Y75240D01*
X129760Y75658D01*
X129986Y76204D01*
Y76796D01*
X129760Y77342D01*
X129342Y77760D01*
X128796Y77986D01*
D02*
G37*
G36*
X45796Y59986D02*
X45204D01*
X44658Y59760D01*
X44578Y59679D01*
X44572Y59680D01*
X44560Y59676D01*
X44555Y59676D01*
X44543Y59671D01*
X44528Y59668D01*
X44509Y59665D01*
X44308Y59650D01*
X44229Y59649D01*
X44164Y59622D01*
X40000D01*
X40000Y59622D01*
X39571Y59536D01*
X39207Y59293D01*
X29155Y49242D01*
X29092Y49217D01*
X28970Y49101D01*
X28882Y49028D01*
X28861Y49013D01*
X28849Y49005D01*
X28836Y49000D01*
X28833Y48997D01*
X28822Y48991D01*
X28818Y48986D01*
X28705D01*
X28158Y48760D01*
X27740Y48342D01*
X27514Y47796D01*
Y47205D01*
X27740Y46658D01*
X27821Y46578D01*
X27820Y46572D01*
X27823Y46560D01*
X27824Y46555D01*
X27829Y46543D01*
X27832Y46528D01*
X27835Y46509D01*
X27850Y46308D01*
X27851Y46229D01*
X27878Y46164D01*
Y24341D01*
X27851Y24279D01*
X27847Y24111D01*
X27836Y23997D01*
X27832Y23972D01*
X27829Y23957D01*
X27824Y23945D01*
X27823Y23940D01*
X27820Y23928D01*
X27821Y23922D01*
X27740Y23842D01*
X27514Y23296D01*
Y22704D01*
X27740Y22158D01*
X28158Y21740D01*
X28705Y21514D01*
X29296D01*
X29842Y21740D01*
X29922Y21821D01*
X29928Y21820D01*
X29940Y21824D01*
X29945Y21824D01*
X29958Y21829D01*
X29972Y21832D01*
X29991Y21835D01*
X30192Y21850D01*
X30271Y21851D01*
X30336Y21879D01*
X45714D01*
X46049Y21378D01*
X46014Y21296D01*
Y20704D01*
X46240Y20158D01*
X46658Y19740D01*
X47205Y19514D01*
X47796D01*
X48342Y19740D01*
X48760Y20158D01*
X48986Y20704D01*
Y21296D01*
X48952Y21378D01*
X49286Y21879D01*
X75159D01*
X75221Y21851D01*
X75389Y21847D01*
X75503Y21836D01*
X75528Y21832D01*
X75542Y21829D01*
X75555Y21824D01*
X75560Y21824D01*
X75572Y21820D01*
X75578Y21821D01*
X75658Y21740D01*
X76204Y21514D01*
X76796D01*
X77342Y21740D01*
X77760Y22158D01*
X77986Y22704D01*
Y23296D01*
X77760Y23842D01*
X77679Y23922D01*
X77680Y23928D01*
X77676Y23940D01*
X77676Y23945D01*
X77671Y23957D01*
X77668Y23972D01*
X77665Y23991D01*
X77650Y24192D01*
X77649Y24271D01*
X77622Y24336D01*
Y50659D01*
X77649Y50721D01*
X77653Y50889D01*
X77664Y51003D01*
X77668Y51028D01*
X77671Y51042D01*
X77676Y51055D01*
X77676Y51060D01*
X77680Y51072D01*
X77679Y51078D01*
X77760Y51158D01*
X77986Y51704D01*
Y52296D01*
X77760Y52842D01*
X77342Y53260D01*
X76796Y53486D01*
X76204D01*
X75658Y53260D01*
X75240Y52842D01*
X75014Y52296D01*
Y51704D01*
X75240Y51158D01*
X75321Y51078D01*
X75320Y51072D01*
X75323Y51060D01*
X75324Y51055D01*
X75329Y51042D01*
X75332Y51028D01*
X75335Y51009D01*
X75350Y50808D01*
X75351Y50729D01*
X75378Y50664D01*
Y24341D01*
X75351Y24279D01*
X75348Y24153D01*
X75308Y24150D01*
X75229Y24149D01*
X75164Y24122D01*
X30342D01*
X30279Y24149D01*
X30153Y24152D01*
X30150Y24192D01*
X30149Y24271D01*
X30122Y24336D01*
Y46158D01*
X30149Y46221D01*
X30154Y46389D01*
X30164Y46503D01*
X30168Y46528D01*
X30171Y46543D01*
X30176Y46555D01*
X30176Y46560D01*
X30180Y46572D01*
X30179Y46578D01*
X30260Y46658D01*
X30486Y47205D01*
Y47318D01*
X30491Y47322D01*
X30497Y47333D01*
X30500Y47336D01*
X30505Y47349D01*
X30513Y47361D01*
X30525Y47377D01*
X30656Y47529D01*
X30711Y47586D01*
X30737Y47651D01*
X40465Y57378D01*
X44159D01*
X44221Y57351D01*
X44389Y57346D01*
X44503Y57336D01*
X44528Y57332D01*
X44543Y57329D01*
X44555Y57324D01*
X44560Y57323D01*
X44572Y57320D01*
X44578Y57321D01*
X44658Y57240D01*
X45204Y57014D01*
X45796D01*
X46342Y57240D01*
X46760Y57658D01*
X46986Y58204D01*
Y58796D01*
X46760Y59342D01*
X46342Y59760D01*
X45796Y59986D01*
D02*
G37*
G36*
X68796Y58986D02*
X68204D01*
X67658Y58760D01*
X67240Y58342D01*
X67014Y57796D01*
Y57437D01*
X66867Y57133D01*
X66603Y57005D01*
X66113Y57174D01*
X65986Y57437D01*
Y57796D01*
X65760Y58342D01*
X65342Y58760D01*
X64796Y58986D01*
X64204D01*
X63658Y58760D01*
X63240Y58342D01*
X63014Y57796D01*
Y57437D01*
X62867Y57133D01*
X62564Y56986D01*
X62204D01*
X61658Y56760D01*
X61240Y56342D01*
X61014Y55796D01*
Y55204D01*
X61240Y54658D01*
X61658Y54240D01*
X62204Y54014D01*
X62796D01*
X63342Y54240D01*
X63760Y54658D01*
X63986Y55204D01*
Y55563D01*
X64133Y55867D01*
X64397Y55995D01*
X64887Y55826D01*
X65014Y55563D01*
Y55204D01*
X65240Y54658D01*
X65658Y54240D01*
X66204Y54014D01*
X66796D01*
X67342Y54240D01*
X67760Y54658D01*
X67986Y55204D01*
Y55563D01*
X68113Y55826D01*
X68500Y55959D01*
X68887Y55826D01*
X69014Y55563D01*
Y55204D01*
X69240Y54658D01*
X69658Y54240D01*
X70204Y54014D01*
X70796D01*
X71342Y54240D01*
X71760Y54658D01*
X71986Y55204D01*
Y55796D01*
X71760Y56342D01*
X71342Y56760D01*
X70796Y56986D01*
X70437D01*
X70133Y57133D01*
X69986Y57437D01*
Y57796D01*
X69760Y58342D01*
X69342Y58760D01*
X68796Y58986D01*
D02*
G37*
G36*
X71296Y92986D02*
X70704D01*
X70158Y92760D01*
X69740Y92342D01*
X69514Y91796D01*
Y91204D01*
X69740Y90658D01*
X69821Y90578D01*
X69820Y90572D01*
X69823Y90560D01*
X69824Y90555D01*
X69829Y90543D01*
X69832Y90528D01*
X69835Y90509D01*
X69850Y90308D01*
X69851Y90229D01*
X69878Y90164D01*
Y78842D01*
X69851Y78779D01*
X69846Y78611D01*
X69836Y78497D01*
X69832Y78472D01*
X69829Y78457D01*
X69824Y78445D01*
X69823Y78440D01*
X69820Y78428D01*
X69821Y78422D01*
X69740Y78342D01*
X69514Y77796D01*
Y77204D01*
X69740Y76658D01*
X70158Y76240D01*
X70704Y76014D01*
X70818D01*
X70822Y76009D01*
X70833Y76003D01*
X70836Y76000D01*
X70849Y75995D01*
X70861Y75987D01*
X70877Y75975D01*
X71029Y75844D01*
X71086Y75789D01*
X71151Y75763D01*
X90707Y56207D01*
X90707Y56207D01*
X91071Y55964D01*
X91500Y55878D01*
X91500Y55878D01*
X106664D01*
X106729Y55851D01*
X106808Y55850D01*
X107009Y55835D01*
X107028Y55832D01*
X107043Y55829D01*
X107055Y55824D01*
X107060Y55823D01*
X107072Y55820D01*
X107078Y55821D01*
X107158Y55740D01*
X107704Y55514D01*
X108296D01*
X108842Y55740D01*
X108922Y55821D01*
X108928Y55820D01*
X108940Y55823D01*
X108945Y55824D01*
X108958Y55829D01*
X108972Y55832D01*
X108991Y55835D01*
X109192Y55850D01*
X109271Y55851D01*
X109336Y55878D01*
X147659D01*
X147721Y55851D01*
X147889Y55847D01*
X148003Y55836D01*
X148028Y55832D01*
X148043Y55829D01*
X148055Y55824D01*
X148060Y55823D01*
X148072Y55820D01*
X148078Y55821D01*
X148158Y55740D01*
X148704Y55514D01*
X149296D01*
X149842Y55740D01*
X150260Y56158D01*
X150486Y56704D01*
Y57296D01*
X150260Y57842D01*
X149842Y58260D01*
X149296Y58486D01*
X148704D01*
X148158Y58260D01*
X148078Y58179D01*
X148072Y58180D01*
X148060Y58176D01*
X148055Y58176D01*
X148043Y58171D01*
X148028Y58168D01*
X148009Y58165D01*
X147808Y58150D01*
X147729Y58149D01*
X147664Y58122D01*
X109342D01*
X109279Y58149D01*
X109111Y58153D01*
X108997Y58164D01*
X108972Y58168D01*
X108958Y58171D01*
X108945Y58176D01*
X108940Y58176D01*
X108928Y58180D01*
X108922Y58179D01*
X108842Y58260D01*
X108296Y58486D01*
X107704D01*
X107158Y58260D01*
X107078Y58179D01*
X107072Y58180D01*
X107060Y58176D01*
X107055Y58176D01*
X107043Y58171D01*
X107028Y58168D01*
X107003Y58164D01*
X106889Y58153D01*
X106721Y58149D01*
X106658Y58122D01*
X91965D01*
X72742Y77345D01*
X72717Y77408D01*
X72601Y77530D01*
X72528Y77618D01*
X72513Y77639D01*
X72505Y77651D01*
X72500Y77664D01*
X72497Y77667D01*
X72491Y77678D01*
X72486Y77682D01*
Y77796D01*
X72260Y78342D01*
X72179Y78422D01*
X72180Y78428D01*
X72176Y78440D01*
X72176Y78445D01*
X72171Y78457D01*
X72168Y78472D01*
X72165Y78491D01*
X72150Y78692D01*
X72149Y78771D01*
X72122Y78836D01*
Y90158D01*
X72149Y90221D01*
X72154Y90389D01*
X72164Y90503D01*
X72168Y90528D01*
X72171Y90543D01*
X72176Y90555D01*
X72176Y90560D01*
X72180Y90572D01*
X72179Y90578D01*
X72260Y90658D01*
X72486Y91204D01*
Y91796D01*
X72260Y92342D01*
X71842Y92760D01*
X71296Y92986D01*
D02*
G37*
G36*
X18296Y56486D02*
X17704D01*
X17158Y56260D01*
X16740Y55842D01*
X16514Y55296D01*
Y54704D01*
X16740Y54158D01*
X17158Y53740D01*
X17704Y53514D01*
X18296D01*
X18842Y53740D01*
X19260Y54158D01*
X19486Y54704D01*
Y55296D01*
X19260Y55842D01*
X18842Y56260D01*
X18296Y56486D01*
D02*
G37*
G36*
X44796Y37486D02*
X44205D01*
X43658Y37260D01*
X43240Y36842D01*
X43014Y36296D01*
Y35704D01*
X43240Y35158D01*
X43658Y34740D01*
X44205Y34514D01*
X44796D01*
X45342Y34740D01*
X45760Y35158D01*
X45986Y35704D01*
Y36296D01*
X45760Y36842D01*
X45342Y37260D01*
X44796Y37486D01*
D02*
G37*
G36*
X13179Y43890D02*
X11821D01*
X10490Y43625D01*
X9236Y43106D01*
X8108Y42352D01*
X7148Y41392D01*
X6394Y40264D01*
X5875Y39010D01*
X5610Y37679D01*
Y36321D01*
X5875Y34990D01*
X6394Y33737D01*
X7148Y32608D01*
X8108Y31648D01*
X9236Y30894D01*
X10490Y30375D01*
X11821Y30110D01*
X13179D01*
X14510Y30375D01*
X15764Y30894D01*
X16892Y31648D01*
X17852Y32608D01*
X18606Y33737D01*
X19125Y34990D01*
X19390Y36321D01*
Y37679D01*
X19125Y39010D01*
X18606Y40264D01*
X17852Y41392D01*
X16892Y42352D01*
X15764Y43106D01*
X14510Y43625D01*
X13179Y43890D01*
D02*
G37*
G36*
X62796Y19486D02*
X62204D01*
X61658Y19260D01*
X61240Y18842D01*
X61014Y18296D01*
Y17936D01*
X60867Y17633D01*
X60603Y17505D01*
X60113Y17674D01*
X59986Y17936D01*
Y18296D01*
X59760Y18842D01*
X59342Y19260D01*
X58796Y19486D01*
X58204D01*
X57658Y19260D01*
X57240Y18842D01*
X57014Y18296D01*
Y17936D01*
X56867Y17633D01*
X56564Y17486D01*
X56437D01*
X56133Y17633D01*
X55986Y17936D01*
Y18296D01*
X55760Y18842D01*
X55342Y19260D01*
X54796Y19486D01*
X54204D01*
X53658Y19260D01*
X53240Y18842D01*
X53014Y18296D01*
Y17936D01*
X52867Y17633D01*
X52603Y17505D01*
X52113Y17674D01*
X51986Y17936D01*
Y18296D01*
X51760Y18842D01*
X51342Y19260D01*
X50796Y19486D01*
X50204D01*
X49658Y19260D01*
X49240Y18842D01*
X49014Y18296D01*
Y17704D01*
X49240Y17158D01*
X49658Y16740D01*
X50204Y16514D01*
X50564D01*
X50867Y16367D01*
X51014Y16063D01*
Y15704D01*
X51240Y15158D01*
X51658Y14740D01*
X52204Y14514D01*
X52796D01*
X53342Y14740D01*
X53760Y15158D01*
X53986Y15704D01*
Y16063D01*
X54133Y16367D01*
X54436Y16514D01*
X54563D01*
X54867Y16367D01*
X55014Y16063D01*
Y15704D01*
X55240Y15158D01*
X55658Y14740D01*
X56204Y14514D01*
X56796D01*
X57342Y14740D01*
X57760Y15158D01*
X57986Y15704D01*
Y16063D01*
X58133Y16367D01*
X58437Y16514D01*
X58564D01*
X58867Y16367D01*
X59014Y16063D01*
Y15704D01*
X59240Y15158D01*
X59658Y14740D01*
X60204Y14514D01*
X60796D01*
X61342Y14740D01*
X61760Y15158D01*
X61986Y15704D01*
Y16063D01*
X62133Y16367D01*
X62436Y16514D01*
X62796D01*
X63342Y16740D01*
X63760Y17158D01*
X63986Y17704D01*
Y18296D01*
X63760Y18842D01*
X63342Y19260D01*
X62796Y19486D01*
D02*
G37*
G36*
X125796Y14986D02*
X125204D01*
X124658Y14760D01*
X124240Y14342D01*
X124014Y13796D01*
Y13437D01*
X123867Y13133D01*
X123564Y12986D01*
X123436D01*
X123133Y13133D01*
X122986Y13437D01*
Y13796D01*
X122760Y14342D01*
X122342Y14760D01*
X121796Y14986D01*
X121204D01*
X120658Y14760D01*
X120240Y14342D01*
X120014Y13796D01*
Y13437D01*
X119887Y13174D01*
X119397Y13005D01*
X119133Y13133D01*
X118986Y13437D01*
Y13796D01*
X118760Y14342D01*
X118342Y14760D01*
X117796Y14986D01*
X117204D01*
X116658Y14760D01*
X116240Y14342D01*
X116014Y13796D01*
Y13437D01*
X115933Y13269D01*
X115615Y13148D01*
X115123Y13416D01*
X115117Y13448D01*
Y13796D01*
X114891Y14342D01*
X114473Y14760D01*
X113927Y14986D01*
X113336D01*
X112789Y14760D01*
X112372Y14342D01*
X112145Y13796D01*
Y13382D01*
X111871Y13071D01*
X111695Y12986D01*
X111436D01*
X111133Y13133D01*
X110986Y13437D01*
Y13796D01*
X110760Y14342D01*
X110342Y14760D01*
X109796Y14986D01*
X109204D01*
X108658Y14760D01*
X108240Y14342D01*
X108014Y13796D01*
Y13713D01*
X107751Y13544D01*
X107486Y13715D01*
Y13796D01*
X107260Y14342D01*
X106842Y14760D01*
X106296Y14986D01*
X105704D01*
X105158Y14760D01*
X104740Y14342D01*
X104514Y13796D01*
Y13437D01*
X104387Y13174D01*
X103897Y13005D01*
X103633Y13133D01*
X103486Y13437D01*
Y13796D01*
X103260Y14342D01*
X102842Y14760D01*
X102296Y14986D01*
X101704D01*
X101158Y14760D01*
X100740Y14342D01*
X100514Y13796D01*
Y13204D01*
X100740Y12658D01*
X101158Y12240D01*
X101704Y12014D01*
X102064D01*
X102367Y11867D01*
X102514Y11564D01*
Y11204D01*
X102740Y10658D01*
X103158Y10240D01*
X103704Y10014D01*
X104296D01*
X104842Y10240D01*
X105260Y10658D01*
X105486Y11204D01*
Y11564D01*
X105489Y11570D01*
X106090Y11770D01*
X106225Y11695D01*
X106225Y11204D01*
X106451Y10658D01*
X106869Y10240D01*
X107415Y10014D01*
X108006D01*
X108552Y10240D01*
X108970Y10658D01*
X109196Y11204D01*
Y11552D01*
X109200Y11755D01*
X109404Y11866D01*
X109962Y11670D01*
X110014Y11564D01*
Y11204D01*
X110240Y10658D01*
X110658Y10240D01*
X111204Y10014D01*
X111796D01*
X112342Y10240D01*
X112760Y10658D01*
X112986Y11204D01*
Y11618D01*
X113260Y11929D01*
X113436Y12014D01*
X113564D01*
X113963Y11820D01*
X114014Y11552D01*
Y11204D01*
X114240Y10658D01*
X114658Y10240D01*
X115204Y10014D01*
X115796D01*
X116342Y10240D01*
X116760Y10658D01*
X116986Y11204D01*
Y11564D01*
X117133Y11867D01*
X117437Y12014D01*
X117563D01*
X117867Y11867D01*
X118014Y11564D01*
Y11204D01*
X118240Y10658D01*
X118658Y10240D01*
X119204Y10014D01*
X119796D01*
X120342Y10240D01*
X120760Y10658D01*
X120986Y11204D01*
Y11564D01*
X121133Y11867D01*
X121437Y12014D01*
X121563D01*
X121867Y11867D01*
X122014Y11564D01*
Y11204D01*
X122240Y10658D01*
X122658Y10240D01*
X123204Y10014D01*
X123796D01*
X124342Y10240D01*
X124760Y10658D01*
X124986Y11204D01*
Y11564D01*
X125133Y11867D01*
X125436Y12014D01*
X125796D01*
X126342Y12240D01*
X126760Y12658D01*
X126986Y13204D01*
Y13796D01*
X126760Y14342D01*
X126342Y14760D01*
X125796Y14986D01*
D02*
G37*
G36*
X165679Y24390D02*
X164321D01*
X162990Y24125D01*
X161737Y23606D01*
X160608Y22852D01*
X159648Y21892D01*
X158894Y20764D01*
X158375Y19510D01*
X158110Y18179D01*
Y16821D01*
X158375Y15490D01*
X158894Y14236D01*
X159648Y13108D01*
X160608Y12148D01*
X161737Y11394D01*
X162990Y10875D01*
X164321Y10610D01*
X165679D01*
X167010Y10875D01*
X168263Y11394D01*
X169392Y12148D01*
X170352Y13108D01*
X171106Y14236D01*
X171625Y15490D01*
X171890Y16821D01*
Y18179D01*
X171625Y19510D01*
X171106Y20764D01*
X170352Y21892D01*
X169392Y22852D01*
X168263Y23606D01*
X167010Y24125D01*
X165679Y24390D01*
D02*
G37*
%LPD*%
G36*
X127867Y75880D02*
X127840Y75903D01*
X127805Y75923D01*
X127761Y75941D01*
X127710Y75957D01*
X127651Y75970D01*
X127584Y75981D01*
X127427Y75995D01*
X127237Y76000D01*
Y77000D01*
X127336Y77001D01*
X127584Y77019D01*
X127651Y77030D01*
X127710Y77043D01*
X127761Y77059D01*
X127805Y77077D01*
X127840Y77097D01*
X127867Y77120D01*
Y75880D01*
D02*
G37*
G36*
X110160Y77097D02*
X110196Y77077D01*
X110239Y77059D01*
X110290Y77043D01*
X110349Y77030D01*
X110416Y77019D01*
X110573Y77005D01*
X110763Y77000D01*
Y76000D01*
X110664Y75999D01*
X110416Y75981D01*
X110349Y75970D01*
X110290Y75957D01*
X110239Y75941D01*
X110196Y75923D01*
X110160Y75903D01*
X110133Y75880D01*
Y77120D01*
X110160Y77097D01*
D02*
G37*
G36*
X44867Y57880D02*
X44840Y57903D01*
X44804Y57923D01*
X44761Y57941D01*
X44710Y57957D01*
X44651Y57970D01*
X44584Y57981D01*
X44427Y57995D01*
X44237Y58000D01*
Y59000D01*
X44336Y59001D01*
X44584Y59019D01*
X44651Y59030D01*
X44710Y59043D01*
X44761Y59059D01*
X44804Y59077D01*
X44840Y59097D01*
X44867Y59120D01*
Y57880D01*
D02*
G37*
G36*
X77097Y51340D02*
X77077Y51305D01*
X77059Y51261D01*
X77043Y51210D01*
X77030Y51151D01*
X77019Y51084D01*
X77005Y50927D01*
X77000Y50737D01*
X76000D01*
X75999Y50836D01*
X75981Y51084D01*
X75970Y51151D01*
X75957Y51210D01*
X75941Y51261D01*
X75923Y51305D01*
X75903Y51340D01*
X75880Y51367D01*
X77120D01*
X77097Y51340D01*
D02*
G37*
G36*
X30246Y48039D02*
X30178Y47969D01*
X30015Y47780D01*
X29975Y47725D01*
X29943Y47674D01*
X29917Y47627D01*
X29900Y47584D01*
X29889Y47544D01*
X29886Y47509D01*
X29009Y48386D01*
X29044Y48389D01*
X29084Y48400D01*
X29127Y48417D01*
X29174Y48443D01*
X29226Y48475D01*
X29280Y48515D01*
X29402Y48616D01*
X29539Y48746D01*
X30246Y48039D01*
D02*
G37*
G36*
X29597Y46840D02*
X29577Y46804D01*
X29559Y46761D01*
X29543Y46710D01*
X29530Y46651D01*
X29519Y46584D01*
X29505Y46426D01*
X29500Y46237D01*
X28500D01*
X28499Y46336D01*
X28481Y46584D01*
X28470Y46651D01*
X28457Y46710D01*
X28441Y46761D01*
X28423Y46804D01*
X28403Y46840D01*
X28380Y46867D01*
X29620D01*
X29597Y46840D01*
D02*
G37*
G36*
X77001Y24164D02*
X77019Y23916D01*
X77030Y23849D01*
X77043Y23790D01*
X77059Y23739D01*
X77077Y23696D01*
X77097Y23660D01*
X77120Y23633D01*
X75880D01*
X75903Y23660D01*
X75923Y23696D01*
X75941Y23739D01*
X75957Y23790D01*
X75970Y23849D01*
X75981Y23916D01*
X75995Y24073D01*
X76000Y24263D01*
X77000D01*
X77001Y24164D01*
D02*
G37*
G36*
X29501D02*
X29519Y23916D01*
X29530Y23849D01*
X29543Y23790D01*
X29559Y23739D01*
X29577Y23696D01*
X29597Y23660D01*
X29620Y23633D01*
X28380D01*
X28403Y23660D01*
X28423Y23696D01*
X28441Y23739D01*
X28457Y23790D01*
X28470Y23849D01*
X28481Y23916D01*
X28495Y24073D01*
X28500Y24263D01*
X29500D01*
X29501Y24164D01*
D02*
G37*
G36*
X75867Y22380D02*
X75840Y22403D01*
X75805Y22423D01*
X75761Y22441D01*
X75710Y22457D01*
X75651Y22470D01*
X75584Y22481D01*
X75427Y22495D01*
X75237Y22500D01*
Y23500D01*
X75336Y23501D01*
X75584Y23519D01*
X75651Y23530D01*
X75710Y23543D01*
X75761Y23559D01*
X75805Y23577D01*
X75840Y23597D01*
X75867Y23620D01*
Y22380D01*
D02*
G37*
G36*
X29660Y23597D02*
X29695Y23577D01*
X29739Y23559D01*
X29790Y23543D01*
X29849Y23530D01*
X29916Y23519D01*
X30073Y23505D01*
X30263Y23500D01*
Y22500D01*
X30164Y22499D01*
X29916Y22481D01*
X29849Y22470D01*
X29790Y22457D01*
X29739Y22441D01*
X29695Y22423D01*
X29660Y22403D01*
X29633Y22380D01*
Y23620D01*
X29660Y23597D01*
D02*
G37*
G36*
X71597Y90840D02*
X71577Y90804D01*
X71559Y90761D01*
X71543Y90710D01*
X71530Y90651D01*
X71519Y90584D01*
X71505Y90426D01*
X71500Y90237D01*
X70500D01*
X70499Y90336D01*
X70481Y90584D01*
X70470Y90651D01*
X70457Y90710D01*
X70441Y90761D01*
X70423Y90804D01*
X70403Y90840D01*
X70380Y90867D01*
X71620D01*
X71597Y90840D01*
D02*
G37*
G36*
X71501Y78664D02*
X71519Y78416D01*
X71530Y78349D01*
X71543Y78290D01*
X71559Y78239D01*
X71577Y78196D01*
X71597Y78160D01*
X71620Y78133D01*
X70380D01*
X70403Y78160D01*
X70423Y78196D01*
X70441Y78239D01*
X70457Y78290D01*
X70470Y78349D01*
X70481Y78416D01*
X70495Y78574D01*
X70500Y78763D01*
X71500D01*
X71501Y78664D01*
D02*
G37*
G36*
X71889Y77456D02*
X71900Y77416D01*
X71917Y77373D01*
X71943Y77326D01*
X71975Y77275D01*
X72015Y77219D01*
X72116Y77098D01*
X72246Y76961D01*
X71539Y76254D01*
X71469Y76322D01*
X71280Y76485D01*
X71226Y76525D01*
X71174Y76557D01*
X71127Y76582D01*
X71084Y76600D01*
X71044Y76611D01*
X71009Y76614D01*
X71886Y77491D01*
X71889Y77456D01*
D02*
G37*
G36*
X148367Y56380D02*
X148340Y56403D01*
X148304Y56423D01*
X148261Y56441D01*
X148210Y56457D01*
X148151Y56470D01*
X148084Y56481D01*
X147926Y56495D01*
X147737Y56500D01*
Y57500D01*
X147836Y57501D01*
X148084Y57519D01*
X148151Y57530D01*
X148210Y57543D01*
X148261Y57559D01*
X148304Y57577D01*
X148340Y57597D01*
X148367Y57620D01*
Y56380D01*
D02*
G37*
G36*
X108660Y57597D02*
X108695Y57577D01*
X108739Y57559D01*
X108790Y57543D01*
X108849Y57530D01*
X108916Y57519D01*
X109073Y57505D01*
X109263Y57500D01*
Y56500D01*
X109164Y56499D01*
X108916Y56481D01*
X108849Y56470D01*
X108790Y56457D01*
X108739Y56441D01*
X108695Y56423D01*
X108660Y56403D01*
X108633Y56380D01*
Y57620D01*
X108660Y57597D01*
D02*
G37*
G36*
X107367Y56380D02*
X107340Y56403D01*
X107305Y56423D01*
X107261Y56441D01*
X107210Y56457D01*
X107151Y56470D01*
X107084Y56481D01*
X106836Y56499D01*
X106737Y56500D01*
Y57500D01*
X106927Y57505D01*
X107084Y57519D01*
X107151Y57530D01*
X107210Y57543D01*
X107261Y57559D01*
X107305Y57577D01*
X107340Y57597D01*
X107367Y57620D01*
Y56380D01*
D02*
G37*
D12*
X29000Y23000D02*
Y47500D01*
Y23000D02*
X76500D01*
X40000Y58500D02*
X45500D01*
X29000Y47500D02*
X40000Y58500D01*
X76500Y23000D02*
Y52000D01*
X91500Y57000D02*
X149000D01*
X71000Y77500D02*
X91500Y57000D01*
X71000Y77500D02*
Y91500D01*
X109500Y76500D02*
X128500D01*
D55*
X12500Y37000D02*
D03*
X165000Y17500D02*
D03*
D56*
X107622Y85500D02*
D03*
X130378D02*
D03*
D57*
X25000Y29000D02*
D03*
X60500Y12000D02*
D03*
X156000Y47000D02*
D03*
X81500Y16000D02*
D03*
X29500Y57000D02*
D03*
X40500Y11000D02*
D03*
X11849Y95606D02*
D03*
X25500Y79500D02*
D03*
X46500Y64500D02*
D03*
X79500Y93000D02*
D03*
X74000Y53500D02*
D03*
X29000Y23000D02*
D03*
X45500Y58500D02*
D03*
X29000Y47500D02*
D03*
X76500Y23000D02*
D03*
Y52000D02*
D03*
X58500Y18000D02*
D03*
X109500Y13500D02*
D03*
X106000D02*
D03*
X54500Y18000D02*
D03*
X52500Y16000D02*
D03*
X60500D02*
D03*
X62500Y18000D02*
D03*
X104000Y11500D02*
D03*
X102000Y13500D02*
D03*
X108000Y57000D02*
D03*
X149000D02*
D03*
X71000Y77500D02*
D03*
Y91500D02*
D03*
X128500Y76500D02*
D03*
X109500D02*
D03*
X125000Y64000D02*
D03*
X112000D02*
D03*
X121000Y48000D02*
D03*
X25000Y90500D02*
D03*
X18000Y55000D02*
D03*
X44500Y36000D02*
D03*
X107710Y11500D02*
D03*
X111500D02*
D03*
X115500D02*
D03*
X117500Y13500D02*
D03*
X113631D02*
D03*
X121500D02*
D03*
X125500D02*
D03*
X123500Y11500D02*
D03*
X119500D02*
D03*
X62500Y55500D02*
D03*
X68500Y57500D02*
D03*
X64500D02*
D03*
X66500Y55500D02*
D03*
X70500D02*
D03*
X50500Y18000D02*
D03*
X56500Y16000D02*
D03*
X47500Y21000D02*
D03*
D58*
X70161Y28339D02*
D03*
X65831D02*
D03*
X61500D02*
D03*
X57169D02*
D03*
X52839D02*
D03*
X70161Y32669D02*
D03*
X65831D02*
D03*
X61500D02*
D03*
X57169D02*
D03*
X52839D02*
D03*
X70161Y37000D02*
D03*
X65831D02*
D03*
X61500D02*
D03*
X57169D02*
D03*
X52839D02*
D03*
X70161Y41331D02*
D03*
X65831D02*
D03*
X61500D02*
D03*
X57169D02*
D03*
X52839D02*
D03*
X70161Y45661D02*
D03*
X65831D02*
D03*
X61500D02*
D03*
X57169D02*
D03*
X52839D02*
D03*
M02*
