M48
;Layer_Color=9474304
;FILE_FORMAT=2:4
INCH,TZ
;TYPE=PLATED
T1F00S00C0.0079
;TYPE=NON_PLATED
T2F00S00C0.0256
T3F00S00C0.1181
%
T01
X6050Y1200
X10200Y1350
X10600
X10950
X10771Y1150
X10400
X11150
X11550
X11363Y1350
X11750
X12150
X12550
X12350Y1150
X11950
X4050Y1100
X2900Y2300
X2500Y2900
X2900Y4750
X2950Y5700
X1800Y5500
X4550Y5850
X4650Y6450
X4450Y3600
X2550Y7950
X2500Y9050
X1185Y9561
X7100Y9150
X7950Y9300
X7100Y7750
X6850Y5750
X6450
X6250Y5550
X6650
X7050
X7400Y5350
X7650Y5200
X7016Y4566
X6583
Y4133
X7016
Y3700
X6583
Y3267
Y2834
X7016
Y3267
X6150
Y2834
X5717
Y3267
X5284
Y2834
Y3700
X5717
X6150
Y4133
X5717
X5284
Y4566
X5717
X6150
X6250Y1800
X5850
X5450
X5250Y1600
X5050Y1800
X4750Y2100
X5650Y1600
X6050
X8150
X7650Y2300
X10800Y5700
X11200Y6400
X12500
X12850Y7650
X10950
X12100Y4800
X15600Y4700
X14900Y5700
T02
X10762Y8550
X13038
T03
X1250Y3700
X16500Y1750
M30
