M48
;Layer_Color=9474304
;FILE_FORMAT=2:4
INCH,TZ
;TYPE=PLATED
T1F00S00C0.0079
;TYPE=NON_PLATED
T2F00S00C0.0256
T3F00S00C0.1181
%
T01
X5700Y1380
X7640Y810
X4040Y4470
X4280Y7430
X4120Y8130
X2690
X4820Y9440
X8090Y9020
X7990Y7710
X7590
X7400Y7400
X7800
X8190Y7390
X8166Y6486
X7733
Y6053
X8166
Y5620
X7733
Y5187
Y4754
X8166
Y5187
X7300
Y4754
X6867
Y5187
X6434
Y4754
Y5620
X6867
X7300
Y6053
X6867
X6434
Y6486
X6867
X7300
X9020Y6710
X9360Y6130
Y5903
X9980Y5720
X11700Y5840
X11596Y6690
X11824
X11710Y7330
X10940Y7580
X11190Y6420
X12600Y6220
X13181Y5923
X12610Y7110
X12850Y7580
X16200Y8007
X15890Y6630
X12340Y2690
X11950
X11560Y2710
X11170Y2720
X10770Y2730
X10380
X10570Y2490
X10170
X10970Y2480
X11369Y2440
X11750
X12140
X12550Y2430
X8383Y3861
X7200Y3850
X6810
X6410
X5920
X6210Y3550
X6620
X7010
X7400
X5480Y5510
X8840Y8270
T02
X10762Y8550
X13038
T03
X1250Y3700
X16500Y1750
M30
