G04*
G04 #@! TF.GenerationSoftware,Altium Limited,Altium Designer,23.0.1 (38)*
G04*
G04 Layer_Color=16711935*
%FSLAX25Y25*%
%MOIN*%
G70*
G04*
G04 #@! TF.SameCoordinates,CCA6865F-30B2-4D87-9598-07B13718A7D6*
G04*
G04*
G04 #@! TF.FilePolarity,Negative*
G04*
G01*
G75*
%ADD24C,0.16291*%
%ADD25C,0.12402*%
%ADD26C,0.12591*%
D24*
X234380Y37503D02*
D03*
X140628D02*
D03*
X768753Y112503D02*
D03*
X1087502Y337503D02*
D03*
X1012503D02*
D03*
X937503D02*
D03*
X862503D02*
D03*
X787503D02*
D03*
X712505D02*
D03*
X637506D02*
D03*
X562502D02*
D03*
X487502D02*
D03*
X412502D02*
D03*
X337502D02*
D03*
X262502D02*
D03*
X187502D02*
D03*
X28002Y370003D02*
D03*
X122002D02*
D03*
X75002Y337503D02*
D03*
X56252Y262503D02*
D03*
X150002D02*
D03*
X225002D02*
D03*
X300002D02*
D03*
X375002D02*
D03*
X450002D02*
D03*
X525002D02*
D03*
X600002D02*
D03*
X675002D02*
D03*
X750003D02*
D03*
X825003D02*
D03*
X900003D02*
D03*
X975003D02*
D03*
X1068752D02*
D03*
X37380Y220003D02*
D03*
X131380D02*
D03*
X84380Y187503D02*
D03*
X56130Y145002D02*
D03*
X150130D02*
D03*
X103130Y112502D02*
D03*
X206252Y187503D02*
D03*
X281252D02*
D03*
X356252D02*
D03*
X431252D02*
D03*
X506252D02*
D03*
X581252D02*
D03*
X656252D02*
D03*
X731252D02*
D03*
X806253D02*
D03*
X881253D02*
D03*
X956253D02*
D03*
X1059380D02*
D03*
X993627Y145002D02*
D03*
X1087627D02*
D03*
X1040627Y112502D02*
D03*
X918753Y112503D02*
D03*
X843753D02*
D03*
X693752D02*
D03*
X618752D02*
D03*
X543752D02*
D03*
X468752D02*
D03*
X393752D02*
D03*
X318752D02*
D03*
X243752D02*
D03*
X46880Y37503D02*
D03*
X328128D02*
D03*
X412530Y70003D02*
D03*
X609380Y37503D02*
D03*
X806230Y70003D02*
D03*
X890627Y37503D02*
D03*
X984380D02*
D03*
X1078127D02*
D03*
D25*
X244380Y17503D02*
D03*
X219380Y27503D02*
D03*
X150628Y17503D02*
D03*
X125628Y27503D02*
D03*
X778753Y92503D02*
D03*
X753753Y102503D02*
D03*
X542000Y153000D02*
D03*
X881000Y150000D02*
D03*
X186000Y144000D02*
D03*
X223000Y302000D02*
D03*
X898000Y303000D02*
D03*
X1097502Y317503D02*
D03*
X1072502Y327503D02*
D03*
X1022503Y317503D02*
D03*
X997503Y327503D02*
D03*
X947503Y317503D02*
D03*
X922503Y327503D02*
D03*
X872503Y317503D02*
D03*
X847503Y327503D02*
D03*
X797503Y317503D02*
D03*
X772503Y327503D02*
D03*
X722505Y317503D02*
D03*
X697505Y327503D02*
D03*
X647506Y317503D02*
D03*
X622506Y327503D02*
D03*
X572502Y317503D02*
D03*
X547502Y327503D02*
D03*
X497502Y317503D02*
D03*
X472502Y327503D02*
D03*
X422502Y317503D02*
D03*
X397502Y327503D02*
D03*
X347502Y317503D02*
D03*
X322502Y327503D02*
D03*
X272502Y317503D02*
D03*
X247502Y327503D02*
D03*
X197502Y317503D02*
D03*
X172502Y327503D02*
D03*
X60002Y327503D02*
D03*
X85002Y317503D02*
D03*
X66252Y242503D02*
D03*
X41252Y252503D02*
D03*
X160002Y242503D02*
D03*
X135002Y252503D02*
D03*
X235002Y242503D02*
D03*
X210002Y252503D02*
D03*
X310002Y242503D02*
D03*
X285002Y252503D02*
D03*
X385002Y242503D02*
D03*
X360002Y252503D02*
D03*
X460002Y242503D02*
D03*
X435002Y252503D02*
D03*
X535002Y242503D02*
D03*
X510002Y252503D02*
D03*
X610002Y242503D02*
D03*
X585002Y252503D02*
D03*
X685002Y242503D02*
D03*
X660002Y252503D02*
D03*
X760003Y242503D02*
D03*
X735003Y252503D02*
D03*
X835003Y242503D02*
D03*
X810003Y252503D02*
D03*
X910003Y242503D02*
D03*
X885003Y252503D02*
D03*
X985003Y242503D02*
D03*
X960003Y252503D02*
D03*
X1078752Y242503D02*
D03*
X1053752Y252503D02*
D03*
X69380Y177503D02*
D03*
X94380Y167503D02*
D03*
X88130Y102502D02*
D03*
X113130Y92502D02*
D03*
X216252Y167503D02*
D03*
X191252Y177503D02*
D03*
X291252Y167503D02*
D03*
X266252Y177503D02*
D03*
X366252Y167503D02*
D03*
X341252Y177503D02*
D03*
X441252Y167503D02*
D03*
X416252Y177503D02*
D03*
X516252Y167503D02*
D03*
X491252Y177503D02*
D03*
X591252Y167503D02*
D03*
X566252Y177503D02*
D03*
X666252Y167503D02*
D03*
X641252Y177503D02*
D03*
X741252Y167503D02*
D03*
X716252Y177503D02*
D03*
X816253Y167503D02*
D03*
X791253Y177503D02*
D03*
X891253Y167503D02*
D03*
X866253Y177503D02*
D03*
X966253Y167503D02*
D03*
X941253Y177503D02*
D03*
X1069380Y167503D02*
D03*
X1044380Y177503D02*
D03*
X1025627Y102502D02*
D03*
X1050627Y92502D02*
D03*
X928753Y92503D02*
D03*
X903753Y102503D02*
D03*
X853753Y92503D02*
D03*
X828753Y102503D02*
D03*
X703752Y92503D02*
D03*
X678752Y102503D02*
D03*
X628752Y92503D02*
D03*
X603752Y102503D02*
D03*
X553752Y92503D02*
D03*
X528752Y102503D02*
D03*
X478752Y92503D02*
D03*
X453752Y102503D02*
D03*
X403752Y92503D02*
D03*
X378752Y102503D02*
D03*
X328752Y92503D02*
D03*
X303752Y102503D02*
D03*
X253752Y92503D02*
D03*
X228752Y102503D02*
D03*
X56880Y17503D02*
D03*
X31880Y27503D02*
D03*
X338128Y17503D02*
D03*
X313128Y27503D02*
D03*
X619380Y17503D02*
D03*
X594380Y27503D02*
D03*
X900627Y17503D02*
D03*
X875627Y27503D02*
D03*
X994380Y17503D02*
D03*
X969380Y27503D02*
D03*
X1088127Y17503D02*
D03*
X1063127Y27503D02*
D03*
D26*
X28002Y310003D02*
D03*
X122002D02*
D03*
X37380Y160003D02*
D03*
X131380D02*
D03*
X56130Y85002D02*
D03*
X150130D02*
D03*
X993627D02*
D03*
X1087627D02*
D03*
X806230Y10003D02*
D03*
X412530D02*
D03*
M02*
