G04*
G04 #@! TF.GenerationSoftware,Altium Limited,Altium Designer,23.0.1 (38)*
G04*
G04 Layer_Color=65535*
%FSLAX25Y25*%
%MOIN*%
G70*
G04*
G04 #@! TF.SameCoordinates,CCA6865F-30B2-4D87-9598-07B13718A7D6*
G04*
G04*
G04 #@! TF.FilePolarity,Positive*
G04*
G01*
G75*
%ADD10C,0.00787*%
%ADD11C,0.00500*%
%ADD12C,0.00394*%
%ADD13C,0.00984*%
%ADD14C,0.01000*%
%ADD15C,0.01500*%
D10*
X198415Y27621D02*
G03*
X198415Y27621I-394J0D01*
G01*
X104663D02*
G03*
X104663Y27621I-394J0D01*
G01*
X732788Y102621D02*
G03*
X732788Y102621I-394J0D01*
G01*
X1051538Y327621D02*
G03*
X1051538Y327621I-394J0D01*
G01*
X976538D02*
G03*
X976538Y327621I-394J0D01*
G01*
X901538D02*
G03*
X901538Y327621I-394J0D01*
G01*
X826538D02*
G03*
X826538Y327621I-394J0D01*
G01*
X751538D02*
G03*
X751538Y327621I-394J0D01*
G01*
X676541D02*
G03*
X676541Y327621I-394J0D01*
G01*
X601541D02*
G03*
X601541Y327621I-394J0D01*
G01*
X526537D02*
G03*
X526537Y327621I-394J0D01*
G01*
X451537D02*
G03*
X451537Y327621I-394J0D01*
G01*
X376537D02*
G03*
X376537Y327621I-394J0D01*
G01*
X301537D02*
G03*
X301537Y327621I-394J0D01*
G01*
X226537D02*
G03*
X226537Y327621I-394J0D01*
G01*
X151537D02*
G03*
X151537Y327621I-394J0D01*
G01*
X39037Y327621D02*
G03*
X39037Y327621I-394J0D01*
G01*
X20287Y252621D02*
G03*
X20287Y252621I-394J0D01*
G01*
X114037D02*
G03*
X114037Y252621I-394J0D01*
G01*
X189037D02*
G03*
X189037Y252621I-394J0D01*
G01*
X264037D02*
G03*
X264037Y252621I-394J0D01*
G01*
X339037D02*
G03*
X339037Y252621I-394J0D01*
G01*
X414037D02*
G03*
X414037Y252621I-394J0D01*
G01*
X489037D02*
G03*
X489037Y252621I-394J0D01*
G01*
X564037D02*
G03*
X564037Y252621I-394J0D01*
G01*
X639037D02*
G03*
X639037Y252621I-394J0D01*
G01*
X714038D02*
G03*
X714038Y252621I-394J0D01*
G01*
X789038D02*
G03*
X789038Y252621I-394J0D01*
G01*
X864038D02*
G03*
X864038Y252621I-394J0D01*
G01*
X939038D02*
G03*
X939038Y252621I-394J0D01*
G01*
X1032788D02*
G03*
X1032788Y252621I-394J0D01*
G01*
X48415Y177621D02*
G03*
X48415Y177621I-394J0D01*
G01*
X67165Y102620D02*
G03*
X67165Y102620I-394J0D01*
G01*
X170287Y177621D02*
G03*
X170287Y177621I-394J0D01*
G01*
X245287D02*
G03*
X245287Y177621I-394J0D01*
G01*
X320287D02*
G03*
X320287Y177621I-394J0D01*
G01*
X395287D02*
G03*
X395287Y177621I-394J0D01*
G01*
X470287D02*
G03*
X470287Y177621I-394J0D01*
G01*
X545287D02*
G03*
X545287Y177621I-394J0D01*
G01*
X620287D02*
G03*
X620287Y177621I-394J0D01*
G01*
X695287D02*
G03*
X695287Y177621I-394J0D01*
G01*
X770288D02*
G03*
X770288Y177621I-394J0D01*
G01*
X845288D02*
G03*
X845288Y177621I-394J0D01*
G01*
X920288D02*
G03*
X920288Y177621I-394J0D01*
G01*
X1023415D02*
G03*
X1023415Y177621I-394J0D01*
G01*
X1004663Y102620D02*
G03*
X1004663Y102620I-394J0D01*
G01*
X882788Y102621D02*
G03*
X882788Y102621I-394J0D01*
G01*
X807788D02*
G03*
X807788Y102621I-394J0D01*
G01*
X657787D02*
G03*
X657787Y102621I-394J0D01*
G01*
X582787D02*
G03*
X582787Y102621I-394J0D01*
G01*
X507787D02*
G03*
X507787Y102621I-394J0D01*
G01*
X432787D02*
G03*
X432787Y102621I-394J0D01*
G01*
X357787D02*
G03*
X357787Y102621I-394J0D01*
G01*
X282787D02*
G03*
X282787Y102621I-394J0D01*
G01*
X207787D02*
G03*
X207787Y102621I-394J0D01*
G01*
X10915Y27621D02*
G03*
X10915Y27621I-394J0D01*
G01*
X292163D02*
G03*
X292163Y27621I-394J0D01*
G01*
X573415Y27621D02*
G03*
X573415Y27621I-394J0D01*
G01*
X854663Y27621D02*
G03*
X854663Y27621I-394J0D01*
G01*
X948416D02*
G03*
X948416Y27621I-394J0D01*
G01*
X1042163D02*
G03*
X1042163Y27621I-394J0D01*
G01*
D11*
X210423Y17503D02*
G03*
X217018Y10908I6594J0D01*
G01*
X225285Y32129D02*
G03*
X223317Y34097I-1969J0D01*
G01*
X225285Y32129D02*
G03*
X230758Y26656I5472J0D01*
G01*
X253337Y24688D02*
G03*
X251368Y26656I-1969J0D01*
G01*
X116671Y17503D02*
G03*
X123266Y10908I6594J0D01*
G01*
X131534Y32129D02*
G03*
X129565Y34097I-1969J0D01*
G01*
X131534Y32129D02*
G03*
X137006Y26656I5472J0D01*
G01*
X159585Y24688D02*
G03*
X157616Y26656I-1969J0D01*
G01*
X744796Y92503D02*
G03*
X751390Y85908I6594J0D01*
G01*
X759658Y107129D02*
G03*
X757690Y109097I-1969J0D01*
G01*
X759658Y107129D02*
G03*
X765131Y101656I5472J0D01*
G01*
X787709Y99688D02*
G03*
X785741Y101656I-1969J0D01*
G01*
X1063546Y317503D02*
G03*
X1070140Y310908I6594J0D01*
G01*
X1078408Y332129D02*
G03*
X1076439Y334097I-1969J0D01*
G01*
X1078408Y332129D02*
G03*
X1083880Y326656I5472J0D01*
G01*
X1106459Y324688D02*
G03*
X1104490Y326656I-1969J0D01*
G01*
X988546Y317503D02*
G03*
X995140Y310908I6594J0D01*
G01*
X1003408Y332129D02*
G03*
X1001440Y334097I-1969J0D01*
G01*
X1003408Y332129D02*
G03*
X1008881Y326656I5472J0D01*
G01*
X1031459Y324688D02*
G03*
X1029491Y326656I-1969J0D01*
G01*
X913546Y317503D02*
G03*
X920140Y310908I6594J0D01*
G01*
X928408Y332129D02*
G03*
X926440Y334097I-1969J0D01*
G01*
X928408Y332129D02*
G03*
X933881Y326656I5472J0D01*
G01*
X956459Y324688D02*
G03*
X954491Y326656I-1969J0D01*
G01*
X838546Y317503D02*
G03*
X845140Y310908I6594J0D01*
G01*
X853408Y332129D02*
G03*
X851440Y334097I-1969J0D01*
G01*
X853408Y332129D02*
G03*
X858881Y326656I5472J0D01*
G01*
X881459Y324688D02*
G03*
X879491Y326656I-1969J0D01*
G01*
X763546Y317503D02*
G03*
X770140Y310908I6594J0D01*
G01*
X778408Y332129D02*
G03*
X776440Y334097I-1969J0D01*
G01*
X778408Y332129D02*
G03*
X783881Y326656I5472J0D01*
G01*
X806459Y324688D02*
G03*
X804491Y326656I-1969J0D01*
G01*
X688549Y317503D02*
G03*
X695143Y310908I6594J0D01*
G01*
X703411Y332129D02*
G03*
X701442Y334097I-1969J0D01*
G01*
X703411Y332129D02*
G03*
X708883Y326656I5472J0D01*
G01*
X731462Y324688D02*
G03*
X729494Y326656I-1969J0D01*
G01*
X613549Y317503D02*
G03*
X620144Y310908I6594J0D01*
G01*
X628411Y332129D02*
G03*
X626443Y334097I-1969J0D01*
G01*
X628411Y332129D02*
G03*
X633884Y326656I5472J0D01*
G01*
X656463Y324688D02*
G03*
X654494Y326656I-1969J0D01*
G01*
X538545Y317503D02*
G03*
X545140Y310908I6594J0D01*
G01*
X553407Y332129D02*
G03*
X551439Y334097I-1969J0D01*
G01*
X553407Y332129D02*
G03*
X558880Y326656I5472J0D01*
G01*
X581459Y324688D02*
G03*
X579490Y326656I-1969J0D01*
G01*
X463545Y317503D02*
G03*
X470140Y310908I6594J0D01*
G01*
X478407Y332129D02*
G03*
X476439Y334097I-1969J0D01*
G01*
X478407Y332129D02*
G03*
X483880Y326656I5472J0D01*
G01*
X506459Y324688D02*
G03*
X504490Y326656I-1969J0D01*
G01*
X388545Y317503D02*
G03*
X395140Y310908I6594J0D01*
G01*
X403407Y332129D02*
G03*
X401439Y334097I-1969J0D01*
G01*
X403407Y332129D02*
G03*
X408880Y326656I5472J0D01*
G01*
X431459Y324688D02*
G03*
X429490Y326656I-1969J0D01*
G01*
X313545Y317503D02*
G03*
X320140Y310908I6594J0D01*
G01*
X328408Y332129D02*
G03*
X326439Y334097I-1969J0D01*
G01*
X328408Y332129D02*
G03*
X333880Y326656I5472J0D01*
G01*
X356459Y324688D02*
G03*
X354490Y326656I-1969J0D01*
G01*
X238545Y317503D02*
G03*
X245140Y310908I6594J0D01*
G01*
X253408Y332129D02*
G03*
X251439Y334097I-1969J0D01*
G01*
X253408Y332129D02*
G03*
X258880Y326656I5472J0D01*
G01*
X281459Y324688D02*
G03*
X279490Y326656I-1969J0D01*
G01*
X163545Y317503D02*
G03*
X170140Y310908I6594J0D01*
G01*
X178408Y332129D02*
G03*
X176439Y334097I-1969J0D01*
G01*
X178408Y332129D02*
G03*
X183880Y326656I5472J0D01*
G01*
X206459Y324688D02*
G03*
X204490Y326656I-1969J0D01*
G01*
X93959Y324688D02*
G03*
X91990Y326657I-1969J0D01*
G01*
X65908Y332129D02*
G03*
X71380Y326657I5472J0D01*
G01*
X65908Y332129D02*
G03*
X63939Y334098I-1969J0D01*
G01*
X51045Y317503D02*
G03*
X57640Y310909I6594J0D01*
G01*
X32295Y242503D02*
G03*
X38890Y235908I6594J0D01*
G01*
X47157Y257129D02*
G03*
X45189Y259097I-1969J0D01*
G01*
X47157Y257129D02*
G03*
X52630Y251656I5472J0D01*
G01*
X75209Y249688D02*
G03*
X73240Y251656I-1969J0D01*
G01*
X126045Y242503D02*
G03*
X132640Y235908I6594J0D01*
G01*
X140908Y257129D02*
G03*
X138939Y259097I-1969J0D01*
G01*
X140908Y257129D02*
G03*
X146380Y251656I5472J0D01*
G01*
X168959Y249688D02*
G03*
X166990Y251656I-1969J0D01*
G01*
X201045Y242503D02*
G03*
X207640Y235908I6594J0D01*
G01*
X215908Y257129D02*
G03*
X213939Y259097I-1969J0D01*
G01*
X215908Y257129D02*
G03*
X221380Y251656I5472J0D01*
G01*
X243959Y249688D02*
G03*
X241990Y251656I-1969J0D01*
G01*
X276045Y242503D02*
G03*
X282640Y235908I6594J0D01*
G01*
X290908Y257129D02*
G03*
X288939Y259097I-1969J0D01*
G01*
X290908Y257129D02*
G03*
X296380Y251656I5472J0D01*
G01*
X318959Y249688D02*
G03*
X316990Y251656I-1969J0D01*
G01*
X351045Y242503D02*
G03*
X357640Y235908I6594J0D01*
G01*
X365908Y257129D02*
G03*
X363939Y259097I-1969J0D01*
G01*
X365908Y257129D02*
G03*
X371380Y251656I5472J0D01*
G01*
X393959Y249688D02*
G03*
X391990Y251656I-1969J0D01*
G01*
X426045Y242503D02*
G03*
X432640Y235908I6594J0D01*
G01*
X440907Y257129D02*
G03*
X438939Y259097I-1969J0D01*
G01*
X440907Y257129D02*
G03*
X446380Y251656I5472J0D01*
G01*
X468959Y249688D02*
G03*
X466990Y251656I-1969J0D01*
G01*
X501045Y242503D02*
G03*
X507640Y235908I6594J0D01*
G01*
X515907Y257129D02*
G03*
X513939Y259097I-1969J0D01*
G01*
X515907Y257129D02*
G03*
X521380Y251656I5472J0D01*
G01*
X543959Y249688D02*
G03*
X541990Y251656I-1969J0D01*
G01*
X576045Y242503D02*
G03*
X582640Y235908I6594J0D01*
G01*
X590907Y257129D02*
G03*
X588939Y259097I-1969J0D01*
G01*
X590907Y257129D02*
G03*
X596380Y251656I5472J0D01*
G01*
X618959Y249688D02*
G03*
X616990Y251656I-1969J0D01*
G01*
X651045Y242503D02*
G03*
X657640Y235908I6594J0D01*
G01*
X665907Y257129D02*
G03*
X663939Y259097I-1969J0D01*
G01*
X665907Y257129D02*
G03*
X671380Y251656I5472J0D01*
G01*
X693959Y249688D02*
G03*
X691990Y251656I-1969J0D01*
G01*
X726046Y242503D02*
G03*
X732640Y235908I6594J0D01*
G01*
X740908Y257129D02*
G03*
X738940Y259097I-1969J0D01*
G01*
X740908Y257129D02*
G03*
X746381Y251656I5472J0D01*
G01*
X768959Y249688D02*
G03*
X766991Y251656I-1969J0D01*
G01*
X801046Y242503D02*
G03*
X807640Y235908I6594J0D01*
G01*
X815908Y257129D02*
G03*
X813940Y259097I-1969J0D01*
G01*
X815908Y257129D02*
G03*
X821381Y251656I5472J0D01*
G01*
X843959Y249688D02*
G03*
X841991Y251656I-1969J0D01*
G01*
X876046Y242503D02*
G03*
X882640Y235908I6594J0D01*
G01*
X890908Y257129D02*
G03*
X888940Y259097I-1969J0D01*
G01*
X890908Y257129D02*
G03*
X896381Y251656I5472J0D01*
G01*
X918959Y249688D02*
G03*
X916991Y251656I-1969J0D01*
G01*
X951046Y242503D02*
G03*
X957640Y235908I6594J0D01*
G01*
X965908Y257129D02*
G03*
X963940Y259097I-1969J0D01*
G01*
X965908Y257129D02*
G03*
X971381Y251656I5472J0D01*
G01*
X993959Y249688D02*
G03*
X991991Y251656I-1969J0D01*
G01*
X1044796Y242503D02*
G03*
X1051390Y235908I6594J0D01*
G01*
X1059658Y257129D02*
G03*
X1057689Y259097I-1969J0D01*
G01*
X1059658Y257129D02*
G03*
X1065130Y251656I5472J0D01*
G01*
X1087709Y249688D02*
G03*
X1085740Y251656I-1969J0D01*
G01*
X103337Y174688D02*
G03*
X101368Y176656I-1969J0D01*
G01*
X75285Y182129D02*
G03*
X80758Y176656I5472J0D01*
G01*
X75285Y182129D02*
G03*
X73317Y184098I-1969J0D01*
G01*
X60423Y167503D02*
G03*
X67018Y160908I6594J0D01*
G01*
X122087Y99687D02*
G03*
X120118Y101656I-1969J0D01*
G01*
X94035Y107128D02*
G03*
X99508Y101656I5472J0D01*
G01*
X94035Y107128D02*
G03*
X92067Y109097I-1969J0D01*
G01*
X79173Y92502D02*
G03*
X85768Y85908I6594J0D01*
G01*
X182295Y167503D02*
G03*
X188890Y160908I6594J0D01*
G01*
X197158Y182129D02*
G03*
X195189Y184097I-1969J0D01*
G01*
X197158Y182129D02*
G03*
X202630Y176656I5472J0D01*
G01*
X225209Y174688D02*
G03*
X223240Y176656I-1969J0D01*
G01*
X257295Y167503D02*
G03*
X263890Y160908I6594J0D01*
G01*
X272158Y182129D02*
G03*
X270189Y184097I-1969J0D01*
G01*
X272158Y182129D02*
G03*
X277630Y176656I5472J0D01*
G01*
X300209Y174688D02*
G03*
X298240Y176656I-1969J0D01*
G01*
X332295Y167503D02*
G03*
X338890Y160908I6594J0D01*
G01*
X347158Y182129D02*
G03*
X345189Y184097I-1969J0D01*
G01*
X347158Y182129D02*
G03*
X352630Y176656I5472J0D01*
G01*
X375209Y174688D02*
G03*
X373240Y176656I-1969J0D01*
G01*
X407295Y167503D02*
G03*
X413890Y160908I6594J0D01*
G01*
X422157Y182129D02*
G03*
X420189Y184097I-1969J0D01*
G01*
X422157Y182129D02*
G03*
X427630Y176656I5472J0D01*
G01*
X450209Y174688D02*
G03*
X448240Y176656I-1969J0D01*
G01*
X482295Y167503D02*
G03*
X488890Y160908I6594J0D01*
G01*
X497157Y182129D02*
G03*
X495189Y184097I-1969J0D01*
G01*
X497157Y182129D02*
G03*
X502630Y176656I5472J0D01*
G01*
X525209Y174688D02*
G03*
X523240Y176656I-1969J0D01*
G01*
X557295Y167503D02*
G03*
X563890Y160908I6594J0D01*
G01*
X572157Y182129D02*
G03*
X570189Y184097I-1969J0D01*
G01*
X572157Y182129D02*
G03*
X577630Y176656I5472J0D01*
G01*
X600209Y174688D02*
G03*
X598240Y176656I-1969J0D01*
G01*
X632295Y167503D02*
G03*
X638890Y160908I6594J0D01*
G01*
X647157Y182129D02*
G03*
X645189Y184097I-1969J0D01*
G01*
X647157Y182129D02*
G03*
X652630Y176656I5472J0D01*
G01*
X675209Y174688D02*
G03*
X673240Y176656I-1969J0D01*
G01*
X707295Y167503D02*
G03*
X713889Y160908I6594J0D01*
G01*
X722157Y182129D02*
G03*
X720189Y184097I-1969J0D01*
G01*
X722157Y182129D02*
G03*
X727630Y176656I5472J0D01*
G01*
X750208Y174688D02*
G03*
X748240Y176656I-1969J0D01*
G01*
X782296Y167503D02*
G03*
X788890Y160908I6594J0D01*
G01*
X797158Y182129D02*
G03*
X795190Y184097I-1969J0D01*
G01*
X797158Y182129D02*
G03*
X802631Y176656I5472J0D01*
G01*
X825209Y174688D02*
G03*
X823241Y176656I-1969J0D01*
G01*
X857296Y167503D02*
G03*
X863890Y160908I6594J0D01*
G01*
X872158Y182129D02*
G03*
X870190Y184097I-1969J0D01*
G01*
X872158Y182129D02*
G03*
X877631Y176656I5472J0D01*
G01*
X900209Y174688D02*
G03*
X898241Y176656I-1969J0D01*
G01*
X932296Y167503D02*
G03*
X938890Y160908I6594J0D01*
G01*
X947158Y182129D02*
G03*
X945190Y184097I-1969J0D01*
G01*
X947158Y182129D02*
G03*
X952631Y176656I5472J0D01*
G01*
X975209Y174688D02*
G03*
X973241Y176656I-1969J0D01*
G01*
X1035423Y167503D02*
G03*
X1042018Y160908I6594J0D01*
G01*
X1050286Y182129D02*
G03*
X1048317Y184097I-1969J0D01*
G01*
X1050286Y182129D02*
G03*
X1055758Y176656I5472J0D01*
G01*
X1078337Y174688D02*
G03*
X1076368Y176656I-1969J0D01*
G01*
X1059584Y99687D02*
G03*
X1057616Y101656I-1969J0D01*
G01*
X1031533Y107128D02*
G03*
X1037005Y101656I5472J0D01*
G01*
X1031533Y107128D02*
G03*
X1029564Y109097I-1969J0D01*
G01*
X1016671Y92502D02*
G03*
X1023265Y85908I6594J0D01*
G01*
X894796Y92503D02*
G03*
X901390Y85908I6594J0D01*
G01*
X909658Y107129D02*
G03*
X907690Y109097I-1969J0D01*
G01*
X909658Y107129D02*
G03*
X915131Y101656I5472J0D01*
G01*
X937709Y99688D02*
G03*
X935741Y101656I-1969J0D01*
G01*
X819796Y92503D02*
G03*
X826390Y85908I6594J0D01*
G01*
X834658Y107129D02*
G03*
X832690Y109097I-1969J0D01*
G01*
X834658Y107129D02*
G03*
X840131Y101656I5472J0D01*
G01*
X862709Y99688D02*
G03*
X860741Y101656I-1969J0D01*
G01*
X669795Y92503D02*
G03*
X676390Y85908I6594J0D01*
G01*
X684657Y107129D02*
G03*
X682689Y109097I-1969J0D01*
G01*
X684657Y107129D02*
G03*
X690130Y101656I5472J0D01*
G01*
X712709Y99688D02*
G03*
X710740Y101656I-1969J0D01*
G01*
X594795Y92503D02*
G03*
X601390Y85908I6594J0D01*
G01*
X609657Y107129D02*
G03*
X607689Y109097I-1969J0D01*
G01*
X609657Y107129D02*
G03*
X615130Y101656I5472J0D01*
G01*
X637709Y99688D02*
G03*
X635740Y101656I-1969J0D01*
G01*
X519795Y92503D02*
G03*
X526390Y85908I6594J0D01*
G01*
X534657Y107129D02*
G03*
X532689Y109097I-1969J0D01*
G01*
X534657Y107129D02*
G03*
X540130Y101656I5472J0D01*
G01*
X562709Y99688D02*
G03*
X560740Y101656I-1969J0D01*
G01*
X444795Y92503D02*
G03*
X451390Y85908I6594J0D01*
G01*
X459657Y107129D02*
G03*
X457689Y109097I-1969J0D01*
G01*
X459657Y107129D02*
G03*
X465130Y101656I5472J0D01*
G01*
X487709Y99688D02*
G03*
X485740Y101656I-1969J0D01*
G01*
X369795Y92503D02*
G03*
X376390Y85908I6594J0D01*
G01*
X384658Y107129D02*
G03*
X382689Y109097I-1969J0D01*
G01*
X384658Y107129D02*
G03*
X390130Y101656I5472J0D01*
G01*
X412709Y99688D02*
G03*
X410740Y101656I-1969J0D01*
G01*
X294795Y92503D02*
G03*
X301390Y85908I6594J0D01*
G01*
X309658Y107129D02*
G03*
X307689Y109097I-1969J0D01*
G01*
X309658Y107129D02*
G03*
X315130Y101656I5472J0D01*
G01*
X337709Y99688D02*
G03*
X335740Y101656I-1969J0D01*
G01*
X219795Y92503D02*
G03*
X226390Y85908I6594J0D01*
G01*
X234658Y107129D02*
G03*
X232689Y109097I-1969J0D01*
G01*
X234658Y107129D02*
G03*
X240130Y101656I5472J0D01*
G01*
X262709Y99688D02*
G03*
X260740Y101656I-1969J0D01*
G01*
X22923Y17503D02*
G03*
X29518Y10908I6594J0D01*
G01*
X37785Y32129D02*
G03*
X35817Y34097I-1969J0D01*
G01*
X37785Y32129D02*
G03*
X43258Y26656I5472J0D01*
G01*
X65837Y24688D02*
G03*
X63868Y26656I-1969J0D01*
G01*
X304171Y17503D02*
G03*
X310766Y10908I6594J0D01*
G01*
X319034Y32129D02*
G03*
X317065Y34097I-1969J0D01*
G01*
X319034Y32129D02*
G03*
X324506Y26656I5472J0D01*
G01*
X347085Y24688D02*
G03*
X345116Y26656I-1969J0D01*
G01*
X585423Y17503D02*
G03*
X592018Y10908I6594J0D01*
G01*
X600285Y32129D02*
G03*
X598317Y34097I-1969J0D01*
G01*
X600285Y32129D02*
G03*
X605758Y26656I5472J0D01*
G01*
X628337Y24688D02*
G03*
X626368Y26656I-1969J0D01*
G01*
X866671Y17503D02*
G03*
X873265Y10908I6594J0D01*
G01*
X881533Y32129D02*
G03*
X879564Y34097I-1969J0D01*
G01*
X881533Y32129D02*
G03*
X887005Y26656I5472J0D01*
G01*
X909584Y24688D02*
G03*
X907616Y26656I-1969J0D01*
G01*
X960424Y17503D02*
G03*
X967018Y10908I6594J0D01*
G01*
X975286Y32129D02*
G03*
X973317Y34097I-1969J0D01*
G01*
X975286Y32129D02*
G03*
X980758Y26656I5472J0D01*
G01*
X1003337Y24688D02*
G03*
X1001369Y26656I-1969J0D01*
G01*
X1054171Y17503D02*
G03*
X1060765Y10908I6594J0D01*
G01*
X1069033Y32129D02*
G03*
X1067064Y34097I-1969J0D01*
G01*
X1069033Y32129D02*
G03*
X1074505Y26656I5472J0D01*
G01*
X1097084Y24688D02*
G03*
X1095115Y26656I-1969J0D01*
G01*
D12*
X548197Y161200D02*
G03*
X548197Y161200I-197J0D01*
G01*
X14197Y11200D02*
G03*
X14197Y11200I-197J0D01*
G01*
X108197Y11157D02*
G03*
X108197Y11157I-197J0D01*
G01*
X202197Y11200D02*
G03*
X202197Y11200I-197J0D01*
G01*
X296197D02*
G03*
X296197Y11200I-197J0D01*
G01*
X577197Y11157D02*
G03*
X577197Y11157I-197J0D01*
G01*
X858197D02*
G03*
X858197Y11157I-197J0D01*
G01*
X952197Y11200D02*
G03*
X952197Y11200I-197J0D01*
G01*
X1046197D02*
G03*
X1046197Y11200I-197J0D01*
G01*
X70197Y86200D02*
G03*
X70197Y86200I-197J0D01*
G01*
X211197Y86157D02*
G03*
X211197Y86157I-197J0D01*
G01*
X286197D02*
G03*
X286197Y86157I-197J0D01*
G01*
X361197Y86200D02*
G03*
X361197Y86200I-197J0D01*
G01*
X436197D02*
G03*
X436197Y86200I-197J0D01*
G01*
X511197D02*
G03*
X511197Y86200I-197J0D01*
G01*
X586197Y86157D02*
G03*
X586197Y86157I-197J0D01*
G01*
X661197Y86200D02*
G03*
X661197Y86200I-197J0D01*
G01*
X736197D02*
G03*
X736197Y86200I-197J0D01*
G01*
X811197Y86157D02*
G03*
X811197Y86157I-197J0D01*
G01*
X886197Y86200D02*
G03*
X886197Y86200I-197J0D01*
G01*
X1007197Y86157D02*
G03*
X1007197Y86157I-197J0D01*
G01*
X51197Y161200D02*
G03*
X51197Y161200I-197J0D01*
G01*
X173197D02*
G03*
X173197Y161200I-197J0D01*
G01*
X249197D02*
G03*
X249197Y161200I-197J0D01*
G01*
X323197D02*
G03*
X323197Y161200I-197J0D01*
G01*
X398197D02*
G03*
X398197Y161200I-197J0D01*
G01*
X473197D02*
G03*
X473197Y161200I-197J0D01*
G01*
X623197D02*
G03*
X623197Y161200I-197J0D01*
G01*
X698197D02*
G03*
X698197Y161200I-197J0D01*
G01*
X773197D02*
G03*
X773197Y161200I-197J0D01*
G01*
X848197D02*
G03*
X848197Y161200I-197J0D01*
G01*
X923197D02*
G03*
X923197Y161200I-197J0D01*
G01*
X1026197D02*
G03*
X1026197Y161200I-197J0D01*
G01*
X23197Y236200D02*
G03*
X23197Y236200I-197J0D01*
G01*
X117197D02*
G03*
X117197Y236200I-197J0D01*
G01*
X192197D02*
G03*
X192197Y236200I-197J0D01*
G01*
X267197D02*
G03*
X267197Y236200I-197J0D01*
G01*
X342197D02*
G03*
X342197Y236200I-197J0D01*
G01*
X417197D02*
G03*
X417197Y236200I-197J0D01*
G01*
X492197D02*
G03*
X492197Y236200I-197J0D01*
G01*
X567197D02*
G03*
X567197Y236200I-197J0D01*
G01*
X642197D02*
G03*
X642197Y236200I-197J0D01*
G01*
X717197D02*
G03*
X717197Y236200I-197J0D01*
G01*
X792197D02*
G03*
X792197Y236200I-197J0D01*
G01*
X867197D02*
G03*
X867197Y236200I-197J0D01*
G01*
X942197D02*
G03*
X942197Y236200I-197J0D01*
G01*
X1036197D02*
G03*
X1036197Y236200I-197J0D01*
G01*
X42197Y311200D02*
G03*
X42197Y311200I-197J0D01*
G01*
X155197D02*
G03*
X155197Y311200I-197J0D01*
G01*
X230197D02*
G03*
X230197Y311200I-197J0D01*
G01*
X305197D02*
G03*
X305197Y311200I-197J0D01*
G01*
X380197D02*
G03*
X380197Y311200I-197J0D01*
G01*
X455197D02*
G03*
X455197Y311200I-197J0D01*
G01*
X530197D02*
G03*
X530197Y311200I-197J0D01*
G01*
X605197D02*
G03*
X605197Y311200I-197J0D01*
G01*
X680197D02*
G03*
X680197Y311200I-197J0D01*
G01*
X755197D02*
G03*
X755197Y311200I-197J0D01*
G01*
X830197D02*
G03*
X830197Y311200I-197J0D01*
G01*
X906197D02*
G03*
X906197Y311200I-197J0D01*
G01*
X980197D02*
G03*
X980197Y311200I-197J0D01*
G01*
X1055197D02*
G03*
X1055197Y311200I-197J0D01*
G01*
D13*
X32953Y98976D02*
G03*
X32953Y98976I-492J0D01*
G01*
D14*
X253337Y23684D02*
Y24688D01*
X230758Y26656D02*
X251368D01*
X210423Y17503D02*
Y21322D01*
X217018Y10908D02*
X240443D01*
X159585Y23684D02*
Y24688D01*
X137006Y26656D02*
X157616D01*
X116671Y17503D02*
Y21322D01*
X123266Y10908D02*
X146691D01*
X64319Y59661D02*
Y62361D01*
X158067Y59661D02*
Y62361D01*
X251819Y59661D02*
Y62361D01*
X345567Y59661D02*
Y62361D01*
X626819Y59661D02*
Y62361D01*
X908067Y59661D02*
Y62361D01*
X1001820Y59661D02*
Y62361D01*
X1095567Y59661D02*
Y62361D01*
X1023188Y128666D02*
Y131366D01*
X901313Y128666D02*
Y131366D01*
X826313Y128666D02*
Y131366D01*
X751313Y128666D02*
Y131366D01*
X676313Y128666D02*
Y131366D01*
X601313Y128666D02*
Y131366D01*
X526313Y128666D02*
Y131366D01*
X451313Y128666D02*
Y131366D01*
X376313Y128666D02*
Y131366D01*
X301313Y128666D02*
Y131366D01*
X226313Y128666D02*
Y131366D01*
X85690Y128666D02*
Y131366D01*
X101819Y209661D02*
Y212361D01*
X223691Y209661D02*
Y212361D01*
X298691Y209661D02*
Y212361D01*
X373691Y209661D02*
Y212361D01*
X448691Y209661D02*
Y212361D01*
X523691Y209661D02*
Y212361D01*
X598691Y209661D02*
Y212361D01*
X673691Y209661D02*
Y212361D01*
X748691Y209661D02*
Y212361D01*
X823692Y209661D02*
Y212361D01*
X898692Y209661D02*
Y212361D01*
X973692Y209661D02*
Y212361D01*
X1076819Y209661D02*
Y212361D01*
X1051313Y278666D02*
Y281366D01*
X957563Y278666D02*
Y281366D01*
X882563Y278666D02*
Y281366D01*
X807563Y278666D02*
Y281366D01*
X732563Y278666D02*
Y281366D01*
X657563Y278666D02*
Y281366D01*
X582563Y278666D02*
Y281366D01*
X507563Y278666D02*
Y281366D01*
X432563Y278666D02*
Y281366D01*
X357563Y278666D02*
Y281366D01*
X282563Y278666D02*
Y281366D01*
X207563Y278666D02*
Y281366D01*
X132563Y278666D02*
Y281366D01*
X38813Y278666D02*
Y281366D01*
X92441Y359647D02*
Y362347D01*
X204941Y359647D02*
Y362347D01*
X279941Y359647D02*
Y362347D01*
X354941Y359647D02*
Y362347D01*
X429941Y359647D02*
Y362347D01*
X504941Y359647D02*
Y362347D01*
X579941Y359647D02*
Y362347D01*
X654945Y359647D02*
Y362347D01*
X729945Y359647D02*
Y362347D01*
X804942Y359647D02*
Y362347D01*
X879942Y359647D02*
Y362347D01*
X954942Y359647D02*
Y362347D01*
X1029942Y359647D02*
Y362347D01*
X1104939Y359647D02*
Y362347D01*
X787709Y98684D02*
Y99688D01*
X765131Y101656D02*
X785741D01*
X744796Y92503D02*
Y96322D01*
X751390Y85908D02*
X774816D01*
X1106459Y323684D02*
Y324688D01*
X1083880Y326656D02*
X1104490D01*
X1063546Y317503D02*
Y321322D01*
X1070140Y310908D02*
X1093565D01*
X1031459Y323684D02*
Y324688D01*
X1008881Y326656D02*
X1029491D01*
X988546Y317503D02*
Y321322D01*
X995140Y310908D02*
X1018566D01*
X956459Y323684D02*
Y324688D01*
X933881Y326656D02*
X954491D01*
X913546Y317503D02*
Y321322D01*
X920140Y310908D02*
X943566D01*
X881459Y323684D02*
Y324688D01*
X858881Y326656D02*
X879491D01*
X838546Y317503D02*
Y321322D01*
X845140Y310908D02*
X868566D01*
X806459Y323684D02*
Y324688D01*
X783881Y326656D02*
X804491D01*
X763546Y317503D02*
Y321322D01*
X770140Y310908D02*
X793566D01*
X731462Y323684D02*
Y324688D01*
X708883Y326656D02*
X729494D01*
X688549Y317503D02*
Y321322D01*
X695143Y310908D02*
X718568D01*
X656463Y323684D02*
Y324688D01*
X633884Y326656D02*
X654494D01*
X613549Y317503D02*
Y321322D01*
X620144Y310908D02*
X643569D01*
X581459Y323684D02*
Y324688D01*
X558880Y326656D02*
X579490D01*
X538545Y317503D02*
Y321322D01*
X545140Y310908D02*
X568565D01*
X506459Y323684D02*
Y324688D01*
X483880Y326656D02*
X504490D01*
X463545Y317503D02*
Y321322D01*
X470140Y310908D02*
X493565D01*
X431459Y323684D02*
Y324688D01*
X408880Y326656D02*
X429490D01*
X388545Y317503D02*
Y321322D01*
X395140Y310908D02*
X418565D01*
X333880Y326656D02*
X354490D01*
X313545Y317503D02*
Y321322D01*
X320140Y310908D02*
X343565D01*
X356459Y323684D02*
Y324688D01*
X281459Y323684D02*
Y324688D01*
X258880Y326656D02*
X279490D01*
X238545Y317503D02*
Y321322D01*
X245140Y310908D02*
X268565D01*
X206459Y323684D02*
Y324688D01*
X183880Y326656D02*
X204490D01*
X163545Y317503D02*
Y321322D01*
X170140Y310908D02*
X193565D01*
X57640Y310909D02*
X81065D01*
X51045Y317503D02*
Y321322D01*
X71380Y326657D02*
X91990D01*
X93959Y323684D02*
Y324688D01*
X75209Y248684D02*
Y249688D01*
X52630Y251656D02*
X73240D01*
X32295Y242503D02*
Y246322D01*
X38890Y235908D02*
X62315D01*
X168959Y248684D02*
Y249688D01*
X146380Y251656D02*
X166990D01*
X126045Y242503D02*
Y246322D01*
X132640Y235908D02*
X156065D01*
X243959Y248684D02*
Y249688D01*
X221380Y251656D02*
X241990D01*
X201045Y242503D02*
Y246322D01*
X207640Y235908D02*
X231065D01*
X296380Y251656D02*
X316990D01*
X276045Y242503D02*
Y246322D01*
X282640Y235908D02*
X306065D01*
X318959Y248684D02*
Y249688D01*
X393959Y248684D02*
Y249688D01*
X371380Y251656D02*
X391990D01*
X351045Y242503D02*
Y246322D01*
X357640Y235908D02*
X381065D01*
X468959Y248684D02*
Y249688D01*
X446380Y251656D02*
X466990D01*
X426045Y242503D02*
Y246322D01*
X432640Y235908D02*
X456065D01*
X543959Y248684D02*
Y249688D01*
X521380Y251656D02*
X541990D01*
X501045Y242503D02*
Y246322D01*
X507640Y235908D02*
X531065D01*
X618959Y248684D02*
Y249688D01*
X596380Y251656D02*
X616990D01*
X576045Y242503D02*
Y246322D01*
X582640Y235908D02*
X606065D01*
X693959Y248684D02*
Y249688D01*
X671380Y251656D02*
X691990D01*
X651045Y242503D02*
Y246322D01*
X657640Y235908D02*
X681065D01*
X768959Y248684D02*
Y249688D01*
X746381Y251656D02*
X766991D01*
X726046Y242503D02*
Y246322D01*
X732640Y235908D02*
X756066D01*
X843959Y248684D02*
Y249688D01*
X821381Y251656D02*
X841991D01*
X801046Y242503D02*
Y246322D01*
X807640Y235908D02*
X831066D01*
X918959Y248684D02*
Y249688D01*
X896381Y251656D02*
X916991D01*
X876046Y242503D02*
Y246322D01*
X882640Y235908D02*
X906066D01*
X993959Y248684D02*
Y249688D01*
X971381Y251656D02*
X991991D01*
X951046Y242503D02*
Y246322D01*
X957640Y235908D02*
X981066D01*
X1087709Y248684D02*
Y249688D01*
X1065130Y251656D02*
X1085740D01*
X1044796Y242503D02*
Y246322D01*
X1051390Y235908D02*
X1074815D01*
X67018Y160908D02*
X90443D01*
X60423Y167503D02*
Y171322D01*
X80758Y176656D02*
X101368D01*
X103337Y173684D02*
Y174688D01*
X85768Y85908D02*
X109193D01*
X79173Y92502D02*
Y96321D01*
X99508Y101656D02*
X120118D01*
X122087Y98684D02*
Y99687D01*
X225209Y173684D02*
Y174688D01*
X202630Y176656D02*
X223240D01*
X182295Y167503D02*
Y171322D01*
X188890Y160908D02*
X212315D01*
X300209Y173684D02*
Y174688D01*
X277630Y176656D02*
X298240D01*
X257295Y167503D02*
Y171322D01*
X263890Y160908D02*
X287315D01*
X375209Y173684D02*
Y174688D01*
X352630Y176656D02*
X373240D01*
X332295Y167503D02*
Y171322D01*
X338890Y160908D02*
X362315D01*
X450209Y173684D02*
Y174688D01*
X427630Y176656D02*
X448240D01*
X407295Y167503D02*
Y171322D01*
X413890Y160908D02*
X437315D01*
X525209Y173684D02*
Y174688D01*
X502630Y176656D02*
X523240D01*
X482295Y167503D02*
Y171322D01*
X488890Y160908D02*
X512315D01*
X577630Y176656D02*
X598240D01*
X557295Y167503D02*
Y171322D01*
X563890Y160908D02*
X587315D01*
X600209Y173684D02*
Y174688D01*
X675209Y173684D02*
Y174688D01*
X652630Y176656D02*
X673240D01*
X632295Y167503D02*
Y171322D01*
X638890Y160908D02*
X662315D01*
X750208Y173684D02*
Y174688D01*
X727630Y176656D02*
X748240D01*
X707295Y167503D02*
Y171322D01*
X713889Y160908D02*
X737315D01*
X825209Y173684D02*
Y174688D01*
X802631Y176656D02*
X823241D01*
X782296Y167503D02*
Y171322D01*
X788890Y160908D02*
X812315D01*
X900209Y173684D02*
Y174688D01*
X877631Y176656D02*
X898241D01*
X857296Y167503D02*
Y171322D01*
X863890Y160908D02*
X887316D01*
X975209Y173684D02*
Y174688D01*
X952631Y176656D02*
X973241D01*
X932296Y167503D02*
Y171322D01*
X938890Y160908D02*
X962316D01*
X1078337Y173684D02*
Y174688D01*
X1055758Y176656D02*
X1076368D01*
X1035423Y167503D02*
Y171322D01*
X1042018Y160908D02*
X1065443D01*
X1023265Y85908D02*
X1046690D01*
X1016671Y92502D02*
Y96321D01*
X1037005Y101656D02*
X1057616D01*
X1059584Y98684D02*
Y99687D01*
X937709Y98684D02*
Y99688D01*
X915131Y101656D02*
X935741D01*
X894796Y92503D02*
Y96322D01*
X901390Y85908D02*
X924816D01*
X862709Y98684D02*
Y99688D01*
X840131Y101656D02*
X860741D01*
X819796Y92503D02*
Y96322D01*
X826390Y85908D02*
X849816D01*
X712709Y98684D02*
Y99688D01*
X690130Y101656D02*
X710740D01*
X669795Y92503D02*
Y96322D01*
X676390Y85908D02*
X699815D01*
X637709Y98684D02*
Y99688D01*
X615130Y101656D02*
X635740D01*
X594795Y92503D02*
Y96322D01*
X601390Y85908D02*
X624815D01*
X562709Y98684D02*
Y99688D01*
X540130Y101656D02*
X560740D01*
X519795Y92503D02*
Y96322D01*
X526390Y85908D02*
X549815D01*
X487709Y98684D02*
Y99688D01*
X465130Y101656D02*
X485740D01*
X444795Y92503D02*
Y96322D01*
X451390Y85908D02*
X474815D01*
X412709Y98684D02*
Y99688D01*
X390130Y101656D02*
X410740D01*
X369795Y92503D02*
Y96322D01*
X376390Y85908D02*
X399815D01*
X337709Y98684D02*
Y99688D01*
X315130Y101656D02*
X335740D01*
X294795Y92503D02*
Y96322D01*
X301390Y85908D02*
X324815D01*
X262709Y98684D02*
Y99688D01*
X240130Y101656D02*
X260740D01*
X219795Y92503D02*
Y96322D01*
X226390Y85908D02*
X249815D01*
X23209Y109016D02*
X36791D01*
Y123976D01*
X23209D02*
X36791D01*
X23209Y109016D02*
Y123976D01*
X43258Y26656D02*
X63868D01*
X22923Y17503D02*
Y21322D01*
X29518Y10908D02*
X52943D01*
X65837Y23684D02*
Y24688D01*
X347085Y23684D02*
Y24688D01*
X324506Y26656D02*
X345116D01*
X304171Y17503D02*
Y21322D01*
X310766Y10908D02*
X334191D01*
X628337Y23684D02*
Y24688D01*
X605758Y26656D02*
X626368D01*
X585423Y17503D02*
Y21322D01*
X592018Y10908D02*
X615443D01*
X909584Y23684D02*
Y24688D01*
X887005Y26656D02*
X907616D01*
X866671Y17503D02*
Y21322D01*
X873265Y10908D02*
X896690D01*
X1003337Y23684D02*
Y24688D01*
X980758Y26656D02*
X1001369D01*
X960424Y17503D02*
Y21322D01*
X967018Y10908D02*
X990443D01*
X1097084Y23684D02*
Y24688D01*
X1074505Y26656D02*
X1095115D01*
X1054171Y17503D02*
Y21322D01*
X1060765Y10908D02*
X1084190D01*
X526752Y28508D02*
Y32839D01*
X461594D02*
X526752D01*
X461594Y28508D02*
Y32839D01*
X247867Y32066D02*
X247334Y32599D01*
X246268D01*
X245735Y32066D01*
Y31533D01*
X246268Y31000D01*
X247334D01*
X247867Y30467D01*
Y29934D01*
X247334Y29401D01*
X246268D01*
X245735Y29934D01*
X251066Y32599D02*
X248934D01*
Y31000D01*
X250000Y31533D01*
X250533D01*
X251066Y31000D01*
Y29934D01*
X250533Y29401D01*
X249467D01*
X248934Y29934D01*
X252133D02*
X252666Y29401D01*
X253732D01*
X254265Y29934D01*
Y32066D01*
X253732Y32599D01*
X252666D01*
X252133Y32066D01*
Y31533D01*
X252666Y31000D01*
X254265D01*
X156867Y34066D02*
X156334Y34600D01*
X155268D01*
X154735Y34066D01*
Y33533D01*
X155268Y33000D01*
X156334D01*
X156867Y32467D01*
Y31934D01*
X156334Y31400D01*
X155268D01*
X154735Y31934D01*
X160066Y34600D02*
X159000Y34066D01*
X157934Y33000D01*
Y31934D01*
X158467Y31400D01*
X159533D01*
X160066Y31934D01*
Y32467D01*
X159533Y33000D01*
X157934D01*
X161133Y34066D02*
X161666Y34600D01*
X162732D01*
X163265Y34066D01*
Y31934D01*
X162732Y31400D01*
X161666D01*
X161133Y31934D01*
Y34066D01*
X516221Y13803D02*
X515154D01*
X515687D01*
Y10604D01*
X516221Y11137D01*
X471174Y13803D02*
X473307D01*
X471174Y11671D01*
Y11137D01*
X471708Y10604D01*
X472774D01*
X473307Y11137D01*
X470108D02*
X469575Y10604D01*
X468509D01*
X467976Y11137D01*
Y13270D01*
X468509Y13803D01*
X469575D01*
X470108Y13270D01*
Y11137D01*
X16867Y98400D02*
Y101600D01*
X18467D01*
X19000Y101066D01*
Y100000D01*
X18467Y99467D01*
X16867D01*
X20066Y98400D02*
X21133D01*
X20599D01*
Y101600D01*
X20066Y101066D01*
X463433Y40299D02*
X462366D01*
X462899D01*
Y37633D01*
X462366Y37100D01*
X461833D01*
X461300Y37633D01*
X464499Y37100D02*
X465565D01*
X465032D01*
Y40299D01*
X464499Y39766D01*
X969867Y182066D02*
X969334Y182599D01*
X968268D01*
X967735Y182066D01*
Y181533D01*
X968268Y181000D01*
X969334D01*
X969867Y180467D01*
Y179934D01*
X969334Y179401D01*
X968268D01*
X967735Y179934D01*
X970934Y182066D02*
X971467Y182599D01*
X972533D01*
X973066Y182066D01*
Y181533D01*
X972533Y181000D01*
X972000D01*
X972533D01*
X973066Y180467D01*
Y179934D01*
X972533Y179401D01*
X971467D01*
X970934Y179934D01*
X974133Y182066D02*
X974666Y182599D01*
X975732D01*
X976265Y182066D01*
Y179934D01*
X975732Y179401D01*
X974666D01*
X974133Y179934D01*
Y182066D01*
X988134Y257066D02*
X987601Y257599D01*
X986535D01*
X986001Y257066D01*
Y256533D01*
X986535Y256000D01*
X987601D01*
X988134Y255467D01*
Y254934D01*
X987601Y254400D01*
X986535D01*
X986001Y254934D01*
X989200Y254400D02*
X990267D01*
X989733D01*
Y257599D01*
X989200Y257066D01*
X993999Y257599D02*
X992932Y257066D01*
X991866Y256000D01*
Y254934D01*
X992399Y254400D01*
X993466D01*
X993999Y254934D01*
Y255467D01*
X993466Y256000D01*
X991866D01*
X41069Y67400D02*
Y70600D01*
X42668D01*
X43202Y70066D01*
Y69000D01*
X42668Y68467D01*
X41069D01*
X42135D02*
X43202Y67400D01*
X46400Y70066D02*
X45867Y70600D01*
X44801D01*
X44268Y70066D01*
Y67934D01*
X44801Y67400D01*
X45867D01*
X46400Y67934D01*
Y69000D01*
X45334D01*
X47467Y70600D02*
Y67400D01*
X49066D01*
X49599Y67934D01*
Y68467D01*
X49066Y69000D01*
X47467D01*
X49066D01*
X49599Y69533D01*
Y70066D01*
X49066Y70600D01*
X47467D01*
X52798D02*
X51732Y70066D01*
X50666Y69000D01*
Y67934D01*
X51199Y67400D01*
X52265D01*
X52798Y67934D01*
Y68467D01*
X52265Y69000D01*
X50666D01*
X53865Y67400D02*
X54931D01*
X54398D01*
Y70600D01*
X53865Y70066D01*
X132536Y67400D02*
Y70600D01*
X134135D01*
X134668Y70066D01*
Y69000D01*
X134135Y68467D01*
X132536D01*
X133602D02*
X134668Y67400D01*
X137867Y70066D02*
X137334Y70600D01*
X136268D01*
X135735Y70066D01*
Y67934D01*
X136268Y67400D01*
X137334D01*
X137867Y67934D01*
Y69000D01*
X136801D01*
X138934Y70600D02*
Y67400D01*
X140533D01*
X141066Y67934D01*
Y68467D01*
X140533Y69000D01*
X138934D01*
X140533D01*
X141066Y69533D01*
Y70066D01*
X140533Y70600D01*
X138934D01*
X144265D02*
X143199Y70066D01*
X142133Y69000D01*
Y67934D01*
X142666Y67400D01*
X143732D01*
X144265Y67934D01*
Y68467D01*
X143732Y69000D01*
X142133D01*
X145332Y70066D02*
X145865Y70600D01*
X146931D01*
X147464Y70066D01*
Y67934D01*
X146931Y67400D01*
X145865D01*
X145332Y67934D01*
Y70066D01*
X227536Y67400D02*
Y70600D01*
X229135D01*
X229668Y70066D01*
Y69000D01*
X229135Y68467D01*
X227536D01*
X228602D02*
X229668Y67400D01*
X232867Y70066D02*
X232334Y70600D01*
X231268D01*
X230735Y70066D01*
Y67934D01*
X231268Y67400D01*
X232334D01*
X232867Y67934D01*
Y69000D01*
X231801D01*
X233934Y70600D02*
Y67400D01*
X235533D01*
X236066Y67934D01*
Y68467D01*
X235533Y69000D01*
X233934D01*
X235533D01*
X236066Y69533D01*
Y70066D01*
X235533Y70600D01*
X233934D01*
X239265D02*
X237133D01*
Y69000D01*
X238199Y69533D01*
X238732D01*
X239265Y69000D01*
Y67934D01*
X238732Y67400D01*
X237666D01*
X237133Y67934D01*
X240332D02*
X240865Y67400D01*
X241931D01*
X242464Y67934D01*
Y70066D01*
X241931Y70600D01*
X240865D01*
X240332Y70066D01*
Y69533D01*
X240865Y69000D01*
X242464D01*
X321536Y68401D02*
Y71600D01*
X323135D01*
X323668Y71066D01*
Y70000D01*
X323135Y69467D01*
X321536D01*
X322602D02*
X323668Y68401D01*
X326867Y71066D02*
X326334Y71600D01*
X325268D01*
X324735Y71066D01*
Y68934D01*
X325268Y68401D01*
X326334D01*
X326867Y68934D01*
Y70000D01*
X325801D01*
X327934Y71600D02*
Y68401D01*
X329533D01*
X330066Y68934D01*
Y69467D01*
X329533Y70000D01*
X327934D01*
X329533D01*
X330066Y70533D01*
Y71066D01*
X329533Y71600D01*
X327934D01*
X333265D02*
X331133D01*
Y70000D01*
X332199Y70533D01*
X332732D01*
X333265Y70000D01*
Y68934D01*
X332732Y68401D01*
X331666D01*
X331133Y68934D01*
X334332Y71066D02*
X334865Y71600D01*
X335931D01*
X336464Y71066D01*
Y70533D01*
X335931Y70000D01*
X336464Y69467D01*
Y68934D01*
X335931Y68401D01*
X334865D01*
X334332Y68934D01*
Y69467D01*
X334865Y70000D01*
X334332Y70533D01*
Y71066D01*
X334865Y70000D02*
X335931D01*
X602536Y67400D02*
Y70600D01*
X604135D01*
X604668Y70066D01*
Y69000D01*
X604135Y68467D01*
X602536D01*
X603602D02*
X604668Y67400D01*
X607867Y70066D02*
X607334Y70600D01*
X606268D01*
X605735Y70066D01*
Y67934D01*
X606268Y67400D01*
X607334D01*
X607867Y67934D01*
Y69000D01*
X606801D01*
X608934Y70600D02*
Y67400D01*
X610533D01*
X611066Y67934D01*
Y68467D01*
X610533Y69000D01*
X608934D01*
X610533D01*
X611066Y69533D01*
Y70066D01*
X610533Y70600D01*
X608934D01*
X614265D02*
X612133D01*
Y69000D01*
X613199Y69533D01*
X613732D01*
X614265Y69000D01*
Y67934D01*
X613732Y67400D01*
X612666D01*
X612133Y67934D01*
X615332Y70600D02*
X617464D01*
Y70066D01*
X615332Y67934D01*
Y67400D01*
X884536Y68401D02*
Y71600D01*
X886135D01*
X886668Y71066D01*
Y70000D01*
X886135Y69467D01*
X884536D01*
X885602D02*
X886668Y68401D01*
X889867Y71066D02*
X889334Y71600D01*
X888268D01*
X887735Y71066D01*
Y68934D01*
X888268Y68401D01*
X889334D01*
X889867Y68934D01*
Y70000D01*
X888801D01*
X890934Y71600D02*
Y68401D01*
X892533D01*
X893066Y68934D01*
Y69467D01*
X892533Y70000D01*
X890934D01*
X892533D01*
X893066Y70533D01*
Y71066D01*
X892533Y71600D01*
X890934D01*
X896265D02*
X894133D01*
Y70000D01*
X895199Y70533D01*
X895732D01*
X896265Y70000D01*
Y68934D01*
X895732Y68401D01*
X894666D01*
X894133Y68934D01*
X899464Y71600D02*
X898398Y71066D01*
X897332Y70000D01*
Y68934D01*
X897865Y68401D01*
X898931D01*
X899464Y68934D01*
Y69467D01*
X898931Y70000D01*
X897332D01*
X977536Y68401D02*
Y71600D01*
X979135D01*
X979668Y71066D01*
Y70000D01*
X979135Y69467D01*
X977536D01*
X978602D02*
X979668Y68401D01*
X982867Y71066D02*
X982334Y71600D01*
X981268D01*
X980735Y71066D01*
Y68934D01*
X981268Y68401D01*
X982334D01*
X982867Y68934D01*
Y70000D01*
X981801D01*
X983934Y71600D02*
Y68401D01*
X985533D01*
X986066Y68934D01*
Y69467D01*
X985533Y70000D01*
X983934D01*
X985533D01*
X986066Y70533D01*
Y71066D01*
X985533Y71600D01*
X983934D01*
X989265D02*
X987133D01*
Y70000D01*
X988199Y70533D01*
X988732D01*
X989265Y70000D01*
Y68934D01*
X988732Y68401D01*
X987666D01*
X987133Y68934D01*
X992464Y71600D02*
X990332D01*
Y70000D01*
X991398Y70533D01*
X991931D01*
X992464Y70000D01*
Y68934D01*
X991931Y68401D01*
X990865D01*
X990332Y68934D01*
X1071536Y68401D02*
Y71600D01*
X1073135D01*
X1073668Y71066D01*
Y70000D01*
X1073135Y69467D01*
X1071536D01*
X1072602D02*
X1073668Y68401D01*
X1076867Y71066D02*
X1076334Y71600D01*
X1075268D01*
X1074735Y71066D01*
Y68934D01*
X1075268Y68401D01*
X1076334D01*
X1076867Y68934D01*
Y70000D01*
X1075801D01*
X1077934Y71600D02*
Y68401D01*
X1079533D01*
X1080066Y68934D01*
Y69467D01*
X1079533Y70000D01*
X1077934D01*
X1079533D01*
X1080066Y70533D01*
Y71066D01*
X1079533Y71600D01*
X1077934D01*
X1083265D02*
X1081133D01*
Y70000D01*
X1082199Y70533D01*
X1082732D01*
X1083265Y70000D01*
Y68934D01*
X1082732Y68401D01*
X1081666D01*
X1081133Y68934D01*
X1085931Y68401D02*
Y71600D01*
X1084332Y70000D01*
X1086464D01*
X1034536Y144401D02*
Y147599D01*
X1036135D01*
X1036668Y147066D01*
Y146000D01*
X1036135Y145467D01*
X1034536D01*
X1035602D02*
X1036668Y144401D01*
X1039867Y147066D02*
X1039334Y147599D01*
X1038268D01*
X1037735Y147066D01*
Y144934D01*
X1038268Y144401D01*
X1039334D01*
X1039867Y144934D01*
Y146000D01*
X1038801D01*
X1040934Y147599D02*
Y144401D01*
X1042533D01*
X1043066Y144934D01*
Y145467D01*
X1042533Y146000D01*
X1040934D01*
X1042533D01*
X1043066Y146533D01*
Y147066D01*
X1042533Y147599D01*
X1040934D01*
X1046265D02*
X1044133D01*
Y146000D01*
X1045199Y146533D01*
X1045732D01*
X1046265Y146000D01*
Y144934D01*
X1045732Y144401D01*
X1044666D01*
X1044133Y144934D01*
X1047332Y147066D02*
X1047865Y147599D01*
X1048931D01*
X1049464Y147066D01*
Y146533D01*
X1048931Y146000D01*
X1048398D01*
X1048931D01*
X1049464Y145467D01*
Y144934D01*
X1048931Y144401D01*
X1047865D01*
X1047332Y144934D01*
X911536Y143401D02*
Y146599D01*
X913135D01*
X913668Y146066D01*
Y145000D01*
X913135Y144467D01*
X911536D01*
X912602D02*
X913668Y143401D01*
X916867Y146066D02*
X916334Y146599D01*
X915268D01*
X914735Y146066D01*
Y143934D01*
X915268Y143401D01*
X916334D01*
X916867Y143934D01*
Y145000D01*
X915801D01*
X917934Y146599D02*
Y143401D01*
X919533D01*
X920066Y143934D01*
Y144467D01*
X919533Y145000D01*
X917934D01*
X919533D01*
X920066Y145533D01*
Y146066D01*
X919533Y146599D01*
X917934D01*
X923265D02*
X921133D01*
Y145000D01*
X922199Y145533D01*
X922732D01*
X923265Y145000D01*
Y143934D01*
X922732Y143401D01*
X921666D01*
X921133Y143934D01*
X926464Y143401D02*
X924332D01*
X926464Y145533D01*
Y146066D01*
X925931Y146599D01*
X924865D01*
X924332Y146066D01*
X836069Y142401D02*
Y145599D01*
X837668D01*
X838202Y145066D01*
Y144000D01*
X837668Y143467D01*
X836069D01*
X837135D02*
X838202Y142401D01*
X841401Y145066D02*
X840867Y145599D01*
X839801D01*
X839268Y145066D01*
Y142934D01*
X839801Y142401D01*
X840867D01*
X841401Y142934D01*
Y144000D01*
X840334D01*
X842467Y145599D02*
Y142401D01*
X844066D01*
X844600Y142934D01*
Y143467D01*
X844066Y144000D01*
X842467D01*
X844066D01*
X844600Y144533D01*
Y145066D01*
X844066Y145599D01*
X842467D01*
X847799D02*
X845666D01*
Y144000D01*
X846732Y144533D01*
X847265D01*
X847799Y144000D01*
Y142934D01*
X847265Y142401D01*
X846199D01*
X845666Y142934D01*
X848865Y142401D02*
X849931D01*
X849398D01*
Y145599D01*
X848865Y145066D01*
X761536Y143401D02*
Y146599D01*
X763135D01*
X763668Y146066D01*
Y145000D01*
X763135Y144467D01*
X761536D01*
X762602D02*
X763668Y143401D01*
X766867Y146066D02*
X766334Y146599D01*
X765268D01*
X764735Y146066D01*
Y143934D01*
X765268Y143401D01*
X766334D01*
X766867Y143934D01*
Y145000D01*
X765801D01*
X767934Y146599D02*
Y143401D01*
X769533D01*
X770066Y143934D01*
Y144467D01*
X769533Y145000D01*
X767934D01*
X769533D01*
X770066Y145533D01*
Y146066D01*
X769533Y146599D01*
X767934D01*
X773265D02*
X771133D01*
Y145000D01*
X772199Y145533D01*
X772732D01*
X773265Y145000D01*
Y143934D01*
X772732Y143401D01*
X771666D01*
X771133Y143934D01*
X774332Y146066D02*
X774865Y146599D01*
X775931D01*
X776464Y146066D01*
Y143934D01*
X775931Y143401D01*
X774865D01*
X774332Y143934D01*
Y146066D01*
X686536Y144401D02*
Y147599D01*
X688135D01*
X688668Y147066D01*
Y146000D01*
X688135Y145467D01*
X686536D01*
X687602D02*
X688668Y144401D01*
X691867Y147066D02*
X691334Y147599D01*
X690268D01*
X689735Y147066D01*
Y144934D01*
X690268Y144401D01*
X691334D01*
X691867Y144934D01*
Y146000D01*
X690801D01*
X692934Y147599D02*
Y144401D01*
X694533D01*
X695066Y144934D01*
Y145467D01*
X694533Y146000D01*
X692934D01*
X694533D01*
X695066Y146533D01*
Y147066D01*
X694533Y147599D01*
X692934D01*
X697732Y144401D02*
Y147599D01*
X696133Y146000D01*
X698265D01*
X699332Y144934D02*
X699865Y144401D01*
X700931D01*
X701464Y144934D01*
Y147066D01*
X700931Y147599D01*
X699865D01*
X699332Y147066D01*
Y146533D01*
X699865Y146000D01*
X701464D01*
X611536Y144401D02*
Y147599D01*
X613135D01*
X613668Y147066D01*
Y146000D01*
X613135Y145467D01*
X611536D01*
X612602D02*
X613668Y144401D01*
X616867Y147066D02*
X616334Y147599D01*
X615268D01*
X614735Y147066D01*
Y144934D01*
X615268Y144401D01*
X616334D01*
X616867Y144934D01*
Y146000D01*
X615801D01*
X617934Y147599D02*
Y144401D01*
X619533D01*
X620066Y144934D01*
Y145467D01*
X619533Y146000D01*
X617934D01*
X619533D01*
X620066Y146533D01*
Y147066D01*
X619533Y147599D01*
X617934D01*
X622732Y144401D02*
Y147599D01*
X621133Y146000D01*
X623265D01*
X624332Y147066D02*
X624865Y147599D01*
X625931D01*
X626464Y147066D01*
Y146533D01*
X625931Y146000D01*
X626464Y145467D01*
Y144934D01*
X625931Y144401D01*
X624865D01*
X624332Y144934D01*
Y145467D01*
X624865Y146000D01*
X624332Y146533D01*
Y147066D01*
X624865Y146000D02*
X625931D01*
X551536Y143401D02*
Y146599D01*
X553135D01*
X553668Y146066D01*
Y145000D01*
X553135Y144467D01*
X551536D01*
X552602D02*
X553668Y143401D01*
X556867Y146066D02*
X556334Y146599D01*
X555268D01*
X554735Y146066D01*
Y143934D01*
X555268Y143401D01*
X556334D01*
X556867Y143934D01*
Y145000D01*
X555801D01*
X557934Y146599D02*
Y143401D01*
X559533D01*
X560066Y143934D01*
Y144467D01*
X559533Y145000D01*
X557934D01*
X559533D01*
X560066Y145533D01*
Y146066D01*
X559533Y146599D01*
X557934D01*
X562732Y143401D02*
Y146599D01*
X561133Y145000D01*
X563265D01*
X564332Y146599D02*
X566464D01*
Y146066D01*
X564332Y143934D01*
Y143401D01*
X461536Y144401D02*
Y147599D01*
X463135D01*
X463668Y147066D01*
Y146000D01*
X463135Y145467D01*
X461536D01*
X462602D02*
X463668Y144401D01*
X466867Y147066D02*
X466334Y147599D01*
X465268D01*
X464735Y147066D01*
Y144934D01*
X465268Y144401D01*
X466334D01*
X466867Y144934D01*
Y146000D01*
X465801D01*
X467934Y147599D02*
Y144401D01*
X469533D01*
X470066Y144934D01*
Y145467D01*
X469533Y146000D01*
X467934D01*
X469533D01*
X470066Y146533D01*
Y147066D01*
X469533Y147599D01*
X467934D01*
X472732Y144401D02*
Y147599D01*
X471133Y146000D01*
X473265D01*
X476464Y147599D02*
X475398Y147066D01*
X474332Y146000D01*
Y144934D01*
X474865Y144401D01*
X475931D01*
X476464Y144934D01*
Y145467D01*
X475931Y146000D01*
X474332D01*
X387536Y144401D02*
Y147599D01*
X389135D01*
X389668Y147066D01*
Y146000D01*
X389135Y145467D01*
X387536D01*
X388602D02*
X389668Y144401D01*
X392867Y147066D02*
X392334Y147599D01*
X391268D01*
X390735Y147066D01*
Y144934D01*
X391268Y144401D01*
X392334D01*
X392867Y144934D01*
Y146000D01*
X391801D01*
X393934Y147599D02*
Y144401D01*
X395533D01*
X396066Y144934D01*
Y145467D01*
X395533Y146000D01*
X393934D01*
X395533D01*
X396066Y146533D01*
Y147066D01*
X395533Y147599D01*
X393934D01*
X398732Y144401D02*
Y147599D01*
X397133Y146000D01*
X399265D01*
X402464Y147599D02*
X400332D01*
Y146000D01*
X401398Y146533D01*
X401931D01*
X402464Y146000D01*
Y144934D01*
X401931Y144401D01*
X400865D01*
X400332Y144934D01*
X312536Y144401D02*
Y147599D01*
X314135D01*
X314668Y147066D01*
Y146000D01*
X314135Y145467D01*
X312536D01*
X313602D02*
X314668Y144401D01*
X317867Y147066D02*
X317334Y147599D01*
X316268D01*
X315735Y147066D01*
Y144934D01*
X316268Y144401D01*
X317334D01*
X317867Y144934D01*
Y146000D01*
X316801D01*
X318934Y147599D02*
Y144401D01*
X320533D01*
X321066Y144934D01*
Y145467D01*
X320533Y146000D01*
X318934D01*
X320533D01*
X321066Y146533D01*
Y147066D01*
X320533Y147599D01*
X318934D01*
X323732Y144401D02*
Y147599D01*
X322133Y146000D01*
X324265D01*
X326931Y144401D02*
Y147599D01*
X325332Y146000D01*
X327464D01*
X237536Y143401D02*
Y146599D01*
X239135D01*
X239668Y146066D01*
Y145000D01*
X239135Y144467D01*
X237536D01*
X238602D02*
X239668Y143401D01*
X242867Y146066D02*
X242334Y146599D01*
X241268D01*
X240735Y146066D01*
Y143934D01*
X241268Y143401D01*
X242334D01*
X242867Y143934D01*
Y145000D01*
X241801D01*
X243934Y146599D02*
Y143401D01*
X245533D01*
X246066Y143934D01*
Y144467D01*
X245533Y145000D01*
X243934D01*
X245533D01*
X246066Y145533D01*
Y146066D01*
X245533Y146599D01*
X243934D01*
X248732Y143401D02*
Y146599D01*
X247133Y145000D01*
X249265D01*
X250332Y146066D02*
X250865Y146599D01*
X251931D01*
X252464Y146066D01*
Y145533D01*
X251931Y145000D01*
X251398D01*
X251931D01*
X252464Y144467D01*
Y143934D01*
X251931Y143401D01*
X250865D01*
X250332Y143934D01*
X95536Y143401D02*
Y146599D01*
X97135D01*
X97668Y146066D01*
Y145000D01*
X97135Y144467D01*
X95536D01*
X96602D02*
X97668Y143401D01*
X100867Y146066D02*
X100334Y146599D01*
X99268D01*
X98735Y146066D01*
Y143934D01*
X99268Y143401D01*
X100334D01*
X100867Y143934D01*
Y145000D01*
X99801D01*
X101934Y146599D02*
Y143401D01*
X103533D01*
X104066Y143934D01*
Y144467D01*
X103533Y145000D01*
X101934D01*
X103533D01*
X104066Y145533D01*
Y146066D01*
X103533Y146599D01*
X101934D01*
X106732Y143401D02*
Y146599D01*
X105133Y145000D01*
X107265D01*
X110464Y143401D02*
X108332D01*
X110464Y145533D01*
Y146066D01*
X109931Y146599D01*
X108865D01*
X108332Y146066D01*
X78069Y217401D02*
Y220600D01*
X79668D01*
X80202Y220066D01*
Y219000D01*
X79668Y218467D01*
X78069D01*
X79135D02*
X80202Y217401D01*
X83400Y220066D02*
X82867Y220600D01*
X81801D01*
X81268Y220066D01*
Y217934D01*
X81801Y217401D01*
X82867D01*
X83400Y217934D01*
Y219000D01*
X82334D01*
X84467Y220600D02*
Y217401D01*
X86066D01*
X86599Y217934D01*
Y218467D01*
X86066Y219000D01*
X84467D01*
X86066D01*
X86599Y219533D01*
Y220066D01*
X86066Y220600D01*
X84467D01*
X89265Y217401D02*
Y220600D01*
X87666Y219000D01*
X89798D01*
X90865Y217401D02*
X91931D01*
X91398D01*
Y220600D01*
X90865Y220066D01*
X199536Y218401D02*
Y221600D01*
X201135D01*
X201668Y221066D01*
Y220000D01*
X201135Y219467D01*
X199536D01*
X200602D02*
X201668Y218401D01*
X204867Y221066D02*
X204334Y221600D01*
X203268D01*
X202735Y221066D01*
Y218934D01*
X203268Y218401D01*
X204334D01*
X204867Y218934D01*
Y220000D01*
X203801D01*
X205934Y221600D02*
Y218401D01*
X207533D01*
X208066Y218934D01*
Y219467D01*
X207533Y220000D01*
X205934D01*
X207533D01*
X208066Y220533D01*
Y221066D01*
X207533Y221600D01*
X205934D01*
X210732Y218401D02*
Y221600D01*
X209133Y220000D01*
X211265D01*
X212332Y221066D02*
X212865Y221600D01*
X213931D01*
X214464Y221066D01*
Y218934D01*
X213931Y218401D01*
X212865D01*
X212332Y218934D01*
Y221066D01*
X274536Y217401D02*
Y220600D01*
X276135D01*
X276668Y220066D01*
Y219000D01*
X276135Y218467D01*
X274536D01*
X275602D02*
X276668Y217401D01*
X279867Y220066D02*
X279334Y220600D01*
X278268D01*
X277735Y220066D01*
Y217934D01*
X278268Y217401D01*
X279334D01*
X279867Y217934D01*
Y219000D01*
X278801D01*
X280934Y220600D02*
Y217401D01*
X282533D01*
X283066Y217934D01*
Y218467D01*
X282533Y219000D01*
X280934D01*
X282533D01*
X283066Y219533D01*
Y220066D01*
X282533Y220600D01*
X280934D01*
X284133Y220066D02*
X284666Y220600D01*
X285732D01*
X286265Y220066D01*
Y219533D01*
X285732Y219000D01*
X285199D01*
X285732D01*
X286265Y218467D01*
Y217934D01*
X285732Y217401D01*
X284666D01*
X284133Y217934D01*
X287332D02*
X287865Y217401D01*
X288931D01*
X289464Y217934D01*
Y220066D01*
X288931Y220600D01*
X287865D01*
X287332Y220066D01*
Y219533D01*
X287865Y219000D01*
X289464D01*
X348536Y217401D02*
Y220600D01*
X350135D01*
X350668Y220066D01*
Y219000D01*
X350135Y218467D01*
X348536D01*
X349602D02*
X350668Y217401D01*
X353867Y220066D02*
X353334Y220600D01*
X352268D01*
X351735Y220066D01*
Y217934D01*
X352268Y217401D01*
X353334D01*
X353867Y217934D01*
Y219000D01*
X352801D01*
X354934Y220600D02*
Y217401D01*
X356533D01*
X357066Y217934D01*
Y218467D01*
X356533Y219000D01*
X354934D01*
X356533D01*
X357066Y219533D01*
Y220066D01*
X356533Y220600D01*
X354934D01*
X358133Y220066D02*
X358666Y220600D01*
X359732D01*
X360265Y220066D01*
Y219533D01*
X359732Y219000D01*
X359199D01*
X359732D01*
X360265Y218467D01*
Y217934D01*
X359732Y217401D01*
X358666D01*
X358133Y217934D01*
X361332Y220066D02*
X361865Y220600D01*
X362931D01*
X363464Y220066D01*
Y219533D01*
X362931Y219000D01*
X363464Y218467D01*
Y217934D01*
X362931Y217401D01*
X361865D01*
X361332Y217934D01*
Y218467D01*
X361865Y219000D01*
X361332Y219533D01*
Y220066D01*
X361865Y219000D02*
X362931D01*
X424536Y218401D02*
Y221600D01*
X426135D01*
X426668Y221066D01*
Y220000D01*
X426135Y219467D01*
X424536D01*
X425602D02*
X426668Y218401D01*
X429867Y221066D02*
X429334Y221600D01*
X428268D01*
X427735Y221066D01*
Y218934D01*
X428268Y218401D01*
X429334D01*
X429867Y218934D01*
Y220000D01*
X428801D01*
X430934Y221600D02*
Y218401D01*
X432533D01*
X433066Y218934D01*
Y219467D01*
X432533Y220000D01*
X430934D01*
X432533D01*
X433066Y220533D01*
Y221066D01*
X432533Y221600D01*
X430934D01*
X434133Y221066D02*
X434666Y221600D01*
X435732D01*
X436265Y221066D01*
Y220533D01*
X435732Y220000D01*
X435199D01*
X435732D01*
X436265Y219467D01*
Y218934D01*
X435732Y218401D01*
X434666D01*
X434133Y218934D01*
X437332Y221600D02*
X439464D01*
Y221066D01*
X437332Y218934D01*
Y218401D01*
X499536Y217401D02*
Y220600D01*
X501135D01*
X501668Y220066D01*
Y219000D01*
X501135Y218467D01*
X499536D01*
X500602D02*
X501668Y217401D01*
X504867Y220066D02*
X504334Y220600D01*
X503268D01*
X502735Y220066D01*
Y217934D01*
X503268Y217401D01*
X504334D01*
X504867Y217934D01*
Y219000D01*
X503801D01*
X505934Y220600D02*
Y217401D01*
X507533D01*
X508066Y217934D01*
Y218467D01*
X507533Y219000D01*
X505934D01*
X507533D01*
X508066Y219533D01*
Y220066D01*
X507533Y220600D01*
X505934D01*
X509133Y220066D02*
X509666Y220600D01*
X510732D01*
X511265Y220066D01*
Y219533D01*
X510732Y219000D01*
X510199D01*
X510732D01*
X511265Y218467D01*
Y217934D01*
X510732Y217401D01*
X509666D01*
X509133Y217934D01*
X514464Y220600D02*
X513398Y220066D01*
X512332Y219000D01*
Y217934D01*
X512865Y217401D01*
X513931D01*
X514464Y217934D01*
Y218467D01*
X513931Y219000D01*
X512332D01*
X574536Y217401D02*
Y220600D01*
X576135D01*
X576668Y220066D01*
Y219000D01*
X576135Y218467D01*
X574536D01*
X575602D02*
X576668Y217401D01*
X579867Y220066D02*
X579334Y220600D01*
X578268D01*
X577735Y220066D01*
Y217934D01*
X578268Y217401D01*
X579334D01*
X579867Y217934D01*
Y219000D01*
X578801D01*
X580934Y220600D02*
Y217401D01*
X582533D01*
X583066Y217934D01*
Y218467D01*
X582533Y219000D01*
X580934D01*
X582533D01*
X583066Y219533D01*
Y220066D01*
X582533Y220600D01*
X580934D01*
X584133Y220066D02*
X584666Y220600D01*
X585732D01*
X586265Y220066D01*
Y219533D01*
X585732Y219000D01*
X585199D01*
X585732D01*
X586265Y218467D01*
Y217934D01*
X585732Y217401D01*
X584666D01*
X584133Y217934D01*
X589464Y220600D02*
X587332D01*
Y219000D01*
X588398Y219533D01*
X588931D01*
X589464Y219000D01*
Y217934D01*
X588931Y217401D01*
X587865D01*
X587332Y217934D01*
X649536Y217401D02*
Y220600D01*
X651135D01*
X651668Y220066D01*
Y219000D01*
X651135Y218467D01*
X649536D01*
X650602D02*
X651668Y217401D01*
X654867Y220066D02*
X654334Y220600D01*
X653268D01*
X652735Y220066D01*
Y217934D01*
X653268Y217401D01*
X654334D01*
X654867Y217934D01*
Y219000D01*
X653801D01*
X655934Y220600D02*
Y217401D01*
X657533D01*
X658066Y217934D01*
Y218467D01*
X657533Y219000D01*
X655934D01*
X657533D01*
X658066Y219533D01*
Y220066D01*
X657533Y220600D01*
X655934D01*
X659133Y220066D02*
X659666Y220600D01*
X660732D01*
X661265Y220066D01*
Y219533D01*
X660732Y219000D01*
X660199D01*
X660732D01*
X661265Y218467D01*
Y217934D01*
X660732Y217401D01*
X659666D01*
X659133Y217934D01*
X663931Y217401D02*
Y220600D01*
X662332Y219000D01*
X664464D01*
X724536Y217401D02*
Y220600D01*
X726135D01*
X726668Y220066D01*
Y219000D01*
X726135Y218467D01*
X724536D01*
X725602D02*
X726668Y217401D01*
X729867Y220066D02*
X729334Y220600D01*
X728268D01*
X727735Y220066D01*
Y217934D01*
X728268Y217401D01*
X729334D01*
X729867Y217934D01*
Y219000D01*
X728801D01*
X730934Y220600D02*
Y217401D01*
X732533D01*
X733066Y217934D01*
Y218467D01*
X732533Y219000D01*
X730934D01*
X732533D01*
X733066Y219533D01*
Y220066D01*
X732533Y220600D01*
X730934D01*
X734133Y220066D02*
X734666Y220600D01*
X735732D01*
X736265Y220066D01*
Y219533D01*
X735732Y219000D01*
X735199D01*
X735732D01*
X736265Y218467D01*
Y217934D01*
X735732Y217401D01*
X734666D01*
X734133Y217934D01*
X737332Y220066D02*
X737865Y220600D01*
X738931D01*
X739464Y220066D01*
Y219533D01*
X738931Y219000D01*
X738398D01*
X738931D01*
X739464Y218467D01*
Y217934D01*
X738931Y217401D01*
X737865D01*
X737332Y217934D01*
X799536Y217401D02*
Y220600D01*
X801135D01*
X801668Y220066D01*
Y219000D01*
X801135Y218467D01*
X799536D01*
X800602D02*
X801668Y217401D01*
X804867Y220066D02*
X804334Y220600D01*
X803268D01*
X802735Y220066D01*
Y217934D01*
X803268Y217401D01*
X804334D01*
X804867Y217934D01*
Y219000D01*
X803801D01*
X805934Y220600D02*
Y217401D01*
X807533D01*
X808066Y217934D01*
Y218467D01*
X807533Y219000D01*
X805934D01*
X807533D01*
X808066Y219533D01*
Y220066D01*
X807533Y220600D01*
X805934D01*
X809133Y220066D02*
X809666Y220600D01*
X810732D01*
X811265Y220066D01*
Y219533D01*
X810732Y219000D01*
X810199D01*
X810732D01*
X811265Y218467D01*
Y217934D01*
X810732Y217401D01*
X809666D01*
X809133Y217934D01*
X814464Y217401D02*
X812332D01*
X814464Y219533D01*
Y220066D01*
X813931Y220600D01*
X812865D01*
X812332Y220066D01*
X875069Y217401D02*
Y220600D01*
X876668D01*
X877201Y220066D01*
Y219000D01*
X876668Y218467D01*
X875069D01*
X876135D02*
X877201Y217401D01*
X880400Y220066D02*
X879867Y220600D01*
X878801D01*
X878268Y220066D01*
Y217934D01*
X878801Y217401D01*
X879867D01*
X880400Y217934D01*
Y219000D01*
X879334D01*
X881467Y220600D02*
Y217401D01*
X883066D01*
X883599Y217934D01*
Y218467D01*
X883066Y219000D01*
X881467D01*
X883066D01*
X883599Y219533D01*
Y220066D01*
X883066Y220600D01*
X881467D01*
X884666Y220066D02*
X885199Y220600D01*
X886265D01*
X886798Y220066D01*
Y219533D01*
X886265Y219000D01*
X885732D01*
X886265D01*
X886798Y218467D01*
Y217934D01*
X886265Y217401D01*
X885199D01*
X884666Y217934D01*
X887865Y217401D02*
X888931D01*
X888398D01*
Y220600D01*
X887865Y220066D01*
X949536Y217401D02*
Y220600D01*
X951135D01*
X951668Y220066D01*
Y219000D01*
X951135Y218467D01*
X949536D01*
X950602D02*
X951668Y217401D01*
X954867Y220066D02*
X954334Y220600D01*
X953268D01*
X952735Y220066D01*
Y217934D01*
X953268Y217401D01*
X954334D01*
X954867Y217934D01*
Y219000D01*
X953801D01*
X955934Y220600D02*
Y217401D01*
X957533D01*
X958066Y217934D01*
Y218467D01*
X957533Y219000D01*
X955934D01*
X957533D01*
X958066Y219533D01*
Y220066D01*
X957533Y220600D01*
X955934D01*
X959133Y220066D02*
X959666Y220600D01*
X960732D01*
X961265Y220066D01*
Y219533D01*
X960732Y219000D01*
X960199D01*
X960732D01*
X961265Y218467D01*
Y217934D01*
X960732Y217401D01*
X959666D01*
X959133Y217934D01*
X962332Y220066D02*
X962865Y220600D01*
X963931D01*
X964464Y220066D01*
Y217934D01*
X963931Y217401D01*
X962865D01*
X962332Y217934D01*
Y220066D01*
X1052536Y218401D02*
Y221600D01*
X1054135D01*
X1054668Y221066D01*
Y220000D01*
X1054135Y219467D01*
X1052536D01*
X1053602D02*
X1054668Y218401D01*
X1057867Y221066D02*
X1057334Y221600D01*
X1056268D01*
X1055735Y221066D01*
Y218934D01*
X1056268Y218401D01*
X1057334D01*
X1057867Y218934D01*
Y220000D01*
X1056801D01*
X1058934Y221600D02*
Y218401D01*
X1060533D01*
X1061066Y218934D01*
Y219467D01*
X1060533Y220000D01*
X1058934D01*
X1060533D01*
X1061066Y220533D01*
Y221066D01*
X1060533Y221600D01*
X1058934D01*
X1064265Y218401D02*
X1062133D01*
X1064265Y220533D01*
Y221066D01*
X1063732Y221600D01*
X1062666D01*
X1062133Y221066D01*
X1065332Y218934D02*
X1065865Y218401D01*
X1066931D01*
X1067464Y218934D01*
Y221066D01*
X1066931Y221600D01*
X1065865D01*
X1065332Y221066D01*
Y220533D01*
X1065865Y220000D01*
X1067464D01*
X1060536Y293401D02*
Y296600D01*
X1062135D01*
X1062668Y296066D01*
Y295000D01*
X1062135Y294467D01*
X1060536D01*
X1061602D02*
X1062668Y293401D01*
X1065867Y296066D02*
X1065334Y296600D01*
X1064268D01*
X1063735Y296066D01*
Y293934D01*
X1064268Y293401D01*
X1065334D01*
X1065867Y293934D01*
Y295000D01*
X1064801D01*
X1066934Y296600D02*
Y293401D01*
X1068533D01*
X1069066Y293934D01*
Y294467D01*
X1068533Y295000D01*
X1066934D01*
X1068533D01*
X1069066Y295533D01*
Y296066D01*
X1068533Y296600D01*
X1066934D01*
X1072265Y293401D02*
X1070133D01*
X1072265Y295533D01*
Y296066D01*
X1071732Y296600D01*
X1070666D01*
X1070133Y296066D01*
X1073332D02*
X1073865Y296600D01*
X1074931D01*
X1075464Y296066D01*
Y295533D01*
X1074931Y295000D01*
X1075464Y294467D01*
Y293934D01*
X1074931Y293401D01*
X1073865D01*
X1073332Y293934D01*
Y294467D01*
X1073865Y295000D01*
X1073332Y295533D01*
Y296066D01*
X1073865Y295000D02*
X1074931D01*
X969536Y294401D02*
Y297600D01*
X971135D01*
X971668Y297066D01*
Y296000D01*
X971135Y295467D01*
X969536D01*
X970602D02*
X971668Y294401D01*
X974867Y297066D02*
X974334Y297600D01*
X973268D01*
X972735Y297066D01*
Y294934D01*
X973268Y294401D01*
X974334D01*
X974867Y294934D01*
Y296000D01*
X973801D01*
X975934Y297600D02*
Y294401D01*
X977533D01*
X978066Y294934D01*
Y295467D01*
X977533Y296000D01*
X975934D01*
X977533D01*
X978066Y296533D01*
Y297066D01*
X977533Y297600D01*
X975934D01*
X981265Y294401D02*
X979133D01*
X981265Y296533D01*
Y297066D01*
X980732Y297600D01*
X979666D01*
X979133Y297066D01*
X982332Y297600D02*
X984464D01*
Y297066D01*
X982332Y294934D01*
Y294401D01*
X907536Y292401D02*
Y295600D01*
X909135D01*
X909668Y295066D01*
Y294000D01*
X909135Y293467D01*
X907536D01*
X908602D02*
X909668Y292401D01*
X912867Y295066D02*
X912334Y295600D01*
X911268D01*
X910735Y295066D01*
Y292934D01*
X911268Y292401D01*
X912334D01*
X912867Y292934D01*
Y294000D01*
X911801D01*
X913934Y295600D02*
Y292401D01*
X915533D01*
X916066Y292934D01*
Y293467D01*
X915533Y294000D01*
X913934D01*
X915533D01*
X916066Y294533D01*
Y295066D01*
X915533Y295600D01*
X913934D01*
X919265Y292401D02*
X917133D01*
X919265Y294533D01*
Y295066D01*
X918732Y295600D01*
X917666D01*
X917133Y295066D01*
X922464Y295600D02*
X921398Y295066D01*
X920332Y294000D01*
Y292934D01*
X920865Y292401D01*
X921931D01*
X922464Y292934D01*
Y293467D01*
X921931Y294000D01*
X920332D01*
X817536Y293401D02*
Y296600D01*
X819135D01*
X819668Y296066D01*
Y295000D01*
X819135Y294467D01*
X817536D01*
X818602D02*
X819668Y293401D01*
X822867Y296066D02*
X822334Y296600D01*
X821268D01*
X820735Y296066D01*
Y293934D01*
X821268Y293401D01*
X822334D01*
X822867Y293934D01*
Y295000D01*
X821801D01*
X823934Y296600D02*
Y293401D01*
X825533D01*
X826066Y293934D01*
Y294467D01*
X825533Y295000D01*
X823934D01*
X825533D01*
X826066Y295533D01*
Y296066D01*
X825533Y296600D01*
X823934D01*
X829265Y293401D02*
X827133D01*
X829265Y295533D01*
Y296066D01*
X828732Y296600D01*
X827666D01*
X827133Y296066D01*
X832464Y296600D02*
X830332D01*
Y295000D01*
X831398Y295533D01*
X831931D01*
X832464Y295000D01*
Y293934D01*
X831931Y293401D01*
X830865D01*
X830332Y293934D01*
X743536Y293401D02*
Y296600D01*
X745135D01*
X745668Y296066D01*
Y295000D01*
X745135Y294467D01*
X743536D01*
X744602D02*
X745668Y293401D01*
X748867Y296066D02*
X748334Y296600D01*
X747268D01*
X746735Y296066D01*
Y293934D01*
X747268Y293401D01*
X748334D01*
X748867Y293934D01*
Y295000D01*
X747801D01*
X749934Y296600D02*
Y293401D01*
X751533D01*
X752066Y293934D01*
Y294467D01*
X751533Y295000D01*
X749934D01*
X751533D01*
X752066Y295533D01*
Y296066D01*
X751533Y296600D01*
X749934D01*
X755265Y293401D02*
X753133D01*
X755265Y295533D01*
Y296066D01*
X754732Y296600D01*
X753666D01*
X753133Y296066D01*
X757931Y293401D02*
Y296600D01*
X756332Y295000D01*
X758464D01*
X668536Y293401D02*
Y296600D01*
X670135D01*
X670668Y296066D01*
Y295000D01*
X670135Y294467D01*
X668536D01*
X669602D02*
X670668Y293401D01*
X673867Y296066D02*
X673334Y296600D01*
X672268D01*
X671735Y296066D01*
Y293934D01*
X672268Y293401D01*
X673334D01*
X673867Y293934D01*
Y295000D01*
X672801D01*
X674934Y296600D02*
Y293401D01*
X676533D01*
X677066Y293934D01*
Y294467D01*
X676533Y295000D01*
X674934D01*
X676533D01*
X677066Y295533D01*
Y296066D01*
X676533Y296600D01*
X674934D01*
X680265Y293401D02*
X678133D01*
X680265Y295533D01*
Y296066D01*
X679732Y296600D01*
X678666D01*
X678133Y296066D01*
X681332D02*
X681865Y296600D01*
X682931D01*
X683464Y296066D01*
Y295533D01*
X682931Y295000D01*
X682398D01*
X682931D01*
X683464Y294467D01*
Y293934D01*
X682931Y293401D01*
X681865D01*
X681332Y293934D01*
X592536Y293401D02*
Y296600D01*
X594135D01*
X594668Y296066D01*
Y295000D01*
X594135Y294467D01*
X592536D01*
X593602D02*
X594668Y293401D01*
X597867Y296066D02*
X597334Y296600D01*
X596268D01*
X595735Y296066D01*
Y293934D01*
X596268Y293401D01*
X597334D01*
X597867Y293934D01*
Y295000D01*
X596801D01*
X598934Y296600D02*
Y293401D01*
X600533D01*
X601066Y293934D01*
Y294467D01*
X600533Y295000D01*
X598934D01*
X600533D01*
X601066Y295533D01*
Y296066D01*
X600533Y296600D01*
X598934D01*
X604265Y293401D02*
X602133D01*
X604265Y295533D01*
Y296066D01*
X603732Y296600D01*
X602666D01*
X602133Y296066D01*
X607464Y293401D02*
X605332D01*
X607464Y295533D01*
Y296066D01*
X606931Y296600D01*
X605865D01*
X605332Y296066D01*
X518069Y293401D02*
Y296600D01*
X519668D01*
X520201Y296066D01*
Y295000D01*
X519668Y294467D01*
X518069D01*
X519135D02*
X520201Y293401D01*
X523400Y296066D02*
X522867Y296600D01*
X521801D01*
X521268Y296066D01*
Y293934D01*
X521801Y293401D01*
X522867D01*
X523400Y293934D01*
Y295000D01*
X522334D01*
X524467Y296600D02*
Y293401D01*
X526066D01*
X526600Y293934D01*
Y294467D01*
X526066Y295000D01*
X524467D01*
X526066D01*
X526600Y295533D01*
Y296066D01*
X526066Y296600D01*
X524467D01*
X529798Y293401D02*
X527666D01*
X529798Y295533D01*
Y296066D01*
X529265Y296600D01*
X528199D01*
X527666Y296066D01*
X530865Y293401D02*
X531931D01*
X531398D01*
Y296600D01*
X530865Y296066D01*
X442536Y293401D02*
Y296600D01*
X444135D01*
X444668Y296066D01*
Y295000D01*
X444135Y294467D01*
X442536D01*
X443602D02*
X444668Y293401D01*
X447867Y296066D02*
X447334Y296600D01*
X446268D01*
X445735Y296066D01*
Y293934D01*
X446268Y293401D01*
X447334D01*
X447867Y293934D01*
Y295000D01*
X446801D01*
X448934Y296600D02*
Y293401D01*
X450533D01*
X451066Y293934D01*
Y294467D01*
X450533Y295000D01*
X448934D01*
X450533D01*
X451066Y295533D01*
Y296066D01*
X450533Y296600D01*
X448934D01*
X454265Y293401D02*
X452133D01*
X454265Y295533D01*
Y296066D01*
X453732Y296600D01*
X452666D01*
X452133Y296066D01*
X455332D02*
X455865Y296600D01*
X456931D01*
X457464Y296066D01*
Y293934D01*
X456931Y293401D01*
X455865D01*
X455332Y293934D01*
Y296066D01*
X368802Y293401D02*
Y296600D01*
X370402D01*
X370935Y296066D01*
Y295000D01*
X370402Y294467D01*
X368802D01*
X369869D02*
X370935Y293401D01*
X374134Y296066D02*
X373601Y296600D01*
X372534D01*
X372001Y296066D01*
Y293934D01*
X372534Y293401D01*
X373601D01*
X374134Y293934D01*
Y295000D01*
X373068D01*
X375200Y296600D02*
Y293401D01*
X376800D01*
X377333Y293934D01*
Y294467D01*
X376800Y295000D01*
X375200D01*
X376800D01*
X377333Y295533D01*
Y296066D01*
X376800Y296600D01*
X375200D01*
X378399Y293401D02*
X379466D01*
X378932D01*
Y296600D01*
X378399Y296066D01*
X381065Y293934D02*
X381598Y293401D01*
X382664D01*
X383198Y293934D01*
Y296066D01*
X382664Y296600D01*
X381598D01*
X381065Y296066D01*
Y295533D01*
X381598Y295000D01*
X383198D01*
X293802Y293401D02*
Y296600D01*
X295402D01*
X295935Y296066D01*
Y295000D01*
X295402Y294467D01*
X293802D01*
X294869D02*
X295935Y293401D01*
X299134Y296066D02*
X298601Y296600D01*
X297534D01*
X297001Y296066D01*
Y293934D01*
X297534Y293401D01*
X298601D01*
X299134Y293934D01*
Y295000D01*
X298068D01*
X300200Y296600D02*
Y293401D01*
X301800D01*
X302333Y293934D01*
Y294467D01*
X301800Y295000D01*
X300200D01*
X301800D01*
X302333Y295533D01*
Y296066D01*
X301800Y296600D01*
X300200D01*
X303399Y293401D02*
X304466D01*
X303932D01*
Y296600D01*
X303399Y296066D01*
X306065D02*
X306598Y296600D01*
X307664D01*
X308198Y296066D01*
Y295533D01*
X307664Y295000D01*
X308198Y294467D01*
Y293934D01*
X307664Y293401D01*
X306598D01*
X306065Y293934D01*
Y294467D01*
X306598Y295000D01*
X306065Y295533D01*
Y296066D01*
X306598Y295000D02*
X307664D01*
X231802Y292401D02*
Y295600D01*
X233402D01*
X233935Y295066D01*
Y294000D01*
X233402Y293467D01*
X231802D01*
X232869D02*
X233935Y292401D01*
X237134Y295066D02*
X236601Y295600D01*
X235535D01*
X235001Y295066D01*
Y292934D01*
X235535Y292401D01*
X236601D01*
X237134Y292934D01*
Y294000D01*
X236068D01*
X238200Y295600D02*
Y292401D01*
X239800D01*
X240333Y292934D01*
Y293467D01*
X239800Y294000D01*
X238200D01*
X239800D01*
X240333Y294533D01*
Y295066D01*
X239800Y295600D01*
X238200D01*
X241399Y292401D02*
X242466D01*
X241932D01*
Y295600D01*
X241399Y295066D01*
X244065Y295600D02*
X246198D01*
Y295066D01*
X244065Y292934D01*
Y292401D01*
X143802D02*
Y295600D01*
X145402D01*
X145935Y295066D01*
Y294000D01*
X145402Y293467D01*
X143802D01*
X144869D02*
X145935Y292401D01*
X149134Y295066D02*
X148601Y295600D01*
X147535D01*
X147001Y295066D01*
Y292934D01*
X147535Y292401D01*
X148601D01*
X149134Y292934D01*
Y294000D01*
X148068D01*
X150200Y295600D02*
Y292401D01*
X151800D01*
X152333Y292934D01*
Y293467D01*
X151800Y294000D01*
X150200D01*
X151800D01*
X152333Y294533D01*
Y295066D01*
X151800Y295600D01*
X150200D01*
X153399Y292401D02*
X154466D01*
X153932D01*
Y295600D01*
X153399Y295066D01*
X158198Y295600D02*
X157131Y295066D01*
X156065Y294000D01*
Y292934D01*
X156598Y292401D01*
X157665D01*
X158198Y292934D01*
Y293467D01*
X157665Y294000D01*
X156065D01*
X49802Y292401D02*
Y295600D01*
X51402D01*
X51935Y295066D01*
Y294000D01*
X51402Y293467D01*
X49802D01*
X50869D02*
X51935Y292401D01*
X55134Y295066D02*
X54601Y295600D01*
X53535D01*
X53001Y295066D01*
Y292934D01*
X53535Y292401D01*
X54601D01*
X55134Y292934D01*
Y294000D01*
X54068D01*
X56200Y295600D02*
Y292401D01*
X57800D01*
X58333Y292934D01*
Y293467D01*
X57800Y294000D01*
X56200D01*
X57800D01*
X58333Y294533D01*
Y295066D01*
X57800Y295600D01*
X56200D01*
X59399Y292401D02*
X60466D01*
X59932D01*
Y295600D01*
X59399Y295066D01*
X64198Y295600D02*
X62065D01*
Y294000D01*
X63131Y294533D01*
X63665D01*
X64198Y294000D01*
Y292934D01*
X63665Y292401D01*
X62598D01*
X62065Y292934D01*
X67802Y368401D02*
Y371600D01*
X69402D01*
X69935Y371066D01*
Y370000D01*
X69402Y369467D01*
X67802D01*
X68869D02*
X69935Y368401D01*
X73134Y371066D02*
X72601Y371600D01*
X71535D01*
X71001Y371066D01*
Y368934D01*
X71535Y368401D01*
X72601D01*
X73134Y368934D01*
Y370000D01*
X72068D01*
X74200Y371600D02*
Y368401D01*
X75800D01*
X76333Y368934D01*
Y369467D01*
X75800Y370000D01*
X74200D01*
X75800D01*
X76333Y370533D01*
Y371066D01*
X75800Y371600D01*
X74200D01*
X77399Y368401D02*
X78466D01*
X77932D01*
Y371600D01*
X77399Y371066D01*
X81665Y368401D02*
Y371600D01*
X80065Y370000D01*
X82198D01*
X179802Y368401D02*
Y371600D01*
X181402D01*
X181935Y371066D01*
Y370000D01*
X181402Y369467D01*
X179802D01*
X180869D02*
X181935Y368401D01*
X185134Y371066D02*
X184601Y371600D01*
X183535D01*
X183001Y371066D01*
Y368934D01*
X183535Y368401D01*
X184601D01*
X185134Y368934D01*
Y370000D01*
X184068D01*
X186200Y371600D02*
Y368401D01*
X187800D01*
X188333Y368934D01*
Y369467D01*
X187800Y370000D01*
X186200D01*
X187800D01*
X188333Y370533D01*
Y371066D01*
X187800Y371600D01*
X186200D01*
X189399Y368401D02*
X190466D01*
X189932D01*
Y371600D01*
X189399Y371066D01*
X192065D02*
X192598Y371600D01*
X193665D01*
X194198Y371066D01*
Y370533D01*
X193665Y370000D01*
X193131D01*
X193665D01*
X194198Y369467D01*
Y368934D01*
X193665Y368401D01*
X192598D01*
X192065Y368934D01*
X255802Y367401D02*
Y370600D01*
X257402D01*
X257935Y370066D01*
Y369000D01*
X257402Y368467D01*
X255802D01*
X256869D02*
X257935Y367401D01*
X261134Y370066D02*
X260601Y370600D01*
X259535D01*
X259001Y370066D01*
Y367934D01*
X259535Y367401D01*
X260601D01*
X261134Y367934D01*
Y369000D01*
X260068D01*
X262200Y370600D02*
Y367401D01*
X263800D01*
X264333Y367934D01*
Y368467D01*
X263800Y369000D01*
X262200D01*
X263800D01*
X264333Y369533D01*
Y370066D01*
X263800Y370600D01*
X262200D01*
X265399Y367401D02*
X266466D01*
X265932D01*
Y370600D01*
X265399Y370066D01*
X270198Y367401D02*
X268065D01*
X270198Y369533D01*
Y370066D01*
X269665Y370600D01*
X268598D01*
X268065Y370066D01*
X331335Y368401D02*
Y371600D01*
X332935D01*
X333468Y371066D01*
Y370000D01*
X332935Y369467D01*
X331335D01*
X332402D02*
X333468Y368401D01*
X336667Y371066D02*
X336134Y371600D01*
X335068D01*
X334535Y371066D01*
Y368934D01*
X335068Y368401D01*
X336134D01*
X336667Y368934D01*
Y370000D01*
X335601D01*
X337733Y371600D02*
Y368401D01*
X339333D01*
X339866Y368934D01*
Y369467D01*
X339333Y370000D01*
X337733D01*
X339333D01*
X339866Y370533D01*
Y371066D01*
X339333Y371600D01*
X337733D01*
X340932Y368401D02*
X341999D01*
X341466D01*
Y371600D01*
X340932Y371066D01*
X343598Y368401D02*
X344665D01*
X344131D01*
Y371600D01*
X343598Y371066D01*
X405802Y368401D02*
Y371600D01*
X407402D01*
X407935Y371066D01*
Y370000D01*
X407402Y369467D01*
X405802D01*
X406869D02*
X407935Y368401D01*
X411134Y371066D02*
X410601Y371600D01*
X409535D01*
X409001Y371066D01*
Y368934D01*
X409535Y368401D01*
X410601D01*
X411134Y368934D01*
Y370000D01*
X410068D01*
X412200Y371600D02*
Y368401D01*
X413800D01*
X414333Y368934D01*
Y369467D01*
X413800Y370000D01*
X412200D01*
X413800D01*
X414333Y370533D01*
Y371066D01*
X413800Y371600D01*
X412200D01*
X415399Y368401D02*
X416466D01*
X415932D01*
Y371600D01*
X415399Y371066D01*
X418065D02*
X418598Y371600D01*
X419664D01*
X420198Y371066D01*
Y368934D01*
X419664Y368401D01*
X418598D01*
X418065Y368934D01*
Y371066D01*
X482135Y367401D02*
Y370600D01*
X483735D01*
X484268Y370066D01*
Y369000D01*
X483735Y368467D01*
X482135D01*
X483202D02*
X484268Y367401D01*
X487467Y370066D02*
X486934Y370600D01*
X485867D01*
X485334Y370066D01*
Y367934D01*
X485867Y367401D01*
X486934D01*
X487467Y367934D01*
Y369000D01*
X486401D01*
X488533Y370600D02*
Y367401D01*
X490133D01*
X490666Y367934D01*
Y368467D01*
X490133Y369000D01*
X488533D01*
X490133D01*
X490666Y369533D01*
Y370066D01*
X490133Y370600D01*
X488533D01*
X491732Y367934D02*
X492265Y367401D01*
X493332D01*
X493865Y367934D01*
Y370066D01*
X493332Y370600D01*
X492265D01*
X491732Y370066D01*
Y369533D01*
X492265Y369000D01*
X493865D01*
X557135Y367401D02*
Y370600D01*
X558735D01*
X559268Y370066D01*
Y369000D01*
X558735Y368467D01*
X557135D01*
X558202D02*
X559268Y367401D01*
X562467Y370066D02*
X561934Y370600D01*
X560867D01*
X560334Y370066D01*
Y367934D01*
X560867Y367401D01*
X561934D01*
X562467Y367934D01*
Y369000D01*
X561401D01*
X563533Y370600D02*
Y367401D01*
X565133D01*
X565666Y367934D01*
Y368467D01*
X565133Y369000D01*
X563533D01*
X565133D01*
X565666Y369533D01*
Y370066D01*
X565133Y370600D01*
X563533D01*
X566732Y370066D02*
X567265Y370600D01*
X568332D01*
X568865Y370066D01*
Y369533D01*
X568332Y369000D01*
X568865Y368467D01*
Y367934D01*
X568332Y367401D01*
X567265D01*
X566732Y367934D01*
Y368467D01*
X567265Y369000D01*
X566732Y369533D01*
Y370066D01*
X567265Y369000D02*
X568332D01*
X632135Y367401D02*
Y370600D01*
X633735D01*
X634268Y370066D01*
Y369000D01*
X633735Y368467D01*
X632135D01*
X633202D02*
X634268Y367401D01*
X637467Y370066D02*
X636934Y370600D01*
X635867D01*
X635334Y370066D01*
Y367934D01*
X635867Y367401D01*
X636934D01*
X637467Y367934D01*
Y369000D01*
X636401D01*
X638533Y370600D02*
Y367401D01*
X640133D01*
X640666Y367934D01*
Y368467D01*
X640133Y369000D01*
X638533D01*
X640133D01*
X640666Y369533D01*
Y370066D01*
X640133Y370600D01*
X638533D01*
X641732D02*
X643865D01*
Y370066D01*
X641732Y367934D01*
Y367401D01*
X707135D02*
Y370600D01*
X708735D01*
X709268Y370066D01*
Y369000D01*
X708735Y368467D01*
X707135D01*
X708202D02*
X709268Y367401D01*
X712467Y370066D02*
X711934Y370600D01*
X710867D01*
X710334Y370066D01*
Y367934D01*
X710867Y367401D01*
X711934D01*
X712467Y367934D01*
Y369000D01*
X711401D01*
X713533Y370600D02*
Y367401D01*
X715133D01*
X715666Y367934D01*
Y368467D01*
X715133Y369000D01*
X713533D01*
X715133D01*
X715666Y369533D01*
Y370066D01*
X715133Y370600D01*
X713533D01*
X718865D02*
X717799Y370066D01*
X716732Y369000D01*
Y367934D01*
X717265Y367401D01*
X718332D01*
X718865Y367934D01*
Y368467D01*
X718332Y369000D01*
X716732D01*
X782135Y367401D02*
Y370600D01*
X783735D01*
X784268Y370066D01*
Y369000D01*
X783735Y368467D01*
X782135D01*
X783202D02*
X784268Y367401D01*
X787467Y370066D02*
X786934Y370600D01*
X785867D01*
X785334Y370066D01*
Y367934D01*
X785867Y367401D01*
X786934D01*
X787467Y367934D01*
Y369000D01*
X786401D01*
X788533Y370600D02*
Y367401D01*
X790133D01*
X790666Y367934D01*
Y368467D01*
X790133Y369000D01*
X788533D01*
X790133D01*
X790666Y369533D01*
Y370066D01*
X790133Y370600D01*
X788533D01*
X793865D02*
X791732D01*
Y369000D01*
X792799Y369533D01*
X793332D01*
X793865Y369000D01*
Y367934D01*
X793332Y367401D01*
X792265D01*
X791732Y367934D01*
X857135Y367401D02*
Y370600D01*
X858735D01*
X859268Y370066D01*
Y369000D01*
X858735Y368467D01*
X857135D01*
X858202D02*
X859268Y367401D01*
X862467Y370066D02*
X861934Y370600D01*
X860867D01*
X860334Y370066D01*
Y367934D01*
X860867Y367401D01*
X861934D01*
X862467Y367934D01*
Y369000D01*
X861401D01*
X863533Y370600D02*
Y367401D01*
X865133D01*
X865666Y367934D01*
Y368467D01*
X865133Y369000D01*
X863533D01*
X865133D01*
X865666Y369533D01*
Y370066D01*
X865133Y370600D01*
X863533D01*
X868332Y367401D02*
Y370600D01*
X866732Y369000D01*
X868865D01*
X932135Y368401D02*
Y371600D01*
X933735D01*
X934268Y371066D01*
Y370000D01*
X933735Y369467D01*
X932135D01*
X933202D02*
X934268Y368401D01*
X937467Y371066D02*
X936934Y371600D01*
X935867D01*
X935334Y371066D01*
Y368934D01*
X935867Y368401D01*
X936934D01*
X937467Y368934D01*
Y370000D01*
X936401D01*
X938533Y371600D02*
Y368401D01*
X940133D01*
X940666Y368934D01*
Y369467D01*
X940133Y370000D01*
X938533D01*
X940133D01*
X940666Y370533D01*
Y371066D01*
X940133Y371600D01*
X938533D01*
X941732Y371066D02*
X942265Y371600D01*
X943332D01*
X943865Y371066D01*
Y370533D01*
X943332Y370000D01*
X942799D01*
X943332D01*
X943865Y369467D01*
Y368934D01*
X943332Y368401D01*
X942265D01*
X941732Y368934D01*
X1007135Y367401D02*
Y370600D01*
X1008735D01*
X1009268Y370066D01*
Y369000D01*
X1008735Y368467D01*
X1007135D01*
X1008202D02*
X1009268Y367401D01*
X1012467Y370066D02*
X1011934Y370600D01*
X1010867D01*
X1010334Y370066D01*
Y367934D01*
X1010867Y367401D01*
X1011934D01*
X1012467Y367934D01*
Y369000D01*
X1011401D01*
X1013533Y370600D02*
Y367401D01*
X1015133D01*
X1015666Y367934D01*
Y368467D01*
X1015133Y369000D01*
X1013533D01*
X1015133D01*
X1015666Y369533D01*
Y370066D01*
X1015133Y370600D01*
X1013533D01*
X1018865Y367401D02*
X1016732D01*
X1018865Y369533D01*
Y370066D01*
X1018332Y370600D01*
X1017265D01*
X1016732Y370066D01*
X1082668Y367401D02*
Y370600D01*
X1084268D01*
X1084801Y370066D01*
Y369000D01*
X1084268Y368467D01*
X1082668D01*
X1083735D02*
X1084801Y367401D01*
X1088000Y370066D02*
X1087467Y370600D01*
X1086401D01*
X1085867Y370066D01*
Y367934D01*
X1086401Y367401D01*
X1087467D01*
X1088000Y367934D01*
Y369000D01*
X1086934D01*
X1089066Y370600D02*
Y367401D01*
X1090666D01*
X1091199Y367934D01*
Y368467D01*
X1090666Y369000D01*
X1089066D01*
X1090666D01*
X1091199Y369533D01*
Y370066D01*
X1090666Y370600D01*
X1089066D01*
X1092265Y367401D02*
X1093332D01*
X1092799D01*
Y370600D01*
X1092265Y370066D01*
X22400Y50066D02*
X21867Y50599D01*
X20801D01*
X20268Y50066D01*
Y47934D01*
X20801Y47401D01*
X21867D01*
X22400Y47934D01*
X25600Y50599D02*
X24533Y50066D01*
X23467Y49000D01*
Y47934D01*
X24000Y47401D01*
X25066D01*
X25600Y47934D01*
Y48467D01*
X25066Y49000D01*
X23467D01*
X26666Y47401D02*
X27732D01*
X27199D01*
Y50599D01*
X26666Y50066D01*
X115867D02*
X115334Y50599D01*
X114268D01*
X113735Y50066D01*
Y47934D01*
X114268Y47401D01*
X115334D01*
X115867Y47934D01*
X119066Y50599D02*
X118000Y50066D01*
X116934Y49000D01*
Y47934D01*
X117467Y47401D01*
X118533D01*
X119066Y47934D01*
Y48467D01*
X118533Y49000D01*
X116934D01*
X120133Y50066D02*
X120666Y50599D01*
X121732D01*
X122265Y50066D01*
Y47934D01*
X121732Y47401D01*
X120666D01*
X120133Y47934D01*
Y50066D01*
X209867D02*
X209334Y50599D01*
X208268D01*
X207735Y50066D01*
Y47934D01*
X208268Y47401D01*
X209334D01*
X209867Y47934D01*
X213066Y50599D02*
X210934D01*
Y49000D01*
X212000Y49533D01*
X212533D01*
X213066Y49000D01*
Y47934D01*
X212533Y47401D01*
X211467D01*
X210934Y47934D01*
X214133D02*
X214666Y47401D01*
X215732D01*
X216265Y47934D01*
Y50066D01*
X215732Y50599D01*
X214666D01*
X214133Y50066D01*
Y49533D01*
X214666Y49000D01*
X216265D01*
X303867Y50066D02*
X303334Y50599D01*
X302268D01*
X301735Y50066D01*
Y47934D01*
X302268Y47401D01*
X303334D01*
X303867Y47934D01*
X307066Y50599D02*
X304934D01*
Y49000D01*
X306000Y49533D01*
X306533D01*
X307066Y49000D01*
Y47934D01*
X306533Y47401D01*
X305467D01*
X304934Y47934D01*
X308133Y50066D02*
X308666Y50599D01*
X309732D01*
X310265Y50066D01*
Y49533D01*
X309732Y49000D01*
X310265Y48467D01*
Y47934D01*
X309732Y47401D01*
X308666D01*
X308133Y47934D01*
Y48467D01*
X308666Y49000D01*
X308133Y49533D01*
Y50066D01*
X308666Y49000D02*
X309732D01*
X584867Y50066D02*
X584334Y50599D01*
X583268D01*
X582735Y50066D01*
Y47934D01*
X583268Y47401D01*
X584334D01*
X584867Y47934D01*
X588066Y50599D02*
X585934D01*
Y49000D01*
X587000Y49533D01*
X587533D01*
X588066Y49000D01*
Y47934D01*
X587533Y47401D01*
X586467D01*
X585934Y47934D01*
X589133Y50599D02*
X591265D01*
Y50066D01*
X589133Y47934D01*
Y47401D01*
X866867Y50066D02*
X866334Y50599D01*
X865268D01*
X864735Y50066D01*
Y47934D01*
X865268Y47401D01*
X866334D01*
X866867Y47934D01*
X870066Y50599D02*
X867934D01*
Y49000D01*
X869000Y49533D01*
X869533D01*
X870066Y49000D01*
Y47934D01*
X869533Y47401D01*
X868467D01*
X867934Y47934D01*
X873265Y50599D02*
X872199Y50066D01*
X871133Y49000D01*
Y47934D01*
X871666Y47401D01*
X872732D01*
X873265Y47934D01*
Y48467D01*
X872732Y49000D01*
X871133D01*
X960867Y50066D02*
X960334Y50599D01*
X959268D01*
X958735Y50066D01*
Y47934D01*
X959268Y47401D01*
X960334D01*
X960867Y47934D01*
X964066Y50599D02*
X961934D01*
Y49000D01*
X963000Y49533D01*
X963533D01*
X964066Y49000D01*
Y47934D01*
X963533Y47401D01*
X962467D01*
X961934Y47934D01*
X967265Y50599D02*
X965133D01*
Y49000D01*
X966199Y49533D01*
X966732D01*
X967265Y49000D01*
Y47934D01*
X966732Y47401D01*
X965666D01*
X965133Y47934D01*
X1053867Y49066D02*
X1053334Y49599D01*
X1052268D01*
X1051735Y49066D01*
Y46934D01*
X1052268Y46400D01*
X1053334D01*
X1053867Y46934D01*
X1057066Y49599D02*
X1054934D01*
Y48000D01*
X1056000Y48533D01*
X1056533D01*
X1057066Y48000D01*
Y46934D01*
X1056533Y46400D01*
X1055467D01*
X1054934Y46934D01*
X1059732Y46400D02*
Y49599D01*
X1058133Y48000D01*
X1060265D01*
X1060867Y143066D02*
X1060334Y143599D01*
X1059268D01*
X1058735Y143066D01*
Y140934D01*
X1059268Y140401D01*
X1060334D01*
X1060867Y140934D01*
X1064066Y143599D02*
X1061934D01*
Y142000D01*
X1063000Y142533D01*
X1063533D01*
X1064066Y142000D01*
Y140934D01*
X1063533Y140401D01*
X1062467D01*
X1061934Y140934D01*
X1065133Y143066D02*
X1065666Y143599D01*
X1066732D01*
X1067265Y143066D01*
Y142533D01*
X1066732Y142000D01*
X1066199D01*
X1066732D01*
X1067265Y141467D01*
Y140934D01*
X1066732Y140401D01*
X1065666D01*
X1065133Y140934D01*
X938867Y143066D02*
X938334Y143599D01*
X937268D01*
X936735Y143066D01*
Y140934D01*
X937268Y140401D01*
X938334D01*
X938867Y140934D01*
X942066Y143599D02*
X939934D01*
Y142000D01*
X941000Y142533D01*
X941533D01*
X942066Y142000D01*
Y140934D01*
X941533Y140401D01*
X940467D01*
X939934Y140934D01*
X945265Y140401D02*
X943133D01*
X945265Y142533D01*
Y143066D01*
X944732Y143599D01*
X943666D01*
X943133Y143066D01*
X864400D02*
X863867Y143599D01*
X862801D01*
X862268Y143066D01*
Y140934D01*
X862801Y140401D01*
X863867D01*
X864400Y140934D01*
X867599Y143599D02*
X865467D01*
Y142000D01*
X866533Y142533D01*
X867066D01*
X867599Y142000D01*
Y140934D01*
X867066Y140401D01*
X866000D01*
X865467Y140934D01*
X868666Y140401D02*
X869732D01*
X869199D01*
Y143599D01*
X868666Y143066D01*
X788867D02*
X788334Y143599D01*
X787268D01*
X786735Y143066D01*
Y140934D01*
X787268Y140401D01*
X788334D01*
X788867Y140934D01*
X792066Y143599D02*
X789934D01*
Y142000D01*
X791000Y142533D01*
X791533D01*
X792066Y142000D01*
Y140934D01*
X791533Y140401D01*
X790467D01*
X789934Y140934D01*
X793133Y143066D02*
X793666Y143599D01*
X794732D01*
X795265Y143066D01*
Y140934D01*
X794732Y140401D01*
X793666D01*
X793133Y140934D01*
Y143066D01*
X713867D02*
X713334Y143599D01*
X712268D01*
X711735Y143066D01*
Y140934D01*
X712268Y140401D01*
X713334D01*
X713867Y140934D01*
X716533Y140401D02*
Y143599D01*
X714934Y142000D01*
X717066D01*
X718133Y140934D02*
X718666Y140401D01*
X719732D01*
X720265Y140934D01*
Y143066D01*
X719732Y143599D01*
X718666D01*
X718133Y143066D01*
Y142533D01*
X718666Y142000D01*
X720265D01*
X638867Y143066D02*
X638334Y143599D01*
X637268D01*
X636735Y143066D01*
Y140934D01*
X637268Y140401D01*
X638334D01*
X638867Y140934D01*
X641533Y140401D02*
Y143599D01*
X639934Y142000D01*
X642066D01*
X643133Y143066D02*
X643666Y143599D01*
X644732D01*
X645265Y143066D01*
Y142533D01*
X644732Y142000D01*
X645265Y141467D01*
Y140934D01*
X644732Y140401D01*
X643666D01*
X643133Y140934D01*
Y141467D01*
X643666Y142000D01*
X643133Y142533D01*
Y143066D01*
X643666Y142000D02*
X644732D01*
X563867Y143066D02*
X563334Y143599D01*
X562268D01*
X561735Y143066D01*
Y140934D01*
X562268Y140401D01*
X563334D01*
X563867Y140934D01*
X566533Y140401D02*
Y143599D01*
X564934Y142000D01*
X567066D01*
X568133Y143599D02*
X570265D01*
Y143066D01*
X568133Y140934D01*
Y140401D01*
X488867Y143066D02*
X488334Y143599D01*
X487268D01*
X486735Y143066D01*
Y140934D01*
X487268Y140401D01*
X488334D01*
X488867Y140934D01*
X491533Y140401D02*
Y143599D01*
X489934Y142000D01*
X492066D01*
X495265Y143599D02*
X494199Y143066D01*
X493133Y142000D01*
Y140934D01*
X493666Y140401D01*
X494732D01*
X495265Y140934D01*
Y141467D01*
X494732Y142000D01*
X493133D01*
X413867Y143066D02*
X413334Y143599D01*
X412268D01*
X411735Y143066D01*
Y140934D01*
X412268Y140401D01*
X413334D01*
X413867Y140934D01*
X416533Y140401D02*
Y143599D01*
X414934Y142000D01*
X417066D01*
X420265Y143599D02*
X418133D01*
Y142000D01*
X419199Y142533D01*
X419732D01*
X420265Y142000D01*
Y140934D01*
X419732Y140401D01*
X418666D01*
X418133Y140934D01*
X338867Y142066D02*
X338334Y142599D01*
X337268D01*
X336735Y142066D01*
Y139934D01*
X337268Y139400D01*
X338334D01*
X338867Y139934D01*
X341533Y139400D02*
Y142599D01*
X339934Y141000D01*
X342066D01*
X344732Y139400D02*
Y142599D01*
X343133Y141000D01*
X345265D01*
X263867Y143066D02*
X263334Y143599D01*
X262268D01*
X261735Y143066D01*
Y140934D01*
X262268Y140401D01*
X263334D01*
X263867Y140934D01*
X266533Y140401D02*
Y143599D01*
X264934Y142000D01*
X267066D01*
X268133Y143066D02*
X268666Y143599D01*
X269732D01*
X270265Y143066D01*
Y142533D01*
X269732Y142000D01*
X269199D01*
X269732D01*
X270265Y141467D01*
Y140934D01*
X269732Y140401D01*
X268666D01*
X268133Y140934D01*
X123915Y144066D02*
X123381Y144599D01*
X122315D01*
X121782Y144066D01*
Y141934D01*
X122315Y141401D01*
X123381D01*
X123915Y141934D01*
X126580Y141401D02*
Y144599D01*
X124981Y143000D01*
X127114D01*
X130313Y141401D02*
X128180D01*
X130313Y143533D01*
Y144066D01*
X129779Y144599D01*
X128713D01*
X128180Y144066D01*
X60400Y199066D02*
X59867Y199600D01*
X58801D01*
X58268Y199066D01*
Y196934D01*
X58801Y196400D01*
X59867D01*
X60400Y196934D01*
X63066Y196400D02*
Y199600D01*
X61467Y198000D01*
X63599D01*
X64666Y196400D02*
X65732D01*
X65199D01*
Y199600D01*
X64666Y199066D01*
X181820Y200066D02*
X181287Y200600D01*
X180221D01*
X179688Y200066D01*
Y197934D01*
X180221Y197400D01*
X181287D01*
X181820Y197934D01*
X184486Y197400D02*
Y200600D01*
X182886Y199000D01*
X185019D01*
X186085Y200066D02*
X186619Y200600D01*
X187685D01*
X188218Y200066D01*
Y197934D01*
X187685Y197400D01*
X186619D01*
X186085Y197934D01*
Y200066D01*
X256867D02*
X256334Y200600D01*
X255268D01*
X254735Y200066D01*
Y197934D01*
X255268Y197400D01*
X256334D01*
X256867Y197934D01*
X257934Y200066D02*
X258467Y200600D01*
X259533D01*
X260066Y200066D01*
Y199533D01*
X259533Y199000D01*
X259000D01*
X259533D01*
X260066Y198467D01*
Y197934D01*
X259533Y197400D01*
X258467D01*
X257934Y197934D01*
X261133D02*
X261666Y197400D01*
X262732D01*
X263265Y197934D01*
Y200066D01*
X262732Y200600D01*
X261666D01*
X261133Y200066D01*
Y199533D01*
X261666Y199000D01*
X263265D01*
X331867Y200066D02*
X331334Y200600D01*
X330268D01*
X329735Y200066D01*
Y197934D01*
X330268Y197400D01*
X331334D01*
X331867Y197934D01*
X332934Y200066D02*
X333467Y200600D01*
X334533D01*
X335066Y200066D01*
Y199533D01*
X334533Y199000D01*
X334000D01*
X334533D01*
X335066Y198467D01*
Y197934D01*
X334533Y197400D01*
X333467D01*
X332934Y197934D01*
X336133Y200066D02*
X336666Y200600D01*
X337732D01*
X338265Y200066D01*
Y199533D01*
X337732Y199000D01*
X338265Y198467D01*
Y197934D01*
X337732Y197400D01*
X336666D01*
X336133Y197934D01*
Y198467D01*
X336666Y199000D01*
X336133Y199533D01*
Y200066D01*
X336666Y199000D02*
X337732D01*
X406867Y199066D02*
X406334Y199600D01*
X405268D01*
X404735Y199066D01*
Y196934D01*
X405268Y196400D01*
X406334D01*
X406867Y196934D01*
X407934Y199066D02*
X408467Y199600D01*
X409533D01*
X410066Y199066D01*
Y198533D01*
X409533Y198000D01*
X409000D01*
X409533D01*
X410066Y197467D01*
Y196934D01*
X409533Y196400D01*
X408467D01*
X407934Y196934D01*
X411133Y199600D02*
X413265D01*
Y199066D01*
X411133Y196934D01*
Y196400D01*
X481867Y200066D02*
X481334Y200600D01*
X480268D01*
X479735Y200066D01*
Y197934D01*
X480268Y197400D01*
X481334D01*
X481867Y197934D01*
X482934Y200066D02*
X483467Y200600D01*
X484533D01*
X485066Y200066D01*
Y199533D01*
X484533Y199000D01*
X484000D01*
X484533D01*
X485066Y198467D01*
Y197934D01*
X484533Y197400D01*
X483467D01*
X482934Y197934D01*
X488265Y200600D02*
X487199Y200066D01*
X486133Y199000D01*
Y197934D01*
X486666Y197400D01*
X487732D01*
X488265Y197934D01*
Y198467D01*
X487732Y199000D01*
X486133D01*
X556867Y200066D02*
X556334Y200600D01*
X555268D01*
X554735Y200066D01*
Y197934D01*
X555268Y197400D01*
X556334D01*
X556867Y197934D01*
X557934Y200066D02*
X558467Y200600D01*
X559533D01*
X560066Y200066D01*
Y199533D01*
X559533Y199000D01*
X559000D01*
X559533D01*
X560066Y198467D01*
Y197934D01*
X559533Y197400D01*
X558467D01*
X557934Y197934D01*
X563265Y200600D02*
X561133D01*
Y199000D01*
X562199Y199533D01*
X562732D01*
X563265Y199000D01*
Y197934D01*
X562732Y197400D01*
X561666D01*
X561133Y197934D01*
X631867Y200066D02*
X631334Y200600D01*
X630268D01*
X629735Y200066D01*
Y197934D01*
X630268Y197400D01*
X631334D01*
X631867Y197934D01*
X632934Y200066D02*
X633467Y200600D01*
X634533D01*
X635066Y200066D01*
Y199533D01*
X634533Y199000D01*
X634000D01*
X634533D01*
X635066Y198467D01*
Y197934D01*
X634533Y197400D01*
X633467D01*
X632934Y197934D01*
X637732Y197400D02*
Y200600D01*
X636133Y199000D01*
X638265D01*
X706867Y200066D02*
X706334Y200600D01*
X705268D01*
X704735Y200066D01*
Y197934D01*
X705268Y197400D01*
X706334D01*
X706867Y197934D01*
X707934Y200066D02*
X708467Y200600D01*
X709533D01*
X710066Y200066D01*
Y199533D01*
X709533Y199000D01*
X709000D01*
X709533D01*
X710066Y198467D01*
Y197934D01*
X709533Y197400D01*
X708467D01*
X707934Y197934D01*
X711133Y200066D02*
X711666Y200600D01*
X712732D01*
X713265Y200066D01*
Y199533D01*
X712732Y199000D01*
X712199D01*
X712732D01*
X713265Y198467D01*
Y197934D01*
X712732Y197400D01*
X711666D01*
X711133Y197934D01*
X781867Y200066D02*
X781334Y200600D01*
X780268D01*
X779735Y200066D01*
Y197934D01*
X780268Y197400D01*
X781334D01*
X781867Y197934D01*
X782934Y200066D02*
X783467Y200600D01*
X784533D01*
X785066Y200066D01*
Y199533D01*
X784533Y199000D01*
X784000D01*
X784533D01*
X785066Y198467D01*
Y197934D01*
X784533Y197400D01*
X783467D01*
X782934Y197934D01*
X788265Y197400D02*
X786133D01*
X788265Y199533D01*
Y200066D01*
X787732Y200600D01*
X786666D01*
X786133Y200066D01*
X857401D02*
X856867Y200600D01*
X855801D01*
X855268Y200066D01*
Y197934D01*
X855801Y197400D01*
X856867D01*
X857401Y197934D01*
X858467Y200066D02*
X859000Y200600D01*
X860066D01*
X860600Y200066D01*
Y199533D01*
X860066Y199000D01*
X859533D01*
X860066D01*
X860600Y198467D01*
Y197934D01*
X860066Y197400D01*
X859000D01*
X858467Y197934D01*
X861666Y197400D02*
X862732D01*
X862199D01*
Y200600D01*
X861666Y200066D01*
X931867D02*
X931334Y200600D01*
X930268D01*
X929735Y200066D01*
Y197934D01*
X930268Y197400D01*
X931334D01*
X931867Y197934D01*
X932934Y200066D02*
X933467Y200600D01*
X934533D01*
X935066Y200066D01*
Y199533D01*
X934533Y199000D01*
X934000D01*
X934533D01*
X935066Y198467D01*
Y197934D01*
X934533Y197400D01*
X933467D01*
X932934Y197934D01*
X936133Y200066D02*
X936666Y200600D01*
X937732D01*
X938265Y200066D01*
Y197934D01*
X937732Y197400D01*
X936666D01*
X936133Y197934D01*
Y200066D01*
X1034867Y198066D02*
X1034334Y198600D01*
X1033268D01*
X1032735Y198066D01*
Y195934D01*
X1033268Y195401D01*
X1034334D01*
X1034867Y195934D01*
X1038066Y195401D02*
X1035934D01*
X1038066Y197533D01*
Y198066D01*
X1037533Y198600D01*
X1036467D01*
X1035934Y198066D01*
X1039133Y195934D02*
X1039666Y195401D01*
X1040732D01*
X1041265Y195934D01*
Y198066D01*
X1040732Y198600D01*
X1039666D01*
X1039133Y198066D01*
Y197533D01*
X1039666Y197000D01*
X1041265D01*
X1088867Y293066D02*
X1088334Y293600D01*
X1087268D01*
X1086735Y293066D01*
Y290934D01*
X1087268Y290401D01*
X1088334D01*
X1088867Y290934D01*
X1092066Y290401D02*
X1089934D01*
X1092066Y292533D01*
Y293066D01*
X1091533Y293600D01*
X1090467D01*
X1089934Y293066D01*
X1093133D02*
X1093666Y293600D01*
X1094732D01*
X1095265Y293066D01*
Y292533D01*
X1094732Y292000D01*
X1095265Y291467D01*
Y290934D01*
X1094732Y290401D01*
X1093666D01*
X1093133Y290934D01*
Y291467D01*
X1093666Y292000D01*
X1093133Y292533D01*
Y293066D01*
X1093666Y292000D02*
X1094732D01*
X994867Y293066D02*
X994334Y293600D01*
X993268D01*
X992735Y293066D01*
Y290934D01*
X993268Y290401D01*
X994334D01*
X994867Y290934D01*
X998066Y290401D02*
X995934D01*
X998066Y292533D01*
Y293066D01*
X997533Y293600D01*
X996467D01*
X995934Y293066D01*
X999133Y293600D02*
X1001265D01*
Y293066D01*
X999133Y290934D01*
Y290401D01*
X932867Y287066D02*
X932334Y287599D01*
X931268D01*
X930735Y287066D01*
Y284934D01*
X931268Y284401D01*
X932334D01*
X932867Y284934D01*
X936066Y284401D02*
X933934D01*
X936066Y286533D01*
Y287066D01*
X935533Y287599D01*
X934467D01*
X933934Y287066D01*
X939265Y287599D02*
X938199Y287066D01*
X937133Y286000D01*
Y284934D01*
X937666Y284401D01*
X938732D01*
X939265Y284934D01*
Y285467D01*
X938732Y286000D01*
X937133D01*
X844867Y293066D02*
X844334Y293600D01*
X843268D01*
X842735Y293066D01*
Y290934D01*
X843268Y290401D01*
X844334D01*
X844867Y290934D01*
X848066Y290401D02*
X845934D01*
X848066Y292533D01*
Y293066D01*
X847533Y293600D01*
X846467D01*
X845934Y293066D01*
X851265Y293600D02*
X849133D01*
Y292000D01*
X850199Y292533D01*
X850732D01*
X851265Y292000D01*
Y290934D01*
X850732Y290401D01*
X849666D01*
X849133Y290934D01*
X769867Y293066D02*
X769334Y293600D01*
X768268D01*
X767735Y293066D01*
Y290934D01*
X768268Y290401D01*
X769334D01*
X769867Y290934D01*
X773066Y290401D02*
X770934D01*
X773066Y292533D01*
Y293066D01*
X772533Y293600D01*
X771467D01*
X770934Y293066D01*
X775732Y290401D02*
Y293600D01*
X774133Y292000D01*
X776265D01*
X694867Y293066D02*
X694334Y293600D01*
X693268D01*
X692735Y293066D01*
Y290934D01*
X693268Y290401D01*
X694334D01*
X694867Y290934D01*
X698066Y290401D02*
X695934D01*
X698066Y292533D01*
Y293066D01*
X697533Y293600D01*
X696467D01*
X695934Y293066D01*
X699133D02*
X699666Y293600D01*
X700732D01*
X701265Y293066D01*
Y292533D01*
X700732Y292000D01*
X700199D01*
X700732D01*
X701265Y291467D01*
Y290934D01*
X700732Y290401D01*
X699666D01*
X699133Y290934D01*
X619867Y293066D02*
X619334Y293600D01*
X618268D01*
X617735Y293066D01*
Y290934D01*
X618268Y290401D01*
X619334D01*
X619867Y290934D01*
X623066Y290401D02*
X620934D01*
X623066Y292533D01*
Y293066D01*
X622533Y293600D01*
X621467D01*
X620934Y293066D01*
X626265Y290401D02*
X624133D01*
X626265Y292533D01*
Y293066D01*
X625732Y293600D01*
X624666D01*
X624133Y293066D01*
X545400D02*
X544867Y293600D01*
X543801D01*
X543268Y293066D01*
Y290934D01*
X543801Y290401D01*
X544867D01*
X545400Y290934D01*
X548599Y290401D02*
X546467D01*
X548599Y292533D01*
Y293066D01*
X548066Y293600D01*
X547000D01*
X546467Y293066D01*
X549666Y290401D02*
X550732D01*
X550199D01*
Y293600D01*
X549666Y293066D01*
X469867D02*
X469334Y293600D01*
X468268D01*
X467735Y293066D01*
Y290934D01*
X468268Y290401D01*
X469334D01*
X469867Y290934D01*
X473066Y290401D02*
X470934D01*
X473066Y292533D01*
Y293066D01*
X472533Y293600D01*
X471467D01*
X470934Y293066D01*
X474133D02*
X474666Y293600D01*
X475732D01*
X476265Y293066D01*
Y290934D01*
X475732Y290401D01*
X474666D01*
X474133Y290934D01*
Y293066D01*
X395134D02*
X394601Y293600D01*
X393534D01*
X393001Y293066D01*
Y290934D01*
X393534Y290401D01*
X394601D01*
X395134Y290934D01*
X396200Y290401D02*
X397267D01*
X396733D01*
Y293600D01*
X396200Y293066D01*
X398866Y290934D02*
X399399Y290401D01*
X400465D01*
X400999Y290934D01*
Y293066D01*
X400465Y293600D01*
X399399D01*
X398866Y293066D01*
Y292533D01*
X399399Y292000D01*
X400999D01*
X320134Y293066D02*
X319601Y293600D01*
X318534D01*
X318001Y293066D01*
Y290934D01*
X318534Y290401D01*
X319601D01*
X320134Y290934D01*
X321200Y290401D02*
X322267D01*
X321733D01*
Y293600D01*
X321200Y293066D01*
X323866D02*
X324399Y293600D01*
X325465D01*
X325999Y293066D01*
Y292533D01*
X325465Y292000D01*
X325999Y291467D01*
Y290934D01*
X325465Y290401D01*
X324399D01*
X323866Y290934D01*
Y291467D01*
X324399Y292000D01*
X323866Y292533D01*
Y293066D01*
X324399Y292000D02*
X325465D01*
X245134Y293066D02*
X244601Y293600D01*
X243534D01*
X243001Y293066D01*
Y290934D01*
X243534Y290401D01*
X244601D01*
X245134Y290934D01*
X246200Y290401D02*
X247267D01*
X246733D01*
Y293600D01*
X246200Y293066D01*
X248866Y293600D02*
X250999D01*
Y293066D01*
X248866Y290934D01*
Y290401D01*
X170134Y293066D02*
X169601Y293600D01*
X168535D01*
X168001Y293066D01*
Y290934D01*
X168535Y290401D01*
X169601D01*
X170134Y290934D01*
X171200Y290401D02*
X172267D01*
X171733D01*
Y293600D01*
X171200Y293066D01*
X175999Y293600D02*
X174932Y293066D01*
X173866Y292000D01*
Y290934D01*
X174399Y290401D01*
X175466D01*
X175999Y290934D01*
Y291467D01*
X175466Y292000D01*
X173866D01*
X77134Y293066D02*
X76601Y293600D01*
X75534D01*
X75001Y293066D01*
Y290934D01*
X75534Y290401D01*
X76601D01*
X77134Y290934D01*
X78200Y290401D02*
X79267D01*
X78733D01*
Y293600D01*
X78200Y293066D01*
X82999Y293600D02*
X80866D01*
Y292000D01*
X81932Y292533D01*
X82465D01*
X82999Y292000D01*
Y290934D01*
X82465Y290401D01*
X81399D01*
X80866Y290934D01*
X51134Y350066D02*
X50601Y350600D01*
X49534D01*
X49001Y350066D01*
Y347934D01*
X49534Y347400D01*
X50601D01*
X51134Y347934D01*
X52200Y347400D02*
X53267D01*
X52733D01*
Y350600D01*
X52200Y350066D01*
X56466Y347400D02*
Y350600D01*
X54866Y349000D01*
X56999D01*
X163134Y350066D02*
X162601Y350600D01*
X161535D01*
X161001Y350066D01*
Y347934D01*
X161535Y347400D01*
X162601D01*
X163134Y347934D01*
X164200Y347400D02*
X165267D01*
X164733D01*
Y350600D01*
X164200Y350066D01*
X166866D02*
X167399Y350600D01*
X168466D01*
X168999Y350066D01*
Y349533D01*
X168466Y349000D01*
X167932D01*
X168466D01*
X168999Y348467D01*
Y347934D01*
X168466Y347400D01*
X167399D01*
X166866Y347934D01*
X238134Y350066D02*
X237601Y350600D01*
X236535D01*
X236001Y350066D01*
Y347934D01*
X236535Y347400D01*
X237601D01*
X238134Y347934D01*
X239200Y347400D02*
X240267D01*
X239733D01*
Y350600D01*
X239200Y350066D01*
X243999Y347400D02*
X241866D01*
X243999Y349533D01*
Y350066D01*
X243465Y350600D01*
X242399D01*
X241866Y350066D01*
X313667Y351066D02*
X313134Y351600D01*
X312068D01*
X311535Y351066D01*
Y348934D01*
X312068Y348400D01*
X313134D01*
X313667Y348934D01*
X314733Y348400D02*
X315800D01*
X315267D01*
Y351600D01*
X314733Y351066D01*
X317399Y348400D02*
X318465D01*
X317932D01*
Y351600D01*
X317399Y351066D01*
X388134Y350066D02*
X387601Y350600D01*
X386535D01*
X386001Y350066D01*
Y347934D01*
X386535Y347400D01*
X387601D01*
X388134Y347934D01*
X389200Y347400D02*
X390267D01*
X389733D01*
Y350600D01*
X389200Y350066D01*
X391866D02*
X392399Y350600D01*
X393465D01*
X393999Y350066D01*
Y347934D01*
X393465Y347400D01*
X392399D01*
X391866Y347934D01*
Y350066D01*
X464467D02*
X463934Y350600D01*
X462867D01*
X462334Y350066D01*
Y347934D01*
X462867Y347400D01*
X463934D01*
X464467Y347934D01*
X465533D02*
X466066Y347400D01*
X467133D01*
X467666Y347934D01*
Y350066D01*
X467133Y350600D01*
X466066D01*
X465533Y350066D01*
Y349533D01*
X466066Y349000D01*
X467666D01*
X539467Y350066D02*
X538934Y350600D01*
X537867D01*
X537334Y350066D01*
Y347934D01*
X537867Y347400D01*
X538934D01*
X539467Y347934D01*
X540533Y350066D02*
X541066Y350600D01*
X542133D01*
X542666Y350066D01*
Y349533D01*
X542133Y349000D01*
X542666Y348467D01*
Y347934D01*
X542133Y347400D01*
X541066D01*
X540533Y347934D01*
Y348467D01*
X541066Y349000D01*
X540533Y349533D01*
Y350066D01*
X541066Y349000D02*
X542133D01*
X614467Y349066D02*
X613934Y349600D01*
X612867D01*
X612334Y349066D01*
Y346934D01*
X612867Y346400D01*
X613934D01*
X614467Y346934D01*
X615533Y349600D02*
X617666D01*
Y349066D01*
X615533Y346934D01*
Y346400D01*
X689467Y349066D02*
X688934Y349600D01*
X687867D01*
X687334Y349066D01*
Y346934D01*
X687867Y346400D01*
X688934D01*
X689467Y346934D01*
X692666Y349600D02*
X691600Y349066D01*
X690533Y348000D01*
Y346934D01*
X691066Y346400D01*
X692133D01*
X692666Y346934D01*
Y347467D01*
X692133Y348000D01*
X690533D01*
X764467Y350066D02*
X763934Y350600D01*
X762867D01*
X762334Y350066D01*
Y347934D01*
X762867Y347400D01*
X763934D01*
X764467Y347934D01*
X767666Y350600D02*
X765533D01*
Y349000D01*
X766600Y349533D01*
X767133D01*
X767666Y349000D01*
Y347934D01*
X767133Y347400D01*
X766066D01*
X765533Y347934D01*
X839467Y350066D02*
X838934Y350600D01*
X837867D01*
X837334Y350066D01*
Y347934D01*
X837867Y347400D01*
X838934D01*
X839467Y347934D01*
X842133Y347400D02*
Y350600D01*
X840533Y349000D01*
X842666D01*
X914467Y350066D02*
X913934Y350600D01*
X912867D01*
X912334Y350066D01*
Y347934D01*
X912867Y347400D01*
X913934D01*
X914467Y347934D01*
X915533Y350066D02*
X916066Y350600D01*
X917133D01*
X917666Y350066D01*
Y349533D01*
X917133Y349000D01*
X916599D01*
X917133D01*
X917666Y348467D01*
Y347934D01*
X917133Y347400D01*
X916066D01*
X915533Y347934D01*
X989467Y350066D02*
X988934Y350600D01*
X987867D01*
X987334Y350066D01*
Y347934D01*
X987867Y347400D01*
X988934D01*
X989467Y347934D01*
X992666Y347400D02*
X990533D01*
X992666Y349533D01*
Y350066D01*
X992133Y350600D01*
X991066D01*
X990533Y350066D01*
X1064953D02*
X1064420Y350600D01*
X1063353D01*
X1062820Y350066D01*
Y347934D01*
X1063353Y347400D01*
X1064420D01*
X1064953Y347934D01*
X1066019Y347400D02*
X1067085D01*
X1066552D01*
Y350600D01*
X1066019Y350066D01*
X6401Y11268D02*
X9600D01*
Y12867D01*
X9066Y13400D01*
X6934D01*
X6401Y12867D01*
Y11268D01*
Y16600D02*
X6934Y15533D01*
X8000Y14467D01*
X9066D01*
X9600Y15000D01*
Y16066D01*
X9066Y16600D01*
X8533D01*
X8000Y16066D01*
Y14467D01*
X9600Y17666D02*
Y18732D01*
Y18199D01*
X6401D01*
X6934Y17666D01*
X100400Y9691D02*
X103600D01*
Y11291D01*
X103066Y11824D01*
X100934D01*
X100400Y11291D01*
Y9691D01*
Y15023D02*
X100934Y13957D01*
X102000Y12890D01*
X103066D01*
X103600Y13423D01*
Y14490D01*
X103066Y15023D01*
X102533D01*
X102000Y14490D01*
Y12890D01*
X100934Y16089D02*
X100400Y16623D01*
Y17689D01*
X100934Y18222D01*
X103066D01*
X103600Y17689D01*
Y16623D01*
X103066Y16089D01*
X100934D01*
X194401Y10735D02*
X197599D01*
Y12334D01*
X197066Y12867D01*
X194934D01*
X194401Y12334D01*
Y10735D01*
Y16066D02*
Y13934D01*
X196000D01*
X195467Y15000D01*
Y15533D01*
X196000Y16066D01*
X197066D01*
X197599Y15533D01*
Y14467D01*
X197066Y13934D01*
Y17133D02*
X197599Y17666D01*
Y18732D01*
X197066Y19265D01*
X194934D01*
X194401Y18732D01*
Y17666D01*
X194934Y17133D01*
X195467D01*
X196000Y17666D01*
Y19265D01*
X287401Y10735D02*
X290599D01*
Y12334D01*
X290066Y12867D01*
X287934D01*
X287401Y12334D01*
Y10735D01*
Y16066D02*
Y13934D01*
X289000D01*
X288467Y15000D01*
Y15533D01*
X289000Y16066D01*
X290066D01*
X290599Y15533D01*
Y14467D01*
X290066Y13934D01*
X287934Y17133D02*
X287401Y17666D01*
Y18732D01*
X287934Y19265D01*
X288467D01*
X289000Y18732D01*
X289533Y19265D01*
X290066D01*
X290599Y18732D01*
Y17666D01*
X290066Y17133D01*
X289533D01*
X289000Y17666D01*
X288467Y17133D01*
X287934D01*
X289000Y17666D02*
Y18732D01*
X568400Y10691D02*
X571599D01*
Y12291D01*
X571066Y12824D01*
X568934D01*
X568400Y12291D01*
Y10691D01*
Y16023D02*
Y13890D01*
X570000D01*
X569467Y14957D01*
Y15490D01*
X570000Y16023D01*
X571066D01*
X571599Y15490D01*
Y14424D01*
X571066Y13890D01*
X568400Y17089D02*
Y19222D01*
X568934D01*
X571066Y17089D01*
X571599D01*
X849401Y10691D02*
X852600D01*
Y12291D01*
X852066Y12824D01*
X849934D01*
X849401Y12291D01*
Y10691D01*
Y16023D02*
Y13890D01*
X851000D01*
X850467Y14957D01*
Y15490D01*
X851000Y16023D01*
X852066D01*
X852600Y15490D01*
Y14424D01*
X852066Y13890D01*
X849401Y19222D02*
X849934Y18156D01*
X851000Y17089D01*
X852066D01*
X852600Y17623D01*
Y18689D01*
X852066Y19222D01*
X851533D01*
X851000Y18689D01*
Y17089D01*
X943400Y10735D02*
X946599D01*
Y12334D01*
X946066Y12867D01*
X943934D01*
X943400Y12334D01*
Y10735D01*
Y16066D02*
Y13934D01*
X945000D01*
X944467Y15000D01*
Y15533D01*
X945000Y16066D01*
X946066D01*
X946599Y15533D01*
Y14467D01*
X946066Y13934D01*
X943400Y19265D02*
Y17133D01*
X945000D01*
X944467Y18199D01*
Y18732D01*
X945000Y19265D01*
X946066D01*
X946599Y18732D01*
Y17666D01*
X946066Y17133D01*
X1038400Y10735D02*
X1041599D01*
Y12334D01*
X1041066Y12867D01*
X1038934D01*
X1038400Y12334D01*
Y10735D01*
Y16066D02*
Y13934D01*
X1040000D01*
X1039467Y15000D01*
Y15533D01*
X1040000Y16066D01*
X1041066D01*
X1041599Y15533D01*
Y14467D01*
X1041066Y13934D01*
X1041599Y18732D02*
X1038400D01*
X1040000Y17133D01*
Y19265D01*
X83735Y91600D02*
Y88401D01*
X85334D01*
X85867Y88934D01*
Y91066D01*
X85334Y91600D01*
X83735D01*
X89066D02*
X86934D01*
Y90000D01*
X88000Y90533D01*
X88533D01*
X89066Y90000D01*
Y88934D01*
X88533Y88401D01*
X87467D01*
X86934Y88934D01*
X90133Y91066D02*
X90666Y91600D01*
X91732D01*
X92265Y91066D01*
Y90533D01*
X91732Y90000D01*
X91199D01*
X91732D01*
X92265Y89467D01*
Y88934D01*
X91732Y88401D01*
X90666D01*
X90133Y88934D01*
X202400Y85691D02*
X205599D01*
Y87291D01*
X205066Y87824D01*
X202934D01*
X202400Y87291D01*
Y85691D01*
Y91023D02*
Y88890D01*
X204000D01*
X203467Y89957D01*
Y90490D01*
X204000Y91023D01*
X205066D01*
X205599Y90490D01*
Y89424D01*
X205066Y88890D01*
X205599Y94222D02*
Y92089D01*
X203467Y94222D01*
X202934D01*
X202400Y93689D01*
Y92623D01*
X202934Y92089D01*
X277400Y86225D02*
X280599D01*
Y87824D01*
X280066Y88357D01*
X277934D01*
X277400Y87824D01*
Y86225D01*
Y91556D02*
Y89424D01*
X279000D01*
X278467Y90490D01*
Y91023D01*
X279000Y91556D01*
X280066D01*
X280599Y91023D01*
Y89957D01*
X280066Y89424D01*
X280599Y92623D02*
Y93689D01*
Y93156D01*
X277400D01*
X277934Y92623D01*
X352400Y85735D02*
X355599D01*
Y87334D01*
X355066Y87867D01*
X352934D01*
X352400Y87334D01*
Y85735D01*
Y91066D02*
Y88934D01*
X354000D01*
X353467Y90000D01*
Y90533D01*
X354000Y91066D01*
X355066D01*
X355599Y90533D01*
Y89467D01*
X355066Y88934D01*
X352934Y92133D02*
X352400Y92666D01*
Y93732D01*
X352934Y94265D01*
X355066D01*
X355599Y93732D01*
Y92666D01*
X355066Y92133D01*
X352934D01*
X427400Y86735D02*
X430599D01*
Y88334D01*
X430066Y88867D01*
X427934D01*
X427400Y88334D01*
Y86735D01*
X430599Y91533D02*
X427400D01*
X429000Y89934D01*
Y92066D01*
X430066Y93133D02*
X430599Y93666D01*
Y94732D01*
X430066Y95265D01*
X427934D01*
X427400Y94732D01*
Y93666D01*
X427934Y93133D01*
X428467D01*
X429000Y93666D01*
Y95265D01*
X502400Y86735D02*
X505599D01*
Y88334D01*
X505066Y88867D01*
X502934D01*
X502400Y88334D01*
Y86735D01*
X505599Y91533D02*
X502400D01*
X504000Y89934D01*
Y92066D01*
X502934Y93133D02*
X502400Y93666D01*
Y94732D01*
X502934Y95265D01*
X503467D01*
X504000Y94732D01*
X504533Y95265D01*
X505066D01*
X505599Y94732D01*
Y93666D01*
X505066Y93133D01*
X504533D01*
X504000Y93666D01*
X503467Y93133D01*
X502934D01*
X504000Y93666D02*
Y94732D01*
X577400Y85691D02*
X580599D01*
Y87291D01*
X580066Y87824D01*
X577934D01*
X577400Y87291D01*
Y85691D01*
X580599Y90490D02*
X577400D01*
X579000Y88890D01*
Y91023D01*
X577400Y92089D02*
Y94222D01*
X577934D01*
X580066Y92089D01*
X580599D01*
X652400Y85735D02*
X655599D01*
Y87334D01*
X655066Y87867D01*
X652934D01*
X652400Y87334D01*
Y85735D01*
X655599Y90533D02*
X652400D01*
X654000Y88934D01*
Y91066D01*
X652400Y94265D02*
X652934Y93199D01*
X654000Y92133D01*
X655066D01*
X655599Y92666D01*
Y93732D01*
X655066Y94265D01*
X654533D01*
X654000Y93732D01*
Y92133D01*
X727400Y85735D02*
X730599D01*
Y87334D01*
X730066Y87867D01*
X727934D01*
X727400Y87334D01*
Y85735D01*
X730599Y90533D02*
X727400D01*
X729000Y88934D01*
Y91066D01*
X727400Y94265D02*
Y92133D01*
X729000D01*
X728467Y93199D01*
Y93732D01*
X729000Y94265D01*
X730066D01*
X730599Y93732D01*
Y92666D01*
X730066Y92133D01*
X824735Y91600D02*
Y88401D01*
X826334D01*
X826867Y88934D01*
Y91066D01*
X826334Y91600D01*
X824735D01*
X829533Y88401D02*
Y91600D01*
X827934Y90000D01*
X830066D01*
X832732Y88401D02*
Y91600D01*
X831133Y90000D01*
X833265D01*
X878401Y85735D02*
X881600D01*
Y87334D01*
X881066Y87867D01*
X878934D01*
X878401Y87334D01*
Y85735D01*
X881600Y90533D02*
X878401D01*
X880000Y88934D01*
Y91066D01*
X878934Y92133D02*
X878401Y92666D01*
Y93732D01*
X878934Y94265D01*
X879467D01*
X880000Y93732D01*
Y93199D01*
Y93732D01*
X880533Y94265D01*
X881066D01*
X881600Y93732D01*
Y92666D01*
X881066Y92133D01*
X1021735Y91600D02*
Y88401D01*
X1023334D01*
X1023867Y88934D01*
Y91066D01*
X1023334Y91600D01*
X1021735D01*
X1026533Y88401D02*
Y91600D01*
X1024934Y90000D01*
X1027066D01*
X1030265Y88401D02*
X1028133D01*
X1030265Y90533D01*
Y91066D01*
X1029732Y91600D01*
X1028666D01*
X1028133Y91066D01*
X64268Y167599D02*
Y164400D01*
X65867D01*
X66400Y164934D01*
Y167066D01*
X65867Y167599D01*
X64268D01*
X69066Y164400D02*
Y167599D01*
X67467Y166000D01*
X69599D01*
X70666Y164400D02*
X71732D01*
X71199D01*
Y167599D01*
X70666Y167066D01*
X164400Y160735D02*
X167599D01*
Y162334D01*
X167066Y162867D01*
X164934D01*
X164400Y162334D01*
Y160735D01*
X167599Y165533D02*
X164400D01*
X166000Y163934D01*
Y166066D01*
X164934Y167133D02*
X164400Y167666D01*
Y168732D01*
X164934Y169265D01*
X167066D01*
X167599Y168732D01*
Y167666D01*
X167066Y167133D01*
X164934D01*
X240401Y160735D02*
X243600D01*
Y162334D01*
X243066Y162867D01*
X240934D01*
X240401Y162334D01*
Y160735D01*
X240934Y163934D02*
X240401Y164467D01*
Y165533D01*
X240934Y166066D01*
X241467D01*
X242000Y165533D01*
Y165000D01*
Y165533D01*
X242533Y166066D01*
X243066D01*
X243600Y165533D01*
Y164467D01*
X243066Y163934D01*
Y167133D02*
X243600Y167666D01*
Y168732D01*
X243066Y169265D01*
X240934D01*
X240401Y168732D01*
Y167666D01*
X240934Y167133D01*
X241467D01*
X242000Y167666D01*
Y169265D01*
X314401Y160735D02*
X317600D01*
Y162334D01*
X317066Y162867D01*
X314934D01*
X314401Y162334D01*
Y160735D01*
X314934Y163934D02*
X314401Y164467D01*
Y165533D01*
X314934Y166066D01*
X315467D01*
X316000Y165533D01*
Y165000D01*
Y165533D01*
X316533Y166066D01*
X317066D01*
X317600Y165533D01*
Y164467D01*
X317066Y163934D01*
X314934Y167133D02*
X314401Y167666D01*
Y168732D01*
X314934Y169265D01*
X315467D01*
X316000Y168732D01*
X316533Y169265D01*
X317066D01*
X317600Y168732D01*
Y167666D01*
X317066Y167133D01*
X316533D01*
X316000Y167666D01*
X315467Y167133D01*
X314934D01*
X316000Y167666D02*
Y168732D01*
X389401Y161735D02*
X392600D01*
Y163334D01*
X392066Y163867D01*
X389934D01*
X389401Y163334D01*
Y161735D01*
X389934Y164934D02*
X389401Y165467D01*
Y166533D01*
X389934Y167066D01*
X390467D01*
X391000Y166533D01*
Y166000D01*
Y166533D01*
X391533Y167066D01*
X392066D01*
X392600Y166533D01*
Y165467D01*
X392066Y164934D01*
X389401Y168133D02*
Y170265D01*
X389934D01*
X392066Y168133D01*
X392600D01*
X464400Y160735D02*
X467599D01*
Y162334D01*
X467066Y162867D01*
X464934D01*
X464400Y162334D01*
Y160735D01*
X464934Y163934D02*
X464400Y164467D01*
Y165533D01*
X464934Y166066D01*
X465467D01*
X466000Y165533D01*
Y165000D01*
Y165533D01*
X466533Y166066D01*
X467066D01*
X467599Y165533D01*
Y164467D01*
X467066Y163934D01*
X464400Y169265D02*
X464934Y168199D01*
X466000Y167133D01*
X467066D01*
X467599Y167666D01*
Y168732D01*
X467066Y169265D01*
X466533D01*
X466000Y168732D01*
Y167133D01*
X562735Y167599D02*
Y164400D01*
X564334D01*
X564867Y164934D01*
Y167066D01*
X564334Y167599D01*
X562735D01*
X565934Y167066D02*
X566467Y167599D01*
X567533D01*
X568066Y167066D01*
Y166533D01*
X567533Y166000D01*
X567000D01*
X567533D01*
X568066Y165467D01*
Y164934D01*
X567533Y164400D01*
X566467D01*
X565934Y164934D01*
X571265Y167599D02*
X569133D01*
Y166000D01*
X570199Y166533D01*
X570732D01*
X571265Y166000D01*
Y164934D01*
X570732Y164400D01*
X569666D01*
X569133Y164934D01*
X615401Y160735D02*
X618600D01*
Y162334D01*
X618066Y162867D01*
X615934D01*
X615401Y162334D01*
Y160735D01*
X615934Y163934D02*
X615401Y164467D01*
Y165533D01*
X615934Y166066D01*
X616467D01*
X617000Y165533D01*
Y165000D01*
Y165533D01*
X617533Y166066D01*
X618066D01*
X618600Y165533D01*
Y164467D01*
X618066Y163934D01*
X618600Y168732D02*
X615401D01*
X617000Y167133D01*
Y169265D01*
X689400Y161735D02*
X692599D01*
Y163334D01*
X692066Y163867D01*
X689934D01*
X689400Y163334D01*
Y161735D01*
X689934Y164934D02*
X689400Y165467D01*
Y166533D01*
X689934Y167066D01*
X690467D01*
X691000Y166533D01*
Y166000D01*
Y166533D01*
X691533Y167066D01*
X692066D01*
X692599Y166533D01*
Y165467D01*
X692066Y164934D01*
X689934Y168133D02*
X689400Y168666D01*
Y169732D01*
X689934Y170265D01*
X690467D01*
X691000Y169732D01*
Y169199D01*
Y169732D01*
X691533Y170265D01*
X692066D01*
X692599Y169732D01*
Y168666D01*
X692066Y168133D01*
X764517Y160428D02*
X767716D01*
Y162027D01*
X767182Y162560D01*
X765050D01*
X764517Y162027D01*
Y160428D01*
X765050Y163627D02*
X764517Y164160D01*
Y165226D01*
X765050Y165759D01*
X765583D01*
X766116Y165226D01*
Y164693D01*
Y165226D01*
X766649Y165759D01*
X767182D01*
X767716Y165226D01*
Y164160D01*
X767182Y163627D01*
X767716Y168958D02*
Y166826D01*
X765583Y168958D01*
X765050D01*
X764517Y168425D01*
Y167359D01*
X765050Y166826D01*
X840401Y161268D02*
X843600D01*
Y162867D01*
X843066Y163400D01*
X840934D01*
X840401Y162867D01*
Y161268D01*
X840934Y164467D02*
X840401Y165000D01*
Y166066D01*
X840934Y166600D01*
X841467D01*
X842000Y166066D01*
Y165533D01*
Y166066D01*
X842533Y166600D01*
X843066D01*
X843600Y166066D01*
Y165000D01*
X843066Y164467D01*
X843600Y167666D02*
Y168732D01*
Y168199D01*
X840401D01*
X840934Y167666D01*
X915401Y160735D02*
X918600D01*
Y162334D01*
X918066Y162867D01*
X915934D01*
X915401Y162334D01*
Y160735D01*
X915934Y163934D02*
X915401Y164467D01*
Y165533D01*
X915934Y166066D01*
X916467D01*
X917000Y165533D01*
Y165000D01*
Y165533D01*
X917533Y166066D01*
X918066D01*
X918600Y165533D01*
Y164467D01*
X918066Y163934D01*
X915934Y167133D02*
X915401Y167666D01*
Y168732D01*
X915934Y169265D01*
X918066D01*
X918600Y168732D01*
Y167666D01*
X918066Y167133D01*
X915934D01*
X1018400Y160735D02*
X1021599D01*
Y162334D01*
X1021066Y162867D01*
X1018934D01*
X1018400Y162334D01*
Y160735D01*
X1021599Y166066D02*
Y163934D01*
X1019467Y166066D01*
X1018934D01*
X1018400Y165533D01*
Y164467D01*
X1018934Y163934D01*
X1021066Y167133D02*
X1021599Y167666D01*
Y168732D01*
X1021066Y169265D01*
X1018934D01*
X1018400Y168732D01*
Y167666D01*
X1018934Y167133D01*
X1019467D01*
X1020000Y167666D01*
Y169265D01*
X14401Y235735D02*
X17600D01*
Y237334D01*
X17066Y237867D01*
X14934D01*
X14401Y237334D01*
Y235735D01*
X17600Y241066D02*
Y238934D01*
X15467Y241066D01*
X14934D01*
X14401Y240533D01*
Y239467D01*
X14934Y238934D01*
Y242133D02*
X14401Y242666D01*
Y243732D01*
X14934Y244265D01*
X15467D01*
X16000Y243732D01*
X16533Y244265D01*
X17066D01*
X17600Y243732D01*
Y242666D01*
X17066Y242133D01*
X16533D01*
X16000Y242666D01*
X15467Y242133D01*
X14934D01*
X16000Y242666D02*
Y243732D01*
X108400Y235735D02*
X111600D01*
Y237334D01*
X111066Y237867D01*
X108934D01*
X108400Y237334D01*
Y235735D01*
X111600Y241066D02*
Y238934D01*
X109467Y241066D01*
X108934D01*
X108400Y240533D01*
Y239467D01*
X108934Y238934D01*
X108400Y242133D02*
Y244265D01*
X108934D01*
X111066Y242133D01*
X111600D01*
X184400Y235735D02*
X187600D01*
Y237334D01*
X187066Y237867D01*
X184934D01*
X184400Y237334D01*
Y235735D01*
X187600Y241066D02*
Y238934D01*
X185467Y241066D01*
X184934D01*
X184400Y240533D01*
Y239467D01*
X184934Y238934D01*
X184400Y244265D02*
X184934Y243199D01*
X186000Y242133D01*
X187066D01*
X187600Y242666D01*
Y243732D01*
X187066Y244265D01*
X186533D01*
X186000Y243732D01*
Y242133D01*
X258401Y235735D02*
X261599D01*
Y237334D01*
X261066Y237867D01*
X258934D01*
X258401Y237334D01*
Y235735D01*
X261599Y241066D02*
Y238934D01*
X259467Y241066D01*
X258934D01*
X258401Y240533D01*
Y239467D01*
X258934Y238934D01*
X258401Y244265D02*
Y242133D01*
X260000D01*
X259467Y243199D01*
Y243732D01*
X260000Y244265D01*
X261066D01*
X261599Y243732D01*
Y242666D01*
X261066Y242133D01*
X333401Y235735D02*
X336599D01*
Y237334D01*
X336066Y237867D01*
X333934D01*
X333401Y237334D01*
Y235735D01*
X336599Y241066D02*
Y238934D01*
X334467Y241066D01*
X333934D01*
X333401Y240533D01*
Y239467D01*
X333934Y238934D01*
X336599Y243732D02*
X333401D01*
X335000Y242133D01*
Y244265D01*
X408400Y235735D02*
X411599D01*
Y237334D01*
X411066Y237867D01*
X408934D01*
X408400Y237334D01*
Y235735D01*
X411599Y241066D02*
Y238934D01*
X409467Y241066D01*
X408934D01*
X408400Y240533D01*
Y239467D01*
X408934Y238934D01*
Y242133D02*
X408400Y242666D01*
Y243732D01*
X408934Y244265D01*
X409467D01*
X410000Y243732D01*
Y243199D01*
Y243732D01*
X410533Y244265D01*
X411066D01*
X411599Y243732D01*
Y242666D01*
X411066Y242133D01*
X484401Y235735D02*
X487600D01*
Y237334D01*
X487066Y237867D01*
X484934D01*
X484401Y237334D01*
Y235735D01*
X487600Y241066D02*
Y238934D01*
X485467Y241066D01*
X484934D01*
X484401Y240533D01*
Y239467D01*
X484934Y238934D01*
X487600Y244265D02*
Y242133D01*
X485467Y244265D01*
X484934D01*
X484401Y243732D01*
Y242666D01*
X484934Y242133D01*
X559401Y236268D02*
X562600D01*
Y237867D01*
X562066Y238401D01*
X559934D01*
X559401Y237867D01*
Y236268D01*
X562600Y241599D02*
Y239467D01*
X560467Y241599D01*
X559934D01*
X559401Y241066D01*
Y240000D01*
X559934Y239467D01*
X562600Y242666D02*
Y243732D01*
Y243199D01*
X559401D01*
X559934Y242666D01*
X634401Y235735D02*
X637600D01*
Y237334D01*
X637066Y237867D01*
X634934D01*
X634401Y237334D01*
Y235735D01*
X637600Y241066D02*
Y238934D01*
X635467Y241066D01*
X634934D01*
X634401Y240533D01*
Y239467D01*
X634934Y238934D01*
Y242133D02*
X634401Y242666D01*
Y243732D01*
X634934Y244265D01*
X637066D01*
X637600Y243732D01*
Y242666D01*
X637066Y242133D01*
X634934D01*
X708400Y236001D02*
X711599D01*
Y237601D01*
X711066Y238134D01*
X708934D01*
X708400Y237601D01*
Y236001D01*
X711599Y239200D02*
Y240267D01*
Y239733D01*
X708400D01*
X708934Y239200D01*
X711066Y241866D02*
X711599Y242399D01*
Y243465D01*
X711066Y243999D01*
X708934D01*
X708400Y243465D01*
Y242399D01*
X708934Y241866D01*
X709467D01*
X710000Y242399D01*
Y243999D01*
X783400Y236001D02*
X786599D01*
Y237601D01*
X786066Y238134D01*
X783934D01*
X783400Y237601D01*
Y236001D01*
X786599Y239200D02*
Y240267D01*
Y239733D01*
X783400D01*
X783934Y239200D01*
Y241866D02*
X783400Y242399D01*
Y243465D01*
X783934Y243999D01*
X784467D01*
X785000Y243465D01*
X785533Y243999D01*
X786066D01*
X786599Y243465D01*
Y242399D01*
X786066Y241866D01*
X785533D01*
X785000Y242399D01*
X784467Y241866D01*
X783934D01*
X785000Y242399D02*
Y243465D01*
X859400Y236001D02*
X862599D01*
Y237601D01*
X862066Y238134D01*
X859934D01*
X859400Y237601D01*
Y236001D01*
X862599Y239200D02*
Y240267D01*
Y239733D01*
X859400D01*
X859934Y239200D01*
X859400Y241866D02*
Y243999D01*
X859934D01*
X862066Y241866D01*
X862599D01*
X933401Y236001D02*
X936600D01*
Y237601D01*
X936066Y238134D01*
X933934D01*
X933401Y237601D01*
Y236001D01*
X936600Y239200D02*
Y240267D01*
Y239733D01*
X933401D01*
X933934Y239200D01*
X933401Y243999D02*
X933934Y242932D01*
X935000Y241866D01*
X936066D01*
X936600Y242399D01*
Y243465D01*
X936066Y243999D01*
X935533D01*
X935000Y243465D01*
Y241866D01*
X1027400Y236001D02*
X1030599D01*
Y237601D01*
X1030066Y238134D01*
X1027934D01*
X1027400Y237601D01*
Y236001D01*
X1030599Y239200D02*
Y240267D01*
Y239733D01*
X1027400D01*
X1027934Y239200D01*
X1027400Y243999D02*
Y241866D01*
X1029000D01*
X1028467Y242932D01*
Y243465D01*
X1029000Y243999D01*
X1030066D01*
X1030599Y243465D01*
Y242399D01*
X1030066Y241866D01*
X55001Y316599D02*
Y313401D01*
X56601D01*
X57134Y313934D01*
Y316066D01*
X56601Y316599D01*
X55001D01*
X58200Y313401D02*
X59267D01*
X58733D01*
Y316599D01*
X58200Y316066D01*
X62466Y313401D02*
Y316599D01*
X60866Y315000D01*
X62999D01*
X147400Y311001D02*
X150600D01*
Y312601D01*
X150066Y313134D01*
X147934D01*
X147400Y312601D01*
Y311001D01*
X150600Y314200D02*
Y315267D01*
Y314733D01*
X147400D01*
X147934Y314200D01*
Y316866D02*
X147400Y317399D01*
Y318465D01*
X147934Y318999D01*
X148467D01*
X149000Y318465D01*
Y317932D01*
Y318465D01*
X149533Y318999D01*
X150066D01*
X150600Y318465D01*
Y317399D01*
X150066Y316866D01*
X221400Y311001D02*
X224600D01*
Y312601D01*
X224066Y313134D01*
X221934D01*
X221400Y312601D01*
Y311001D01*
X224600Y314200D02*
Y315267D01*
Y314733D01*
X221400D01*
X221934Y314200D01*
X224600Y318999D02*
Y316866D01*
X222467Y318999D01*
X221934D01*
X221400Y318465D01*
Y317399D01*
X221934Y316866D01*
X297400Y311535D02*
X300600D01*
Y313134D01*
X300066Y313667D01*
X297934D01*
X297400Y313134D01*
Y311535D01*
X300600Y314733D02*
Y315800D01*
Y315267D01*
X297400D01*
X297934Y314733D01*
X300600Y317399D02*
Y318465D01*
Y317932D01*
X297400D01*
X297934Y317399D01*
X371400Y311001D02*
X374600D01*
Y312601D01*
X374066Y313134D01*
X371934D01*
X371400Y312601D01*
Y311001D01*
X374600Y314200D02*
Y315267D01*
Y314733D01*
X371400D01*
X371934Y314200D01*
Y316866D02*
X371400Y317399D01*
Y318465D01*
X371934Y318999D01*
X374066D01*
X374600Y318465D01*
Y317399D01*
X374066Y316866D01*
X371934D01*
X446400Y312334D02*
X449600D01*
Y313934D01*
X449066Y314467D01*
X446934D01*
X446400Y313934D01*
Y312334D01*
X449066Y315533D02*
X449600Y316066D01*
Y317133D01*
X449066Y317666D01*
X446934D01*
X446400Y317133D01*
Y316066D01*
X446934Y315533D01*
X447467D01*
X448000Y316066D01*
Y317666D01*
X522401Y312334D02*
X525599D01*
Y313934D01*
X525066Y314467D01*
X522934D01*
X522401Y313934D01*
Y312334D01*
X522934Y315533D02*
X522401Y316066D01*
Y317133D01*
X522934Y317666D01*
X523467D01*
X524000Y317133D01*
X524533Y317666D01*
X525066D01*
X525599Y317133D01*
Y316066D01*
X525066Y315533D01*
X524533D01*
X524000Y316066D01*
X523467Y315533D01*
X522934D01*
X524000Y316066D02*
Y317133D01*
X596400Y312334D02*
X599600D01*
Y313934D01*
X599066Y314467D01*
X596934D01*
X596400Y313934D01*
Y312334D01*
Y315533D02*
Y317666D01*
X596934D01*
X599066Y315533D01*
X599600D01*
X672401Y312334D02*
X675599D01*
Y313934D01*
X675066Y314467D01*
X672934D01*
X672401Y313934D01*
Y312334D01*
Y317666D02*
X672934Y316599D01*
X674000Y315533D01*
X675066D01*
X675599Y316066D01*
Y317133D01*
X675066Y317666D01*
X674533D01*
X674000Y317133D01*
Y315533D01*
X746400Y313334D02*
X749600D01*
Y314934D01*
X749066Y315467D01*
X746934D01*
X746400Y314934D01*
Y313334D01*
Y318666D02*
Y316533D01*
X748000D01*
X747467Y317600D01*
Y318133D01*
X748000Y318666D01*
X749066D01*
X749600Y318133D01*
Y317066D01*
X749066Y316533D01*
X821401Y312334D02*
X824599D01*
Y313934D01*
X824066Y314467D01*
X821934D01*
X821401Y313934D01*
Y312334D01*
X824599Y317133D02*
X821401D01*
X823000Y315533D01*
Y317666D01*
X897400Y313334D02*
X900599D01*
Y314934D01*
X900066Y315467D01*
X897934D01*
X897400Y314934D01*
Y313334D01*
X897934Y316533D02*
X897400Y317066D01*
Y318133D01*
X897934Y318666D01*
X898467D01*
X899000Y318133D01*
Y317600D01*
Y318133D01*
X899533Y318666D01*
X900066D01*
X900599Y318133D01*
Y317066D01*
X900066Y316533D01*
X971401Y313334D02*
X974599D01*
Y314934D01*
X974066Y315467D01*
X971934D01*
X971401Y314934D01*
Y313334D01*
X974599Y318666D02*
Y316533D01*
X972467Y318666D01*
X971934D01*
X971401Y318133D01*
Y317066D01*
X971934Y316533D01*
X1046517Y313174D02*
X1049716D01*
Y314774D01*
X1049183Y315307D01*
X1047050D01*
X1046517Y314774D01*
Y313174D01*
X1049716Y316373D02*
Y317440D01*
Y316907D01*
X1046517D01*
X1047050Y316373D01*
X61401Y34066D02*
X60867Y34600D01*
X59801D01*
X59268Y34066D01*
Y33533D01*
X59801Y33000D01*
X60867D01*
X61401Y32467D01*
Y31934D01*
X60867Y31400D01*
X59801D01*
X59268Y31934D01*
X64600Y34600D02*
X63533Y34066D01*
X62467Y33000D01*
Y31934D01*
X63000Y31400D01*
X64066D01*
X64600Y31934D01*
Y32467D01*
X64066Y33000D01*
X62467D01*
X65666Y31400D02*
X66732D01*
X66199D01*
Y34600D01*
X65666Y34066D01*
X342867Y33066D02*
X342334Y33599D01*
X341268D01*
X340735Y33066D01*
Y32533D01*
X341268Y32000D01*
X342334D01*
X342867Y31467D01*
Y30934D01*
X342334Y30400D01*
X341268D01*
X340735Y30934D01*
X346066Y33599D02*
X343934D01*
Y32000D01*
X345000Y32533D01*
X345533D01*
X346066Y32000D01*
Y30934D01*
X345533Y30400D01*
X344467D01*
X343934Y30934D01*
X347133Y33066D02*
X347666Y33599D01*
X348732D01*
X349265Y33066D01*
Y32533D01*
X348732Y32000D01*
X349265Y31467D01*
Y30934D01*
X348732Y30400D01*
X347666D01*
X347133Y30934D01*
Y31467D01*
X347666Y32000D01*
X347133Y32533D01*
Y33066D01*
X347666Y32000D02*
X348732D01*
X624867Y33066D02*
X624334Y33599D01*
X623268D01*
X622735Y33066D01*
Y32533D01*
X623268Y32000D01*
X624334D01*
X624867Y31467D01*
Y30934D01*
X624334Y30400D01*
X623268D01*
X622735Y30934D01*
X628066Y33599D02*
X625934D01*
Y32000D01*
X627000Y32533D01*
X627533D01*
X628066Y32000D01*
Y30934D01*
X627533Y30400D01*
X626467D01*
X625934Y30934D01*
X629133Y33599D02*
X631265D01*
Y33066D01*
X629133Y30934D01*
Y30400D01*
X903867Y32066D02*
X903334Y32599D01*
X902268D01*
X901735Y32066D01*
Y31533D01*
X902268Y31000D01*
X903334D01*
X903867Y30467D01*
Y29934D01*
X903334Y29401D01*
X902268D01*
X901735Y29934D01*
X907066Y32599D02*
X904934D01*
Y31000D01*
X906000Y31533D01*
X906533D01*
X907066Y31000D01*
Y29934D01*
X906533Y29401D01*
X905467D01*
X904934Y29934D01*
X910265Y32599D02*
X909199Y32066D01*
X908133Y31000D01*
Y29934D01*
X908666Y29401D01*
X909732D01*
X910265Y29934D01*
Y30467D01*
X909732Y31000D01*
X908133D01*
X999867Y33066D02*
X999334Y33599D01*
X998268D01*
X997735Y33066D01*
Y32533D01*
X998268Y32000D01*
X999334D01*
X999867Y31467D01*
Y30934D01*
X999334Y30400D01*
X998268D01*
X997735Y30934D01*
X1003066Y33599D02*
X1000934D01*
Y32000D01*
X1002000Y32533D01*
X1002533D01*
X1003066Y32000D01*
Y30934D01*
X1002533Y30400D01*
X1001467D01*
X1000934Y30934D01*
X1006265Y33599D02*
X1004133D01*
Y32000D01*
X1005199Y32533D01*
X1005732D01*
X1006265Y32000D01*
Y30934D01*
X1005732Y30400D01*
X1004666D01*
X1004133Y30934D01*
X1091867Y33066D02*
X1091334Y33599D01*
X1090268D01*
X1089735Y33066D01*
Y32533D01*
X1090268Y32000D01*
X1091334D01*
X1091867Y31467D01*
Y30934D01*
X1091334Y30400D01*
X1090268D01*
X1089735Y30934D01*
X1095066Y33599D02*
X1092934D01*
Y32000D01*
X1094000Y32533D01*
X1094533D01*
X1095066Y32000D01*
Y30934D01*
X1094533Y30400D01*
X1093467D01*
X1092934Y30934D01*
X1097732Y30400D02*
Y33599D01*
X1096133Y32000D01*
X1098265D01*
X115867Y108066D02*
X115334Y108599D01*
X114268D01*
X113735Y108066D01*
Y107533D01*
X114268Y107000D01*
X115334D01*
X115867Y106467D01*
Y105934D01*
X115334Y105401D01*
X114268D01*
X113735Y105934D01*
X119066Y108599D02*
X116934D01*
Y107000D01*
X118000Y107533D01*
X118533D01*
X119066Y107000D01*
Y105934D01*
X118533Y105401D01*
X117467D01*
X116934Y105934D01*
X120133Y108066D02*
X120666Y108599D01*
X121732D01*
X122265Y108066D01*
Y107533D01*
X121732Y107000D01*
X121199D01*
X121732D01*
X122265Y106467D01*
Y105934D01*
X121732Y105401D01*
X120666D01*
X120133Y105934D01*
X257867Y108066D02*
X257334Y108599D01*
X256268D01*
X255735Y108066D01*
Y107533D01*
X256268Y107000D01*
X257334D01*
X257867Y106467D01*
Y105934D01*
X257334Y105401D01*
X256268D01*
X255735Y105934D01*
X261066Y108599D02*
X258934D01*
Y107000D01*
X260000Y107533D01*
X260533D01*
X261066Y107000D01*
Y105934D01*
X260533Y105401D01*
X259467D01*
X258934Y105934D01*
X264265Y105401D02*
X262133D01*
X264265Y107533D01*
Y108066D01*
X263732Y108599D01*
X262666D01*
X262133Y108066D01*
X332400D02*
X331867Y108599D01*
X330801D01*
X330268Y108066D01*
Y107533D01*
X330801Y107000D01*
X331867D01*
X332400Y106467D01*
Y105934D01*
X331867Y105401D01*
X330801D01*
X330268Y105934D01*
X335599Y108599D02*
X333467D01*
Y107000D01*
X334533Y107533D01*
X335066D01*
X335599Y107000D01*
Y105934D01*
X335066Y105401D01*
X334000D01*
X333467Y105934D01*
X336666Y105401D02*
X337732D01*
X337199D01*
Y108599D01*
X336666Y108066D01*
X407867D02*
X407334Y108599D01*
X406268D01*
X405735Y108066D01*
Y107533D01*
X406268Y107000D01*
X407334D01*
X407867Y106467D01*
Y105934D01*
X407334Y105401D01*
X406268D01*
X405735Y105934D01*
X411066Y108599D02*
X408934D01*
Y107000D01*
X410000Y107533D01*
X410533D01*
X411066Y107000D01*
Y105934D01*
X410533Y105401D01*
X409467D01*
X408934Y105934D01*
X412133Y108066D02*
X412666Y108599D01*
X413732D01*
X414265Y108066D01*
Y105934D01*
X413732Y105401D01*
X412666D01*
X412133Y105934D01*
Y108066D01*
X481867D02*
X481334Y108599D01*
X480268D01*
X479735Y108066D01*
Y107533D01*
X480268Y107000D01*
X481334D01*
X481867Y106467D01*
Y105934D01*
X481334Y105401D01*
X480268D01*
X479735Y105934D01*
X484533Y105401D02*
Y108599D01*
X482934Y107000D01*
X485066D01*
X486133Y105934D02*
X486666Y105401D01*
X487732D01*
X488265Y105934D01*
Y108066D01*
X487732Y108599D01*
X486666D01*
X486133Y108066D01*
Y107533D01*
X486666Y107000D01*
X488265D01*
X556867Y108066D02*
X556334Y108599D01*
X555268D01*
X554735Y108066D01*
Y107533D01*
X555268Y107000D01*
X556334D01*
X556867Y106467D01*
Y105934D01*
X556334Y105401D01*
X555268D01*
X554735Y105934D01*
X559533Y105401D02*
Y108599D01*
X557934Y107000D01*
X560066D01*
X561133Y108066D02*
X561666Y108599D01*
X562732D01*
X563265Y108066D01*
Y107533D01*
X562732Y107000D01*
X563265Y106467D01*
Y105934D01*
X562732Y105401D01*
X561666D01*
X561133Y105934D01*
Y106467D01*
X561666Y107000D01*
X561133Y107533D01*
Y108066D01*
X561666Y107000D02*
X562732D01*
X632867Y106066D02*
X632334Y106599D01*
X631268D01*
X630735Y106066D01*
Y105533D01*
X631268Y105000D01*
X632334D01*
X632867Y104467D01*
Y103934D01*
X632334Y103401D01*
X631268D01*
X630735Y103934D01*
X635533Y103401D02*
Y106599D01*
X633934Y105000D01*
X636066D01*
X637133Y106599D02*
X639265D01*
Y106066D01*
X637133Y103934D01*
Y103401D01*
X707867Y107066D02*
X707334Y107599D01*
X706268D01*
X705735Y107066D01*
Y106533D01*
X706268Y106000D01*
X707334D01*
X707867Y105467D01*
Y104934D01*
X707334Y104401D01*
X706268D01*
X705735Y104934D01*
X710533Y104401D02*
Y107599D01*
X708934Y106000D01*
X711066D01*
X714265Y107599D02*
X713199Y107066D01*
X712133Y106000D01*
Y104934D01*
X712666Y104401D01*
X713732D01*
X714265Y104934D01*
Y105467D01*
X713732Y106000D01*
X712133D01*
X782867Y108066D02*
X782334Y108599D01*
X781268D01*
X780735Y108066D01*
Y107533D01*
X781268Y107000D01*
X782334D01*
X782867Y106467D01*
Y105934D01*
X782334Y105401D01*
X781268D01*
X780735Y105934D01*
X785533Y105401D02*
Y108599D01*
X783934Y107000D01*
X786066D01*
X789265Y108599D02*
X787133D01*
Y107000D01*
X788199Y107533D01*
X788732D01*
X789265Y107000D01*
Y105934D01*
X788732Y105401D01*
X787666D01*
X787133Y105934D01*
X859867Y108066D02*
X859334Y108599D01*
X858268D01*
X857735Y108066D01*
Y107533D01*
X858268Y107000D01*
X859334D01*
X859867Y106467D01*
Y105934D01*
X859334Y105401D01*
X858268D01*
X857735Y105934D01*
X862533Y105401D02*
Y108599D01*
X860934Y107000D01*
X863066D01*
X865732Y105401D02*
Y108599D01*
X864133Y107000D01*
X866265D01*
X930867Y107066D02*
X930334Y107599D01*
X929268D01*
X928735Y107066D01*
Y106533D01*
X929268Y106000D01*
X930334D01*
X930867Y105467D01*
Y104934D01*
X930334Y104401D01*
X929268D01*
X928735Y104934D01*
X933533Y104401D02*
Y107599D01*
X931934Y106000D01*
X934066D01*
X935133Y107066D02*
X935666Y107599D01*
X936732D01*
X937265Y107066D01*
Y106533D01*
X936732Y106000D01*
X936199D01*
X936732D01*
X937265Y105467D01*
Y104934D01*
X936732Y104401D01*
X935666D01*
X935133Y104934D01*
X1053867Y108066D02*
X1053334Y108599D01*
X1052268D01*
X1051735Y108066D01*
Y107533D01*
X1052268Y107000D01*
X1053334D01*
X1053867Y106467D01*
Y105934D01*
X1053334Y105401D01*
X1052268D01*
X1051735Y105934D01*
X1056533Y105401D02*
Y108599D01*
X1054934Y107000D01*
X1057066D01*
X1060265Y105401D02*
X1058133D01*
X1060265Y107533D01*
Y108066D01*
X1059732Y108599D01*
X1058666D01*
X1058133Y108066D01*
X97400Y182066D02*
X96867Y182599D01*
X95801D01*
X95268Y182066D01*
Y181533D01*
X95801Y181000D01*
X96867D01*
X97400Y180467D01*
Y179934D01*
X96867Y179401D01*
X95801D01*
X95268Y179934D01*
X100066Y179401D02*
Y182599D01*
X98467Y181000D01*
X100600D01*
X101666Y179401D02*
X102732D01*
X102199D01*
Y182599D01*
X101666Y182066D01*
X218867Y183066D02*
X218334Y183599D01*
X217268D01*
X216735Y183066D01*
Y182533D01*
X217268Y182000D01*
X218334D01*
X218867Y181467D01*
Y180934D01*
X218334Y180401D01*
X217268D01*
X216735Y180934D01*
X221533Y180401D02*
Y183599D01*
X219934Y182000D01*
X222066D01*
X223133Y183066D02*
X223666Y183599D01*
X224732D01*
X225265Y183066D01*
Y180934D01*
X224732Y180401D01*
X223666D01*
X223133Y180934D01*
Y183066D01*
X293867D02*
X293334Y183599D01*
X292268D01*
X291735Y183066D01*
Y182533D01*
X292268Y182000D01*
X293334D01*
X293867Y181467D01*
Y180934D01*
X293334Y180401D01*
X292268D01*
X291735Y180934D01*
X294934Y183066D02*
X295467Y183599D01*
X296533D01*
X297066Y183066D01*
Y182533D01*
X296533Y182000D01*
X296000D01*
X296533D01*
X297066Y181467D01*
Y180934D01*
X296533Y180401D01*
X295467D01*
X294934Y180934D01*
X298133D02*
X298666Y180401D01*
X299732D01*
X300265Y180934D01*
Y183066D01*
X299732Y183599D01*
X298666D01*
X298133Y183066D01*
Y182533D01*
X298666Y182000D01*
X300265D01*
X368867Y183066D02*
X368334Y183599D01*
X367268D01*
X366735Y183066D01*
Y182533D01*
X367268Y182000D01*
X368334D01*
X368867Y181467D01*
Y180934D01*
X368334Y180401D01*
X367268D01*
X366735Y180934D01*
X369934Y183066D02*
X370467Y183599D01*
X371533D01*
X372066Y183066D01*
Y182533D01*
X371533Y182000D01*
X371000D01*
X371533D01*
X372066Y181467D01*
Y180934D01*
X371533Y180401D01*
X370467D01*
X369934Y180934D01*
X373133Y183066D02*
X373666Y183599D01*
X374732D01*
X375265Y183066D01*
Y182533D01*
X374732Y182000D01*
X375265Y181467D01*
Y180934D01*
X374732Y180401D01*
X373666D01*
X373133Y180934D01*
Y181467D01*
X373666Y182000D01*
X373133Y182533D01*
Y183066D01*
X373666Y182000D02*
X374732D01*
X444867Y183066D02*
X444334Y183599D01*
X443268D01*
X442735Y183066D01*
Y182533D01*
X443268Y182000D01*
X444334D01*
X444867Y181467D01*
Y180934D01*
X444334Y180401D01*
X443268D01*
X442735Y180934D01*
X445934Y183066D02*
X446467Y183599D01*
X447533D01*
X448066Y183066D01*
Y182533D01*
X447533Y182000D01*
X447000D01*
X447533D01*
X448066Y181467D01*
Y180934D01*
X447533Y180401D01*
X446467D01*
X445934Y180934D01*
X449133Y183599D02*
X451265D01*
Y183066D01*
X449133Y180934D01*
Y180401D01*
X518867Y183066D02*
X518334Y183599D01*
X517268D01*
X516735Y183066D01*
Y182533D01*
X517268Y182000D01*
X518334D01*
X518867Y181467D01*
Y180934D01*
X518334Y180401D01*
X517268D01*
X516735Y180934D01*
X519934Y183066D02*
X520467Y183599D01*
X521533D01*
X522066Y183066D01*
Y182533D01*
X521533Y182000D01*
X521000D01*
X521533D01*
X522066Y181467D01*
Y180934D01*
X521533Y180401D01*
X520467D01*
X519934Y180934D01*
X525265Y183599D02*
X524199Y183066D01*
X523133Y182000D01*
Y180934D01*
X523666Y180401D01*
X524732D01*
X525265Y180934D01*
Y181467D01*
X524732Y182000D01*
X523133D01*
X593867Y182066D02*
X593334Y182599D01*
X592268D01*
X591735Y182066D01*
Y181533D01*
X592268Y181000D01*
X593334D01*
X593867Y180467D01*
Y179934D01*
X593334Y179401D01*
X592268D01*
X591735Y179934D01*
X594934Y182066D02*
X595467Y182599D01*
X596533D01*
X597066Y182066D01*
Y181533D01*
X596533Y181000D01*
X596000D01*
X596533D01*
X597066Y180467D01*
Y179934D01*
X596533Y179401D01*
X595467D01*
X594934Y179934D01*
X600265Y182599D02*
X598133D01*
Y181000D01*
X599199Y181533D01*
X599732D01*
X600265Y181000D01*
Y179934D01*
X599732Y179401D01*
X598666D01*
X598133Y179934D01*
X668867Y182066D02*
X668334Y182599D01*
X667268D01*
X666735Y182066D01*
Y181533D01*
X667268Y181000D01*
X668334D01*
X668867Y180467D01*
Y179934D01*
X668334Y179401D01*
X667268D01*
X666735Y179934D01*
X669934Y182066D02*
X670467Y182599D01*
X671533D01*
X672066Y182066D01*
Y181533D01*
X671533Y181000D01*
X671000D01*
X671533D01*
X672066Y180467D01*
Y179934D01*
X671533Y179401D01*
X670467D01*
X669934Y179934D01*
X674732Y179401D02*
Y182599D01*
X673133Y181000D01*
X675265D01*
X743867Y182066D02*
X743334Y182599D01*
X742268D01*
X741735Y182066D01*
Y181533D01*
X742268Y181000D01*
X743334D01*
X743867Y180467D01*
Y179934D01*
X743334Y179401D01*
X742268D01*
X741735Y179934D01*
X744934Y182066D02*
X745467Y182599D01*
X746533D01*
X747066Y182066D01*
Y181533D01*
X746533Y181000D01*
X746000D01*
X746533D01*
X747066Y180467D01*
Y179934D01*
X746533Y179401D01*
X745467D01*
X744934Y179934D01*
X748133Y182066D02*
X748666Y182599D01*
X749732D01*
X750265Y182066D01*
Y181533D01*
X749732Y181000D01*
X749199D01*
X749732D01*
X750265Y180467D01*
Y179934D01*
X749732Y179401D01*
X748666D01*
X748133Y179934D01*
X819867Y183066D02*
X819334Y183599D01*
X818268D01*
X817735Y183066D01*
Y182533D01*
X818268Y182000D01*
X819334D01*
X819867Y181467D01*
Y180934D01*
X819334Y180401D01*
X818268D01*
X817735Y180934D01*
X820934Y183066D02*
X821467Y183599D01*
X822533D01*
X823066Y183066D01*
Y182533D01*
X822533Y182000D01*
X822000D01*
X822533D01*
X823066Y181467D01*
Y180934D01*
X822533Y180401D01*
X821467D01*
X820934Y180934D01*
X826265Y180401D02*
X824133D01*
X826265Y182533D01*
Y183066D01*
X825732Y183599D01*
X824666D01*
X824133Y183066D01*
X894401Y182066D02*
X893867Y182599D01*
X892801D01*
X892268Y182066D01*
Y181533D01*
X892801Y181000D01*
X893867D01*
X894401Y180467D01*
Y179934D01*
X893867Y179401D01*
X892801D01*
X892268Y179934D01*
X895467Y182066D02*
X896000Y182599D01*
X897066D01*
X897600Y182066D01*
Y181533D01*
X897066Y181000D01*
X896533D01*
X897066D01*
X897600Y180467D01*
Y179934D01*
X897066Y179401D01*
X896000D01*
X895467Y179934D01*
X898666Y179401D02*
X899732D01*
X899199D01*
Y182599D01*
X898666Y182066D01*
X1071867Y183066D02*
X1071334Y183599D01*
X1070268D01*
X1069735Y183066D01*
Y182533D01*
X1070268Y182000D01*
X1071334D01*
X1071867Y181467D01*
Y180934D01*
X1071334Y180401D01*
X1070268D01*
X1069735Y180934D01*
X1075066Y180401D02*
X1072934D01*
X1075066Y182533D01*
Y183066D01*
X1074533Y183599D01*
X1073467D01*
X1072934Y183066D01*
X1076133Y180934D02*
X1076666Y180401D01*
X1077732D01*
X1078265Y180934D01*
Y183066D01*
X1077732Y183599D01*
X1076666D01*
X1076133Y183066D01*
Y182533D01*
X1076666Y182000D01*
X1078265D01*
X68867Y257066D02*
X68334Y257599D01*
X67268D01*
X66735Y257066D01*
Y256533D01*
X67268Y256000D01*
X68334D01*
X68867Y255467D01*
Y254934D01*
X68334Y254400D01*
X67268D01*
X66735Y254934D01*
X72066Y254400D02*
X69934D01*
X72066Y256533D01*
Y257066D01*
X71533Y257599D01*
X70467D01*
X69934Y257066D01*
X73133D02*
X73666Y257599D01*
X74732D01*
X75265Y257066D01*
Y256533D01*
X74732Y256000D01*
X75265Y255467D01*
Y254934D01*
X74732Y254400D01*
X73666D01*
X73133Y254934D01*
Y255467D01*
X73666Y256000D01*
X73133Y256533D01*
Y257066D01*
X73666Y256000D02*
X74732D01*
X162867Y257066D02*
X162334Y257599D01*
X161268D01*
X160735Y257066D01*
Y256533D01*
X161268Y256000D01*
X162334D01*
X162867Y255467D01*
Y254934D01*
X162334Y254400D01*
X161268D01*
X160735Y254934D01*
X166066Y254400D02*
X163934D01*
X166066Y256533D01*
Y257066D01*
X165533Y257599D01*
X164467D01*
X163934Y257066D01*
X167133Y257599D02*
X169265D01*
Y257066D01*
X167133Y254934D01*
Y254400D01*
X236867Y257066D02*
X236334Y257599D01*
X235268D01*
X234735Y257066D01*
Y256533D01*
X235268Y256000D01*
X236334D01*
X236867Y255467D01*
Y254934D01*
X236334Y254400D01*
X235268D01*
X234735Y254934D01*
X240066Y254400D02*
X237934D01*
X240066Y256533D01*
Y257066D01*
X239533Y257599D01*
X238467D01*
X237934Y257066D01*
X243265Y257599D02*
X242199Y257066D01*
X241133Y256000D01*
Y254934D01*
X241666Y254400D01*
X242732D01*
X243265Y254934D01*
Y255467D01*
X242732Y256000D01*
X241133D01*
X311867Y257066D02*
X311334Y257599D01*
X310268D01*
X309735Y257066D01*
Y256533D01*
X310268Y256000D01*
X311334D01*
X311867Y255467D01*
Y254934D01*
X311334Y254400D01*
X310268D01*
X309735Y254934D01*
X315066Y254400D02*
X312934D01*
X315066Y256533D01*
Y257066D01*
X314533Y257599D01*
X313467D01*
X312934Y257066D01*
X318265Y257599D02*
X316133D01*
Y256000D01*
X317199Y256533D01*
X317732D01*
X318265Y256000D01*
Y254934D01*
X317732Y254400D01*
X316666D01*
X316133Y254934D01*
X386867Y257066D02*
X386334Y257599D01*
X385268D01*
X384735Y257066D01*
Y256533D01*
X385268Y256000D01*
X386334D01*
X386867Y255467D01*
Y254934D01*
X386334Y254400D01*
X385268D01*
X384735Y254934D01*
X390066Y254400D02*
X387934D01*
X390066Y256533D01*
Y257066D01*
X389533Y257599D01*
X388467D01*
X387934Y257066D01*
X392732Y254400D02*
Y257599D01*
X391133Y256000D01*
X393265D01*
X461867Y257066D02*
X461334Y257599D01*
X460268D01*
X459735Y257066D01*
Y256533D01*
X460268Y256000D01*
X461334D01*
X461867Y255467D01*
Y254934D01*
X461334Y254400D01*
X460268D01*
X459735Y254934D01*
X465066Y254400D02*
X462934D01*
X465066Y256533D01*
Y257066D01*
X464533Y257599D01*
X463467D01*
X462934Y257066D01*
X466133D02*
X466666Y257599D01*
X467732D01*
X468265Y257066D01*
Y256533D01*
X467732Y256000D01*
X467199D01*
X467732D01*
X468265Y255467D01*
Y254934D01*
X467732Y254400D01*
X466666D01*
X466133Y254934D01*
X536867Y257066D02*
X536334Y257599D01*
X535268D01*
X534735Y257066D01*
Y256533D01*
X535268Y256000D01*
X536334D01*
X536867Y255467D01*
Y254934D01*
X536334Y254400D01*
X535268D01*
X534735Y254934D01*
X540066Y254400D02*
X537934D01*
X540066Y256533D01*
Y257066D01*
X539533Y257599D01*
X538467D01*
X537934Y257066D01*
X543265Y254400D02*
X541133D01*
X543265Y256533D01*
Y257066D01*
X542732Y257599D01*
X541666D01*
X541133Y257066D01*
X613401D02*
X612867Y257599D01*
X611801D01*
X611268Y257066D01*
Y256533D01*
X611801Y256000D01*
X612867D01*
X613401Y255467D01*
Y254934D01*
X612867Y254400D01*
X611801D01*
X611268Y254934D01*
X616600Y254400D02*
X614467D01*
X616600Y256533D01*
Y257066D01*
X616066Y257599D01*
X615000D01*
X614467Y257066D01*
X617666Y254400D02*
X618732D01*
X618199D01*
Y257599D01*
X617666Y257066D01*
X687867D02*
X687334Y257599D01*
X686268D01*
X685735Y257066D01*
Y256533D01*
X686268Y256000D01*
X687334D01*
X687867Y255467D01*
Y254934D01*
X687334Y254400D01*
X686268D01*
X685735Y254934D01*
X691066Y254400D02*
X688934D01*
X691066Y256533D01*
Y257066D01*
X690533Y257599D01*
X689467D01*
X688934Y257066D01*
X692133D02*
X692666Y257599D01*
X693732D01*
X694265Y257066D01*
Y254934D01*
X693732Y254400D01*
X692666D01*
X692133Y254934D01*
Y257066D01*
X763134D02*
X762601Y257599D01*
X761535D01*
X761001Y257066D01*
Y256533D01*
X761535Y256000D01*
X762601D01*
X763134Y255467D01*
Y254934D01*
X762601Y254400D01*
X761535D01*
X761001Y254934D01*
X764200Y254400D02*
X765267D01*
X764733D01*
Y257599D01*
X764200Y257066D01*
X766866Y254934D02*
X767399Y254400D01*
X768466D01*
X768999Y254934D01*
Y257066D01*
X768466Y257599D01*
X767399D01*
X766866Y257066D01*
Y256533D01*
X767399Y256000D01*
X768999D01*
X837134Y257066D02*
X836601Y257599D01*
X835534D01*
X835001Y257066D01*
Y256533D01*
X835534Y256000D01*
X836601D01*
X837134Y255467D01*
Y254934D01*
X836601Y254400D01*
X835534D01*
X835001Y254934D01*
X838200Y254400D02*
X839267D01*
X838733D01*
Y257599D01*
X838200Y257066D01*
X840866D02*
X841399Y257599D01*
X842466D01*
X842999Y257066D01*
Y256533D01*
X842466Y256000D01*
X842999Y255467D01*
Y254934D01*
X842466Y254400D01*
X841399D01*
X840866Y254934D01*
Y255467D01*
X841399Y256000D01*
X840866Y256533D01*
Y257066D01*
X841399Y256000D02*
X842466D01*
X913134Y257066D02*
X912601Y257599D01*
X911535D01*
X911001Y257066D01*
Y256533D01*
X911535Y256000D01*
X912601D01*
X913134Y255467D01*
Y254934D01*
X912601Y254400D01*
X911535D01*
X911001Y254934D01*
X914200Y254400D02*
X915267D01*
X914733D01*
Y257599D01*
X914200Y257066D01*
X916866Y257599D02*
X918999D01*
Y257066D01*
X916866Y254934D01*
Y254400D01*
X1081134Y257066D02*
X1080601Y257599D01*
X1079535D01*
X1079001Y257066D01*
Y256533D01*
X1079535Y256000D01*
X1080601D01*
X1081134Y255467D01*
Y254934D01*
X1080601Y254400D01*
X1079535D01*
X1079001Y254934D01*
X1082200Y254400D02*
X1083267D01*
X1082733D01*
Y257599D01*
X1082200Y257066D01*
X1086999Y257599D02*
X1084866D01*
Y256000D01*
X1085932Y256533D01*
X1086466D01*
X1086999Y256000D01*
Y254934D01*
X1086466Y254400D01*
X1085399D01*
X1084866Y254934D01*
X89134Y332066D02*
X88601Y332599D01*
X87534D01*
X87001Y332066D01*
Y331533D01*
X87534Y331000D01*
X88601D01*
X89134Y330467D01*
Y329934D01*
X88601Y329400D01*
X87534D01*
X87001Y329934D01*
X90200Y329400D02*
X91267D01*
X90733D01*
Y332599D01*
X90200Y332066D01*
X94466Y329400D02*
Y332599D01*
X92866Y331000D01*
X94999D01*
X201134Y332066D02*
X200601Y332599D01*
X199534D01*
X199001Y332066D01*
Y331533D01*
X199534Y331000D01*
X200601D01*
X201134Y330467D01*
Y329934D01*
X200601Y329400D01*
X199534D01*
X199001Y329934D01*
X202200Y329400D02*
X203267D01*
X202733D01*
Y332599D01*
X202200Y332066D01*
X204866D02*
X205399Y332599D01*
X206466D01*
X206999Y332066D01*
Y331533D01*
X206466Y331000D01*
X205932D01*
X206466D01*
X206999Y330467D01*
Y329934D01*
X206466Y329400D01*
X205399D01*
X204866Y329934D01*
X276134Y332066D02*
X275601Y332599D01*
X274535D01*
X274001Y332066D01*
Y331533D01*
X274535Y331000D01*
X275601D01*
X276134Y330467D01*
Y329934D01*
X275601Y329400D01*
X274535D01*
X274001Y329934D01*
X277200Y329400D02*
X278267D01*
X277733D01*
Y332599D01*
X277200Y332066D01*
X281999Y329400D02*
X279866D01*
X281999Y331533D01*
Y332066D01*
X281466Y332599D01*
X280399D01*
X279866Y332066D01*
X351667D02*
X351134Y332599D01*
X350068D01*
X349535Y332066D01*
Y331533D01*
X350068Y331000D01*
X351134D01*
X351667Y330467D01*
Y329934D01*
X351134Y329400D01*
X350068D01*
X349535Y329934D01*
X352733Y329400D02*
X353800D01*
X353267D01*
Y332599D01*
X352733Y332066D01*
X355399Y329400D02*
X356466D01*
X355932D01*
Y332599D01*
X355399Y332066D01*
X426134Y333066D02*
X425601Y333599D01*
X424535D01*
X424001Y333066D01*
Y332533D01*
X424535Y332000D01*
X425601D01*
X426134Y331467D01*
Y330934D01*
X425601Y330400D01*
X424535D01*
X424001Y330934D01*
X427200Y330400D02*
X428267D01*
X427733D01*
Y333599D01*
X427200Y333066D01*
X429866D02*
X430399Y333599D01*
X431465D01*
X431999Y333066D01*
Y330934D01*
X431465Y330400D01*
X430399D01*
X429866Y330934D01*
Y333066D01*
X502467Y332066D02*
X501934Y332599D01*
X500867D01*
X500334Y332066D01*
Y331533D01*
X500867Y331000D01*
X501934D01*
X502467Y330467D01*
Y329934D01*
X501934Y329400D01*
X500867D01*
X500334Y329934D01*
X503533D02*
X504066Y329400D01*
X505133D01*
X505666Y329934D01*
Y332066D01*
X505133Y332599D01*
X504066D01*
X503533Y332066D01*
Y331533D01*
X504066Y331000D01*
X505666D01*
X577467Y332066D02*
X576934Y332599D01*
X575867D01*
X575334Y332066D01*
Y331533D01*
X575867Y331000D01*
X576934D01*
X577467Y330467D01*
Y329934D01*
X576934Y329400D01*
X575867D01*
X575334Y329934D01*
X578533Y332066D02*
X579066Y332599D01*
X580133D01*
X580666Y332066D01*
Y331533D01*
X580133Y331000D01*
X580666Y330467D01*
Y329934D01*
X580133Y329400D01*
X579066D01*
X578533Y329934D01*
Y330467D01*
X579066Y331000D01*
X578533Y331533D01*
Y332066D01*
X579066Y331000D02*
X580133D01*
X652467Y332066D02*
X651934Y332599D01*
X650867D01*
X650334Y332066D01*
Y331533D01*
X650867Y331000D01*
X651934D01*
X652467Y330467D01*
Y329934D01*
X651934Y329400D01*
X650867D01*
X650334Y329934D01*
X653533Y332599D02*
X655666D01*
Y332066D01*
X653533Y329934D01*
Y329400D01*
X727467Y332066D02*
X726934Y332599D01*
X725867D01*
X725334Y332066D01*
Y331533D01*
X725867Y331000D01*
X726934D01*
X727467Y330467D01*
Y329934D01*
X726934Y329400D01*
X725867D01*
X725334Y329934D01*
X730666Y332599D02*
X729600Y332066D01*
X728533Y331000D01*
Y329934D01*
X729066Y329400D01*
X730133D01*
X730666Y329934D01*
Y330467D01*
X730133Y331000D01*
X728533D01*
X802467Y332066D02*
X801934Y332599D01*
X800867D01*
X800334Y332066D01*
Y331533D01*
X800867Y331000D01*
X801934D01*
X802467Y330467D01*
Y329934D01*
X801934Y329400D01*
X800867D01*
X800334Y329934D01*
X805666Y332599D02*
X803533D01*
Y331000D01*
X804599Y331533D01*
X805133D01*
X805666Y331000D01*
Y329934D01*
X805133Y329400D01*
X804066D01*
X803533Y329934D01*
X878467Y332066D02*
X877934Y332599D01*
X876867D01*
X876334Y332066D01*
Y331533D01*
X876867Y331000D01*
X877934D01*
X878467Y330467D01*
Y329934D01*
X877934Y329400D01*
X876867D01*
X876334Y329934D01*
X881133Y329400D02*
Y332599D01*
X879533Y331000D01*
X881666D01*
X952467Y332066D02*
X951934Y332599D01*
X950867D01*
X950334Y332066D01*
Y331533D01*
X950867Y331000D01*
X951934D01*
X952467Y330467D01*
Y329934D01*
X951934Y329400D01*
X950867D01*
X950334Y329934D01*
X953533Y332066D02*
X954066Y332599D01*
X955133D01*
X955666Y332066D01*
Y331533D01*
X955133Y331000D01*
X954599D01*
X955133D01*
X955666Y330467D01*
Y329934D01*
X955133Y329400D01*
X954066D01*
X953533Y329934D01*
X1027467Y332066D02*
X1026934Y332599D01*
X1025867D01*
X1025334Y332066D01*
Y331533D01*
X1025867Y331000D01*
X1026934D01*
X1027467Y330467D01*
Y329934D01*
X1026934Y329400D01*
X1025867D01*
X1025334Y329934D01*
X1030666Y329400D02*
X1028533D01*
X1030666Y331533D01*
Y332066D01*
X1030133Y332599D01*
X1029066D01*
X1028533Y332066D01*
X1104000D02*
X1103467Y332599D01*
X1102400D01*
X1101867Y332066D01*
Y331533D01*
X1102400Y331000D01*
X1103467D01*
X1104000Y330467D01*
Y329934D01*
X1103467Y329400D01*
X1102400D01*
X1101867Y329934D01*
X1105066Y329400D02*
X1106133D01*
X1105599D01*
Y332599D01*
X1105066Y332066D01*
D15*
X1111500Y94499D02*
Y92500D01*
X1105502D01*
Y94499D01*
X1111500Y103496D02*
X1105502D01*
X1107501Y105496D01*
X1105502Y107495D01*
X1111500D01*
X1105502Y113493D02*
Y111494D01*
Y112494D01*
X1110500D01*
X1111500Y111494D01*
Y110494D01*
X1110500Y109494D01*
X1111500Y115493D02*
X1105502D01*
X1107501Y117492D01*
X1105502Y119491D01*
X1111500D01*
Y127489D02*
X1107501Y131487D01*
X1111500Y143483D02*
Y139485D01*
X1107501Y143483D01*
X1106502D01*
X1105502Y142484D01*
Y140484D01*
X1106502Y139485D01*
Y145483D02*
X1105502Y146483D01*
Y148482D01*
X1106502Y149482D01*
X1110500D01*
X1111500Y148482D01*
Y146483D01*
X1110500Y145483D01*
X1106502D01*
X1111500Y155480D02*
Y151481D01*
X1107501Y155480D01*
X1106502D01*
X1105502Y154480D01*
Y152481D01*
X1106502Y151481D01*
X1111500Y161478D02*
Y157479D01*
X1107501Y161478D01*
X1106502D01*
X1105502Y160478D01*
Y158479D01*
X1106502Y157479D01*
X1111500Y169475D02*
Y171475D01*
X1105502D01*
Y169475D01*
X1111500Y180472D02*
X1105502D01*
Y183471D01*
X1106502Y184470D01*
X1108501D01*
X1109501Y183471D01*
Y180472D01*
Y182471D02*
X1111500Y184470D01*
X1105502Y190468D02*
Y186470D01*
X1111500D01*
Y190468D01*
X1108501Y186470D02*
Y188469D01*
X1105502Y192468D02*
X1109501D01*
X1111500Y194467D01*
X1109501Y196466D01*
X1105502D01*
X1107501Y198466D02*
Y199465D01*
X1108501D01*
Y198466D01*
X1107501D01*
X1110500D02*
Y199465D01*
X1111500D01*
Y198466D01*
X1110500D01*
X1106502Y209462D02*
X1105502Y210462D01*
Y212461D01*
X1106502Y213461D01*
X1110500D01*
X1111500Y212461D01*
Y210462D01*
X1110500Y209462D01*
X1106502D01*
X1111500Y215460D02*
X1110500D01*
Y216460D01*
X1111500D01*
Y215460D01*
X1106502Y220459D02*
X1105502Y221458D01*
Y223458D01*
X1106502Y224457D01*
X1110500D01*
X1111500Y223458D01*
Y221458D01*
X1110500Y220459D01*
X1106502D01*
X1111500Y226457D02*
X1110500D01*
Y227456D01*
X1111500D01*
Y226457D01*
X1106502Y231455D02*
X1105502Y232455D01*
Y234454D01*
X1106502Y235454D01*
X1107501D01*
X1108501Y234454D01*
Y233454D01*
Y234454D01*
X1109501Y235454D01*
X1110500D01*
X1111500Y234454D01*
Y232455D01*
X1110500Y231455D01*
M02*
