G04*
G04 #@! TF.GenerationSoftware,Altium Limited,Altium Designer,22.10.1 (41)*
G04*
G04 Layer_Color=65535*
%FSLAX25Y25*%
%MOIN*%
G70*
G04*
G04 #@! TF.SameCoordinates,D0DD9E95-2DC3-4DBF-B079-B465E915BBEF*
G04*
G04*
G04 #@! TF.FilePolarity,Positive*
G04*
G01*
G75*
%ADD10C,0.00787*%
%ADD11C,0.00500*%
%ADD12C,0.00984*%
%ADD13C,0.01000*%
%ADD14C,0.01500*%
D10*
X732788Y102621D02*
G03*
X732788Y102621I-394J0D01*
G01*
X1051538Y327621D02*
G03*
X1051538Y327621I-394J0D01*
G01*
X976538D02*
G03*
X976538Y327621I-394J0D01*
G01*
X901538D02*
G03*
X901538Y327621I-394J0D01*
G01*
X826538D02*
G03*
X826538Y327621I-394J0D01*
G01*
X751538D02*
G03*
X751538Y327621I-394J0D01*
G01*
X676541D02*
G03*
X676541Y327621I-394J0D01*
G01*
X601541D02*
G03*
X601541Y327621I-394J0D01*
G01*
X526537D02*
G03*
X526537Y327621I-394J0D01*
G01*
X451537D02*
G03*
X451537Y327621I-394J0D01*
G01*
X376537D02*
G03*
X376537Y327621I-394J0D01*
G01*
X301537D02*
G03*
X301537Y327621I-394J0D01*
G01*
X226537D02*
G03*
X226537Y327621I-394J0D01*
G01*
X151537D02*
G03*
X151537Y327621I-394J0D01*
G01*
X39037Y327621D02*
G03*
X39037Y327621I-394J0D01*
G01*
X20287Y252621D02*
G03*
X20287Y252621I-394J0D01*
G01*
X114037D02*
G03*
X114037Y252621I-394J0D01*
G01*
X189037D02*
G03*
X189037Y252621I-394J0D01*
G01*
X264037D02*
G03*
X264037Y252621I-394J0D01*
G01*
X339037D02*
G03*
X339037Y252621I-394J0D01*
G01*
X414037D02*
G03*
X414037Y252621I-394J0D01*
G01*
X489037D02*
G03*
X489037Y252621I-394J0D01*
G01*
X564037D02*
G03*
X564037Y252621I-394J0D01*
G01*
X639037D02*
G03*
X639037Y252621I-394J0D01*
G01*
X714038D02*
G03*
X714038Y252621I-394J0D01*
G01*
X789038D02*
G03*
X789038Y252621I-394J0D01*
G01*
X864038D02*
G03*
X864038Y252621I-394J0D01*
G01*
X939038D02*
G03*
X939038Y252621I-394J0D01*
G01*
X1032788D02*
G03*
X1032788Y252621I-394J0D01*
G01*
X48415Y177621D02*
G03*
X48415Y177621I-394J0D01*
G01*
X67165Y102620D02*
G03*
X67165Y102620I-394J0D01*
G01*
X170287Y177621D02*
G03*
X170287Y177621I-394J0D01*
G01*
X245287D02*
G03*
X245287Y177621I-394J0D01*
G01*
X320287D02*
G03*
X320287Y177621I-394J0D01*
G01*
X395287D02*
G03*
X395287Y177621I-394J0D01*
G01*
X470287D02*
G03*
X470287Y177621I-394J0D01*
G01*
X545287D02*
G03*
X545287Y177621I-394J0D01*
G01*
X620287D02*
G03*
X620287Y177621I-394J0D01*
G01*
X695287D02*
G03*
X695287Y177621I-394J0D01*
G01*
X770288D02*
G03*
X770288Y177621I-394J0D01*
G01*
X845288D02*
G03*
X845288Y177621I-394J0D01*
G01*
X920288D02*
G03*
X920288Y177621I-394J0D01*
G01*
X1023415D02*
G03*
X1023415Y177621I-394J0D01*
G01*
X1004663Y102620D02*
G03*
X1004663Y102620I-394J0D01*
G01*
X882788Y102621D02*
G03*
X882788Y102621I-394J0D01*
G01*
X807788D02*
G03*
X807788Y102621I-394J0D01*
G01*
X657787D02*
G03*
X657787Y102621I-394J0D01*
G01*
X582787D02*
G03*
X582787Y102621I-394J0D01*
G01*
X507787D02*
G03*
X507787Y102621I-394J0D01*
G01*
X432787D02*
G03*
X432787Y102621I-394J0D01*
G01*
X357787D02*
G03*
X357787Y102621I-394J0D01*
G01*
X282787D02*
G03*
X282787Y102621I-394J0D01*
G01*
X207787D02*
G03*
X207787Y102621I-394J0D01*
G01*
X10915Y27621D02*
G03*
X10915Y27621I-394J0D01*
G01*
X104663D02*
G03*
X104663Y27621I-394J0D01*
G01*
X198415D02*
G03*
X198415Y27621I-394J0D01*
G01*
X292163D02*
G03*
X292163Y27621I-394J0D01*
G01*
X573415Y27621D02*
G03*
X573415Y27621I-394J0D01*
G01*
X854663Y27621D02*
G03*
X854663Y27621I-394J0D01*
G01*
X948416D02*
G03*
X948416Y27621I-394J0D01*
G01*
X1042163D02*
G03*
X1042163Y27621I-394J0D01*
G01*
X23209Y109016D02*
X36791D01*
Y123976D01*
X23209D02*
X36791D01*
X23209Y109016D02*
Y123976D01*
D11*
X744796Y92503D02*
G03*
X751390Y85908I6594J0D01*
G01*
X759658Y107129D02*
G03*
X757690Y109097I-1969J0D01*
G01*
X759658Y107129D02*
G03*
X765131Y101656I5472J0D01*
G01*
X787709Y99688D02*
G03*
X785741Y101656I-1969J0D01*
G01*
X1063546Y317503D02*
G03*
X1070140Y310908I6594J0D01*
G01*
X1078408Y332129D02*
G03*
X1076439Y334097I-1969J0D01*
G01*
X1078408Y332129D02*
G03*
X1083880Y326656I5472J0D01*
G01*
X1106459Y324688D02*
G03*
X1104490Y326656I-1969J0D01*
G01*
X988546Y317503D02*
G03*
X995140Y310908I6594J0D01*
G01*
X1003408Y332129D02*
G03*
X1001440Y334097I-1969J0D01*
G01*
X1003408Y332129D02*
G03*
X1008881Y326656I5472J0D01*
G01*
X1031459Y324688D02*
G03*
X1029491Y326656I-1969J0D01*
G01*
X913546Y317503D02*
G03*
X920140Y310908I6594J0D01*
G01*
X928408Y332129D02*
G03*
X926440Y334097I-1969J0D01*
G01*
X928408Y332129D02*
G03*
X933881Y326656I5472J0D01*
G01*
X956459Y324688D02*
G03*
X954491Y326656I-1969J0D01*
G01*
X838546Y317503D02*
G03*
X845140Y310908I6594J0D01*
G01*
X853408Y332129D02*
G03*
X851440Y334097I-1969J0D01*
G01*
X853408Y332129D02*
G03*
X858881Y326656I5472J0D01*
G01*
X881459Y324688D02*
G03*
X879491Y326656I-1969J0D01*
G01*
X763546Y317503D02*
G03*
X770140Y310908I6594J0D01*
G01*
X778408Y332129D02*
G03*
X776440Y334097I-1969J0D01*
G01*
X778408Y332129D02*
G03*
X783881Y326656I5472J0D01*
G01*
X806459Y324688D02*
G03*
X804491Y326656I-1969J0D01*
G01*
X688549Y317503D02*
G03*
X695143Y310908I6594J0D01*
G01*
X703411Y332129D02*
G03*
X701442Y334097I-1969J0D01*
G01*
X703411Y332129D02*
G03*
X708883Y326656I5472J0D01*
G01*
X731462Y324688D02*
G03*
X729494Y326656I-1969J0D01*
G01*
X613549Y317503D02*
G03*
X620144Y310908I6594J0D01*
G01*
X628411Y332129D02*
G03*
X626443Y334097I-1969J0D01*
G01*
X628411Y332129D02*
G03*
X633884Y326656I5472J0D01*
G01*
X656463Y324688D02*
G03*
X654494Y326656I-1969J0D01*
G01*
X538545Y317503D02*
G03*
X545140Y310908I6594J0D01*
G01*
X553407Y332129D02*
G03*
X551439Y334097I-1969J0D01*
G01*
X553407Y332129D02*
G03*
X558880Y326656I5472J0D01*
G01*
X581459Y324688D02*
G03*
X579490Y326656I-1969J0D01*
G01*
X463545Y317503D02*
G03*
X470140Y310908I6594J0D01*
G01*
X478407Y332129D02*
G03*
X476439Y334097I-1969J0D01*
G01*
X478407Y332129D02*
G03*
X483880Y326656I5472J0D01*
G01*
X506459Y324688D02*
G03*
X504490Y326656I-1969J0D01*
G01*
X388545Y317503D02*
G03*
X395140Y310908I6594J0D01*
G01*
X403407Y332129D02*
G03*
X401439Y334097I-1969J0D01*
G01*
X403407Y332129D02*
G03*
X408880Y326656I5472J0D01*
G01*
X431459Y324688D02*
G03*
X429490Y326656I-1969J0D01*
G01*
X313545Y317503D02*
G03*
X320140Y310908I6594J0D01*
G01*
X328408Y332129D02*
G03*
X326439Y334097I-1969J0D01*
G01*
X328408Y332129D02*
G03*
X333880Y326656I5472J0D01*
G01*
X356459Y324688D02*
G03*
X354490Y326656I-1969J0D01*
G01*
X238545Y317503D02*
G03*
X245140Y310908I6594J0D01*
G01*
X253408Y332129D02*
G03*
X251439Y334097I-1969J0D01*
G01*
X253408Y332129D02*
G03*
X258880Y326656I5472J0D01*
G01*
X281459Y324688D02*
G03*
X279490Y326656I-1969J0D01*
G01*
X163545Y317503D02*
G03*
X170140Y310908I6594J0D01*
G01*
X178408Y332129D02*
G03*
X176439Y334097I-1969J0D01*
G01*
X178408Y332129D02*
G03*
X183880Y326656I5472J0D01*
G01*
X206459Y324688D02*
G03*
X204490Y326656I-1969J0D01*
G01*
X93959Y324688D02*
G03*
X91990Y326657I-1969J0D01*
G01*
X65908Y332129D02*
G03*
X71380Y326657I5472J0D01*
G01*
X65908Y332129D02*
G03*
X63939Y334098I-1969J0D01*
G01*
X51045Y317503D02*
G03*
X57640Y310909I6594J0D01*
G01*
X32295Y242503D02*
G03*
X38890Y235908I6594J0D01*
G01*
X47157Y257129D02*
G03*
X45189Y259097I-1969J0D01*
G01*
X47157Y257129D02*
G03*
X52630Y251656I5472J0D01*
G01*
X75209Y249688D02*
G03*
X73240Y251656I-1969J0D01*
G01*
X126045Y242503D02*
G03*
X132640Y235908I6594J0D01*
G01*
X140908Y257129D02*
G03*
X138939Y259097I-1969J0D01*
G01*
X140908Y257129D02*
G03*
X146380Y251656I5472J0D01*
G01*
X168959Y249688D02*
G03*
X166990Y251656I-1969J0D01*
G01*
X201045Y242503D02*
G03*
X207640Y235908I6594J0D01*
G01*
X215908Y257129D02*
G03*
X213939Y259097I-1969J0D01*
G01*
X215908Y257129D02*
G03*
X221380Y251656I5472J0D01*
G01*
X243959Y249688D02*
G03*
X241990Y251656I-1969J0D01*
G01*
X276045Y242503D02*
G03*
X282640Y235908I6594J0D01*
G01*
X290908Y257129D02*
G03*
X288939Y259097I-1969J0D01*
G01*
X290908Y257129D02*
G03*
X296380Y251656I5472J0D01*
G01*
X318959Y249688D02*
G03*
X316990Y251656I-1969J0D01*
G01*
X351045Y242503D02*
G03*
X357640Y235908I6594J0D01*
G01*
X365908Y257129D02*
G03*
X363939Y259097I-1969J0D01*
G01*
X365908Y257129D02*
G03*
X371380Y251656I5472J0D01*
G01*
X393959Y249688D02*
G03*
X391990Y251656I-1969J0D01*
G01*
X426045Y242503D02*
G03*
X432640Y235908I6594J0D01*
G01*
X440907Y257129D02*
G03*
X438939Y259097I-1969J0D01*
G01*
X440907Y257129D02*
G03*
X446380Y251656I5472J0D01*
G01*
X468959Y249688D02*
G03*
X466990Y251656I-1969J0D01*
G01*
X501045Y242503D02*
G03*
X507640Y235908I6594J0D01*
G01*
X515907Y257129D02*
G03*
X513939Y259097I-1969J0D01*
G01*
X515907Y257129D02*
G03*
X521380Y251656I5472J0D01*
G01*
X543959Y249688D02*
G03*
X541990Y251656I-1969J0D01*
G01*
X576045Y242503D02*
G03*
X582640Y235908I6594J0D01*
G01*
X590907Y257129D02*
G03*
X588939Y259097I-1969J0D01*
G01*
X590907Y257129D02*
G03*
X596380Y251656I5472J0D01*
G01*
X618959Y249688D02*
G03*
X616990Y251656I-1969J0D01*
G01*
X651045Y242503D02*
G03*
X657640Y235908I6594J0D01*
G01*
X665907Y257129D02*
G03*
X663939Y259097I-1969J0D01*
G01*
X665907Y257129D02*
G03*
X671380Y251656I5472J0D01*
G01*
X693959Y249688D02*
G03*
X691990Y251656I-1969J0D01*
G01*
X726046Y242503D02*
G03*
X732640Y235908I6594J0D01*
G01*
X740908Y257129D02*
G03*
X738940Y259097I-1969J0D01*
G01*
X740908Y257129D02*
G03*
X746381Y251656I5472J0D01*
G01*
X768959Y249688D02*
G03*
X766991Y251656I-1969J0D01*
G01*
X801046Y242503D02*
G03*
X807640Y235908I6594J0D01*
G01*
X815908Y257129D02*
G03*
X813940Y259097I-1969J0D01*
G01*
X815908Y257129D02*
G03*
X821381Y251656I5472J0D01*
G01*
X843959Y249688D02*
G03*
X841991Y251656I-1969J0D01*
G01*
X876046Y242503D02*
G03*
X882640Y235908I6594J0D01*
G01*
X890908Y257129D02*
G03*
X888940Y259097I-1969J0D01*
G01*
X890908Y257129D02*
G03*
X896381Y251656I5472J0D01*
G01*
X918959Y249688D02*
G03*
X916991Y251656I-1969J0D01*
G01*
X951046Y242503D02*
G03*
X957640Y235908I6594J0D01*
G01*
X965908Y257129D02*
G03*
X963940Y259097I-1969J0D01*
G01*
X965908Y257129D02*
G03*
X971381Y251656I5472J0D01*
G01*
X993959Y249688D02*
G03*
X991991Y251656I-1969J0D01*
G01*
X1044796Y242503D02*
G03*
X1051390Y235908I6594J0D01*
G01*
X1059658Y257129D02*
G03*
X1057689Y259097I-1969J0D01*
G01*
X1059658Y257129D02*
G03*
X1065130Y251656I5472J0D01*
G01*
X1087709Y249688D02*
G03*
X1085740Y251656I-1969J0D01*
G01*
X103337Y174688D02*
G03*
X101368Y176656I-1969J0D01*
G01*
X75285Y182129D02*
G03*
X80758Y176656I5472J0D01*
G01*
X75285Y182129D02*
G03*
X73317Y184098I-1969J0D01*
G01*
X60423Y167503D02*
G03*
X67018Y160908I6594J0D01*
G01*
X122087Y99687D02*
G03*
X120118Y101656I-1969J0D01*
G01*
X94035Y107128D02*
G03*
X99508Y101656I5472J0D01*
G01*
X94035Y107128D02*
G03*
X92067Y109097I-1969J0D01*
G01*
X79173Y92502D02*
G03*
X85768Y85908I6594J0D01*
G01*
X182295Y167503D02*
G03*
X188890Y160908I6594J0D01*
G01*
X197158Y182129D02*
G03*
X195189Y184097I-1969J0D01*
G01*
X197158Y182129D02*
G03*
X202630Y176656I5472J0D01*
G01*
X225209Y174688D02*
G03*
X223240Y176656I-1969J0D01*
G01*
X257295Y167503D02*
G03*
X263890Y160908I6594J0D01*
G01*
X272158Y182129D02*
G03*
X270189Y184097I-1969J0D01*
G01*
X272158Y182129D02*
G03*
X277630Y176656I5472J0D01*
G01*
X300209Y174688D02*
G03*
X298240Y176656I-1969J0D01*
G01*
X332295Y167503D02*
G03*
X338890Y160908I6594J0D01*
G01*
X347158Y182129D02*
G03*
X345189Y184097I-1969J0D01*
G01*
X347158Y182129D02*
G03*
X352630Y176656I5472J0D01*
G01*
X375209Y174688D02*
G03*
X373240Y176656I-1969J0D01*
G01*
X407295Y167503D02*
G03*
X413890Y160908I6594J0D01*
G01*
X422157Y182129D02*
G03*
X420189Y184097I-1969J0D01*
G01*
X422157Y182129D02*
G03*
X427630Y176656I5472J0D01*
G01*
X450209Y174688D02*
G03*
X448240Y176656I-1969J0D01*
G01*
X482295Y167503D02*
G03*
X488890Y160908I6594J0D01*
G01*
X497157Y182129D02*
G03*
X495189Y184097I-1969J0D01*
G01*
X497157Y182129D02*
G03*
X502630Y176656I5472J0D01*
G01*
X525209Y174688D02*
G03*
X523240Y176656I-1969J0D01*
G01*
X557295Y167503D02*
G03*
X563890Y160908I6594J0D01*
G01*
X572157Y182129D02*
G03*
X570189Y184097I-1969J0D01*
G01*
X572157Y182129D02*
G03*
X577630Y176656I5472J0D01*
G01*
X600209Y174688D02*
G03*
X598240Y176656I-1969J0D01*
G01*
X632295Y167503D02*
G03*
X638890Y160908I6594J0D01*
G01*
X647157Y182129D02*
G03*
X645189Y184097I-1969J0D01*
G01*
X647157Y182129D02*
G03*
X652630Y176656I5472J0D01*
G01*
X675209Y174688D02*
G03*
X673240Y176656I-1969J0D01*
G01*
X707295Y167503D02*
G03*
X713889Y160908I6594J0D01*
G01*
X722157Y182129D02*
G03*
X720189Y184097I-1969J0D01*
G01*
X722157Y182129D02*
G03*
X727630Y176656I5472J0D01*
G01*
X750208Y174688D02*
G03*
X748240Y176656I-1969J0D01*
G01*
X782296Y167503D02*
G03*
X788890Y160908I6594J0D01*
G01*
X797158Y182129D02*
G03*
X795190Y184097I-1969J0D01*
G01*
X797158Y182129D02*
G03*
X802631Y176656I5472J0D01*
G01*
X825209Y174688D02*
G03*
X823241Y176656I-1969J0D01*
G01*
X857296Y167503D02*
G03*
X863890Y160908I6594J0D01*
G01*
X872158Y182129D02*
G03*
X870190Y184097I-1969J0D01*
G01*
X872158Y182129D02*
G03*
X877631Y176656I5472J0D01*
G01*
X900209Y174688D02*
G03*
X898241Y176656I-1969J0D01*
G01*
X932296Y167503D02*
G03*
X938890Y160908I6594J0D01*
G01*
X947158Y182129D02*
G03*
X945190Y184097I-1969J0D01*
G01*
X947158Y182129D02*
G03*
X952631Y176656I5472J0D01*
G01*
X975209Y174688D02*
G03*
X973241Y176656I-1969J0D01*
G01*
X1035423Y167503D02*
G03*
X1042018Y160908I6594J0D01*
G01*
X1050286Y182129D02*
G03*
X1048317Y184097I-1969J0D01*
G01*
X1050286Y182129D02*
G03*
X1055758Y176656I5472J0D01*
G01*
X1078337Y174688D02*
G03*
X1076368Y176656I-1969J0D01*
G01*
X1059584Y99687D02*
G03*
X1057616Y101656I-1969J0D01*
G01*
X1031533Y107128D02*
G03*
X1037005Y101656I5472J0D01*
G01*
X1031533Y107128D02*
G03*
X1029564Y109097I-1969J0D01*
G01*
X1016671Y92502D02*
G03*
X1023265Y85908I6594J0D01*
G01*
X894796Y92503D02*
G03*
X901390Y85908I6594J0D01*
G01*
X909658Y107129D02*
G03*
X907690Y109097I-1969J0D01*
G01*
X909658Y107129D02*
G03*
X915131Y101656I5472J0D01*
G01*
X937709Y99688D02*
G03*
X935741Y101656I-1969J0D01*
G01*
X819796Y92503D02*
G03*
X826390Y85908I6594J0D01*
G01*
X834658Y107129D02*
G03*
X832690Y109097I-1969J0D01*
G01*
X834658Y107129D02*
G03*
X840131Y101656I5472J0D01*
G01*
X862709Y99688D02*
G03*
X860741Y101656I-1969J0D01*
G01*
X669795Y92503D02*
G03*
X676390Y85908I6594J0D01*
G01*
X684657Y107129D02*
G03*
X682689Y109097I-1969J0D01*
G01*
X684657Y107129D02*
G03*
X690130Y101656I5472J0D01*
G01*
X712709Y99688D02*
G03*
X710740Y101656I-1969J0D01*
G01*
X594795Y92503D02*
G03*
X601390Y85908I6594J0D01*
G01*
X609657Y107129D02*
G03*
X607689Y109097I-1969J0D01*
G01*
X609657Y107129D02*
G03*
X615130Y101656I5472J0D01*
G01*
X637709Y99688D02*
G03*
X635740Y101656I-1969J0D01*
G01*
X519795Y92503D02*
G03*
X526390Y85908I6594J0D01*
G01*
X534657Y107129D02*
G03*
X532689Y109097I-1969J0D01*
G01*
X534657Y107129D02*
G03*
X540130Y101656I5472J0D01*
G01*
X562709Y99688D02*
G03*
X560740Y101656I-1969J0D01*
G01*
X444795Y92503D02*
G03*
X451390Y85908I6594J0D01*
G01*
X459657Y107129D02*
G03*
X457689Y109097I-1969J0D01*
G01*
X459657Y107129D02*
G03*
X465130Y101656I5472J0D01*
G01*
X487709Y99688D02*
G03*
X485740Y101656I-1969J0D01*
G01*
X369795Y92503D02*
G03*
X376390Y85908I6594J0D01*
G01*
X384658Y107129D02*
G03*
X382689Y109097I-1969J0D01*
G01*
X384658Y107129D02*
G03*
X390130Y101656I5472J0D01*
G01*
X412709Y99688D02*
G03*
X410740Y101656I-1969J0D01*
G01*
X294795Y92503D02*
G03*
X301390Y85908I6594J0D01*
G01*
X309658Y107129D02*
G03*
X307689Y109097I-1969J0D01*
G01*
X309658Y107129D02*
G03*
X315130Y101656I5472J0D01*
G01*
X337709Y99688D02*
G03*
X335740Y101656I-1969J0D01*
G01*
X219795Y92503D02*
G03*
X226390Y85908I6594J0D01*
G01*
X234658Y107129D02*
G03*
X232689Y109097I-1969J0D01*
G01*
X234658Y107129D02*
G03*
X240130Y101656I5472J0D01*
G01*
X262709Y99688D02*
G03*
X260740Y101656I-1969J0D01*
G01*
X22923Y17503D02*
G03*
X29518Y10908I6594J0D01*
G01*
X37785Y32129D02*
G03*
X35817Y34097I-1969J0D01*
G01*
X37785Y32129D02*
G03*
X43258Y26656I5472J0D01*
G01*
X65837Y24688D02*
G03*
X63868Y26656I-1969J0D01*
G01*
X116671Y17503D02*
G03*
X123266Y10908I6594J0D01*
G01*
X131534Y32129D02*
G03*
X129565Y34097I-1969J0D01*
G01*
X131534Y32129D02*
G03*
X137006Y26656I5472J0D01*
G01*
X159585Y24688D02*
G03*
X157616Y26656I-1969J0D01*
G01*
X210423Y17503D02*
G03*
X217018Y10908I6594J0D01*
G01*
X225285Y32129D02*
G03*
X223317Y34097I-1969J0D01*
G01*
X225285Y32129D02*
G03*
X230758Y26656I5472J0D01*
G01*
X253337Y24688D02*
G03*
X251368Y26656I-1969J0D01*
G01*
X304171Y17503D02*
G03*
X310766Y10908I6594J0D01*
G01*
X319034Y32129D02*
G03*
X317065Y34097I-1969J0D01*
G01*
X319034Y32129D02*
G03*
X324506Y26656I5472J0D01*
G01*
X347085Y24688D02*
G03*
X345116Y26656I-1969J0D01*
G01*
X585423Y17503D02*
G03*
X592018Y10908I6594J0D01*
G01*
X600285Y32129D02*
G03*
X598317Y34097I-1969J0D01*
G01*
X600285Y32129D02*
G03*
X605758Y26656I5472J0D01*
G01*
X628337Y24688D02*
G03*
X626368Y26656I-1969J0D01*
G01*
X866671Y17503D02*
G03*
X873265Y10908I6594J0D01*
G01*
X881533Y32129D02*
G03*
X879564Y34097I-1969J0D01*
G01*
X881533Y32129D02*
G03*
X887005Y26656I5472J0D01*
G01*
X909584Y24688D02*
G03*
X907616Y26656I-1969J0D01*
G01*
X960424Y17503D02*
G03*
X967018Y10908I6594J0D01*
G01*
X975286Y32129D02*
G03*
X973317Y34097I-1969J0D01*
G01*
X975286Y32129D02*
G03*
X980758Y26656I5472J0D01*
G01*
X1003337Y24688D02*
G03*
X1001369Y26656I-1969J0D01*
G01*
X1054171Y17503D02*
G03*
X1060765Y10908I6594J0D01*
G01*
X1069033Y32129D02*
G03*
X1067064Y34097I-1969J0D01*
G01*
X1069033Y32129D02*
G03*
X1074505Y26656I5472J0D01*
G01*
X1097084Y24688D02*
G03*
X1095115Y26656I-1969J0D01*
G01*
D12*
X32953Y98976D02*
G03*
X32953Y98976I-492J0D01*
G01*
D13*
X1103639Y359647D02*
Y362347D01*
X63019Y59661D02*
Y62361D01*
X156767Y59661D02*
Y62361D01*
X250519Y59661D02*
Y62361D01*
X344267Y59661D02*
Y62361D01*
X625519Y59661D02*
Y62361D01*
X906767Y59661D02*
Y62361D01*
X1000520Y59661D02*
Y62361D01*
X1094267Y59661D02*
Y62361D01*
X1024488Y128666D02*
Y131366D01*
X902613Y128666D02*
Y131366D01*
X827613Y128666D02*
Y131366D01*
X752613Y128666D02*
Y131366D01*
X677613Y128666D02*
Y131366D01*
X602613Y128666D02*
Y131366D01*
X527613Y128666D02*
Y131366D01*
X452613Y128666D02*
Y131366D01*
X377613Y128666D02*
Y131366D01*
X302613Y128666D02*
Y131366D01*
X227613Y128666D02*
Y131366D01*
X86990Y128666D02*
Y131366D01*
X100519Y209661D02*
Y212361D01*
X222391Y209661D02*
Y212361D01*
X297391Y209661D02*
Y212361D01*
X372391Y209661D02*
Y212361D01*
X447391Y209661D02*
Y212361D01*
X522391Y209661D02*
Y212361D01*
X597391Y209661D02*
Y212361D01*
X672391Y209661D02*
Y212361D01*
X747391Y209661D02*
Y212361D01*
X822392Y209661D02*
Y212361D01*
X897392Y209661D02*
Y212361D01*
X972392Y209661D02*
Y212361D01*
X1075519Y209661D02*
Y212361D01*
X1052613Y278666D02*
Y281366D01*
X958863Y278666D02*
Y281366D01*
X883863Y278666D02*
Y281366D01*
X808863Y278666D02*
Y281366D01*
X733863Y278666D02*
Y281366D01*
X658863Y278666D02*
Y281366D01*
X583863Y278666D02*
Y281366D01*
X508863Y278666D02*
Y281366D01*
X433863Y278666D02*
Y281366D01*
X358863Y278666D02*
Y281366D01*
X283863Y278666D02*
Y281366D01*
X208863Y278666D02*
Y281366D01*
X133863Y278666D02*
Y281366D01*
X40113Y278666D02*
Y281366D01*
X91141Y359647D02*
Y362347D01*
X203641Y359647D02*
Y362347D01*
X278641Y359647D02*
Y362347D01*
X353641Y359647D02*
Y362347D01*
X503641Y359647D02*
Y362347D01*
X578641Y359647D02*
Y362347D01*
X653645Y359647D02*
Y362347D01*
X728645Y359647D02*
Y362347D01*
X803642Y359647D02*
Y362347D01*
X878642Y359647D02*
Y362347D01*
X953642Y359647D02*
Y362347D01*
X1028642Y359647D02*
Y362347D01*
X428641Y359647D02*
Y362347D01*
X787709Y98684D02*
Y99688D01*
X765131Y101656D02*
X785741D01*
X744796Y92503D02*
Y96322D01*
X751390Y85908D02*
X774816D01*
X1106459Y323684D02*
Y324688D01*
X1083880Y326656D02*
X1104490D01*
X1063546Y317503D02*
Y321322D01*
X1070140Y310908D02*
X1093565D01*
X1045128Y335740D02*
Y341646D01*
X1050640Y335740D02*
Y341646D01*
X1045128Y349520D02*
X1050640D01*
X1031459Y323684D02*
Y324688D01*
X1008881Y326656D02*
X1029491D01*
X988546Y317503D02*
Y321322D01*
X995140Y310908D02*
X1018566D01*
X970244Y336047D02*
Y341953D01*
X975756Y336047D02*
Y341953D01*
X970244Y349827D02*
X975756D01*
X895244Y336047D02*
Y341953D01*
X900756Y336047D02*
Y341953D01*
X895244Y349827D02*
X900756D01*
X956459Y323684D02*
Y324688D01*
X933881Y326656D02*
X954491D01*
X913546Y317503D02*
Y321322D01*
X920140Y310908D02*
X943566D01*
X881459Y323684D02*
Y324688D01*
X858881Y326656D02*
X879491D01*
X838546Y317503D02*
Y321322D01*
X845140Y310908D02*
X868566D01*
X820244Y336047D02*
Y341953D01*
X825756Y336047D02*
Y341953D01*
X820244Y349827D02*
X825756D01*
X806459Y323684D02*
Y324688D01*
X783881Y326656D02*
X804491D01*
X763546Y317503D02*
Y321322D01*
X770140Y310908D02*
X793566D01*
X745244Y336047D02*
Y341953D01*
X750756Y336047D02*
Y341953D01*
X745244Y349827D02*
X750756D01*
X731462Y323684D02*
Y324688D01*
X708883Y326656D02*
X729494D01*
X688549Y317503D02*
Y321322D01*
X695143Y310908D02*
X718568D01*
X670244Y336047D02*
Y341953D01*
X675756Y336047D02*
Y341953D01*
X670244Y349827D02*
X675756D01*
X595244Y336047D02*
Y341953D01*
X600756Y336047D02*
Y341953D01*
X595244Y349827D02*
X600756D01*
X656463Y323684D02*
Y324688D01*
X633884Y326656D02*
X654494D01*
X613549Y317503D02*
Y321322D01*
X620144Y310908D02*
X643569D01*
X581459Y323684D02*
Y324688D01*
X558880Y326656D02*
X579490D01*
X538545Y317503D02*
Y321322D01*
X545140Y310908D02*
X568565D01*
X520244Y336047D02*
Y341953D01*
X525756Y336047D02*
Y341953D01*
X520244Y349827D02*
X525756D01*
X506459Y323684D02*
Y324688D01*
X483880Y326656D02*
X504490D01*
X463545Y317503D02*
Y321322D01*
X470140Y310908D02*
X493565D01*
X445244Y336047D02*
Y341953D01*
X450756Y336047D02*
Y341953D01*
X445244Y349827D02*
X450756D01*
X431459Y323684D02*
Y324688D01*
X408880Y326656D02*
X429490D01*
X388545Y317503D02*
Y321322D01*
X395140Y310908D02*
X418565D01*
X370244Y336047D02*
Y341953D01*
X375756Y336047D02*
Y341953D01*
X370244Y349827D02*
X375756D01*
X333880Y326656D02*
X354490D01*
X313545Y317503D02*
Y321322D01*
X320140Y310908D02*
X343565D01*
X356459Y323684D02*
Y324688D01*
X295244Y336047D02*
Y341953D01*
X300756Y336047D02*
Y341953D01*
X295244Y349827D02*
X300756D01*
X281459Y323684D02*
Y324688D01*
X258880Y326656D02*
X279490D01*
X238545Y317503D02*
Y321322D01*
X245140Y310908D02*
X268565D01*
X220244Y336047D02*
Y341953D01*
X225756Y336047D02*
Y341953D01*
X220244Y349827D02*
X225756D01*
X206459Y323684D02*
Y324688D01*
X183880Y326656D02*
X204490D01*
X163545Y317503D02*
Y321322D01*
X170140Y310908D02*
X193565D01*
X145244Y336047D02*
Y341953D01*
X150756Y336047D02*
Y341953D01*
X145244Y349827D02*
X150756D01*
X32244Y336047D02*
Y341953D01*
X37756Y336047D02*
Y341953D01*
X32244Y349827D02*
X37756D01*
X57640Y310909D02*
X81065D01*
X51045Y317503D02*
Y321322D01*
X71380Y326657D02*
X91990D01*
X93959Y323684D02*
Y324688D01*
X23244Y266047D02*
Y271953D01*
X28756Y266047D02*
Y271953D01*
X23244Y279827D02*
X28756D01*
X75209Y248684D02*
Y249688D01*
X52630Y251656D02*
X73240D01*
X32295Y242503D02*
Y246322D01*
X38890Y235908D02*
X62315D01*
X107244Y261047D02*
Y266953D01*
X112756Y261047D02*
Y266953D01*
X107244Y274827D02*
X112756D01*
X168959Y248684D02*
Y249688D01*
X146380Y251656D02*
X166990D01*
X126045Y242503D02*
Y246322D01*
X132640Y235908D02*
X156065D01*
X182244Y261047D02*
Y266953D01*
X187756Y261047D02*
Y266953D01*
X182244Y274827D02*
X187756D01*
X243959Y248684D02*
Y249688D01*
X221380Y251656D02*
X241990D01*
X201045Y242503D02*
Y246322D01*
X207640Y235908D02*
X231065D01*
X257244Y261047D02*
Y266953D01*
X262756Y261047D02*
Y266953D01*
X257244Y274827D02*
X262756D01*
X296380Y251656D02*
X316990D01*
X276045Y242503D02*
Y246322D01*
X282640Y235908D02*
X306065D01*
X318959Y248684D02*
Y249688D01*
X332244Y261047D02*
Y266953D01*
X337756Y261047D02*
Y266953D01*
X332244Y274827D02*
X337756D01*
X393959Y248684D02*
Y249688D01*
X371380Y251656D02*
X391990D01*
X351045Y242503D02*
Y246322D01*
X357640Y235908D02*
X381065D01*
X407244Y261047D02*
Y266953D01*
X412756Y261047D02*
Y266953D01*
X407244Y274827D02*
X412756D01*
X468959Y248684D02*
Y249688D01*
X446380Y251656D02*
X466990D01*
X426045Y242503D02*
Y246322D01*
X432640Y235908D02*
X456065D01*
X482244Y261047D02*
Y266953D01*
X487756Y261047D02*
Y266953D01*
X482244Y274827D02*
X487756D01*
X543959Y248684D02*
Y249688D01*
X521380Y251656D02*
X541990D01*
X501045Y242503D02*
Y246322D01*
X507640Y235908D02*
X531065D01*
X557244Y261047D02*
Y266953D01*
X562756Y261047D02*
Y266953D01*
X557244Y274827D02*
X562756D01*
X618959Y248684D02*
Y249688D01*
X596380Y251656D02*
X616990D01*
X576045Y242503D02*
Y246322D01*
X582640Y235908D02*
X606065D01*
X693959Y248684D02*
Y249688D01*
X671380Y251656D02*
X691990D01*
X651045Y242503D02*
Y246322D01*
X657640Y235908D02*
X681065D01*
X632244Y261047D02*
Y266953D01*
X637756Y261047D02*
Y266953D01*
X632244Y274827D02*
X637756D01*
X707244Y261047D02*
Y266953D01*
X712756Y261047D02*
Y266953D01*
X707244Y274827D02*
X712756D01*
X768959Y248684D02*
Y249688D01*
X746381Y251656D02*
X766991D01*
X726046Y242503D02*
Y246322D01*
X732640Y235908D02*
X756066D01*
X782244Y261047D02*
Y266953D01*
X787756Y261047D02*
Y266953D01*
X782244Y274827D02*
X787756D01*
X843959Y248684D02*
Y249688D01*
X821381Y251656D02*
X841991D01*
X801046Y242503D02*
Y246322D01*
X807640Y235908D02*
X831066D01*
X862756Y261047D02*
Y266953D01*
X857244Y274827D02*
X862756D01*
X857244Y261047D02*
Y266953D01*
X918959Y248684D02*
Y249688D01*
X896381Y251656D02*
X916991D01*
X876046Y242503D02*
Y246322D01*
X882640Y235908D02*
X906066D01*
X993959Y248684D02*
Y249688D01*
X971381Y251656D02*
X991991D01*
X951046Y242503D02*
Y246322D01*
X957640Y235908D02*
X981066D01*
X932244Y261047D02*
Y266953D01*
X937756Y261047D02*
Y266953D01*
X932244Y274827D02*
X937756D01*
X1026244Y261047D02*
Y266953D01*
X1031756Y261047D02*
Y266953D01*
X1026244Y274827D02*
X1031756D01*
X1087709Y248684D02*
Y249688D01*
X1065130Y251656D02*
X1085740D01*
X1044796Y242503D02*
Y246322D01*
X1051390Y235908D02*
X1074815D01*
X67018Y160908D02*
X90443D01*
X60423Y167503D02*
Y171322D01*
X80758Y176656D02*
X101368D01*
X103337Y173684D02*
Y174688D01*
X85768Y85908D02*
X109193D01*
X79173Y92502D02*
Y96321D01*
X99508Y101656D02*
X120118D01*
X122087Y98684D02*
Y99687D01*
X41244Y186047D02*
Y191953D01*
X46756Y186047D02*
Y191953D01*
X41244Y199827D02*
X46756D01*
X163244Y186047D02*
Y191953D01*
X168756Y186047D02*
Y191953D01*
X163244Y199827D02*
X168756D01*
X225209Y173684D02*
Y174688D01*
X202630Y176656D02*
X223240D01*
X182295Y167503D02*
Y171322D01*
X188890Y160908D02*
X212315D01*
X238244Y186047D02*
Y191953D01*
X243756Y186047D02*
Y191953D01*
X238244Y199827D02*
X243756D01*
X300209Y173684D02*
Y174688D01*
X277630Y176656D02*
X298240D01*
X257295Y167503D02*
Y171322D01*
X263890Y160908D02*
X287315D01*
X313244Y186047D02*
Y191953D01*
X318756Y186047D02*
Y191953D01*
X313244Y199827D02*
X318756D01*
X375209Y173684D02*
Y174688D01*
X352630Y176656D02*
X373240D01*
X332295Y167503D02*
Y171322D01*
X338890Y160908D02*
X362315D01*
X450209Y173684D02*
Y174688D01*
X427630Y176656D02*
X448240D01*
X407295Y167503D02*
Y171322D01*
X413890Y160908D02*
X437315D01*
X388244Y186047D02*
Y191953D01*
X393756Y186047D02*
Y191953D01*
X388244Y199827D02*
X393756D01*
X463244Y186047D02*
Y191953D01*
X468756Y186047D02*
Y191953D01*
X463244Y199827D02*
X468756D01*
X525209Y173684D02*
Y174688D01*
X502630Y176656D02*
X523240D01*
X482295Y167503D02*
Y171322D01*
X488890Y160908D02*
X512315D01*
X538244Y186047D02*
Y191953D01*
X543756Y186047D02*
Y191953D01*
X538244Y199827D02*
X543756D01*
X577630Y176656D02*
X598240D01*
X557295Y167503D02*
Y171322D01*
X563890Y160908D02*
X587315D01*
X600209Y173684D02*
Y174688D01*
X675209Y173684D02*
Y174688D01*
X652630Y176656D02*
X673240D01*
X632295Y167503D02*
Y171322D01*
X638890Y160908D02*
X662315D01*
X613244Y186047D02*
Y191953D01*
X618756Y186047D02*
Y191953D01*
X613244Y199827D02*
X618756D01*
X688244Y186047D02*
Y191953D01*
X693756Y186047D02*
Y191953D01*
X688244Y199827D02*
X693756D01*
X750208Y173684D02*
Y174688D01*
X727630Y176656D02*
X748240D01*
X707295Y167503D02*
Y171322D01*
X713889Y160908D02*
X737315D01*
X763128Y186354D02*
Y192260D01*
X768640Y186354D02*
Y192260D01*
X763128Y200134D02*
X768640D01*
X825209Y173684D02*
Y174688D01*
X802631Y176656D02*
X823241D01*
X782296Y167503D02*
Y171322D01*
X788890Y160908D02*
X812315D01*
X900209Y173684D02*
Y174688D01*
X877631Y176656D02*
X898241D01*
X857296Y167503D02*
Y171322D01*
X863890Y160908D02*
X887316D01*
X838244Y186047D02*
Y191953D01*
X843756Y186047D02*
Y191953D01*
X838244Y199827D02*
X843756D01*
X975209Y173684D02*
Y174688D01*
X952631Y176656D02*
X973241D01*
X932296Y167503D02*
Y171322D01*
X938890Y160908D02*
X962316D01*
X913244Y186047D02*
Y191953D01*
X918756Y186047D02*
Y191953D01*
X913244Y199827D02*
X918756D01*
X1078337Y173684D02*
Y174688D01*
X1055758Y176656D02*
X1076368D01*
X1035423Y167503D02*
Y171322D01*
X1042018Y160908D02*
X1065443D01*
X1016244Y186047D02*
Y191953D01*
X1021756Y186047D02*
Y191953D01*
X1016244Y199827D02*
X1021756D01*
X1023265Y85908D02*
X1046690D01*
X1016671Y92502D02*
Y96321D01*
X1037005Y101656D02*
X1057616D01*
X1059584Y98684D02*
Y99687D01*
X998244Y111047D02*
Y116953D01*
X1003756Y111047D02*
Y116953D01*
X998244Y124827D02*
X1003756D01*
X937709Y98684D02*
Y99688D01*
X915131Y101656D02*
X935741D01*
X894796Y92503D02*
Y96322D01*
X901390Y85908D02*
X924816D01*
X876244Y111047D02*
Y116953D01*
X881756Y111047D02*
Y116953D01*
X876244Y124827D02*
X881756D01*
X862709Y98684D02*
Y99688D01*
X840131Y101656D02*
X860741D01*
X819796Y92503D02*
Y96322D01*
X826390Y85908D02*
X849816D01*
X801128Y111354D02*
Y117260D01*
X806640Y111354D02*
Y117260D01*
X801128Y125134D02*
X806640D01*
X726244Y111047D02*
Y116953D01*
X731756Y111047D02*
Y116953D01*
X726244Y124827D02*
X731756D01*
X712709Y98684D02*
Y99688D01*
X690130Y101656D02*
X710740D01*
X669795Y92503D02*
Y96322D01*
X676390Y85908D02*
X699815D01*
X651244Y111047D02*
Y116953D01*
X656756Y111047D02*
Y116953D01*
X651244Y124827D02*
X656756D01*
X637709Y98684D02*
Y99688D01*
X615130Y101656D02*
X635740D01*
X594795Y92503D02*
Y96322D01*
X601390Y85908D02*
X624815D01*
X576244Y111047D02*
Y116953D01*
X581756Y111047D02*
Y116953D01*
X576244Y124827D02*
X581756D01*
X562709Y98684D02*
Y99688D01*
X540130Y101656D02*
X560740D01*
X519795Y92503D02*
Y96322D01*
X526390Y85908D02*
X549815D01*
X501244Y111047D02*
Y116953D01*
X506756Y111047D02*
Y116953D01*
X501244Y124827D02*
X506756D01*
X487709Y98684D02*
Y99688D01*
X465130Y101656D02*
X485740D01*
X444795Y92503D02*
Y96322D01*
X451390Y85908D02*
X474815D01*
X426244Y111047D02*
Y116953D01*
X431756Y111047D02*
Y116953D01*
X426244Y124827D02*
X431756D01*
X412709Y98684D02*
Y99688D01*
X390130Y101656D02*
X410740D01*
X369795Y92503D02*
Y96322D01*
X376390Y85908D02*
X399815D01*
X351244Y111047D02*
Y116953D01*
X356756Y111047D02*
Y116953D01*
X351244Y124827D02*
X356756D01*
X337709Y98684D02*
Y99688D01*
X315130Y101656D02*
X335740D01*
X294795Y92503D02*
Y96322D01*
X301390Y85908D02*
X324815D01*
X276244Y111047D02*
Y116953D01*
X281756Y111047D02*
Y116953D01*
X276244Y124827D02*
X281756D01*
X262709Y98684D02*
Y99688D01*
X240130Y101656D02*
X260740D01*
X219795Y92503D02*
Y96322D01*
X226390Y85908D02*
X249815D01*
X201244Y111047D02*
Y116953D01*
X206756Y111047D02*
Y116953D01*
X201244Y124827D02*
X206756D01*
X60244Y111047D02*
Y116953D01*
X65756Y111047D02*
Y116953D01*
X60244Y124827D02*
X65756D01*
X14244Y41047D02*
Y46953D01*
X19756Y41047D02*
Y46953D01*
X14244Y54827D02*
X19756D01*
X43258Y26656D02*
X63868D01*
X22923Y17503D02*
Y21322D01*
X29518Y10908D02*
X52943D01*
X65837Y23684D02*
Y24688D01*
X98244Y49827D02*
X103756D01*
X98244Y36047D02*
Y41953D01*
X103756Y36047D02*
Y41953D01*
X159585Y23684D02*
Y24688D01*
X137006Y26656D02*
X157616D01*
X116671Y17503D02*
Y21322D01*
X123266Y10908D02*
X146691D01*
X192244Y36047D02*
Y41953D01*
X197756Y36047D02*
Y41953D01*
X192244Y49827D02*
X197756D01*
X253337Y23684D02*
Y24688D01*
X230758Y26656D02*
X251368D01*
X210423Y17503D02*
Y21322D01*
X217018Y10908D02*
X240443D01*
X285244Y36047D02*
Y41953D01*
X290756Y36047D02*
Y41953D01*
X285244Y49827D02*
X290756D01*
X347085Y23684D02*
Y24688D01*
X324506Y26656D02*
X345116D01*
X304171Y17503D02*
Y21322D01*
X310766Y10908D02*
X334191D01*
X628337Y23684D02*
Y24688D01*
X605758Y26656D02*
X626368D01*
X585423Y17503D02*
Y21322D01*
X592018Y10908D02*
X615443D01*
X567244Y36047D02*
Y41953D01*
X572756Y36047D02*
Y41953D01*
X567244Y49827D02*
X572756D01*
X909584Y23684D02*
Y24688D01*
X887005Y26656D02*
X907616D01*
X866671Y17503D02*
Y21322D01*
X873265Y10908D02*
X896690D01*
X848244Y36047D02*
Y41953D01*
X853756Y36047D02*
Y41953D01*
X848244Y49827D02*
X853756D01*
X1003337Y23684D02*
Y24688D01*
X980758Y26656D02*
X1001369D01*
X960424Y17503D02*
Y21322D01*
X967018Y10908D02*
X990443D01*
X942244Y36047D02*
Y41953D01*
X947756Y36047D02*
Y41953D01*
X942244Y49827D02*
X947756D01*
X1097084Y23684D02*
Y24688D01*
X1074505Y26656D02*
X1095115D01*
X1054171Y17503D02*
Y21322D01*
X1060765Y10908D02*
X1084190D01*
X1035244Y36047D02*
Y41953D01*
X1040756Y36047D02*
Y41953D01*
X1035244Y49827D02*
X1040756D01*
X526752Y28508D02*
Y32839D01*
X461594D02*
X526752D01*
X461594Y28508D02*
Y32839D01*
X516221Y13803D02*
X515154D01*
X515687D01*
Y10604D01*
X516221Y11137D01*
X471174Y13803D02*
X473307D01*
X471174Y11671D01*
Y11137D01*
X471708Y10604D01*
X472774D01*
X473307Y11137D01*
X470108D02*
X469575Y10604D01*
X468509D01*
X467976Y11137D01*
Y13270D01*
X468509Y13803D01*
X469575D01*
X470108Y13270D01*
Y11137D01*
X16867Y98400D02*
Y101600D01*
X18467D01*
X19000Y101066D01*
Y100000D01*
X18467Y99467D01*
X16867D01*
X20066Y98400D02*
X21133D01*
X20599D01*
Y101600D01*
X20066Y101066D01*
X463433Y40299D02*
X462366D01*
X462899D01*
Y37633D01*
X462366Y37100D01*
X461833D01*
X461300Y37633D01*
X464499Y37100D02*
X465565D01*
X465032D01*
Y40299D01*
X464499Y39766D01*
X969867Y182066D02*
X969334Y182599D01*
X968268D01*
X967735Y182066D01*
Y181533D01*
X968268Y181000D01*
X969334D01*
X969867Y180467D01*
Y179934D01*
X969334Y179401D01*
X968268D01*
X967735Y179934D01*
X970934Y182066D02*
X971467Y182599D01*
X972533D01*
X973066Y182066D01*
Y181533D01*
X972533Y181000D01*
X972000D01*
X972533D01*
X973066Y180467D01*
Y179934D01*
X972533Y179401D01*
X971467D01*
X970934Y179934D01*
X974133Y182066D02*
X974666Y182599D01*
X975732D01*
X976265Y182066D01*
Y179934D01*
X975732Y179401D01*
X974666D01*
X974133Y179934D01*
Y182066D01*
X988134Y257066D02*
X987601Y257599D01*
X986535D01*
X986001Y257066D01*
Y256533D01*
X986535Y256000D01*
X987601D01*
X988134Y255467D01*
Y254934D01*
X987601Y254400D01*
X986535D01*
X986001Y254934D01*
X989200Y254400D02*
X990267D01*
X989733D01*
Y257599D01*
X989200Y257066D01*
X993999Y257599D02*
X992932Y257066D01*
X991866Y256000D01*
Y254934D01*
X992399Y254400D01*
X993466D01*
X993999Y254934D01*
Y255467D01*
X993466Y256000D01*
X991866D01*
X41069Y67400D02*
Y70600D01*
X42668D01*
X43202Y70066D01*
Y69000D01*
X42668Y68467D01*
X41069D01*
X42135D02*
X43202Y67400D01*
X46400Y70066D02*
X45867Y70600D01*
X44801D01*
X44268Y70066D01*
Y67934D01*
X44801Y67400D01*
X45867D01*
X46400Y67934D01*
Y69000D01*
X45334D01*
X47467Y70600D02*
Y67400D01*
X49066D01*
X49599Y67934D01*
Y68467D01*
X49066Y69000D01*
X47467D01*
X49066D01*
X49599Y69533D01*
Y70066D01*
X49066Y70600D01*
X47467D01*
X52798D02*
X51732Y70066D01*
X50666Y69000D01*
Y67934D01*
X51199Y67400D01*
X52265D01*
X52798Y67934D01*
Y68467D01*
X52265Y69000D01*
X50666D01*
X53865Y67400D02*
X54931D01*
X54398D01*
Y70600D01*
X53865Y70066D01*
X132536Y67400D02*
Y70600D01*
X134135D01*
X134668Y70066D01*
Y69000D01*
X134135Y68467D01*
X132536D01*
X133602D02*
X134668Y67400D01*
X137867Y70066D02*
X137334Y70600D01*
X136268D01*
X135735Y70066D01*
Y67934D01*
X136268Y67400D01*
X137334D01*
X137867Y67934D01*
Y69000D01*
X136801D01*
X138934Y70600D02*
Y67400D01*
X140533D01*
X141066Y67934D01*
Y68467D01*
X140533Y69000D01*
X138934D01*
X140533D01*
X141066Y69533D01*
Y70066D01*
X140533Y70600D01*
X138934D01*
X144265D02*
X143199Y70066D01*
X142133Y69000D01*
Y67934D01*
X142666Y67400D01*
X143732D01*
X144265Y67934D01*
Y68467D01*
X143732Y69000D01*
X142133D01*
X145332Y70066D02*
X145865Y70600D01*
X146931D01*
X147464Y70066D01*
Y67934D01*
X146931Y67400D01*
X145865D01*
X145332Y67934D01*
Y70066D01*
X227536Y67400D02*
Y70600D01*
X229135D01*
X229668Y70066D01*
Y69000D01*
X229135Y68467D01*
X227536D01*
X228602D02*
X229668Y67400D01*
X232867Y70066D02*
X232334Y70600D01*
X231268D01*
X230735Y70066D01*
Y67934D01*
X231268Y67400D01*
X232334D01*
X232867Y67934D01*
Y69000D01*
X231801D01*
X233934Y70600D02*
Y67400D01*
X235533D01*
X236066Y67934D01*
Y68467D01*
X235533Y69000D01*
X233934D01*
X235533D01*
X236066Y69533D01*
Y70066D01*
X235533Y70600D01*
X233934D01*
X239265D02*
X237133D01*
Y69000D01*
X238199Y69533D01*
X238732D01*
X239265Y69000D01*
Y67934D01*
X238732Y67400D01*
X237666D01*
X237133Y67934D01*
X240332D02*
X240865Y67400D01*
X241931D01*
X242464Y67934D01*
Y70066D01*
X241931Y70600D01*
X240865D01*
X240332Y70066D01*
Y69533D01*
X240865Y69000D01*
X242464D01*
X321536Y68401D02*
Y71600D01*
X323135D01*
X323668Y71066D01*
Y70000D01*
X323135Y69467D01*
X321536D01*
X322602D02*
X323668Y68401D01*
X326867Y71066D02*
X326334Y71600D01*
X325268D01*
X324735Y71066D01*
Y68934D01*
X325268Y68401D01*
X326334D01*
X326867Y68934D01*
Y70000D01*
X325801D01*
X327934Y71600D02*
Y68401D01*
X329533D01*
X330066Y68934D01*
Y69467D01*
X329533Y70000D01*
X327934D01*
X329533D01*
X330066Y70533D01*
Y71066D01*
X329533Y71600D01*
X327934D01*
X333265D02*
X331133D01*
Y70000D01*
X332199Y70533D01*
X332732D01*
X333265Y70000D01*
Y68934D01*
X332732Y68401D01*
X331666D01*
X331133Y68934D01*
X334332Y71066D02*
X334865Y71600D01*
X335931D01*
X336464Y71066D01*
Y70533D01*
X335931Y70000D01*
X336464Y69467D01*
Y68934D01*
X335931Y68401D01*
X334865D01*
X334332Y68934D01*
Y69467D01*
X334865Y70000D01*
X334332Y70533D01*
Y71066D01*
X334865Y70000D02*
X335931D01*
X602536Y67400D02*
Y70600D01*
X604135D01*
X604668Y70066D01*
Y69000D01*
X604135Y68467D01*
X602536D01*
X603602D02*
X604668Y67400D01*
X607867Y70066D02*
X607334Y70600D01*
X606268D01*
X605735Y70066D01*
Y67934D01*
X606268Y67400D01*
X607334D01*
X607867Y67934D01*
Y69000D01*
X606801D01*
X608934Y70600D02*
Y67400D01*
X610533D01*
X611066Y67934D01*
Y68467D01*
X610533Y69000D01*
X608934D01*
X610533D01*
X611066Y69533D01*
Y70066D01*
X610533Y70600D01*
X608934D01*
X614265D02*
X612133D01*
Y69000D01*
X613199Y69533D01*
X613732D01*
X614265Y69000D01*
Y67934D01*
X613732Y67400D01*
X612666D01*
X612133Y67934D01*
X615332Y70600D02*
X617464D01*
Y70066D01*
X615332Y67934D01*
Y67400D01*
X884536Y68401D02*
Y71600D01*
X886135D01*
X886668Y71066D01*
Y70000D01*
X886135Y69467D01*
X884536D01*
X885602D02*
X886668Y68401D01*
X889867Y71066D02*
X889334Y71600D01*
X888268D01*
X887735Y71066D01*
Y68934D01*
X888268Y68401D01*
X889334D01*
X889867Y68934D01*
Y70000D01*
X888801D01*
X890934Y71600D02*
Y68401D01*
X892533D01*
X893066Y68934D01*
Y69467D01*
X892533Y70000D01*
X890934D01*
X892533D01*
X893066Y70533D01*
Y71066D01*
X892533Y71600D01*
X890934D01*
X896265D02*
X894133D01*
Y70000D01*
X895199Y70533D01*
X895732D01*
X896265Y70000D01*
Y68934D01*
X895732Y68401D01*
X894666D01*
X894133Y68934D01*
X899464Y71600D02*
X898398Y71066D01*
X897332Y70000D01*
Y68934D01*
X897865Y68401D01*
X898931D01*
X899464Y68934D01*
Y69467D01*
X898931Y70000D01*
X897332D01*
X977536Y68401D02*
Y71600D01*
X979135D01*
X979668Y71066D01*
Y70000D01*
X979135Y69467D01*
X977536D01*
X978602D02*
X979668Y68401D01*
X982867Y71066D02*
X982334Y71600D01*
X981268D01*
X980735Y71066D01*
Y68934D01*
X981268Y68401D01*
X982334D01*
X982867Y68934D01*
Y70000D01*
X981801D01*
X983934Y71600D02*
Y68401D01*
X985533D01*
X986066Y68934D01*
Y69467D01*
X985533Y70000D01*
X983934D01*
X985533D01*
X986066Y70533D01*
Y71066D01*
X985533Y71600D01*
X983934D01*
X989265D02*
X987133D01*
Y70000D01*
X988199Y70533D01*
X988732D01*
X989265Y70000D01*
Y68934D01*
X988732Y68401D01*
X987666D01*
X987133Y68934D01*
X992464Y71600D02*
X990332D01*
Y70000D01*
X991398Y70533D01*
X991931D01*
X992464Y70000D01*
Y68934D01*
X991931Y68401D01*
X990865D01*
X990332Y68934D01*
X1071536Y68401D02*
Y71600D01*
X1073135D01*
X1073668Y71066D01*
Y70000D01*
X1073135Y69467D01*
X1071536D01*
X1072602D02*
X1073668Y68401D01*
X1076867Y71066D02*
X1076334Y71600D01*
X1075268D01*
X1074735Y71066D01*
Y68934D01*
X1075268Y68401D01*
X1076334D01*
X1076867Y68934D01*
Y70000D01*
X1075801D01*
X1077934Y71600D02*
Y68401D01*
X1079533D01*
X1080066Y68934D01*
Y69467D01*
X1079533Y70000D01*
X1077934D01*
X1079533D01*
X1080066Y70533D01*
Y71066D01*
X1079533Y71600D01*
X1077934D01*
X1083265D02*
X1081133D01*
Y70000D01*
X1082199Y70533D01*
X1082732D01*
X1083265Y70000D01*
Y68934D01*
X1082732Y68401D01*
X1081666D01*
X1081133Y68934D01*
X1085931Y68401D02*
Y71600D01*
X1084332Y70000D01*
X1086464D01*
X1034536Y144401D02*
Y147599D01*
X1036135D01*
X1036668Y147066D01*
Y146000D01*
X1036135Y145467D01*
X1034536D01*
X1035602D02*
X1036668Y144401D01*
X1039867Y147066D02*
X1039334Y147599D01*
X1038268D01*
X1037735Y147066D01*
Y144934D01*
X1038268Y144401D01*
X1039334D01*
X1039867Y144934D01*
Y146000D01*
X1038801D01*
X1040934Y147599D02*
Y144401D01*
X1042533D01*
X1043066Y144934D01*
Y145467D01*
X1042533Y146000D01*
X1040934D01*
X1042533D01*
X1043066Y146533D01*
Y147066D01*
X1042533Y147599D01*
X1040934D01*
X1046265D02*
X1044133D01*
Y146000D01*
X1045199Y146533D01*
X1045732D01*
X1046265Y146000D01*
Y144934D01*
X1045732Y144401D01*
X1044666D01*
X1044133Y144934D01*
X1047332Y147066D02*
X1047865Y147599D01*
X1048931D01*
X1049464Y147066D01*
Y146533D01*
X1048931Y146000D01*
X1048398D01*
X1048931D01*
X1049464Y145467D01*
Y144934D01*
X1048931Y144401D01*
X1047865D01*
X1047332Y144934D01*
X911536Y143401D02*
Y146599D01*
X913135D01*
X913668Y146066D01*
Y145000D01*
X913135Y144467D01*
X911536D01*
X912602D02*
X913668Y143401D01*
X916867Y146066D02*
X916334Y146599D01*
X915268D01*
X914735Y146066D01*
Y143934D01*
X915268Y143401D01*
X916334D01*
X916867Y143934D01*
Y145000D01*
X915801D01*
X917934Y146599D02*
Y143401D01*
X919533D01*
X920066Y143934D01*
Y144467D01*
X919533Y145000D01*
X917934D01*
X919533D01*
X920066Y145533D01*
Y146066D01*
X919533Y146599D01*
X917934D01*
X923265D02*
X921133D01*
Y145000D01*
X922199Y145533D01*
X922732D01*
X923265Y145000D01*
Y143934D01*
X922732Y143401D01*
X921666D01*
X921133Y143934D01*
X926464Y143401D02*
X924332D01*
X926464Y145533D01*
Y146066D01*
X925931Y146599D01*
X924865D01*
X924332Y146066D01*
X836069Y142401D02*
Y145599D01*
X837668D01*
X838202Y145066D01*
Y144000D01*
X837668Y143467D01*
X836069D01*
X837135D02*
X838202Y142401D01*
X841401Y145066D02*
X840867Y145599D01*
X839801D01*
X839268Y145066D01*
Y142934D01*
X839801Y142401D01*
X840867D01*
X841401Y142934D01*
Y144000D01*
X840334D01*
X842467Y145599D02*
Y142401D01*
X844066D01*
X844600Y142934D01*
Y143467D01*
X844066Y144000D01*
X842467D01*
X844066D01*
X844600Y144533D01*
Y145066D01*
X844066Y145599D01*
X842467D01*
X847799D02*
X845666D01*
Y144000D01*
X846732Y144533D01*
X847265D01*
X847799Y144000D01*
Y142934D01*
X847265Y142401D01*
X846199D01*
X845666Y142934D01*
X848865Y142401D02*
X849931D01*
X849398D01*
Y145599D01*
X848865Y145066D01*
X761536Y143401D02*
Y146599D01*
X763135D01*
X763668Y146066D01*
Y145000D01*
X763135Y144467D01*
X761536D01*
X762602D02*
X763668Y143401D01*
X766867Y146066D02*
X766334Y146599D01*
X765268D01*
X764735Y146066D01*
Y143934D01*
X765268Y143401D01*
X766334D01*
X766867Y143934D01*
Y145000D01*
X765801D01*
X767934Y146599D02*
Y143401D01*
X769533D01*
X770066Y143934D01*
Y144467D01*
X769533Y145000D01*
X767934D01*
X769533D01*
X770066Y145533D01*
Y146066D01*
X769533Y146599D01*
X767934D01*
X773265D02*
X771133D01*
Y145000D01*
X772199Y145533D01*
X772732D01*
X773265Y145000D01*
Y143934D01*
X772732Y143401D01*
X771666D01*
X771133Y143934D01*
X774332Y146066D02*
X774865Y146599D01*
X775931D01*
X776464Y146066D01*
Y143934D01*
X775931Y143401D01*
X774865D01*
X774332Y143934D01*
Y146066D01*
X686536Y144401D02*
Y147599D01*
X688135D01*
X688668Y147066D01*
Y146000D01*
X688135Y145467D01*
X686536D01*
X687602D02*
X688668Y144401D01*
X691867Y147066D02*
X691334Y147599D01*
X690268D01*
X689735Y147066D01*
Y144934D01*
X690268Y144401D01*
X691334D01*
X691867Y144934D01*
Y146000D01*
X690801D01*
X692934Y147599D02*
Y144401D01*
X694533D01*
X695066Y144934D01*
Y145467D01*
X694533Y146000D01*
X692934D01*
X694533D01*
X695066Y146533D01*
Y147066D01*
X694533Y147599D01*
X692934D01*
X697732Y144401D02*
Y147599D01*
X696133Y146000D01*
X698265D01*
X699332Y144934D02*
X699865Y144401D01*
X700931D01*
X701464Y144934D01*
Y147066D01*
X700931Y147599D01*
X699865D01*
X699332Y147066D01*
Y146533D01*
X699865Y146000D01*
X701464D01*
X611536Y144401D02*
Y147599D01*
X613135D01*
X613668Y147066D01*
Y146000D01*
X613135Y145467D01*
X611536D01*
X612602D02*
X613668Y144401D01*
X616867Y147066D02*
X616334Y147599D01*
X615268D01*
X614735Y147066D01*
Y144934D01*
X615268Y144401D01*
X616334D01*
X616867Y144934D01*
Y146000D01*
X615801D01*
X617934Y147599D02*
Y144401D01*
X619533D01*
X620066Y144934D01*
Y145467D01*
X619533Y146000D01*
X617934D01*
X619533D01*
X620066Y146533D01*
Y147066D01*
X619533Y147599D01*
X617934D01*
X622732Y144401D02*
Y147599D01*
X621133Y146000D01*
X623265D01*
X624332Y147066D02*
X624865Y147599D01*
X625931D01*
X626464Y147066D01*
Y146533D01*
X625931Y146000D01*
X626464Y145467D01*
Y144934D01*
X625931Y144401D01*
X624865D01*
X624332Y144934D01*
Y145467D01*
X624865Y146000D01*
X624332Y146533D01*
Y147066D01*
X624865Y146000D02*
X625931D01*
X551536Y143401D02*
Y146599D01*
X553135D01*
X553668Y146066D01*
Y145000D01*
X553135Y144467D01*
X551536D01*
X552602D02*
X553668Y143401D01*
X556867Y146066D02*
X556334Y146599D01*
X555268D01*
X554735Y146066D01*
Y143934D01*
X555268Y143401D01*
X556334D01*
X556867Y143934D01*
Y145000D01*
X555801D01*
X557934Y146599D02*
Y143401D01*
X559533D01*
X560066Y143934D01*
Y144467D01*
X559533Y145000D01*
X557934D01*
X559533D01*
X560066Y145533D01*
Y146066D01*
X559533Y146599D01*
X557934D01*
X562732Y143401D02*
Y146599D01*
X561133Y145000D01*
X563265D01*
X564332Y146599D02*
X566464D01*
Y146066D01*
X564332Y143934D01*
Y143401D01*
X461536Y144401D02*
Y147599D01*
X463135D01*
X463668Y147066D01*
Y146000D01*
X463135Y145467D01*
X461536D01*
X462602D02*
X463668Y144401D01*
X466867Y147066D02*
X466334Y147599D01*
X465268D01*
X464735Y147066D01*
Y144934D01*
X465268Y144401D01*
X466334D01*
X466867Y144934D01*
Y146000D01*
X465801D01*
X467934Y147599D02*
Y144401D01*
X469533D01*
X470066Y144934D01*
Y145467D01*
X469533Y146000D01*
X467934D01*
X469533D01*
X470066Y146533D01*
Y147066D01*
X469533Y147599D01*
X467934D01*
X472732Y144401D02*
Y147599D01*
X471133Y146000D01*
X473265D01*
X476464Y147599D02*
X475398Y147066D01*
X474332Y146000D01*
Y144934D01*
X474865Y144401D01*
X475931D01*
X476464Y144934D01*
Y145467D01*
X475931Y146000D01*
X474332D01*
X387536Y144401D02*
Y147599D01*
X389135D01*
X389668Y147066D01*
Y146000D01*
X389135Y145467D01*
X387536D01*
X388602D02*
X389668Y144401D01*
X392867Y147066D02*
X392334Y147599D01*
X391268D01*
X390735Y147066D01*
Y144934D01*
X391268Y144401D01*
X392334D01*
X392867Y144934D01*
Y146000D01*
X391801D01*
X393934Y147599D02*
Y144401D01*
X395533D01*
X396066Y144934D01*
Y145467D01*
X395533Y146000D01*
X393934D01*
X395533D01*
X396066Y146533D01*
Y147066D01*
X395533Y147599D01*
X393934D01*
X398732Y144401D02*
Y147599D01*
X397133Y146000D01*
X399265D01*
X402464Y147599D02*
X400332D01*
Y146000D01*
X401398Y146533D01*
X401931D01*
X402464Y146000D01*
Y144934D01*
X401931Y144401D01*
X400865D01*
X400332Y144934D01*
X312536Y144401D02*
Y147599D01*
X314135D01*
X314668Y147066D01*
Y146000D01*
X314135Y145467D01*
X312536D01*
X313602D02*
X314668Y144401D01*
X317867Y147066D02*
X317334Y147599D01*
X316268D01*
X315735Y147066D01*
Y144934D01*
X316268Y144401D01*
X317334D01*
X317867Y144934D01*
Y146000D01*
X316801D01*
X318934Y147599D02*
Y144401D01*
X320533D01*
X321066Y144934D01*
Y145467D01*
X320533Y146000D01*
X318934D01*
X320533D01*
X321066Y146533D01*
Y147066D01*
X320533Y147599D01*
X318934D01*
X323732Y144401D02*
Y147599D01*
X322133Y146000D01*
X324265D01*
X326931Y144401D02*
Y147599D01*
X325332Y146000D01*
X327464D01*
X237536Y143401D02*
Y146599D01*
X239135D01*
X239668Y146066D01*
Y145000D01*
X239135Y144467D01*
X237536D01*
X238602D02*
X239668Y143401D01*
X242867Y146066D02*
X242334Y146599D01*
X241268D01*
X240735Y146066D01*
Y143934D01*
X241268Y143401D01*
X242334D01*
X242867Y143934D01*
Y145000D01*
X241801D01*
X243934Y146599D02*
Y143401D01*
X245533D01*
X246066Y143934D01*
Y144467D01*
X245533Y145000D01*
X243934D01*
X245533D01*
X246066Y145533D01*
Y146066D01*
X245533Y146599D01*
X243934D01*
X248732Y143401D02*
Y146599D01*
X247133Y145000D01*
X249265D01*
X250332Y146066D02*
X250865Y146599D01*
X251931D01*
X252464Y146066D01*
Y145533D01*
X251931Y145000D01*
X251398D01*
X251931D01*
X252464Y144467D01*
Y143934D01*
X251931Y143401D01*
X250865D01*
X250332Y143934D01*
X95536Y143401D02*
Y146599D01*
X97135D01*
X97668Y146066D01*
Y145000D01*
X97135Y144467D01*
X95536D01*
X96602D02*
X97668Y143401D01*
X100867Y146066D02*
X100334Y146599D01*
X99268D01*
X98735Y146066D01*
Y143934D01*
X99268Y143401D01*
X100334D01*
X100867Y143934D01*
Y145000D01*
X99801D01*
X101934Y146599D02*
Y143401D01*
X103533D01*
X104066Y143934D01*
Y144467D01*
X103533Y145000D01*
X101934D01*
X103533D01*
X104066Y145533D01*
Y146066D01*
X103533Y146599D01*
X101934D01*
X106732Y143401D02*
Y146599D01*
X105133Y145000D01*
X107265D01*
X110464Y143401D02*
X108332D01*
X110464Y145533D01*
Y146066D01*
X109931Y146599D01*
X108865D01*
X108332Y146066D01*
X78069Y217401D02*
Y220600D01*
X79668D01*
X80202Y220066D01*
Y219000D01*
X79668Y218467D01*
X78069D01*
X79135D02*
X80202Y217401D01*
X83400Y220066D02*
X82867Y220600D01*
X81801D01*
X81268Y220066D01*
Y217934D01*
X81801Y217401D01*
X82867D01*
X83400Y217934D01*
Y219000D01*
X82334D01*
X84467Y220600D02*
Y217401D01*
X86066D01*
X86599Y217934D01*
Y218467D01*
X86066Y219000D01*
X84467D01*
X86066D01*
X86599Y219533D01*
Y220066D01*
X86066Y220600D01*
X84467D01*
X89265Y217401D02*
Y220600D01*
X87666Y219000D01*
X89798D01*
X90865Y217401D02*
X91931D01*
X91398D01*
Y220600D01*
X90865Y220066D01*
X199536Y218401D02*
Y221600D01*
X201135D01*
X201668Y221066D01*
Y220000D01*
X201135Y219467D01*
X199536D01*
X200602D02*
X201668Y218401D01*
X204867Y221066D02*
X204334Y221600D01*
X203268D01*
X202735Y221066D01*
Y218934D01*
X203268Y218401D01*
X204334D01*
X204867Y218934D01*
Y220000D01*
X203801D01*
X205934Y221600D02*
Y218401D01*
X207533D01*
X208066Y218934D01*
Y219467D01*
X207533Y220000D01*
X205934D01*
X207533D01*
X208066Y220533D01*
Y221066D01*
X207533Y221600D01*
X205934D01*
X210732Y218401D02*
Y221600D01*
X209133Y220000D01*
X211265D01*
X212332Y221066D02*
X212865Y221600D01*
X213931D01*
X214464Y221066D01*
Y218934D01*
X213931Y218401D01*
X212865D01*
X212332Y218934D01*
Y221066D01*
X274536Y217401D02*
Y220600D01*
X276135D01*
X276668Y220066D01*
Y219000D01*
X276135Y218467D01*
X274536D01*
X275602D02*
X276668Y217401D01*
X279867Y220066D02*
X279334Y220600D01*
X278268D01*
X277735Y220066D01*
Y217934D01*
X278268Y217401D01*
X279334D01*
X279867Y217934D01*
Y219000D01*
X278801D01*
X280934Y220600D02*
Y217401D01*
X282533D01*
X283066Y217934D01*
Y218467D01*
X282533Y219000D01*
X280934D01*
X282533D01*
X283066Y219533D01*
Y220066D01*
X282533Y220600D01*
X280934D01*
X284133Y220066D02*
X284666Y220600D01*
X285732D01*
X286265Y220066D01*
Y219533D01*
X285732Y219000D01*
X285199D01*
X285732D01*
X286265Y218467D01*
Y217934D01*
X285732Y217401D01*
X284666D01*
X284133Y217934D01*
X287332D02*
X287865Y217401D01*
X288931D01*
X289464Y217934D01*
Y220066D01*
X288931Y220600D01*
X287865D01*
X287332Y220066D01*
Y219533D01*
X287865Y219000D01*
X289464D01*
X348536Y217401D02*
Y220600D01*
X350135D01*
X350668Y220066D01*
Y219000D01*
X350135Y218467D01*
X348536D01*
X349602D02*
X350668Y217401D01*
X353867Y220066D02*
X353334Y220600D01*
X352268D01*
X351735Y220066D01*
Y217934D01*
X352268Y217401D01*
X353334D01*
X353867Y217934D01*
Y219000D01*
X352801D01*
X354934Y220600D02*
Y217401D01*
X356533D01*
X357066Y217934D01*
Y218467D01*
X356533Y219000D01*
X354934D01*
X356533D01*
X357066Y219533D01*
Y220066D01*
X356533Y220600D01*
X354934D01*
X358133Y220066D02*
X358666Y220600D01*
X359732D01*
X360265Y220066D01*
Y219533D01*
X359732Y219000D01*
X359199D01*
X359732D01*
X360265Y218467D01*
Y217934D01*
X359732Y217401D01*
X358666D01*
X358133Y217934D01*
X361332Y220066D02*
X361865Y220600D01*
X362931D01*
X363464Y220066D01*
Y219533D01*
X362931Y219000D01*
X363464Y218467D01*
Y217934D01*
X362931Y217401D01*
X361865D01*
X361332Y217934D01*
Y218467D01*
X361865Y219000D01*
X361332Y219533D01*
Y220066D01*
X361865Y219000D02*
X362931D01*
X424536Y218401D02*
Y221600D01*
X426135D01*
X426668Y221066D01*
Y220000D01*
X426135Y219467D01*
X424536D01*
X425602D02*
X426668Y218401D01*
X429867Y221066D02*
X429334Y221600D01*
X428268D01*
X427735Y221066D01*
Y218934D01*
X428268Y218401D01*
X429334D01*
X429867Y218934D01*
Y220000D01*
X428801D01*
X430934Y221600D02*
Y218401D01*
X432533D01*
X433066Y218934D01*
Y219467D01*
X432533Y220000D01*
X430934D01*
X432533D01*
X433066Y220533D01*
Y221066D01*
X432533Y221600D01*
X430934D01*
X434133Y221066D02*
X434666Y221600D01*
X435732D01*
X436265Y221066D01*
Y220533D01*
X435732Y220000D01*
X435199D01*
X435732D01*
X436265Y219467D01*
Y218934D01*
X435732Y218401D01*
X434666D01*
X434133Y218934D01*
X437332Y221600D02*
X439464D01*
Y221066D01*
X437332Y218934D01*
Y218401D01*
X499536Y217401D02*
Y220600D01*
X501135D01*
X501668Y220066D01*
Y219000D01*
X501135Y218467D01*
X499536D01*
X500602D02*
X501668Y217401D01*
X504867Y220066D02*
X504334Y220600D01*
X503268D01*
X502735Y220066D01*
Y217934D01*
X503268Y217401D01*
X504334D01*
X504867Y217934D01*
Y219000D01*
X503801D01*
X505934Y220600D02*
Y217401D01*
X507533D01*
X508066Y217934D01*
Y218467D01*
X507533Y219000D01*
X505934D01*
X507533D01*
X508066Y219533D01*
Y220066D01*
X507533Y220600D01*
X505934D01*
X509133Y220066D02*
X509666Y220600D01*
X510732D01*
X511265Y220066D01*
Y219533D01*
X510732Y219000D01*
X510199D01*
X510732D01*
X511265Y218467D01*
Y217934D01*
X510732Y217401D01*
X509666D01*
X509133Y217934D01*
X514464Y220600D02*
X513398Y220066D01*
X512332Y219000D01*
Y217934D01*
X512865Y217401D01*
X513931D01*
X514464Y217934D01*
Y218467D01*
X513931Y219000D01*
X512332D01*
X574536Y217401D02*
Y220600D01*
X576135D01*
X576668Y220066D01*
Y219000D01*
X576135Y218467D01*
X574536D01*
X575602D02*
X576668Y217401D01*
X579867Y220066D02*
X579334Y220600D01*
X578268D01*
X577735Y220066D01*
Y217934D01*
X578268Y217401D01*
X579334D01*
X579867Y217934D01*
Y219000D01*
X578801D01*
X580934Y220600D02*
Y217401D01*
X582533D01*
X583066Y217934D01*
Y218467D01*
X582533Y219000D01*
X580934D01*
X582533D01*
X583066Y219533D01*
Y220066D01*
X582533Y220600D01*
X580934D01*
X584133Y220066D02*
X584666Y220600D01*
X585732D01*
X586265Y220066D01*
Y219533D01*
X585732Y219000D01*
X585199D01*
X585732D01*
X586265Y218467D01*
Y217934D01*
X585732Y217401D01*
X584666D01*
X584133Y217934D01*
X589464Y220600D02*
X587332D01*
Y219000D01*
X588398Y219533D01*
X588931D01*
X589464Y219000D01*
Y217934D01*
X588931Y217401D01*
X587865D01*
X587332Y217934D01*
X649536Y217401D02*
Y220600D01*
X651135D01*
X651668Y220066D01*
Y219000D01*
X651135Y218467D01*
X649536D01*
X650602D02*
X651668Y217401D01*
X654867Y220066D02*
X654334Y220600D01*
X653268D01*
X652735Y220066D01*
Y217934D01*
X653268Y217401D01*
X654334D01*
X654867Y217934D01*
Y219000D01*
X653801D01*
X655934Y220600D02*
Y217401D01*
X657533D01*
X658066Y217934D01*
Y218467D01*
X657533Y219000D01*
X655934D01*
X657533D01*
X658066Y219533D01*
Y220066D01*
X657533Y220600D01*
X655934D01*
X659133Y220066D02*
X659666Y220600D01*
X660732D01*
X661265Y220066D01*
Y219533D01*
X660732Y219000D01*
X660199D01*
X660732D01*
X661265Y218467D01*
Y217934D01*
X660732Y217401D01*
X659666D01*
X659133Y217934D01*
X663931Y217401D02*
Y220600D01*
X662332Y219000D01*
X664464D01*
X724536Y217401D02*
Y220600D01*
X726135D01*
X726668Y220066D01*
Y219000D01*
X726135Y218467D01*
X724536D01*
X725602D02*
X726668Y217401D01*
X729867Y220066D02*
X729334Y220600D01*
X728268D01*
X727735Y220066D01*
Y217934D01*
X728268Y217401D01*
X729334D01*
X729867Y217934D01*
Y219000D01*
X728801D01*
X730934Y220600D02*
Y217401D01*
X732533D01*
X733066Y217934D01*
Y218467D01*
X732533Y219000D01*
X730934D01*
X732533D01*
X733066Y219533D01*
Y220066D01*
X732533Y220600D01*
X730934D01*
X734133Y220066D02*
X734666Y220600D01*
X735732D01*
X736265Y220066D01*
Y219533D01*
X735732Y219000D01*
X735199D01*
X735732D01*
X736265Y218467D01*
Y217934D01*
X735732Y217401D01*
X734666D01*
X734133Y217934D01*
X737332Y220066D02*
X737865Y220600D01*
X738931D01*
X739464Y220066D01*
Y219533D01*
X738931Y219000D01*
X738398D01*
X738931D01*
X739464Y218467D01*
Y217934D01*
X738931Y217401D01*
X737865D01*
X737332Y217934D01*
X799536Y217401D02*
Y220600D01*
X801135D01*
X801668Y220066D01*
Y219000D01*
X801135Y218467D01*
X799536D01*
X800602D02*
X801668Y217401D01*
X804867Y220066D02*
X804334Y220600D01*
X803268D01*
X802735Y220066D01*
Y217934D01*
X803268Y217401D01*
X804334D01*
X804867Y217934D01*
Y219000D01*
X803801D01*
X805934Y220600D02*
Y217401D01*
X807533D01*
X808066Y217934D01*
Y218467D01*
X807533Y219000D01*
X805934D01*
X807533D01*
X808066Y219533D01*
Y220066D01*
X807533Y220600D01*
X805934D01*
X809133Y220066D02*
X809666Y220600D01*
X810732D01*
X811265Y220066D01*
Y219533D01*
X810732Y219000D01*
X810199D01*
X810732D01*
X811265Y218467D01*
Y217934D01*
X810732Y217401D01*
X809666D01*
X809133Y217934D01*
X814464Y217401D02*
X812332D01*
X814464Y219533D01*
Y220066D01*
X813931Y220600D01*
X812865D01*
X812332Y220066D01*
X875069Y217401D02*
Y220600D01*
X876668D01*
X877201Y220066D01*
Y219000D01*
X876668Y218467D01*
X875069D01*
X876135D02*
X877201Y217401D01*
X880400Y220066D02*
X879867Y220600D01*
X878801D01*
X878268Y220066D01*
Y217934D01*
X878801Y217401D01*
X879867D01*
X880400Y217934D01*
Y219000D01*
X879334D01*
X881467Y220600D02*
Y217401D01*
X883066D01*
X883599Y217934D01*
Y218467D01*
X883066Y219000D01*
X881467D01*
X883066D01*
X883599Y219533D01*
Y220066D01*
X883066Y220600D01*
X881467D01*
X884666Y220066D02*
X885199Y220600D01*
X886265D01*
X886798Y220066D01*
Y219533D01*
X886265Y219000D01*
X885732D01*
X886265D01*
X886798Y218467D01*
Y217934D01*
X886265Y217401D01*
X885199D01*
X884666Y217934D01*
X887865Y217401D02*
X888931D01*
X888398D01*
Y220600D01*
X887865Y220066D01*
X949536Y217401D02*
Y220600D01*
X951135D01*
X951668Y220066D01*
Y219000D01*
X951135Y218467D01*
X949536D01*
X950602D02*
X951668Y217401D01*
X954867Y220066D02*
X954334Y220600D01*
X953268D01*
X952735Y220066D01*
Y217934D01*
X953268Y217401D01*
X954334D01*
X954867Y217934D01*
Y219000D01*
X953801D01*
X955934Y220600D02*
Y217401D01*
X957533D01*
X958066Y217934D01*
Y218467D01*
X957533Y219000D01*
X955934D01*
X957533D01*
X958066Y219533D01*
Y220066D01*
X957533Y220600D01*
X955934D01*
X959133Y220066D02*
X959666Y220600D01*
X960732D01*
X961265Y220066D01*
Y219533D01*
X960732Y219000D01*
X960199D01*
X960732D01*
X961265Y218467D01*
Y217934D01*
X960732Y217401D01*
X959666D01*
X959133Y217934D01*
X962332Y220066D02*
X962865Y220600D01*
X963931D01*
X964464Y220066D01*
Y217934D01*
X963931Y217401D01*
X962865D01*
X962332Y217934D01*
Y220066D01*
X1052536Y218401D02*
Y221600D01*
X1054135D01*
X1054668Y221066D01*
Y220000D01*
X1054135Y219467D01*
X1052536D01*
X1053602D02*
X1054668Y218401D01*
X1057867Y221066D02*
X1057334Y221600D01*
X1056268D01*
X1055735Y221066D01*
Y218934D01*
X1056268Y218401D01*
X1057334D01*
X1057867Y218934D01*
Y220000D01*
X1056801D01*
X1058934Y221600D02*
Y218401D01*
X1060533D01*
X1061066Y218934D01*
Y219467D01*
X1060533Y220000D01*
X1058934D01*
X1060533D01*
X1061066Y220533D01*
Y221066D01*
X1060533Y221600D01*
X1058934D01*
X1064265Y218401D02*
X1062133D01*
X1064265Y220533D01*
Y221066D01*
X1063732Y221600D01*
X1062666D01*
X1062133Y221066D01*
X1065332Y218934D02*
X1065865Y218401D01*
X1066931D01*
X1067464Y218934D01*
Y221066D01*
X1066931Y221600D01*
X1065865D01*
X1065332Y221066D01*
Y220533D01*
X1065865Y220000D01*
X1067464D01*
X1060536Y293401D02*
Y296600D01*
X1062135D01*
X1062668Y296066D01*
Y295000D01*
X1062135Y294467D01*
X1060536D01*
X1061602D02*
X1062668Y293401D01*
X1065867Y296066D02*
X1065334Y296600D01*
X1064268D01*
X1063735Y296066D01*
Y293934D01*
X1064268Y293401D01*
X1065334D01*
X1065867Y293934D01*
Y295000D01*
X1064801D01*
X1066934Y296600D02*
Y293401D01*
X1068533D01*
X1069066Y293934D01*
Y294467D01*
X1068533Y295000D01*
X1066934D01*
X1068533D01*
X1069066Y295533D01*
Y296066D01*
X1068533Y296600D01*
X1066934D01*
X1072265Y293401D02*
X1070133D01*
X1072265Y295533D01*
Y296066D01*
X1071732Y296600D01*
X1070666D01*
X1070133Y296066D01*
X1073332D02*
X1073865Y296600D01*
X1074931D01*
X1075464Y296066D01*
Y295533D01*
X1074931Y295000D01*
X1075464Y294467D01*
Y293934D01*
X1074931Y293401D01*
X1073865D01*
X1073332Y293934D01*
Y294467D01*
X1073865Y295000D01*
X1073332Y295533D01*
Y296066D01*
X1073865Y295000D02*
X1074931D01*
X969536Y294401D02*
Y297600D01*
X971135D01*
X971668Y297066D01*
Y296000D01*
X971135Y295467D01*
X969536D01*
X970602D02*
X971668Y294401D01*
X974867Y297066D02*
X974334Y297600D01*
X973268D01*
X972735Y297066D01*
Y294934D01*
X973268Y294401D01*
X974334D01*
X974867Y294934D01*
Y296000D01*
X973801D01*
X975934Y297600D02*
Y294401D01*
X977533D01*
X978066Y294934D01*
Y295467D01*
X977533Y296000D01*
X975934D01*
X977533D01*
X978066Y296533D01*
Y297066D01*
X977533Y297600D01*
X975934D01*
X981265Y294401D02*
X979133D01*
X981265Y296533D01*
Y297066D01*
X980732Y297600D01*
X979666D01*
X979133Y297066D01*
X982332Y297600D02*
X984464D01*
Y297066D01*
X982332Y294934D01*
Y294401D01*
X907536Y292401D02*
Y295600D01*
X909135D01*
X909668Y295066D01*
Y294000D01*
X909135Y293467D01*
X907536D01*
X908602D02*
X909668Y292401D01*
X912867Y295066D02*
X912334Y295600D01*
X911268D01*
X910735Y295066D01*
Y292934D01*
X911268Y292401D01*
X912334D01*
X912867Y292934D01*
Y294000D01*
X911801D01*
X913934Y295600D02*
Y292401D01*
X915533D01*
X916066Y292934D01*
Y293467D01*
X915533Y294000D01*
X913934D01*
X915533D01*
X916066Y294533D01*
Y295066D01*
X915533Y295600D01*
X913934D01*
X919265Y292401D02*
X917133D01*
X919265Y294533D01*
Y295066D01*
X918732Y295600D01*
X917666D01*
X917133Y295066D01*
X922464Y295600D02*
X921398Y295066D01*
X920332Y294000D01*
Y292934D01*
X920865Y292401D01*
X921931D01*
X922464Y292934D01*
Y293467D01*
X921931Y294000D01*
X920332D01*
X817536Y293401D02*
Y296600D01*
X819135D01*
X819668Y296066D01*
Y295000D01*
X819135Y294467D01*
X817536D01*
X818602D02*
X819668Y293401D01*
X822867Y296066D02*
X822334Y296600D01*
X821268D01*
X820735Y296066D01*
Y293934D01*
X821268Y293401D01*
X822334D01*
X822867Y293934D01*
Y295000D01*
X821801D01*
X823934Y296600D02*
Y293401D01*
X825533D01*
X826066Y293934D01*
Y294467D01*
X825533Y295000D01*
X823934D01*
X825533D01*
X826066Y295533D01*
Y296066D01*
X825533Y296600D01*
X823934D01*
X829265Y293401D02*
X827133D01*
X829265Y295533D01*
Y296066D01*
X828732Y296600D01*
X827666D01*
X827133Y296066D01*
X832464Y296600D02*
X830332D01*
Y295000D01*
X831398Y295533D01*
X831931D01*
X832464Y295000D01*
Y293934D01*
X831931Y293401D01*
X830865D01*
X830332Y293934D01*
X743536Y293401D02*
Y296600D01*
X745135D01*
X745668Y296066D01*
Y295000D01*
X745135Y294467D01*
X743536D01*
X744602D02*
X745668Y293401D01*
X748867Y296066D02*
X748334Y296600D01*
X747268D01*
X746735Y296066D01*
Y293934D01*
X747268Y293401D01*
X748334D01*
X748867Y293934D01*
Y295000D01*
X747801D01*
X749934Y296600D02*
Y293401D01*
X751533D01*
X752066Y293934D01*
Y294467D01*
X751533Y295000D01*
X749934D01*
X751533D01*
X752066Y295533D01*
Y296066D01*
X751533Y296600D01*
X749934D01*
X755265Y293401D02*
X753133D01*
X755265Y295533D01*
Y296066D01*
X754732Y296600D01*
X753666D01*
X753133Y296066D01*
X757931Y293401D02*
Y296600D01*
X756332Y295000D01*
X758464D01*
X668536Y293401D02*
Y296600D01*
X670135D01*
X670668Y296066D01*
Y295000D01*
X670135Y294467D01*
X668536D01*
X669602D02*
X670668Y293401D01*
X673867Y296066D02*
X673334Y296600D01*
X672268D01*
X671735Y296066D01*
Y293934D01*
X672268Y293401D01*
X673334D01*
X673867Y293934D01*
Y295000D01*
X672801D01*
X674934Y296600D02*
Y293401D01*
X676533D01*
X677066Y293934D01*
Y294467D01*
X676533Y295000D01*
X674934D01*
X676533D01*
X677066Y295533D01*
Y296066D01*
X676533Y296600D01*
X674934D01*
X680265Y293401D02*
X678133D01*
X680265Y295533D01*
Y296066D01*
X679732Y296600D01*
X678666D01*
X678133Y296066D01*
X681332D02*
X681865Y296600D01*
X682931D01*
X683464Y296066D01*
Y295533D01*
X682931Y295000D01*
X682398D01*
X682931D01*
X683464Y294467D01*
Y293934D01*
X682931Y293401D01*
X681865D01*
X681332Y293934D01*
X592536Y293401D02*
Y296600D01*
X594135D01*
X594668Y296066D01*
Y295000D01*
X594135Y294467D01*
X592536D01*
X593602D02*
X594668Y293401D01*
X597867Y296066D02*
X597334Y296600D01*
X596268D01*
X595735Y296066D01*
Y293934D01*
X596268Y293401D01*
X597334D01*
X597867Y293934D01*
Y295000D01*
X596801D01*
X598934Y296600D02*
Y293401D01*
X600533D01*
X601066Y293934D01*
Y294467D01*
X600533Y295000D01*
X598934D01*
X600533D01*
X601066Y295533D01*
Y296066D01*
X600533Y296600D01*
X598934D01*
X604265Y293401D02*
X602133D01*
X604265Y295533D01*
Y296066D01*
X603732Y296600D01*
X602666D01*
X602133Y296066D01*
X607464Y293401D02*
X605332D01*
X607464Y295533D01*
Y296066D01*
X606931Y296600D01*
X605865D01*
X605332Y296066D01*
X518069Y293401D02*
Y296600D01*
X519668D01*
X520201Y296066D01*
Y295000D01*
X519668Y294467D01*
X518069D01*
X519135D02*
X520201Y293401D01*
X523400Y296066D02*
X522867Y296600D01*
X521801D01*
X521268Y296066D01*
Y293934D01*
X521801Y293401D01*
X522867D01*
X523400Y293934D01*
Y295000D01*
X522334D01*
X524467Y296600D02*
Y293401D01*
X526066D01*
X526600Y293934D01*
Y294467D01*
X526066Y295000D01*
X524467D01*
X526066D01*
X526600Y295533D01*
Y296066D01*
X526066Y296600D01*
X524467D01*
X529798Y293401D02*
X527666D01*
X529798Y295533D01*
Y296066D01*
X529265Y296600D01*
X528199D01*
X527666Y296066D01*
X530865Y293401D02*
X531931D01*
X531398D01*
Y296600D01*
X530865Y296066D01*
X442536Y293401D02*
Y296600D01*
X444135D01*
X444668Y296066D01*
Y295000D01*
X444135Y294467D01*
X442536D01*
X443602D02*
X444668Y293401D01*
X447867Y296066D02*
X447334Y296600D01*
X446268D01*
X445735Y296066D01*
Y293934D01*
X446268Y293401D01*
X447334D01*
X447867Y293934D01*
Y295000D01*
X446801D01*
X448934Y296600D02*
Y293401D01*
X450533D01*
X451066Y293934D01*
Y294467D01*
X450533Y295000D01*
X448934D01*
X450533D01*
X451066Y295533D01*
Y296066D01*
X450533Y296600D01*
X448934D01*
X454265Y293401D02*
X452133D01*
X454265Y295533D01*
Y296066D01*
X453732Y296600D01*
X452666D01*
X452133Y296066D01*
X455332D02*
X455865Y296600D01*
X456931D01*
X457464Y296066D01*
Y293934D01*
X456931Y293401D01*
X455865D01*
X455332Y293934D01*
Y296066D01*
X368802Y293401D02*
Y296600D01*
X370402D01*
X370935Y296066D01*
Y295000D01*
X370402Y294467D01*
X368802D01*
X369869D02*
X370935Y293401D01*
X374134Y296066D02*
X373601Y296600D01*
X372534D01*
X372001Y296066D01*
Y293934D01*
X372534Y293401D01*
X373601D01*
X374134Y293934D01*
Y295000D01*
X373068D01*
X375200Y296600D02*
Y293401D01*
X376800D01*
X377333Y293934D01*
Y294467D01*
X376800Y295000D01*
X375200D01*
X376800D01*
X377333Y295533D01*
Y296066D01*
X376800Y296600D01*
X375200D01*
X378399Y293401D02*
X379466D01*
X378932D01*
Y296600D01*
X378399Y296066D01*
X381065Y293934D02*
X381598Y293401D01*
X382664D01*
X383198Y293934D01*
Y296066D01*
X382664Y296600D01*
X381598D01*
X381065Y296066D01*
Y295533D01*
X381598Y295000D01*
X383198D01*
X293802Y293401D02*
Y296600D01*
X295402D01*
X295935Y296066D01*
Y295000D01*
X295402Y294467D01*
X293802D01*
X294869D02*
X295935Y293401D01*
X299134Y296066D02*
X298601Y296600D01*
X297534D01*
X297001Y296066D01*
Y293934D01*
X297534Y293401D01*
X298601D01*
X299134Y293934D01*
Y295000D01*
X298068D01*
X300200Y296600D02*
Y293401D01*
X301800D01*
X302333Y293934D01*
Y294467D01*
X301800Y295000D01*
X300200D01*
X301800D01*
X302333Y295533D01*
Y296066D01*
X301800Y296600D01*
X300200D01*
X303399Y293401D02*
X304466D01*
X303932D01*
Y296600D01*
X303399Y296066D01*
X306065D02*
X306598Y296600D01*
X307664D01*
X308198Y296066D01*
Y295533D01*
X307664Y295000D01*
X308198Y294467D01*
Y293934D01*
X307664Y293401D01*
X306598D01*
X306065Y293934D01*
Y294467D01*
X306598Y295000D01*
X306065Y295533D01*
Y296066D01*
X306598Y295000D02*
X307664D01*
X231802Y292401D02*
Y295600D01*
X233402D01*
X233935Y295066D01*
Y294000D01*
X233402Y293467D01*
X231802D01*
X232869D02*
X233935Y292401D01*
X237134Y295066D02*
X236601Y295600D01*
X235535D01*
X235001Y295066D01*
Y292934D01*
X235535Y292401D01*
X236601D01*
X237134Y292934D01*
Y294000D01*
X236068D01*
X238200Y295600D02*
Y292401D01*
X239800D01*
X240333Y292934D01*
Y293467D01*
X239800Y294000D01*
X238200D01*
X239800D01*
X240333Y294533D01*
Y295066D01*
X239800Y295600D01*
X238200D01*
X241399Y292401D02*
X242466D01*
X241932D01*
Y295600D01*
X241399Y295066D01*
X244065Y295600D02*
X246198D01*
Y295066D01*
X244065Y292934D01*
Y292401D01*
X143802D02*
Y295600D01*
X145402D01*
X145935Y295066D01*
Y294000D01*
X145402Y293467D01*
X143802D01*
X144869D02*
X145935Y292401D01*
X149134Y295066D02*
X148601Y295600D01*
X147535D01*
X147001Y295066D01*
Y292934D01*
X147535Y292401D01*
X148601D01*
X149134Y292934D01*
Y294000D01*
X148068D01*
X150200Y295600D02*
Y292401D01*
X151800D01*
X152333Y292934D01*
Y293467D01*
X151800Y294000D01*
X150200D01*
X151800D01*
X152333Y294533D01*
Y295066D01*
X151800Y295600D01*
X150200D01*
X153399Y292401D02*
X154466D01*
X153932D01*
Y295600D01*
X153399Y295066D01*
X158198Y295600D02*
X157131Y295066D01*
X156065Y294000D01*
Y292934D01*
X156598Y292401D01*
X157665D01*
X158198Y292934D01*
Y293467D01*
X157665Y294000D01*
X156065D01*
X49802Y292401D02*
Y295600D01*
X51402D01*
X51935Y295066D01*
Y294000D01*
X51402Y293467D01*
X49802D01*
X50869D02*
X51935Y292401D01*
X55134Y295066D02*
X54601Y295600D01*
X53535D01*
X53001Y295066D01*
Y292934D01*
X53535Y292401D01*
X54601D01*
X55134Y292934D01*
Y294000D01*
X54068D01*
X56200Y295600D02*
Y292401D01*
X57800D01*
X58333Y292934D01*
Y293467D01*
X57800Y294000D01*
X56200D01*
X57800D01*
X58333Y294533D01*
Y295066D01*
X57800Y295600D01*
X56200D01*
X59399Y292401D02*
X60466D01*
X59932D01*
Y295600D01*
X59399Y295066D01*
X64198Y295600D02*
X62065D01*
Y294000D01*
X63131Y294533D01*
X63665D01*
X64198Y294000D01*
Y292934D01*
X63665Y292401D01*
X62598D01*
X62065Y292934D01*
X67802Y368401D02*
Y371600D01*
X69402D01*
X69935Y371066D01*
Y370000D01*
X69402Y369467D01*
X67802D01*
X68869D02*
X69935Y368401D01*
X73134Y371066D02*
X72601Y371600D01*
X71535D01*
X71001Y371066D01*
Y368934D01*
X71535Y368401D01*
X72601D01*
X73134Y368934D01*
Y370000D01*
X72068D01*
X74200Y371600D02*
Y368401D01*
X75800D01*
X76333Y368934D01*
Y369467D01*
X75800Y370000D01*
X74200D01*
X75800D01*
X76333Y370533D01*
Y371066D01*
X75800Y371600D01*
X74200D01*
X77399Y368401D02*
X78466D01*
X77932D01*
Y371600D01*
X77399Y371066D01*
X81665Y368401D02*
Y371600D01*
X80065Y370000D01*
X82198D01*
X179802Y368401D02*
Y371600D01*
X181402D01*
X181935Y371066D01*
Y370000D01*
X181402Y369467D01*
X179802D01*
X180869D02*
X181935Y368401D01*
X185134Y371066D02*
X184601Y371600D01*
X183535D01*
X183001Y371066D01*
Y368934D01*
X183535Y368401D01*
X184601D01*
X185134Y368934D01*
Y370000D01*
X184068D01*
X186200Y371600D02*
Y368401D01*
X187800D01*
X188333Y368934D01*
Y369467D01*
X187800Y370000D01*
X186200D01*
X187800D01*
X188333Y370533D01*
Y371066D01*
X187800Y371600D01*
X186200D01*
X189399Y368401D02*
X190466D01*
X189932D01*
Y371600D01*
X189399Y371066D01*
X192065D02*
X192598Y371600D01*
X193665D01*
X194198Y371066D01*
Y370533D01*
X193665Y370000D01*
X193131D01*
X193665D01*
X194198Y369467D01*
Y368934D01*
X193665Y368401D01*
X192598D01*
X192065Y368934D01*
X255802Y367401D02*
Y370600D01*
X257402D01*
X257935Y370066D01*
Y369000D01*
X257402Y368467D01*
X255802D01*
X256869D02*
X257935Y367401D01*
X261134Y370066D02*
X260601Y370600D01*
X259535D01*
X259001Y370066D01*
Y367934D01*
X259535Y367401D01*
X260601D01*
X261134Y367934D01*
Y369000D01*
X260068D01*
X262200Y370600D02*
Y367401D01*
X263800D01*
X264333Y367934D01*
Y368467D01*
X263800Y369000D01*
X262200D01*
X263800D01*
X264333Y369533D01*
Y370066D01*
X263800Y370600D01*
X262200D01*
X265399Y367401D02*
X266466D01*
X265932D01*
Y370600D01*
X265399Y370066D01*
X270198Y367401D02*
X268065D01*
X270198Y369533D01*
Y370066D01*
X269665Y370600D01*
X268598D01*
X268065Y370066D01*
X331335Y368401D02*
Y371600D01*
X332935D01*
X333468Y371066D01*
Y370000D01*
X332935Y369467D01*
X331335D01*
X332402D02*
X333468Y368401D01*
X336667Y371066D02*
X336134Y371600D01*
X335068D01*
X334535Y371066D01*
Y368934D01*
X335068Y368401D01*
X336134D01*
X336667Y368934D01*
Y370000D01*
X335601D01*
X337733Y371600D02*
Y368401D01*
X339333D01*
X339866Y368934D01*
Y369467D01*
X339333Y370000D01*
X337733D01*
X339333D01*
X339866Y370533D01*
Y371066D01*
X339333Y371600D01*
X337733D01*
X340932Y368401D02*
X341999D01*
X341466D01*
Y371600D01*
X340932Y371066D01*
X343598Y368401D02*
X344665D01*
X344131D01*
Y371600D01*
X343598Y371066D01*
X405802Y368401D02*
Y371600D01*
X407402D01*
X407935Y371066D01*
Y370000D01*
X407402Y369467D01*
X405802D01*
X406869D02*
X407935Y368401D01*
X411134Y371066D02*
X410601Y371600D01*
X409535D01*
X409001Y371066D01*
Y368934D01*
X409535Y368401D01*
X410601D01*
X411134Y368934D01*
Y370000D01*
X410068D01*
X412200Y371600D02*
Y368401D01*
X413800D01*
X414333Y368934D01*
Y369467D01*
X413800Y370000D01*
X412200D01*
X413800D01*
X414333Y370533D01*
Y371066D01*
X413800Y371600D01*
X412200D01*
X415399Y368401D02*
X416466D01*
X415932D01*
Y371600D01*
X415399Y371066D01*
X418065D02*
X418598Y371600D01*
X419664D01*
X420198Y371066D01*
Y368934D01*
X419664Y368401D01*
X418598D01*
X418065Y368934D01*
Y371066D01*
X482135Y367401D02*
Y370600D01*
X483735D01*
X484268Y370066D01*
Y369000D01*
X483735Y368467D01*
X482135D01*
X483202D02*
X484268Y367401D01*
X487467Y370066D02*
X486934Y370600D01*
X485867D01*
X485334Y370066D01*
Y367934D01*
X485867Y367401D01*
X486934D01*
X487467Y367934D01*
Y369000D01*
X486401D01*
X488533Y370600D02*
Y367401D01*
X490133D01*
X490666Y367934D01*
Y368467D01*
X490133Y369000D01*
X488533D01*
X490133D01*
X490666Y369533D01*
Y370066D01*
X490133Y370600D01*
X488533D01*
X491732Y367934D02*
X492265Y367401D01*
X493332D01*
X493865Y367934D01*
Y370066D01*
X493332Y370600D01*
X492265D01*
X491732Y370066D01*
Y369533D01*
X492265Y369000D01*
X493865D01*
X557135Y367401D02*
Y370600D01*
X558735D01*
X559268Y370066D01*
Y369000D01*
X558735Y368467D01*
X557135D01*
X558202D02*
X559268Y367401D01*
X562467Y370066D02*
X561934Y370600D01*
X560867D01*
X560334Y370066D01*
Y367934D01*
X560867Y367401D01*
X561934D01*
X562467Y367934D01*
Y369000D01*
X561401D01*
X563533Y370600D02*
Y367401D01*
X565133D01*
X565666Y367934D01*
Y368467D01*
X565133Y369000D01*
X563533D01*
X565133D01*
X565666Y369533D01*
Y370066D01*
X565133Y370600D01*
X563533D01*
X566732Y370066D02*
X567265Y370600D01*
X568332D01*
X568865Y370066D01*
Y369533D01*
X568332Y369000D01*
X568865Y368467D01*
Y367934D01*
X568332Y367401D01*
X567265D01*
X566732Y367934D01*
Y368467D01*
X567265Y369000D01*
X566732Y369533D01*
Y370066D01*
X567265Y369000D02*
X568332D01*
X632135Y367401D02*
Y370600D01*
X633735D01*
X634268Y370066D01*
Y369000D01*
X633735Y368467D01*
X632135D01*
X633202D02*
X634268Y367401D01*
X637467Y370066D02*
X636934Y370600D01*
X635867D01*
X635334Y370066D01*
Y367934D01*
X635867Y367401D01*
X636934D01*
X637467Y367934D01*
Y369000D01*
X636401D01*
X638533Y370600D02*
Y367401D01*
X640133D01*
X640666Y367934D01*
Y368467D01*
X640133Y369000D01*
X638533D01*
X640133D01*
X640666Y369533D01*
Y370066D01*
X640133Y370600D01*
X638533D01*
X641732D02*
X643865D01*
Y370066D01*
X641732Y367934D01*
Y367401D01*
X707135D02*
Y370600D01*
X708735D01*
X709268Y370066D01*
Y369000D01*
X708735Y368467D01*
X707135D01*
X708202D02*
X709268Y367401D01*
X712467Y370066D02*
X711934Y370600D01*
X710867D01*
X710334Y370066D01*
Y367934D01*
X710867Y367401D01*
X711934D01*
X712467Y367934D01*
Y369000D01*
X711401D01*
X713533Y370600D02*
Y367401D01*
X715133D01*
X715666Y367934D01*
Y368467D01*
X715133Y369000D01*
X713533D01*
X715133D01*
X715666Y369533D01*
Y370066D01*
X715133Y370600D01*
X713533D01*
X718865D02*
X717799Y370066D01*
X716732Y369000D01*
Y367934D01*
X717265Y367401D01*
X718332D01*
X718865Y367934D01*
Y368467D01*
X718332Y369000D01*
X716732D01*
X782135Y367401D02*
Y370600D01*
X783735D01*
X784268Y370066D01*
Y369000D01*
X783735Y368467D01*
X782135D01*
X783202D02*
X784268Y367401D01*
X787467Y370066D02*
X786934Y370600D01*
X785867D01*
X785334Y370066D01*
Y367934D01*
X785867Y367401D01*
X786934D01*
X787467Y367934D01*
Y369000D01*
X786401D01*
X788533Y370600D02*
Y367401D01*
X790133D01*
X790666Y367934D01*
Y368467D01*
X790133Y369000D01*
X788533D01*
X790133D01*
X790666Y369533D01*
Y370066D01*
X790133Y370600D01*
X788533D01*
X793865D02*
X791732D01*
Y369000D01*
X792799Y369533D01*
X793332D01*
X793865Y369000D01*
Y367934D01*
X793332Y367401D01*
X792265D01*
X791732Y367934D01*
X857135Y367401D02*
Y370600D01*
X858735D01*
X859268Y370066D01*
Y369000D01*
X858735Y368467D01*
X857135D01*
X858202D02*
X859268Y367401D01*
X862467Y370066D02*
X861934Y370600D01*
X860867D01*
X860334Y370066D01*
Y367934D01*
X860867Y367401D01*
X861934D01*
X862467Y367934D01*
Y369000D01*
X861401D01*
X863533Y370600D02*
Y367401D01*
X865133D01*
X865666Y367934D01*
Y368467D01*
X865133Y369000D01*
X863533D01*
X865133D01*
X865666Y369533D01*
Y370066D01*
X865133Y370600D01*
X863533D01*
X868332Y367401D02*
Y370600D01*
X866732Y369000D01*
X868865D01*
X932135Y368401D02*
Y371600D01*
X933735D01*
X934268Y371066D01*
Y370000D01*
X933735Y369467D01*
X932135D01*
X933202D02*
X934268Y368401D01*
X937467Y371066D02*
X936934Y371600D01*
X935867D01*
X935334Y371066D01*
Y368934D01*
X935867Y368401D01*
X936934D01*
X937467Y368934D01*
Y370000D01*
X936401D01*
X938533Y371600D02*
Y368401D01*
X940133D01*
X940666Y368934D01*
Y369467D01*
X940133Y370000D01*
X938533D01*
X940133D01*
X940666Y370533D01*
Y371066D01*
X940133Y371600D01*
X938533D01*
X941732Y371066D02*
X942265Y371600D01*
X943332D01*
X943865Y371066D01*
Y370533D01*
X943332Y370000D01*
X942799D01*
X943332D01*
X943865Y369467D01*
Y368934D01*
X943332Y368401D01*
X942265D01*
X941732Y368934D01*
X1007135Y367401D02*
Y370600D01*
X1008735D01*
X1009268Y370066D01*
Y369000D01*
X1008735Y368467D01*
X1007135D01*
X1008202D02*
X1009268Y367401D01*
X1012467Y370066D02*
X1011934Y370600D01*
X1010867D01*
X1010334Y370066D01*
Y367934D01*
X1010867Y367401D01*
X1011934D01*
X1012467Y367934D01*
Y369000D01*
X1011401D01*
X1013533Y370600D02*
Y367401D01*
X1015133D01*
X1015666Y367934D01*
Y368467D01*
X1015133Y369000D01*
X1013533D01*
X1015133D01*
X1015666Y369533D01*
Y370066D01*
X1015133Y370600D01*
X1013533D01*
X1018865Y367401D02*
X1016732D01*
X1018865Y369533D01*
Y370066D01*
X1018332Y370600D01*
X1017265D01*
X1016732Y370066D01*
X1082668Y367401D02*
Y370600D01*
X1084268D01*
X1084801Y370066D01*
Y369000D01*
X1084268Y368467D01*
X1082668D01*
X1083735D02*
X1084801Y367401D01*
X1088000Y370066D02*
X1087467Y370600D01*
X1086401D01*
X1085867Y370066D01*
Y367934D01*
X1086401Y367401D01*
X1087467D01*
X1088000Y367934D01*
Y369000D01*
X1086934D01*
X1089066Y370600D02*
Y367401D01*
X1090666D01*
X1091199Y367934D01*
Y368467D01*
X1090666Y369000D01*
X1089066D01*
X1090666D01*
X1091199Y369533D01*
Y370066D01*
X1090666Y370600D01*
X1089066D01*
X1092265Y367401D02*
X1093332D01*
X1092799D01*
Y370600D01*
X1092265Y370066D01*
X21066Y62599D02*
X21599Y63133D01*
Y64199D01*
X21066Y64732D01*
X18934D01*
X18401Y64199D01*
Y63133D01*
X18934Y62599D01*
X21599Y59400D02*
X21066Y60467D01*
X20000Y61533D01*
X18934D01*
X18401Y61000D01*
Y59934D01*
X18934Y59400D01*
X19467D01*
X20000Y59934D01*
Y61533D01*
X18401Y58334D02*
Y57268D01*
Y57801D01*
X21599D01*
X21066Y58334D01*
X115066Y63133D02*
X115600Y63666D01*
Y64732D01*
X115066Y65265D01*
X112934D01*
X112400Y64732D01*
Y63666D01*
X112934Y63133D01*
X115600Y59934D02*
X115066Y61000D01*
X114000Y62066D01*
X112934D01*
X112400Y61533D01*
Y60467D01*
X112934Y59934D01*
X113467D01*
X114000Y60467D01*
Y62066D01*
X115066Y58867D02*
X115600Y58334D01*
Y57268D01*
X115066Y56735D01*
X112934D01*
X112400Y57268D01*
Y58334D01*
X112934Y58867D01*
X115066D01*
X209066Y63133D02*
X209599Y63666D01*
Y64732D01*
X209066Y65265D01*
X206934D01*
X206400Y64732D01*
Y63666D01*
X206934Y63133D01*
X209599Y59934D02*
Y62066D01*
X208000D01*
X208533Y61000D01*
Y60467D01*
X208000Y59934D01*
X206934D01*
X206400Y60467D01*
Y61533D01*
X206934Y62066D01*
Y58867D02*
X206400Y58334D01*
Y57268D01*
X206934Y56735D01*
X209066D01*
X209599Y57268D01*
Y58334D01*
X209066Y58867D01*
X208533D01*
X208000Y58334D01*
Y56735D01*
X303066Y63133D02*
X303600Y63666D01*
Y64732D01*
X303066Y65265D01*
X300934D01*
X300400Y64732D01*
Y63666D01*
X300934Y63133D01*
X303600Y59934D02*
Y62066D01*
X302000D01*
X302533Y61000D01*
Y60467D01*
X302000Y59934D01*
X300934D01*
X300400Y60467D01*
Y61533D01*
X300934Y62066D01*
X303066Y58867D02*
X303600Y58334D01*
Y57268D01*
X303066Y56735D01*
X302533D01*
X302000Y57268D01*
X301467Y56735D01*
X300934D01*
X300400Y57268D01*
Y58334D01*
X300934Y58867D01*
X301467D01*
X302000Y58334D01*
X302533Y58867D01*
X303066D01*
X302000Y58334D02*
Y57268D01*
X584066Y63133D02*
X584599Y63666D01*
Y64732D01*
X584066Y65265D01*
X581934D01*
X581400Y64732D01*
Y63666D01*
X581934Y63133D01*
X584599Y59934D02*
Y62066D01*
X583000D01*
X583533Y61000D01*
Y60467D01*
X583000Y59934D01*
X581934D01*
X581400Y60467D01*
Y61533D01*
X581934Y62066D01*
X584599Y58867D02*
Y56735D01*
X584066D01*
X581934Y58867D01*
X581400D01*
X865066Y63133D02*
X865600Y63666D01*
Y64732D01*
X865066Y65265D01*
X862934D01*
X862401Y64732D01*
Y63666D01*
X862934Y63133D01*
X865600Y59934D02*
Y62066D01*
X864000D01*
X864533Y61000D01*
Y60467D01*
X864000Y59934D01*
X862934D01*
X862401Y60467D01*
Y61533D01*
X862934Y62066D01*
X865600Y56735D02*
X865066Y57801D01*
X864000Y58867D01*
X862934D01*
X862401Y58334D01*
Y57268D01*
X862934Y56735D01*
X863467D01*
X864000Y57268D01*
Y58867D01*
X959066Y62133D02*
X959599Y62666D01*
Y63732D01*
X959066Y64265D01*
X956934D01*
X956400Y63732D01*
Y62666D01*
X956934Y62133D01*
X959599Y58934D02*
Y61066D01*
X958000D01*
X958533Y60000D01*
Y59467D01*
X958000Y58934D01*
X956934D01*
X956400Y59467D01*
Y60533D01*
X956934Y61066D01*
X959599Y55735D02*
Y57867D01*
X958000D01*
X958533Y56801D01*
Y56268D01*
X958000Y55735D01*
X956934D01*
X956400Y56268D01*
Y57334D01*
X956934Y57867D01*
X1052066Y63133D02*
X1052600Y63666D01*
Y64732D01*
X1052066Y65265D01*
X1049934D01*
X1049401Y64732D01*
Y63666D01*
X1049934Y63133D01*
X1052600Y59934D02*
Y62066D01*
X1051000D01*
X1051533Y61000D01*
Y60467D01*
X1051000Y59934D01*
X1049934D01*
X1049401Y60467D01*
Y61533D01*
X1049934Y62066D01*
X1049401Y57268D02*
X1052600D01*
X1051000Y58867D01*
Y56735D01*
X1069066Y132133D02*
X1069600Y132666D01*
Y133732D01*
X1069066Y134265D01*
X1066934D01*
X1066401Y133732D01*
Y132666D01*
X1066934Y132133D01*
X1069600Y128934D02*
Y131066D01*
X1068000D01*
X1068533Y130000D01*
Y129467D01*
X1068000Y128934D01*
X1066934D01*
X1066401Y129467D01*
Y130533D01*
X1066934Y131066D01*
X1069066Y127867D02*
X1069600Y127334D01*
Y126268D01*
X1069066Y125735D01*
X1068533D01*
X1068000Y126268D01*
Y126801D01*
Y126268D01*
X1067467Y125735D01*
X1066934D01*
X1066401Y126268D01*
Y127334D01*
X1066934Y127867D01*
X947066Y132133D02*
X947600Y132666D01*
Y133732D01*
X947066Y134265D01*
X944934D01*
X944401Y133732D01*
Y132666D01*
X944934Y132133D01*
X947600Y128934D02*
Y131066D01*
X946000D01*
X946533Y130000D01*
Y129467D01*
X946000Y128934D01*
X944934D01*
X944401Y129467D01*
Y130533D01*
X944934Y131066D01*
X944401Y125735D02*
Y127867D01*
X946533Y125735D01*
X947066D01*
X947600Y126268D01*
Y127334D01*
X947066Y127867D01*
X872066Y131599D02*
X872600Y132133D01*
Y133199D01*
X872066Y133732D01*
X869934D01*
X869401Y133199D01*
Y132133D01*
X869934Y131599D01*
X872600Y128401D02*
Y130533D01*
X871000D01*
X871533Y129467D01*
Y128934D01*
X871000Y128401D01*
X869934D01*
X869401Y128934D01*
Y130000D01*
X869934Y130533D01*
X869401Y127334D02*
Y126268D01*
Y126801D01*
X872600D01*
X872066Y127334D01*
X797066Y132133D02*
X797600Y132666D01*
Y133732D01*
X797066Y134265D01*
X794934D01*
X794401Y133732D01*
Y132666D01*
X794934Y132133D01*
X797600Y128934D02*
Y131066D01*
X796000D01*
X796533Y130000D01*
Y129467D01*
X796000Y128934D01*
X794934D01*
X794401Y129467D01*
Y130533D01*
X794934Y131066D01*
X797066Y127867D02*
X797600Y127334D01*
Y126268D01*
X797066Y125735D01*
X794934D01*
X794401Y126268D01*
Y127334D01*
X794934Y127867D01*
X797066D01*
X722066Y132133D02*
X722600Y132666D01*
Y133732D01*
X722066Y134265D01*
X719934D01*
X719401Y133732D01*
Y132666D01*
X719934Y132133D01*
X719401Y129467D02*
X722600D01*
X721000Y131066D01*
Y128934D01*
X719934Y127867D02*
X719401Y127334D01*
Y126268D01*
X719934Y125735D01*
X722066D01*
X722600Y126268D01*
Y127334D01*
X722066Y127867D01*
X721533D01*
X721000Y127334D01*
Y125735D01*
X647066Y132133D02*
X647600Y132666D01*
Y133732D01*
X647066Y134265D01*
X644934D01*
X644401Y133732D01*
Y132666D01*
X644934Y132133D01*
X644401Y129467D02*
X647600D01*
X646000Y131066D01*
Y128934D01*
X647066Y127867D02*
X647600Y127334D01*
Y126268D01*
X647066Y125735D01*
X646533D01*
X646000Y126268D01*
X645467Y125735D01*
X644934D01*
X644401Y126268D01*
Y127334D01*
X644934Y127867D01*
X645467D01*
X646000Y127334D01*
X646533Y127867D01*
X647066D01*
X646000Y127334D02*
Y126268D01*
X572066Y132133D02*
X572600Y132666D01*
Y133732D01*
X572066Y134265D01*
X569934D01*
X569401Y133732D01*
Y132666D01*
X569934Y132133D01*
X569401Y129467D02*
X572600D01*
X571000Y131066D01*
Y128934D01*
X572600Y127867D02*
Y125735D01*
X572066D01*
X569934Y127867D01*
X569401D01*
X497066Y132133D02*
X497600Y132666D01*
Y133732D01*
X497066Y134265D01*
X494934D01*
X494401Y133732D01*
Y132666D01*
X494934Y132133D01*
X494401Y129467D02*
X497600D01*
X496000Y131066D01*
Y128934D01*
X497600Y125735D02*
X497066Y126801D01*
X496000Y127867D01*
X494934D01*
X494401Y127334D01*
Y126268D01*
X494934Y125735D01*
X495467D01*
X496000Y126268D01*
Y127867D01*
X422066Y132133D02*
X422600Y132666D01*
Y133732D01*
X422066Y134265D01*
X419934D01*
X419401Y133732D01*
Y132666D01*
X419934Y132133D01*
X419401Y129467D02*
X422600D01*
X421000Y131066D01*
Y128934D01*
X422600Y125735D02*
Y127867D01*
X421000D01*
X421533Y126801D01*
Y126268D01*
X421000Y125735D01*
X419934D01*
X419401Y126268D01*
Y127334D01*
X419934Y127867D01*
X346066Y132133D02*
X346600Y132666D01*
Y133732D01*
X346066Y134265D01*
X343934D01*
X343401Y133732D01*
Y132666D01*
X343934Y132133D01*
X343401Y129467D02*
X346600D01*
X345000Y131066D01*
Y128934D01*
X343401Y126268D02*
X346600D01*
X345000Y127867D01*
Y125735D01*
X272066Y132133D02*
X272600Y132666D01*
Y133732D01*
X272066Y134265D01*
X269934D01*
X269401Y133732D01*
Y132666D01*
X269934Y132133D01*
X269401Y129467D02*
X272600D01*
X271000Y131066D01*
Y128934D01*
X272066Y127867D02*
X272600Y127334D01*
Y126268D01*
X272066Y125735D01*
X271533D01*
X271000Y126268D01*
Y126801D01*
Y126268D01*
X270467Y125735D01*
X269934D01*
X269401Y126268D01*
Y127334D01*
X269934Y127867D01*
X132066Y132133D02*
X132599Y132666D01*
Y133732D01*
X132066Y134265D01*
X129934D01*
X129401Y133732D01*
Y132666D01*
X129934Y132133D01*
X129401Y129467D02*
X132599D01*
X131000Y131066D01*
Y128934D01*
X129401Y125735D02*
Y127867D01*
X131533Y125735D01*
X132066D01*
X132599Y126268D01*
Y127334D01*
X132066Y127867D01*
X58066Y212599D02*
X58600Y213133D01*
Y214199D01*
X58066Y214732D01*
X55934D01*
X55401Y214199D01*
Y213133D01*
X55934Y212599D01*
X55401Y209934D02*
X58600D01*
X57000Y211533D01*
Y209401D01*
X55401Y208334D02*
Y207268D01*
Y207801D01*
X58600D01*
X58066Y208334D01*
X180066Y213133D02*
X180599Y213666D01*
Y214732D01*
X180066Y215265D01*
X177934D01*
X177401Y214732D01*
Y213666D01*
X177934Y213133D01*
X177401Y210467D02*
X180599D01*
X179000Y212066D01*
Y209934D01*
X180066Y208867D02*
X180599Y208334D01*
Y207268D01*
X180066Y206735D01*
X177934D01*
X177401Y207268D01*
Y208334D01*
X177934Y208867D01*
X180066D01*
X255066Y213133D02*
X255599Y213666D01*
Y214732D01*
X255066Y215265D01*
X252934D01*
X252400Y214732D01*
Y213666D01*
X252934Y213133D01*
X255066Y212066D02*
X255599Y211533D01*
Y210467D01*
X255066Y209934D01*
X254533D01*
X254000Y210467D01*
Y211000D01*
Y210467D01*
X253467Y209934D01*
X252934D01*
X252400Y210467D01*
Y211533D01*
X252934Y212066D01*
Y208867D02*
X252400Y208334D01*
Y207268D01*
X252934Y206735D01*
X255066D01*
X255599Y207268D01*
Y208334D01*
X255066Y208867D01*
X254533D01*
X254000Y208334D01*
Y206735D01*
X330066Y213133D02*
X330599Y213666D01*
Y214732D01*
X330066Y215265D01*
X327934D01*
X327400Y214732D01*
Y213666D01*
X327934Y213133D01*
X330066Y212066D02*
X330599Y211533D01*
Y210467D01*
X330066Y209934D01*
X329533D01*
X329000Y210467D01*
Y211000D01*
Y210467D01*
X328467Y209934D01*
X327934D01*
X327400Y210467D01*
Y211533D01*
X327934Y212066D01*
X330066Y208867D02*
X330599Y208334D01*
Y207268D01*
X330066Y206735D01*
X329533D01*
X329000Y207268D01*
X328467Y206735D01*
X327934D01*
X327400Y207268D01*
Y208334D01*
X327934Y208867D01*
X328467D01*
X329000Y208334D01*
X329533Y208867D01*
X330066D01*
X329000Y208334D02*
Y207268D01*
X404066Y213133D02*
X404600Y213666D01*
Y214732D01*
X404066Y215265D01*
X401934D01*
X401401Y214732D01*
Y213666D01*
X401934Y213133D01*
X404066Y212066D02*
X404600Y211533D01*
Y210467D01*
X404066Y209934D01*
X403533D01*
X403000Y210467D01*
Y211000D01*
Y210467D01*
X402467Y209934D01*
X401934D01*
X401401Y210467D01*
Y211533D01*
X401934Y212066D01*
X404600Y208867D02*
Y206735D01*
X404066D01*
X401934Y208867D01*
X401401D01*
X480066Y213133D02*
X480599Y213666D01*
Y214732D01*
X480066Y215265D01*
X477934D01*
X477400Y214732D01*
Y213666D01*
X477934Y213133D01*
X480066Y212066D02*
X480599Y211533D01*
Y210467D01*
X480066Y209934D01*
X479533D01*
X479000Y210467D01*
Y211000D01*
Y210467D01*
X478467Y209934D01*
X477934D01*
X477400Y210467D01*
Y211533D01*
X477934Y212066D01*
X480599Y206735D02*
X480066Y207801D01*
X479000Y208867D01*
X477934D01*
X477400Y208334D01*
Y207268D01*
X477934Y206735D01*
X478467D01*
X479000Y207268D01*
Y208867D01*
X555066Y213133D02*
X555599Y213666D01*
Y214732D01*
X555066Y215265D01*
X552934D01*
X552400Y214732D01*
Y213666D01*
X552934Y213133D01*
X555066Y212066D02*
X555599Y211533D01*
Y210467D01*
X555066Y209934D01*
X554533D01*
X554000Y210467D01*
Y211000D01*
Y210467D01*
X553467Y209934D01*
X552934D01*
X552400Y210467D01*
Y211533D01*
X552934Y212066D01*
X555599Y206735D02*
Y208867D01*
X554000D01*
X554533Y207801D01*
Y207268D01*
X554000Y206735D01*
X552934D01*
X552400Y207268D01*
Y208334D01*
X552934Y208867D01*
X630066Y213133D02*
X630599Y213666D01*
Y214732D01*
X630066Y215265D01*
X627934D01*
X627400Y214732D01*
Y213666D01*
X627934Y213133D01*
X630066Y212066D02*
X630599Y211533D01*
Y210467D01*
X630066Y209934D01*
X629533D01*
X629000Y210467D01*
Y211000D01*
Y210467D01*
X628467Y209934D01*
X627934D01*
X627400Y210467D01*
Y211533D01*
X627934Y212066D01*
X627400Y207268D02*
X630599D01*
X629000Y208867D01*
Y206735D01*
X705066Y213133D02*
X705599Y213666D01*
Y214732D01*
X705066Y215265D01*
X702934D01*
X702400Y214732D01*
Y213666D01*
X702934Y213133D01*
X705066Y212066D02*
X705599Y211533D01*
Y210467D01*
X705066Y209934D01*
X704533D01*
X704000Y210467D01*
Y211000D01*
Y210467D01*
X703467Y209934D01*
X702934D01*
X702400Y210467D01*
Y211533D01*
X702934Y212066D01*
X705066Y208867D02*
X705599Y208334D01*
Y207268D01*
X705066Y206735D01*
X704533D01*
X704000Y207268D01*
Y207801D01*
Y207268D01*
X703467Y206735D01*
X702934D01*
X702400Y207268D01*
Y208334D01*
X702934Y208867D01*
X780066Y213133D02*
X780599Y213666D01*
Y214732D01*
X780066Y215265D01*
X777934D01*
X777400Y214732D01*
Y213666D01*
X777934Y213133D01*
X780066Y212066D02*
X780599Y211533D01*
Y210467D01*
X780066Y209934D01*
X779533D01*
X779000Y210467D01*
Y211000D01*
Y210467D01*
X778467Y209934D01*
X777934D01*
X777400Y210467D01*
Y211533D01*
X777934Y212066D01*
X777400Y206735D02*
Y208867D01*
X779533Y206735D01*
X780066D01*
X780599Y207268D01*
Y208334D01*
X780066Y208867D01*
X855066Y212599D02*
X855599Y213133D01*
Y214199D01*
X855066Y214732D01*
X852934D01*
X852400Y214199D01*
Y213133D01*
X852934Y212599D01*
X855066Y211533D02*
X855599Y211000D01*
Y209934D01*
X855066Y209401D01*
X854533D01*
X854000Y209934D01*
Y210467D01*
Y209934D01*
X853467Y209401D01*
X852934D01*
X852400Y209934D01*
Y211000D01*
X852934Y211533D01*
X852400Y208334D02*
Y207268D01*
Y207801D01*
X855599D01*
X855066Y208334D01*
X930066Y213133D02*
X930599Y213666D01*
Y214732D01*
X930066Y215265D01*
X927934D01*
X927400Y214732D01*
Y213666D01*
X927934Y213133D01*
X930066Y212066D02*
X930599Y211533D01*
Y210467D01*
X930066Y209934D01*
X929533D01*
X929000Y210467D01*
Y211000D01*
Y210467D01*
X928467Y209934D01*
X927934D01*
X927400Y210467D01*
Y211533D01*
X927934Y212066D01*
X930066Y208867D02*
X930599Y208334D01*
Y207268D01*
X930066Y206735D01*
X927934D01*
X927400Y207268D01*
Y208334D01*
X927934Y208867D01*
X930066D01*
X1031066Y213133D02*
X1031600Y213666D01*
Y214732D01*
X1031066Y215265D01*
X1028934D01*
X1028401Y214732D01*
Y213666D01*
X1028934Y213133D01*
X1028401Y209934D02*
Y212066D01*
X1030533Y209934D01*
X1031066D01*
X1031600Y210467D01*
Y211533D01*
X1031066Y212066D01*
X1028934Y208867D02*
X1028401Y208334D01*
Y207268D01*
X1028934Y206735D01*
X1031066D01*
X1031600Y207268D01*
Y208334D01*
X1031066Y208867D01*
X1030533D01*
X1030000Y208334D01*
Y206735D01*
X1097066Y282133D02*
X1097600Y282666D01*
Y283732D01*
X1097066Y284265D01*
X1094934D01*
X1094401Y283732D01*
Y282666D01*
X1094934Y282133D01*
X1094401Y278934D02*
Y281066D01*
X1096533Y278934D01*
X1097066D01*
X1097600Y279467D01*
Y280533D01*
X1097066Y281066D01*
Y277867D02*
X1097600Y277334D01*
Y276268D01*
X1097066Y275735D01*
X1096533D01*
X1096000Y276268D01*
X1095467Y275735D01*
X1094934D01*
X1094401Y276268D01*
Y277334D01*
X1094934Y277867D01*
X1095467D01*
X1096000Y277334D01*
X1096533Y277867D01*
X1097066D01*
X1096000Y277334D02*
Y276268D01*
X1003066Y282133D02*
X1003599Y282666D01*
Y283732D01*
X1003066Y284265D01*
X1000934D01*
X1000401Y283732D01*
Y282666D01*
X1000934Y282133D01*
X1000401Y278934D02*
Y281066D01*
X1002533Y278934D01*
X1003066D01*
X1003599Y279467D01*
Y280533D01*
X1003066Y281066D01*
X1003599Y277867D02*
Y275735D01*
X1003066D01*
X1000934Y277867D01*
X1000401D01*
X928066Y282133D02*
X928599Y282666D01*
Y283732D01*
X928066Y284265D01*
X925934D01*
X925401Y283732D01*
Y282666D01*
X925934Y282133D01*
X925401Y278934D02*
Y281066D01*
X927533Y278934D01*
X928066D01*
X928599Y279467D01*
Y280533D01*
X928066Y281066D01*
X928599Y275735D02*
X928066Y276801D01*
X927000Y277867D01*
X925934D01*
X925401Y277334D01*
Y276268D01*
X925934Y275735D01*
X926467D01*
X927000Y276268D01*
Y277867D01*
X853066Y282133D02*
X853599Y282666D01*
Y283732D01*
X853066Y284265D01*
X850934D01*
X850401Y283732D01*
Y282666D01*
X850934Y282133D01*
X850401Y278934D02*
Y281066D01*
X852533Y278934D01*
X853066D01*
X853599Y279467D01*
Y280533D01*
X853066Y281066D01*
X853599Y275735D02*
Y277867D01*
X852000D01*
X852533Y276801D01*
Y276268D01*
X852000Y275735D01*
X850934D01*
X850401Y276268D01*
Y277334D01*
X850934Y277867D01*
X778066Y282133D02*
X778600Y282666D01*
Y283732D01*
X778066Y284265D01*
X775934D01*
X775400Y283732D01*
Y282666D01*
X775934Y282133D01*
X775400Y278934D02*
Y281066D01*
X777533Y278934D01*
X778066D01*
X778600Y279467D01*
Y280533D01*
X778066Y281066D01*
X775400Y276268D02*
X778600D01*
X777000Y277867D01*
Y275735D01*
X703066Y282133D02*
X703600Y282666D01*
Y283732D01*
X703066Y284265D01*
X700934D01*
X700400Y283732D01*
Y282666D01*
X700934Y282133D01*
X700400Y278934D02*
Y281066D01*
X702533Y278934D01*
X703066D01*
X703600Y279467D01*
Y280533D01*
X703066Y281066D01*
Y277867D02*
X703600Y277334D01*
Y276268D01*
X703066Y275735D01*
X702533D01*
X702000Y276268D01*
Y276801D01*
Y276268D01*
X701467Y275735D01*
X700934D01*
X700400Y276268D01*
Y277334D01*
X700934Y277867D01*
X628066Y282133D02*
X628600Y282666D01*
Y283732D01*
X628066Y284265D01*
X625934D01*
X625400Y283732D01*
Y282666D01*
X625934Y282133D01*
X625400Y278934D02*
Y281066D01*
X627533Y278934D01*
X628066D01*
X628600Y279467D01*
Y280533D01*
X628066Y281066D01*
X625400Y275735D02*
Y277867D01*
X627533Y275735D01*
X628066D01*
X628600Y276268D01*
Y277334D01*
X628066Y277867D01*
X553066Y281599D02*
X553600Y282133D01*
Y283199D01*
X553066Y283732D01*
X550934D01*
X550400Y283199D01*
Y282133D01*
X550934Y281599D01*
X550400Y278400D02*
Y280533D01*
X552533Y278400D01*
X553066D01*
X553600Y278934D01*
Y280000D01*
X553066Y280533D01*
X550400Y277334D02*
Y276268D01*
Y276801D01*
X553600D01*
X553066Y277334D01*
X478066Y282133D02*
X478600Y282666D01*
Y283732D01*
X478066Y284265D01*
X475934D01*
X475400Y283732D01*
Y282666D01*
X475934Y282133D01*
X475400Y278934D02*
Y281066D01*
X477533Y278934D01*
X478066D01*
X478600Y279467D01*
Y280533D01*
X478066Y281066D01*
Y277867D02*
X478600Y277334D01*
Y276268D01*
X478066Y275735D01*
X475934D01*
X475400Y276268D01*
Y277334D01*
X475934Y277867D01*
X478066D01*
X403066Y281866D02*
X403600Y282399D01*
Y283466D01*
X403066Y283999D01*
X400934D01*
X400400Y283466D01*
Y282399D01*
X400934Y281866D01*
X400400Y280800D02*
Y279733D01*
Y280267D01*
X403600D01*
X403066Y280800D01*
X400934Y278134D02*
X400400Y277601D01*
Y276535D01*
X400934Y276001D01*
X403066D01*
X403600Y276535D01*
Y277601D01*
X403066Y278134D01*
X402533D01*
X402000Y277601D01*
Y276001D01*
X328066Y281866D02*
X328600Y282399D01*
Y283466D01*
X328066Y283999D01*
X325934D01*
X325400Y283466D01*
Y282399D01*
X325934Y281866D01*
X325400Y280800D02*
Y279733D01*
Y280267D01*
X328600D01*
X328066Y280800D01*
Y278134D02*
X328600Y277601D01*
Y276535D01*
X328066Y276001D01*
X327533D01*
X327000Y276535D01*
X326467Y276001D01*
X325934D01*
X325400Y276535D01*
Y277601D01*
X325934Y278134D01*
X326467D01*
X327000Y277601D01*
X327533Y278134D01*
X328066D01*
X327000Y277601D02*
Y276535D01*
X253066Y281866D02*
X253600Y282399D01*
Y283466D01*
X253066Y283999D01*
X250934D01*
X250400Y283466D01*
Y282399D01*
X250934Y281866D01*
X250400Y280800D02*
Y279733D01*
Y280267D01*
X253600D01*
X253066Y280800D01*
X253600Y278134D02*
Y276001D01*
X253066D01*
X250934Y278134D01*
X250400D01*
X178066Y281866D02*
X178600Y282399D01*
Y283466D01*
X178066Y283999D01*
X175934D01*
X175400Y283466D01*
Y282399D01*
X175934Y281866D01*
X175400Y280800D02*
Y279733D01*
Y280267D01*
X178600D01*
X178066Y280800D01*
X178600Y276001D02*
X178066Y277068D01*
X177000Y278134D01*
X175934D01*
X175400Y277601D01*
Y276535D01*
X175934Y276001D01*
X176467D01*
X177000Y276535D01*
Y278134D01*
X84066Y281866D02*
X84600Y282399D01*
Y283466D01*
X84066Y283999D01*
X81934D01*
X81401Y283466D01*
Y282399D01*
X81934Y281866D01*
X81401Y280800D02*
Y279733D01*
Y280267D01*
X84600D01*
X84066Y280800D01*
X84600Y276001D02*
Y278134D01*
X83000D01*
X83533Y277068D01*
Y276535D01*
X83000Y276001D01*
X81934D01*
X81401Y276535D01*
Y277601D01*
X81934Y278134D01*
X50066Y362866D02*
X50599Y363399D01*
Y364465D01*
X50066Y364999D01*
X47934D01*
X47401Y364465D01*
Y363399D01*
X47934Y362866D01*
X47401Y361800D02*
Y360733D01*
Y361267D01*
X50599D01*
X50066Y361800D01*
X47401Y357535D02*
X50599D01*
X49000Y359134D01*
Y357001D01*
X162066Y362866D02*
X162600Y363399D01*
Y364465D01*
X162066Y364999D01*
X159934D01*
X159400Y364465D01*
Y363399D01*
X159934Y362866D01*
X159400Y361800D02*
Y360733D01*
Y361267D01*
X162600D01*
X162066Y361800D01*
Y359134D02*
X162600Y358601D01*
Y357535D01*
X162066Y357001D01*
X161533D01*
X161000Y357535D01*
Y358068D01*
Y357535D01*
X160467Y357001D01*
X159934D01*
X159400Y357535D01*
Y358601D01*
X159934Y359134D01*
X237066Y362866D02*
X237599Y363399D01*
Y364465D01*
X237066Y364999D01*
X234934D01*
X234401Y364465D01*
Y363399D01*
X234934Y362866D01*
X234401Y361800D02*
Y360733D01*
Y361267D01*
X237599D01*
X237066Y361800D01*
X234401Y357001D02*
Y359134D01*
X236533Y357001D01*
X237066D01*
X237599Y357535D01*
Y358601D01*
X237066Y359134D01*
X313066Y362333D02*
X313599Y362866D01*
Y363932D01*
X313066Y364465D01*
X310934D01*
X310401Y363932D01*
Y362866D01*
X310934Y362333D01*
X310401Y361267D02*
Y360200D01*
Y360733D01*
X313599D01*
X313066Y361267D01*
X310401Y358601D02*
Y357535D01*
Y358068D01*
X313599D01*
X313066Y358601D01*
X387066Y362866D02*
X387599Y363399D01*
Y364465D01*
X387066Y364999D01*
X384934D01*
X384401Y364465D01*
Y363399D01*
X384934Y362866D01*
X384401Y361800D02*
Y360733D01*
Y361267D01*
X387599D01*
X387066Y361800D01*
Y359134D02*
X387599Y358601D01*
Y357535D01*
X387066Y357001D01*
X384934D01*
X384401Y357535D01*
Y358601D01*
X384934Y359134D01*
X387066D01*
X462066Y361533D02*
X462600Y362066D01*
Y363133D01*
X462066Y363666D01*
X459934D01*
X459401Y363133D01*
Y362066D01*
X459934Y361533D01*
Y360467D02*
X459401Y359934D01*
Y358867D01*
X459934Y358334D01*
X462066D01*
X462600Y358867D01*
Y359934D01*
X462066Y360467D01*
X461533D01*
X461000Y359934D01*
Y358334D01*
X537066Y361533D02*
X537600Y362066D01*
Y363133D01*
X537066Y363666D01*
X534934D01*
X534401Y363133D01*
Y362066D01*
X534934Y361533D01*
X537066Y360467D02*
X537600Y359934D01*
Y358867D01*
X537066Y358334D01*
X536533D01*
X536000Y358867D01*
X535467Y358334D01*
X534934D01*
X534401Y358867D01*
Y359934D01*
X534934Y360467D01*
X535467D01*
X536000Y359934D01*
X536533Y360467D01*
X537066D01*
X536000Y359934D02*
Y358867D01*
X611066Y361533D02*
X611599Y362066D01*
Y363133D01*
X611066Y363666D01*
X608934D01*
X608400Y363133D01*
Y362066D01*
X608934Y361533D01*
X611599Y360467D02*
Y358334D01*
X611066D01*
X608934Y360467D01*
X608400D01*
X686066Y361533D02*
X686599Y362066D01*
Y363133D01*
X686066Y363666D01*
X683934D01*
X683400Y363133D01*
Y362066D01*
X683934Y361533D01*
X686599Y358334D02*
X686066Y359401D01*
X685000Y360467D01*
X683934D01*
X683400Y359934D01*
Y358867D01*
X683934Y358334D01*
X684467D01*
X685000Y358867D01*
Y360467D01*
X762066Y361533D02*
X762600Y362066D01*
Y363133D01*
X762066Y363666D01*
X759934D01*
X759401Y363133D01*
Y362066D01*
X759934Y361533D01*
X762600Y358334D02*
Y360467D01*
X761000D01*
X761533Y359401D01*
Y358867D01*
X761000Y358334D01*
X759934D01*
X759401Y358867D01*
Y359934D01*
X759934Y360467D01*
X837066Y361533D02*
X837599Y362066D01*
Y363133D01*
X837066Y363666D01*
X834934D01*
X834400Y363133D01*
Y362066D01*
X834934Y361533D01*
X834400Y358867D02*
X837599D01*
X836000Y360467D01*
Y358334D01*
X912066Y361533D02*
X912599Y362066D01*
Y363133D01*
X912066Y363666D01*
X909934D01*
X909400Y363133D01*
Y362066D01*
X909934Y361533D01*
X912066Y360467D02*
X912599Y359934D01*
Y358867D01*
X912066Y358334D01*
X911533D01*
X911000Y358867D01*
Y359401D01*
Y358867D01*
X910467Y358334D01*
X909934D01*
X909400Y358867D01*
Y359934D01*
X909934Y360467D01*
X987066Y361533D02*
X987599Y362066D01*
Y363133D01*
X987066Y363666D01*
X984934D01*
X984400Y363133D01*
Y362066D01*
X984934Y361533D01*
X984400Y358334D02*
Y360467D01*
X986533Y358334D01*
X987066D01*
X987599Y358867D01*
Y359934D01*
X987066Y360467D01*
X1062066Y361000D02*
X1062599Y361533D01*
Y362599D01*
X1062066Y363133D01*
X1059934D01*
X1059400Y362599D01*
Y361533D01*
X1059934Y361000D01*
X1059400Y359934D02*
Y358867D01*
Y359401D01*
X1062599D01*
X1062066Y359934D01*
X7401Y40268D02*
X10599D01*
Y41867D01*
X10066Y42401D01*
X7934D01*
X7401Y41867D01*
Y40268D01*
Y45599D02*
X7934Y44533D01*
X9000Y43467D01*
X10066D01*
X10599Y44000D01*
Y45066D01*
X10066Y45599D01*
X9533D01*
X9000Y45066D01*
Y43467D01*
X10599Y46666D02*
Y47732D01*
Y47199D01*
X7401D01*
X7934Y46666D01*
X91400Y33735D02*
X94599D01*
Y35334D01*
X94066Y35867D01*
X91934D01*
X91400Y35334D01*
Y33735D01*
Y39066D02*
X91934Y38000D01*
X93000Y36934D01*
X94066D01*
X94599Y37467D01*
Y38533D01*
X94066Y39066D01*
X93533D01*
X93000Y38533D01*
Y36934D01*
X91934Y40133D02*
X91400Y40666D01*
Y41732D01*
X91934Y42265D01*
X94066D01*
X94599Y41732D01*
Y40666D01*
X94066Y40133D01*
X91934D01*
X185400Y34735D02*
X188600D01*
Y36334D01*
X188066Y36867D01*
X185934D01*
X185400Y36334D01*
Y34735D01*
Y40066D02*
Y37934D01*
X187000D01*
X186467Y39000D01*
Y39533D01*
X187000Y40066D01*
X188066D01*
X188600Y39533D01*
Y38467D01*
X188066Y37934D01*
Y41133D02*
X188600Y41666D01*
Y42732D01*
X188066Y43265D01*
X185934D01*
X185400Y42732D01*
Y41666D01*
X185934Y41133D01*
X186467D01*
X187000Y41666D01*
Y43265D01*
X277400Y34735D02*
X280599D01*
Y36334D01*
X280066Y36867D01*
X277934D01*
X277400Y36334D01*
Y34735D01*
Y40066D02*
Y37934D01*
X279000D01*
X278467Y39000D01*
Y39533D01*
X279000Y40066D01*
X280066D01*
X280599Y39533D01*
Y38467D01*
X280066Y37934D01*
X277934Y41133D02*
X277400Y41666D01*
Y42732D01*
X277934Y43265D01*
X278467D01*
X279000Y42732D01*
X279533Y43265D01*
X280066D01*
X280599Y42732D01*
Y41666D01*
X280066Y41133D01*
X279533D01*
X279000Y41666D01*
X278467Y41133D01*
X277934D01*
X279000Y41666D02*
Y42732D01*
X559401Y34735D02*
X562600D01*
Y36334D01*
X562066Y36867D01*
X559934D01*
X559401Y36334D01*
Y34735D01*
Y40066D02*
Y37934D01*
X561000D01*
X560467Y39000D01*
Y39533D01*
X561000Y40066D01*
X562066D01*
X562600Y39533D01*
Y38467D01*
X562066Y37934D01*
X559401Y41133D02*
Y43265D01*
X559934D01*
X562066Y41133D01*
X562600D01*
X840401Y34735D02*
X843600D01*
Y36334D01*
X843066Y36867D01*
X840934D01*
X840401Y36334D01*
Y34735D01*
Y40066D02*
Y37934D01*
X842000D01*
X841467Y39000D01*
Y39533D01*
X842000Y40066D01*
X843066D01*
X843600Y39533D01*
Y38467D01*
X843066Y37934D01*
X840401Y43265D02*
X840934Y42199D01*
X842000Y41133D01*
X843066D01*
X843600Y41666D01*
Y42732D01*
X843066Y43265D01*
X842533D01*
X842000Y42732D01*
Y41133D01*
X934400Y34735D02*
X937599D01*
Y36334D01*
X937066Y36867D01*
X934934D01*
X934400Y36334D01*
Y34735D01*
Y40066D02*
Y37934D01*
X936000D01*
X935467Y39000D01*
Y39533D01*
X936000Y40066D01*
X937066D01*
X937599Y39533D01*
Y38467D01*
X937066Y37934D01*
X934400Y43265D02*
Y41133D01*
X936000D01*
X935467Y42199D01*
Y42732D01*
X936000Y43265D01*
X937066D01*
X937599Y42732D01*
Y41666D01*
X937066Y41133D01*
X1028401Y34735D02*
X1031600D01*
Y36334D01*
X1031066Y36867D01*
X1028934D01*
X1028401Y36334D01*
Y34735D01*
Y40066D02*
Y37934D01*
X1030000D01*
X1029467Y39000D01*
Y39533D01*
X1030000Y40066D01*
X1031066D01*
X1031600Y39533D01*
Y38467D01*
X1031066Y37934D01*
X1031600Y42732D02*
X1028401D01*
X1030000Y41133D01*
Y43265D01*
X52400Y109735D02*
X55599D01*
Y111334D01*
X55066Y111867D01*
X52934D01*
X52400Y111334D01*
Y109735D01*
Y115066D02*
Y112934D01*
X54000D01*
X53467Y114000D01*
Y114533D01*
X54000Y115066D01*
X55066D01*
X55599Y114533D01*
Y113467D01*
X55066Y112934D01*
X52934Y116133D02*
X52400Y116666D01*
Y117732D01*
X52934Y118265D01*
X53467D01*
X54000Y117732D01*
Y117199D01*
Y117732D01*
X54533Y118265D01*
X55066D01*
X55599Y117732D01*
Y116666D01*
X55066Y116133D01*
X193401Y109735D02*
X196599D01*
Y111334D01*
X196066Y111867D01*
X193934D01*
X193401Y111334D01*
Y109735D01*
Y115066D02*
Y112934D01*
X195000D01*
X194467Y114000D01*
Y114533D01*
X195000Y115066D01*
X196066D01*
X196599Y114533D01*
Y113467D01*
X196066Y112934D01*
X196599Y118265D02*
Y116133D01*
X194467Y118265D01*
X193934D01*
X193401Y117732D01*
Y116666D01*
X193934Y116133D01*
X268401Y110268D02*
X271600D01*
Y111867D01*
X271066Y112400D01*
X268934D01*
X268401Y111867D01*
Y110268D01*
Y115600D02*
Y113467D01*
X270000D01*
X269467Y114533D01*
Y115066D01*
X270000Y115600D01*
X271066D01*
X271600Y115066D01*
Y114000D01*
X271066Y113467D01*
X271600Y116666D02*
Y117732D01*
Y117199D01*
X268401D01*
X268934Y116666D01*
X343401Y109735D02*
X346600D01*
Y111334D01*
X346066Y111867D01*
X343934D01*
X343401Y111334D01*
Y109735D01*
Y115066D02*
Y112934D01*
X345000D01*
X344467Y114000D01*
Y114533D01*
X345000Y115066D01*
X346066D01*
X346600Y114533D01*
Y113467D01*
X346066Y112934D01*
X343934Y116133D02*
X343401Y116666D01*
Y117732D01*
X343934Y118265D01*
X346066D01*
X346600Y117732D01*
Y116666D01*
X346066Y116133D01*
X343934D01*
X418400Y110735D02*
X421599D01*
Y112334D01*
X421066Y112867D01*
X418934D01*
X418400Y112334D01*
Y110735D01*
X421599Y115533D02*
X418400D01*
X420000Y113934D01*
Y116066D01*
X421066Y117133D02*
X421599Y117666D01*
Y118732D01*
X421066Y119265D01*
X418934D01*
X418400Y118732D01*
Y117666D01*
X418934Y117133D01*
X419467D01*
X420000Y117666D01*
Y119265D01*
X493400Y110735D02*
X496599D01*
Y112334D01*
X496066Y112867D01*
X493934D01*
X493400Y112334D01*
Y110735D01*
X496599Y115533D02*
X493400D01*
X495000Y113934D01*
Y116066D01*
X493934Y117133D02*
X493400Y117666D01*
Y118732D01*
X493934Y119265D01*
X494467D01*
X495000Y118732D01*
X495533Y119265D01*
X496066D01*
X496599Y118732D01*
Y117666D01*
X496066Y117133D01*
X495533D01*
X495000Y117666D01*
X494467Y117133D01*
X493934D01*
X495000Y117666D02*
Y118732D01*
X568400Y109735D02*
X571599D01*
Y111334D01*
X571066Y111867D01*
X568934D01*
X568400Y111334D01*
Y109735D01*
X571599Y114533D02*
X568400D01*
X570000Y112934D01*
Y115066D01*
X568400Y116133D02*
Y118265D01*
X568934D01*
X571066Y116133D01*
X571599D01*
X643400Y109735D02*
X646599D01*
Y111334D01*
X646066Y111867D01*
X643934D01*
X643400Y111334D01*
Y109735D01*
X646599Y114533D02*
X643400D01*
X645000Y112934D01*
Y115066D01*
X643400Y118265D02*
X643934Y117199D01*
X645000Y116133D01*
X646066D01*
X646599Y116666D01*
Y117732D01*
X646066Y118265D01*
X645533D01*
X645000Y117732D01*
Y116133D01*
X718400Y109735D02*
X721599D01*
Y111334D01*
X721066Y111867D01*
X718934D01*
X718400Y111334D01*
Y109735D01*
X721599Y114533D02*
X718400D01*
X720000Y112934D01*
Y115066D01*
X718400Y118265D02*
Y116133D01*
X720000D01*
X719467Y117199D01*
Y117732D01*
X720000Y118265D01*
X721066D01*
X721599Y117732D01*
Y116666D01*
X721066Y116133D01*
X811401Y109735D02*
X814600D01*
Y111334D01*
X814066Y111867D01*
X811934D01*
X811401Y111334D01*
Y109735D01*
X814600Y114533D02*
X811401D01*
X813000Y112934D01*
Y115066D01*
X814600Y117732D02*
X811401D01*
X813000Y116133D01*
Y118265D01*
X869401Y109735D02*
X872600D01*
Y111334D01*
X872066Y111867D01*
X869934D01*
X869401Y111334D01*
Y109735D01*
X872600Y114533D02*
X869401D01*
X871000Y112934D01*
Y115066D01*
X869934Y116133D02*
X869401Y116666D01*
Y117732D01*
X869934Y118265D01*
X870467D01*
X871000Y117732D01*
Y117199D01*
Y117732D01*
X871533Y118265D01*
X872066D01*
X872600Y117732D01*
Y116666D01*
X872066Y116133D01*
X990401Y109735D02*
X993600D01*
Y111334D01*
X993066Y111867D01*
X990934D01*
X990401Y111334D01*
Y109735D01*
X993600Y114533D02*
X990401D01*
X992000Y112934D01*
Y115066D01*
X993600Y118265D02*
Y116133D01*
X991467Y118265D01*
X990934D01*
X990401Y117732D01*
Y116666D01*
X990934Y116133D01*
X33400Y186268D02*
X36599D01*
Y187867D01*
X36066Y188400D01*
X33934D01*
X33400Y187867D01*
Y186268D01*
X36599Y191066D02*
X33400D01*
X35000Y189467D01*
Y191600D01*
X36599Y192666D02*
Y193732D01*
Y193199D01*
X33400D01*
X33934Y192666D01*
X155401Y184735D02*
X158599D01*
Y186334D01*
X158066Y186867D01*
X155934D01*
X155401Y186334D01*
Y184735D01*
X158599Y189533D02*
X155401D01*
X157000Y187934D01*
Y190066D01*
X155934Y191133D02*
X155401Y191666D01*
Y192732D01*
X155934Y193265D01*
X158066D01*
X158599Y192732D01*
Y191666D01*
X158066Y191133D01*
X155934D01*
X230400Y184735D02*
X233599D01*
Y186334D01*
X233066Y186867D01*
X230934D01*
X230400Y186334D01*
Y184735D01*
X230934Y187934D02*
X230400Y188467D01*
Y189533D01*
X230934Y190066D01*
X231467D01*
X232000Y189533D01*
Y189000D01*
Y189533D01*
X232533Y190066D01*
X233066D01*
X233599Y189533D01*
Y188467D01*
X233066Y187934D01*
Y191133D02*
X233599Y191666D01*
Y192732D01*
X233066Y193265D01*
X230934D01*
X230400Y192732D01*
Y191666D01*
X230934Y191133D01*
X231467D01*
X232000Y191666D01*
Y193265D01*
X305400Y184735D02*
X308599D01*
Y186334D01*
X308066Y186867D01*
X305934D01*
X305400Y186334D01*
Y184735D01*
X305934Y187934D02*
X305400Y188467D01*
Y189533D01*
X305934Y190066D01*
X306467D01*
X307000Y189533D01*
Y189000D01*
Y189533D01*
X307533Y190066D01*
X308066D01*
X308599Y189533D01*
Y188467D01*
X308066Y187934D01*
X305934Y191133D02*
X305400Y191666D01*
Y192732D01*
X305934Y193265D01*
X306467D01*
X307000Y192732D01*
X307533Y193265D01*
X308066D01*
X308599Y192732D01*
Y191666D01*
X308066Y191133D01*
X307533D01*
X307000Y191666D01*
X306467Y191133D01*
X305934D01*
X307000Y191666D02*
Y192732D01*
X380400Y185735D02*
X383599D01*
Y187334D01*
X383066Y187867D01*
X380934D01*
X380400Y187334D01*
Y185735D01*
X380934Y188934D02*
X380400Y189467D01*
Y190533D01*
X380934Y191066D01*
X381467D01*
X382000Y190533D01*
Y190000D01*
Y190533D01*
X382533Y191066D01*
X383066D01*
X383599Y190533D01*
Y189467D01*
X383066Y188934D01*
X380400Y192133D02*
Y194265D01*
X380934D01*
X383066Y192133D01*
X383599D01*
X455401Y184735D02*
X458600D01*
Y186334D01*
X458066Y186867D01*
X455934D01*
X455401Y186334D01*
Y184735D01*
X455934Y187934D02*
X455401Y188467D01*
Y189533D01*
X455934Y190066D01*
X456467D01*
X457000Y189533D01*
Y189000D01*
Y189533D01*
X457533Y190066D01*
X458066D01*
X458600Y189533D01*
Y188467D01*
X458066Y187934D01*
X455401Y193265D02*
X455934Y192199D01*
X457000Y191133D01*
X458066D01*
X458600Y191666D01*
Y192732D01*
X458066Y193265D01*
X457533D01*
X457000Y192732D01*
Y191133D01*
X530401Y184735D02*
X533600D01*
Y186334D01*
X533066Y186867D01*
X530934D01*
X530401Y186334D01*
Y184735D01*
X530934Y187934D02*
X530401Y188467D01*
Y189533D01*
X530934Y190066D01*
X531467D01*
X532000Y189533D01*
Y189000D01*
Y189533D01*
X532533Y190066D01*
X533066D01*
X533600Y189533D01*
Y188467D01*
X533066Y187934D01*
X530401Y193265D02*
Y191133D01*
X532000D01*
X531467Y192199D01*
Y192732D01*
X532000Y193265D01*
X533066D01*
X533600Y192732D01*
Y191666D01*
X533066Y191133D01*
X606400Y184735D02*
X609599D01*
Y186334D01*
X609066Y186867D01*
X606934D01*
X606400Y186334D01*
Y184735D01*
X606934Y187934D02*
X606400Y188467D01*
Y189533D01*
X606934Y190066D01*
X607467D01*
X608000Y189533D01*
Y189000D01*
Y189533D01*
X608533Y190066D01*
X609066D01*
X609599Y189533D01*
Y188467D01*
X609066Y187934D01*
X609599Y192732D02*
X606400D01*
X608000Y191133D01*
Y193265D01*
X680401Y185735D02*
X683600D01*
Y187334D01*
X683066Y187867D01*
X680934D01*
X680401Y187334D01*
Y185735D01*
X680934Y188934D02*
X680401Y189467D01*
Y190533D01*
X680934Y191066D01*
X681467D01*
X682000Y190533D01*
Y190000D01*
Y190533D01*
X682533Y191066D01*
X683066D01*
X683600Y190533D01*
Y189467D01*
X683066Y188934D01*
X680934Y192133D02*
X680401Y192666D01*
Y193732D01*
X680934Y194265D01*
X681467D01*
X682000Y193732D01*
Y193199D01*
Y193732D01*
X682533Y194265D01*
X683066D01*
X683600Y193732D01*
Y192666D01*
X683066Y192133D01*
X755401Y184735D02*
X758600D01*
Y186334D01*
X758066Y186867D01*
X755934D01*
X755401Y186334D01*
Y184735D01*
X755934Y187934D02*
X755401Y188467D01*
Y189533D01*
X755934Y190066D01*
X756467D01*
X757000Y189533D01*
Y189000D01*
Y189533D01*
X757533Y190066D01*
X758066D01*
X758600Y189533D01*
Y188467D01*
X758066Y187934D01*
X758600Y193265D02*
Y191133D01*
X756467Y193265D01*
X755934D01*
X755401Y192732D01*
Y191666D01*
X755934Y191133D01*
X831400Y185268D02*
X834599D01*
Y186867D01*
X834066Y187400D01*
X831934D01*
X831400Y186867D01*
Y185268D01*
X831934Y188467D02*
X831400Y189000D01*
Y190066D01*
X831934Y190600D01*
X832467D01*
X833000Y190066D01*
Y189533D01*
Y190066D01*
X833533Y190600D01*
X834066D01*
X834599Y190066D01*
Y189000D01*
X834066Y188467D01*
X834599Y191666D02*
Y192732D01*
Y192199D01*
X831400D01*
X831934Y191666D01*
X906400Y184735D02*
X909599D01*
Y186334D01*
X909066Y186867D01*
X906934D01*
X906400Y186334D01*
Y184735D01*
X906934Y187934D02*
X906400Y188467D01*
Y189533D01*
X906934Y190066D01*
X907467D01*
X908000Y189533D01*
Y189000D01*
Y189533D01*
X908533Y190066D01*
X909066D01*
X909599Y189533D01*
Y188467D01*
X909066Y187934D01*
X906934Y191133D02*
X906400Y191666D01*
Y192732D01*
X906934Y193265D01*
X909066D01*
X909599Y192732D01*
Y191666D01*
X909066Y191133D01*
X906934D01*
X1009400Y184735D02*
X1012599D01*
Y186334D01*
X1012066Y186867D01*
X1009934D01*
X1009400Y186334D01*
Y184735D01*
X1012599Y190066D02*
Y187934D01*
X1010467Y190066D01*
X1009934D01*
X1009400Y189533D01*
Y188467D01*
X1009934Y187934D01*
X1012066Y191133D02*
X1012599Y191666D01*
Y192732D01*
X1012066Y193265D01*
X1009934D01*
X1009400Y192732D01*
Y191666D01*
X1009934Y191133D01*
X1010467D01*
X1011000Y191666D01*
Y193265D01*
X15401Y264735D02*
X18599D01*
Y266334D01*
X18066Y266867D01*
X15934D01*
X15401Y266334D01*
Y264735D01*
X18599Y270066D02*
Y267934D01*
X16467Y270066D01*
X15934D01*
X15401Y269533D01*
Y268467D01*
X15934Y267934D01*
Y271133D02*
X15401Y271666D01*
Y272732D01*
X15934Y273265D01*
X16467D01*
X17000Y272732D01*
X17533Y273265D01*
X18066D01*
X18599Y272732D01*
Y271666D01*
X18066Y271133D01*
X17533D01*
X17000Y271666D01*
X16467Y271133D01*
X15934D01*
X17000Y271666D02*
Y272732D01*
X99401Y259735D02*
X102600D01*
Y261334D01*
X102066Y261867D01*
X99934D01*
X99401Y261334D01*
Y259735D01*
X102600Y265066D02*
Y262934D01*
X100467Y265066D01*
X99934D01*
X99401Y264533D01*
Y263467D01*
X99934Y262934D01*
X99401Y266133D02*
Y268265D01*
X99934D01*
X102066Y266133D01*
X102600D01*
X175400Y259735D02*
X178600D01*
Y261334D01*
X178066Y261867D01*
X175934D01*
X175400Y261334D01*
Y259735D01*
X178600Y265066D02*
Y262934D01*
X176467Y265066D01*
X175934D01*
X175400Y264533D01*
Y263467D01*
X175934Y262934D01*
X175400Y268265D02*
X175934Y267199D01*
X177000Y266133D01*
X178066D01*
X178600Y266666D01*
Y267732D01*
X178066Y268265D01*
X177533D01*
X177000Y267732D01*
Y266133D01*
X249400Y259735D02*
X252600D01*
Y261334D01*
X252066Y261867D01*
X249934D01*
X249400Y261334D01*
Y259735D01*
X252600Y265066D02*
Y262934D01*
X250467Y265066D01*
X249934D01*
X249400Y264533D01*
Y263467D01*
X249934Y262934D01*
X249400Y268265D02*
Y266133D01*
X251000D01*
X250467Y267199D01*
Y267732D01*
X251000Y268265D01*
X252066D01*
X252600Y267732D01*
Y266666D01*
X252066Y266133D01*
X324400Y259735D02*
X327600D01*
Y261334D01*
X327066Y261867D01*
X324934D01*
X324400Y261334D01*
Y259735D01*
X327600Y265066D02*
Y262934D01*
X325467Y265066D01*
X324934D01*
X324400Y264533D01*
Y263467D01*
X324934Y262934D01*
X327600Y267732D02*
X324400D01*
X326000Y266133D01*
Y268265D01*
X399400Y259735D02*
X402599D01*
Y261334D01*
X402066Y261867D01*
X399934D01*
X399400Y261334D01*
Y259735D01*
X402599Y265066D02*
Y262934D01*
X400467Y265066D01*
X399934D01*
X399400Y264533D01*
Y263467D01*
X399934Y262934D01*
Y266133D02*
X399400Y266666D01*
Y267732D01*
X399934Y268265D01*
X400467D01*
X401000Y267732D01*
Y267199D01*
Y267732D01*
X401533Y268265D01*
X402066D01*
X402599Y267732D01*
Y266666D01*
X402066Y266133D01*
X475400Y259735D02*
X478600D01*
Y261334D01*
X478066Y261867D01*
X475934D01*
X475400Y261334D01*
Y259735D01*
X478600Y265066D02*
Y262934D01*
X476467Y265066D01*
X475934D01*
X475400Y264533D01*
Y263467D01*
X475934Y262934D01*
X478600Y268265D02*
Y266133D01*
X476467Y268265D01*
X475934D01*
X475400Y267732D01*
Y266666D01*
X475934Y266133D01*
X550400Y260268D02*
X553600D01*
Y261867D01*
X553066Y262401D01*
X550934D01*
X550400Y261867D01*
Y260268D01*
X553600Y265599D02*
Y263467D01*
X551467Y265599D01*
X550934D01*
X550400Y265066D01*
Y264000D01*
X550934Y263467D01*
X553600Y266666D02*
Y267732D01*
Y267199D01*
X550400D01*
X550934Y266666D01*
X625400Y259735D02*
X628600D01*
Y261334D01*
X628066Y261867D01*
X625934D01*
X625400Y261334D01*
Y259735D01*
X628600Y265066D02*
Y262934D01*
X626467Y265066D01*
X625934D01*
X625400Y264533D01*
Y263467D01*
X625934Y262934D01*
Y266133D02*
X625400Y266666D01*
Y267732D01*
X625934Y268265D01*
X628066D01*
X628600Y267732D01*
Y266666D01*
X628066Y266133D01*
X625934D01*
X699401Y260001D02*
X702599D01*
Y261601D01*
X702066Y262134D01*
X699934D01*
X699401Y261601D01*
Y260001D01*
X702599Y263200D02*
Y264267D01*
Y263733D01*
X699401D01*
X699934Y263200D01*
X702066Y265866D02*
X702599Y266399D01*
Y267465D01*
X702066Y267999D01*
X699934D01*
X699401Y267465D01*
Y266399D01*
X699934Y265866D01*
X700467D01*
X701000Y266399D01*
Y267999D01*
X774401Y260001D02*
X777599D01*
Y261601D01*
X777066Y262134D01*
X774934D01*
X774401Y261601D01*
Y260001D01*
X777599Y263200D02*
Y264267D01*
Y263733D01*
X774401D01*
X774934Y263200D01*
Y265866D02*
X774401Y266399D01*
Y267465D01*
X774934Y267999D01*
X775467D01*
X776000Y267465D01*
X776533Y267999D01*
X777066D01*
X777599Y267465D01*
Y266399D01*
X777066Y265866D01*
X776533D01*
X776000Y266399D01*
X775467Y265866D01*
X774934D01*
X776000Y266399D02*
Y267465D01*
X850401Y260001D02*
X853599D01*
Y261601D01*
X853066Y262134D01*
X850934D01*
X850401Y261601D01*
Y260001D01*
X853599Y263200D02*
Y264267D01*
Y263733D01*
X850401D01*
X850934Y263200D01*
X850401Y265866D02*
Y267999D01*
X850934D01*
X853066Y265866D01*
X853599D01*
X924401Y260001D02*
X927600D01*
Y261601D01*
X927066Y262134D01*
X924934D01*
X924401Y261601D01*
Y260001D01*
X927600Y263200D02*
Y264267D01*
Y263733D01*
X924401D01*
X924934Y263200D01*
X924401Y267999D02*
X924934Y266932D01*
X926000Y265866D01*
X927066D01*
X927600Y266399D01*
Y267465D01*
X927066Y267999D01*
X926533D01*
X926000Y267465D01*
Y265866D01*
X1018400Y260001D02*
X1021599D01*
Y261601D01*
X1021066Y262134D01*
X1018934D01*
X1018400Y261601D01*
Y260001D01*
X1021599Y263200D02*
Y264267D01*
Y263733D01*
X1018400D01*
X1018934Y263200D01*
X1018400Y267999D02*
Y265866D01*
X1020000D01*
X1019467Y266932D01*
Y267465D01*
X1020000Y267999D01*
X1021066D01*
X1021599Y267465D01*
Y266399D01*
X1021066Y265866D01*
X24400Y335001D02*
X27599D01*
Y336601D01*
X27066Y337134D01*
X24934D01*
X24400Y336601D01*
Y335001D01*
X27599Y338200D02*
Y339267D01*
Y338733D01*
X24400D01*
X24934Y338200D01*
X27599Y342465D02*
X24400D01*
X26000Y340866D01*
Y342999D01*
X138400Y335001D02*
X141600D01*
Y336601D01*
X141066Y337134D01*
X138934D01*
X138400Y336601D01*
Y335001D01*
X141600Y338200D02*
Y339267D01*
Y338733D01*
X138400D01*
X138934Y338200D01*
Y340866D02*
X138400Y341399D01*
Y342465D01*
X138934Y342999D01*
X139467D01*
X140000Y342465D01*
Y341932D01*
Y342465D01*
X140533Y342999D01*
X141066D01*
X141600Y342465D01*
Y341399D01*
X141066Y340866D01*
X212401Y335001D02*
X215599D01*
Y336601D01*
X215066Y337134D01*
X212934D01*
X212401Y336601D01*
Y335001D01*
X215599Y338200D02*
Y339267D01*
Y338733D01*
X212401D01*
X212934Y338200D01*
X215599Y342999D02*
Y340866D01*
X213467Y342999D01*
X212934D01*
X212401Y342465D01*
Y341399D01*
X212934Y340866D01*
X288401Y335535D02*
X291599D01*
Y337134D01*
X291066Y337667D01*
X288934D01*
X288401Y337134D01*
Y335535D01*
X291599Y338733D02*
Y339800D01*
Y339267D01*
X288401D01*
X288934Y338733D01*
X291599Y341399D02*
Y342465D01*
Y341932D01*
X288401D01*
X288934Y341399D01*
X362401Y335001D02*
X365599D01*
Y336601D01*
X365066Y337134D01*
X362934D01*
X362401Y336601D01*
Y335001D01*
X365599Y338200D02*
Y339267D01*
Y338733D01*
X362401D01*
X362934Y338200D01*
Y340866D02*
X362401Y341399D01*
Y342465D01*
X362934Y342999D01*
X365066D01*
X365599Y342465D01*
Y341399D01*
X365066Y340866D01*
X362934D01*
X437400Y336334D02*
X440599D01*
Y337934D01*
X440066Y338467D01*
X437934D01*
X437400Y337934D01*
Y336334D01*
X440066Y339533D02*
X440599Y340066D01*
Y341133D01*
X440066Y341666D01*
X437934D01*
X437400Y341133D01*
Y340066D01*
X437934Y339533D01*
X438467D01*
X439000Y340066D01*
Y341666D01*
X513401Y336334D02*
X516600D01*
Y337934D01*
X516066Y338467D01*
X513934D01*
X513401Y337934D01*
Y336334D01*
X513934Y339533D02*
X513401Y340066D01*
Y341133D01*
X513934Y341666D01*
X514467D01*
X515000Y341133D01*
X515533Y341666D01*
X516066D01*
X516600Y341133D01*
Y340066D01*
X516066Y339533D01*
X515533D01*
X515000Y340066D01*
X514467Y339533D01*
X513934D01*
X515000Y340066D02*
Y341133D01*
X587400Y336334D02*
X590599D01*
Y337934D01*
X590066Y338467D01*
X587934D01*
X587400Y337934D01*
Y336334D01*
Y339533D02*
Y341666D01*
X587934D01*
X590066Y339533D01*
X590599D01*
X663401Y336334D02*
X666600D01*
Y337934D01*
X666066Y338467D01*
X663934D01*
X663401Y337934D01*
Y336334D01*
Y341666D02*
X663934Y340599D01*
X665000Y339533D01*
X666066D01*
X666600Y340066D01*
Y341133D01*
X666066Y341666D01*
X665533D01*
X665000Y341133D01*
Y339533D01*
X737400Y337334D02*
X740599D01*
Y338934D01*
X740066Y339467D01*
X737934D01*
X737400Y338934D01*
Y337334D01*
Y342666D02*
Y340533D01*
X739000D01*
X738467Y341599D01*
Y342133D01*
X739000Y342666D01*
X740066D01*
X740599Y342133D01*
Y341066D01*
X740066Y340533D01*
X812401Y336334D02*
X815600D01*
Y337934D01*
X815066Y338467D01*
X812934D01*
X812401Y337934D01*
Y336334D01*
X815600Y341133D02*
X812401D01*
X814000Y339533D01*
Y341666D01*
X887401Y337334D02*
X890600D01*
Y338934D01*
X890066Y339467D01*
X887934D01*
X887401Y338934D01*
Y337334D01*
X887934Y340533D02*
X887401Y341066D01*
Y342133D01*
X887934Y342666D01*
X888467D01*
X889000Y342133D01*
Y341599D01*
Y342133D01*
X889533Y342666D01*
X890066D01*
X890600Y342133D01*
Y341066D01*
X890066Y340533D01*
X962401Y337334D02*
X965600D01*
Y338934D01*
X965066Y339467D01*
X962934D01*
X962401Y338934D01*
Y337334D01*
X965600Y342666D02*
Y340533D01*
X963467Y342666D01*
X962934D01*
X962401Y342133D01*
Y341066D01*
X962934Y340533D01*
X1037401Y336867D02*
X1040600D01*
Y338467D01*
X1040066Y339000D01*
X1037934D01*
X1037401Y338467D01*
Y336867D01*
X1040600Y340066D02*
Y341133D01*
Y340599D01*
X1037401D01*
X1037934Y340066D01*
X61401Y34066D02*
X60867Y34600D01*
X59801D01*
X59268Y34066D01*
Y33533D01*
X59801Y33000D01*
X60867D01*
X61401Y32467D01*
Y31934D01*
X60867Y31400D01*
X59801D01*
X59268Y31934D01*
X64600Y34600D02*
X63533Y34066D01*
X62467Y33000D01*
Y31934D01*
X63000Y31400D01*
X64066D01*
X64600Y31934D01*
Y32467D01*
X64066Y33000D01*
X62467D01*
X65666Y31400D02*
X66732D01*
X66199D01*
Y34600D01*
X65666Y34066D01*
X156867D02*
X156334Y34600D01*
X155268D01*
X154735Y34066D01*
Y33533D01*
X155268Y33000D01*
X156334D01*
X156867Y32467D01*
Y31934D01*
X156334Y31400D01*
X155268D01*
X154735Y31934D01*
X160066Y34600D02*
X159000Y34066D01*
X157934Y33000D01*
Y31934D01*
X158467Y31400D01*
X159533D01*
X160066Y31934D01*
Y32467D01*
X159533Y33000D01*
X157934D01*
X161133Y34066D02*
X161666Y34600D01*
X162732D01*
X163265Y34066D01*
Y31934D01*
X162732Y31400D01*
X161666D01*
X161133Y31934D01*
Y34066D01*
X247867Y32066D02*
X247334Y32599D01*
X246268D01*
X245735Y32066D01*
Y31533D01*
X246268Y31000D01*
X247334D01*
X247867Y30467D01*
Y29934D01*
X247334Y29401D01*
X246268D01*
X245735Y29934D01*
X251066Y32599D02*
X248934D01*
Y31000D01*
X250000Y31533D01*
X250533D01*
X251066Y31000D01*
Y29934D01*
X250533Y29401D01*
X249467D01*
X248934Y29934D01*
X252133D02*
X252666Y29401D01*
X253732D01*
X254265Y29934D01*
Y32066D01*
X253732Y32599D01*
X252666D01*
X252133Y32066D01*
Y31533D01*
X252666Y31000D01*
X254265D01*
X342867Y33066D02*
X342334Y33599D01*
X341268D01*
X340735Y33066D01*
Y32533D01*
X341268Y32000D01*
X342334D01*
X342867Y31467D01*
Y30934D01*
X342334Y30400D01*
X341268D01*
X340735Y30934D01*
X346066Y33599D02*
X343934D01*
Y32000D01*
X345000Y32533D01*
X345533D01*
X346066Y32000D01*
Y30934D01*
X345533Y30400D01*
X344467D01*
X343934Y30934D01*
X347133Y33066D02*
X347666Y33599D01*
X348732D01*
X349265Y33066D01*
Y32533D01*
X348732Y32000D01*
X349265Y31467D01*
Y30934D01*
X348732Y30400D01*
X347666D01*
X347133Y30934D01*
Y31467D01*
X347666Y32000D01*
X347133Y32533D01*
Y33066D01*
X347666Y32000D02*
X348732D01*
X624867Y33066D02*
X624334Y33599D01*
X623268D01*
X622735Y33066D01*
Y32533D01*
X623268Y32000D01*
X624334D01*
X624867Y31467D01*
Y30934D01*
X624334Y30400D01*
X623268D01*
X622735Y30934D01*
X628066Y33599D02*
X625934D01*
Y32000D01*
X627000Y32533D01*
X627533D01*
X628066Y32000D01*
Y30934D01*
X627533Y30400D01*
X626467D01*
X625934Y30934D01*
X629133Y33599D02*
X631265D01*
Y33066D01*
X629133Y30934D01*
Y30400D01*
X903867Y32066D02*
X903334Y32599D01*
X902268D01*
X901735Y32066D01*
Y31533D01*
X902268Y31000D01*
X903334D01*
X903867Y30467D01*
Y29934D01*
X903334Y29401D01*
X902268D01*
X901735Y29934D01*
X907066Y32599D02*
X904934D01*
Y31000D01*
X906000Y31533D01*
X906533D01*
X907066Y31000D01*
Y29934D01*
X906533Y29401D01*
X905467D01*
X904934Y29934D01*
X910265Y32599D02*
X909199Y32066D01*
X908133Y31000D01*
Y29934D01*
X908666Y29401D01*
X909732D01*
X910265Y29934D01*
Y30467D01*
X909732Y31000D01*
X908133D01*
X999867Y33066D02*
X999334Y33599D01*
X998268D01*
X997735Y33066D01*
Y32533D01*
X998268Y32000D01*
X999334D01*
X999867Y31467D01*
Y30934D01*
X999334Y30400D01*
X998268D01*
X997735Y30934D01*
X1003066Y33599D02*
X1000934D01*
Y32000D01*
X1002000Y32533D01*
X1002533D01*
X1003066Y32000D01*
Y30934D01*
X1002533Y30400D01*
X1001467D01*
X1000934Y30934D01*
X1006265Y33599D02*
X1004133D01*
Y32000D01*
X1005199Y32533D01*
X1005732D01*
X1006265Y32000D01*
Y30934D01*
X1005732Y30400D01*
X1004666D01*
X1004133Y30934D01*
X1091867Y33066D02*
X1091334Y33599D01*
X1090268D01*
X1089735Y33066D01*
Y32533D01*
X1090268Y32000D01*
X1091334D01*
X1091867Y31467D01*
Y30934D01*
X1091334Y30400D01*
X1090268D01*
X1089735Y30934D01*
X1095066Y33599D02*
X1092934D01*
Y32000D01*
X1094000Y32533D01*
X1094533D01*
X1095066Y32000D01*
Y30934D01*
X1094533Y30400D01*
X1093467D01*
X1092934Y30934D01*
X1097732Y30400D02*
Y33599D01*
X1096133Y32000D01*
X1098265D01*
X115867Y108066D02*
X115334Y108599D01*
X114268D01*
X113735Y108066D01*
Y107533D01*
X114268Y107000D01*
X115334D01*
X115867Y106467D01*
Y105934D01*
X115334Y105401D01*
X114268D01*
X113735Y105934D01*
X119066Y108599D02*
X116934D01*
Y107000D01*
X118000Y107533D01*
X118533D01*
X119066Y107000D01*
Y105934D01*
X118533Y105401D01*
X117467D01*
X116934Y105934D01*
X120133Y108066D02*
X120666Y108599D01*
X121732D01*
X122265Y108066D01*
Y107533D01*
X121732Y107000D01*
X121199D01*
X121732D01*
X122265Y106467D01*
Y105934D01*
X121732Y105401D01*
X120666D01*
X120133Y105934D01*
X257867Y108066D02*
X257334Y108599D01*
X256268D01*
X255735Y108066D01*
Y107533D01*
X256268Y107000D01*
X257334D01*
X257867Y106467D01*
Y105934D01*
X257334Y105401D01*
X256268D01*
X255735Y105934D01*
X261066Y108599D02*
X258934D01*
Y107000D01*
X260000Y107533D01*
X260533D01*
X261066Y107000D01*
Y105934D01*
X260533Y105401D01*
X259467D01*
X258934Y105934D01*
X264265Y105401D02*
X262133D01*
X264265Y107533D01*
Y108066D01*
X263732Y108599D01*
X262666D01*
X262133Y108066D01*
X332400D02*
X331867Y108599D01*
X330801D01*
X330268Y108066D01*
Y107533D01*
X330801Y107000D01*
X331867D01*
X332400Y106467D01*
Y105934D01*
X331867Y105401D01*
X330801D01*
X330268Y105934D01*
X335599Y108599D02*
X333467D01*
Y107000D01*
X334533Y107533D01*
X335066D01*
X335599Y107000D01*
Y105934D01*
X335066Y105401D01*
X334000D01*
X333467Y105934D01*
X336666Y105401D02*
X337732D01*
X337199D01*
Y108599D01*
X336666Y108066D01*
X407867D02*
X407334Y108599D01*
X406268D01*
X405735Y108066D01*
Y107533D01*
X406268Y107000D01*
X407334D01*
X407867Y106467D01*
Y105934D01*
X407334Y105401D01*
X406268D01*
X405735Y105934D01*
X411066Y108599D02*
X408934D01*
Y107000D01*
X410000Y107533D01*
X410533D01*
X411066Y107000D01*
Y105934D01*
X410533Y105401D01*
X409467D01*
X408934Y105934D01*
X412133Y108066D02*
X412666Y108599D01*
X413732D01*
X414265Y108066D01*
Y105934D01*
X413732Y105401D01*
X412666D01*
X412133Y105934D01*
Y108066D01*
X481867D02*
X481334Y108599D01*
X480268D01*
X479735Y108066D01*
Y107533D01*
X480268Y107000D01*
X481334D01*
X481867Y106467D01*
Y105934D01*
X481334Y105401D01*
X480268D01*
X479735Y105934D01*
X484533Y105401D02*
Y108599D01*
X482934Y107000D01*
X485066D01*
X486133Y105934D02*
X486666Y105401D01*
X487732D01*
X488265Y105934D01*
Y108066D01*
X487732Y108599D01*
X486666D01*
X486133Y108066D01*
Y107533D01*
X486666Y107000D01*
X488265D01*
X556867Y108066D02*
X556334Y108599D01*
X555268D01*
X554735Y108066D01*
Y107533D01*
X555268Y107000D01*
X556334D01*
X556867Y106467D01*
Y105934D01*
X556334Y105401D01*
X555268D01*
X554735Y105934D01*
X559533Y105401D02*
Y108599D01*
X557934Y107000D01*
X560066D01*
X561133Y108066D02*
X561666Y108599D01*
X562732D01*
X563265Y108066D01*
Y107533D01*
X562732Y107000D01*
X563265Y106467D01*
Y105934D01*
X562732Y105401D01*
X561666D01*
X561133Y105934D01*
Y106467D01*
X561666Y107000D01*
X561133Y107533D01*
Y108066D01*
X561666Y107000D02*
X562732D01*
X632867Y106066D02*
X632334Y106599D01*
X631268D01*
X630735Y106066D01*
Y105533D01*
X631268Y105000D01*
X632334D01*
X632867Y104467D01*
Y103934D01*
X632334Y103401D01*
X631268D01*
X630735Y103934D01*
X635533Y103401D02*
Y106599D01*
X633934Y105000D01*
X636066D01*
X637133Y106599D02*
X639265D01*
Y106066D01*
X637133Y103934D01*
Y103401D01*
X707867Y107066D02*
X707334Y107599D01*
X706268D01*
X705735Y107066D01*
Y106533D01*
X706268Y106000D01*
X707334D01*
X707867Y105467D01*
Y104934D01*
X707334Y104401D01*
X706268D01*
X705735Y104934D01*
X710533Y104401D02*
Y107599D01*
X708934Y106000D01*
X711066D01*
X714265Y107599D02*
X713199Y107066D01*
X712133Y106000D01*
Y104934D01*
X712666Y104401D01*
X713732D01*
X714265Y104934D01*
Y105467D01*
X713732Y106000D01*
X712133D01*
X782867Y108066D02*
X782334Y108599D01*
X781268D01*
X780735Y108066D01*
Y107533D01*
X781268Y107000D01*
X782334D01*
X782867Y106467D01*
Y105934D01*
X782334Y105401D01*
X781268D01*
X780735Y105934D01*
X785533Y105401D02*
Y108599D01*
X783934Y107000D01*
X786066D01*
X789265Y108599D02*
X787133D01*
Y107000D01*
X788199Y107533D01*
X788732D01*
X789265Y107000D01*
Y105934D01*
X788732Y105401D01*
X787666D01*
X787133Y105934D01*
X859867Y108066D02*
X859334Y108599D01*
X858268D01*
X857735Y108066D01*
Y107533D01*
X858268Y107000D01*
X859334D01*
X859867Y106467D01*
Y105934D01*
X859334Y105401D01*
X858268D01*
X857735Y105934D01*
X862533Y105401D02*
Y108599D01*
X860934Y107000D01*
X863066D01*
X865732Y105401D02*
Y108599D01*
X864133Y107000D01*
X866265D01*
X930867Y107066D02*
X930334Y107599D01*
X929268D01*
X928735Y107066D01*
Y106533D01*
X929268Y106000D01*
X930334D01*
X930867Y105467D01*
Y104934D01*
X930334Y104401D01*
X929268D01*
X928735Y104934D01*
X933533Y104401D02*
Y107599D01*
X931934Y106000D01*
X934066D01*
X935133Y107066D02*
X935666Y107599D01*
X936732D01*
X937265Y107066D01*
Y106533D01*
X936732Y106000D01*
X936199D01*
X936732D01*
X937265Y105467D01*
Y104934D01*
X936732Y104401D01*
X935666D01*
X935133Y104934D01*
X1053867Y108066D02*
X1053334Y108599D01*
X1052268D01*
X1051735Y108066D01*
Y107533D01*
X1052268Y107000D01*
X1053334D01*
X1053867Y106467D01*
Y105934D01*
X1053334Y105401D01*
X1052268D01*
X1051735Y105934D01*
X1056533Y105401D02*
Y108599D01*
X1054934Y107000D01*
X1057066D01*
X1060265Y105401D02*
X1058133D01*
X1060265Y107533D01*
Y108066D01*
X1059732Y108599D01*
X1058666D01*
X1058133Y108066D01*
X97400Y182066D02*
X96867Y182599D01*
X95801D01*
X95268Y182066D01*
Y181533D01*
X95801Y181000D01*
X96867D01*
X97400Y180467D01*
Y179934D01*
X96867Y179401D01*
X95801D01*
X95268Y179934D01*
X100066Y179401D02*
Y182599D01*
X98467Y181000D01*
X100600D01*
X101666Y179401D02*
X102732D01*
X102199D01*
Y182599D01*
X101666Y182066D01*
X218867Y183066D02*
X218334Y183599D01*
X217268D01*
X216735Y183066D01*
Y182533D01*
X217268Y182000D01*
X218334D01*
X218867Y181467D01*
Y180934D01*
X218334Y180401D01*
X217268D01*
X216735Y180934D01*
X221533Y180401D02*
Y183599D01*
X219934Y182000D01*
X222066D01*
X223133Y183066D02*
X223666Y183599D01*
X224732D01*
X225265Y183066D01*
Y180934D01*
X224732Y180401D01*
X223666D01*
X223133Y180934D01*
Y183066D01*
X293867D02*
X293334Y183599D01*
X292268D01*
X291735Y183066D01*
Y182533D01*
X292268Y182000D01*
X293334D01*
X293867Y181467D01*
Y180934D01*
X293334Y180401D01*
X292268D01*
X291735Y180934D01*
X294934Y183066D02*
X295467Y183599D01*
X296533D01*
X297066Y183066D01*
Y182533D01*
X296533Y182000D01*
X296000D01*
X296533D01*
X297066Y181467D01*
Y180934D01*
X296533Y180401D01*
X295467D01*
X294934Y180934D01*
X298133D02*
X298666Y180401D01*
X299732D01*
X300265Y180934D01*
Y183066D01*
X299732Y183599D01*
X298666D01*
X298133Y183066D01*
Y182533D01*
X298666Y182000D01*
X300265D01*
X368867Y183066D02*
X368334Y183599D01*
X367268D01*
X366735Y183066D01*
Y182533D01*
X367268Y182000D01*
X368334D01*
X368867Y181467D01*
Y180934D01*
X368334Y180401D01*
X367268D01*
X366735Y180934D01*
X369934Y183066D02*
X370467Y183599D01*
X371533D01*
X372066Y183066D01*
Y182533D01*
X371533Y182000D01*
X371000D01*
X371533D01*
X372066Y181467D01*
Y180934D01*
X371533Y180401D01*
X370467D01*
X369934Y180934D01*
X373133Y183066D02*
X373666Y183599D01*
X374732D01*
X375265Y183066D01*
Y182533D01*
X374732Y182000D01*
X375265Y181467D01*
Y180934D01*
X374732Y180401D01*
X373666D01*
X373133Y180934D01*
Y181467D01*
X373666Y182000D01*
X373133Y182533D01*
Y183066D01*
X373666Y182000D02*
X374732D01*
X444867Y183066D02*
X444334Y183599D01*
X443268D01*
X442735Y183066D01*
Y182533D01*
X443268Y182000D01*
X444334D01*
X444867Y181467D01*
Y180934D01*
X444334Y180401D01*
X443268D01*
X442735Y180934D01*
X445934Y183066D02*
X446467Y183599D01*
X447533D01*
X448066Y183066D01*
Y182533D01*
X447533Y182000D01*
X447000D01*
X447533D01*
X448066Y181467D01*
Y180934D01*
X447533Y180401D01*
X446467D01*
X445934Y180934D01*
X449133Y183599D02*
X451265D01*
Y183066D01*
X449133Y180934D01*
Y180401D01*
X518867Y183066D02*
X518334Y183599D01*
X517268D01*
X516735Y183066D01*
Y182533D01*
X517268Y182000D01*
X518334D01*
X518867Y181467D01*
Y180934D01*
X518334Y180401D01*
X517268D01*
X516735Y180934D01*
X519934Y183066D02*
X520467Y183599D01*
X521533D01*
X522066Y183066D01*
Y182533D01*
X521533Y182000D01*
X521000D01*
X521533D01*
X522066Y181467D01*
Y180934D01*
X521533Y180401D01*
X520467D01*
X519934Y180934D01*
X525265Y183599D02*
X524199Y183066D01*
X523133Y182000D01*
Y180934D01*
X523666Y180401D01*
X524732D01*
X525265Y180934D01*
Y181467D01*
X524732Y182000D01*
X523133D01*
X593867Y182066D02*
X593334Y182599D01*
X592268D01*
X591735Y182066D01*
Y181533D01*
X592268Y181000D01*
X593334D01*
X593867Y180467D01*
Y179934D01*
X593334Y179401D01*
X592268D01*
X591735Y179934D01*
X594934Y182066D02*
X595467Y182599D01*
X596533D01*
X597066Y182066D01*
Y181533D01*
X596533Y181000D01*
X596000D01*
X596533D01*
X597066Y180467D01*
Y179934D01*
X596533Y179401D01*
X595467D01*
X594934Y179934D01*
X600265Y182599D02*
X598133D01*
Y181000D01*
X599199Y181533D01*
X599732D01*
X600265Y181000D01*
Y179934D01*
X599732Y179401D01*
X598666D01*
X598133Y179934D01*
X668867Y182066D02*
X668334Y182599D01*
X667268D01*
X666735Y182066D01*
Y181533D01*
X667268Y181000D01*
X668334D01*
X668867Y180467D01*
Y179934D01*
X668334Y179401D01*
X667268D01*
X666735Y179934D01*
X669934Y182066D02*
X670467Y182599D01*
X671533D01*
X672066Y182066D01*
Y181533D01*
X671533Y181000D01*
X671000D01*
X671533D01*
X672066Y180467D01*
Y179934D01*
X671533Y179401D01*
X670467D01*
X669934Y179934D01*
X674732Y179401D02*
Y182599D01*
X673133Y181000D01*
X675265D01*
X743867Y182066D02*
X743334Y182599D01*
X742268D01*
X741735Y182066D01*
Y181533D01*
X742268Y181000D01*
X743334D01*
X743867Y180467D01*
Y179934D01*
X743334Y179401D01*
X742268D01*
X741735Y179934D01*
X744934Y182066D02*
X745467Y182599D01*
X746533D01*
X747066Y182066D01*
Y181533D01*
X746533Y181000D01*
X746000D01*
X746533D01*
X747066Y180467D01*
Y179934D01*
X746533Y179401D01*
X745467D01*
X744934Y179934D01*
X748133Y182066D02*
X748666Y182599D01*
X749732D01*
X750265Y182066D01*
Y181533D01*
X749732Y181000D01*
X749199D01*
X749732D01*
X750265Y180467D01*
Y179934D01*
X749732Y179401D01*
X748666D01*
X748133Y179934D01*
X819867Y183066D02*
X819334Y183599D01*
X818268D01*
X817735Y183066D01*
Y182533D01*
X818268Y182000D01*
X819334D01*
X819867Y181467D01*
Y180934D01*
X819334Y180401D01*
X818268D01*
X817735Y180934D01*
X820934Y183066D02*
X821467Y183599D01*
X822533D01*
X823066Y183066D01*
Y182533D01*
X822533Y182000D01*
X822000D01*
X822533D01*
X823066Y181467D01*
Y180934D01*
X822533Y180401D01*
X821467D01*
X820934Y180934D01*
X826265Y180401D02*
X824133D01*
X826265Y182533D01*
Y183066D01*
X825732Y183599D01*
X824666D01*
X824133Y183066D01*
X894401Y182066D02*
X893867Y182599D01*
X892801D01*
X892268Y182066D01*
Y181533D01*
X892801Y181000D01*
X893867D01*
X894401Y180467D01*
Y179934D01*
X893867Y179401D01*
X892801D01*
X892268Y179934D01*
X895467Y182066D02*
X896000Y182599D01*
X897066D01*
X897600Y182066D01*
Y181533D01*
X897066Y181000D01*
X896533D01*
X897066D01*
X897600Y180467D01*
Y179934D01*
X897066Y179401D01*
X896000D01*
X895467Y179934D01*
X898666Y179401D02*
X899732D01*
X899199D01*
Y182599D01*
X898666Y182066D01*
X1071867Y183066D02*
X1071334Y183599D01*
X1070268D01*
X1069735Y183066D01*
Y182533D01*
X1070268Y182000D01*
X1071334D01*
X1071867Y181467D01*
Y180934D01*
X1071334Y180401D01*
X1070268D01*
X1069735Y180934D01*
X1075066Y180401D02*
X1072934D01*
X1075066Y182533D01*
Y183066D01*
X1074533Y183599D01*
X1073467D01*
X1072934Y183066D01*
X1076133Y180934D02*
X1076666Y180401D01*
X1077732D01*
X1078265Y180934D01*
Y183066D01*
X1077732Y183599D01*
X1076666D01*
X1076133Y183066D01*
Y182533D01*
X1076666Y182000D01*
X1078265D01*
X68867Y257066D02*
X68334Y257599D01*
X67268D01*
X66735Y257066D01*
Y256533D01*
X67268Y256000D01*
X68334D01*
X68867Y255467D01*
Y254934D01*
X68334Y254400D01*
X67268D01*
X66735Y254934D01*
X72066Y254400D02*
X69934D01*
X72066Y256533D01*
Y257066D01*
X71533Y257599D01*
X70467D01*
X69934Y257066D01*
X73133D02*
X73666Y257599D01*
X74732D01*
X75265Y257066D01*
Y256533D01*
X74732Y256000D01*
X75265Y255467D01*
Y254934D01*
X74732Y254400D01*
X73666D01*
X73133Y254934D01*
Y255467D01*
X73666Y256000D01*
X73133Y256533D01*
Y257066D01*
X73666Y256000D02*
X74732D01*
X162867Y257066D02*
X162334Y257599D01*
X161268D01*
X160735Y257066D01*
Y256533D01*
X161268Y256000D01*
X162334D01*
X162867Y255467D01*
Y254934D01*
X162334Y254400D01*
X161268D01*
X160735Y254934D01*
X166066Y254400D02*
X163934D01*
X166066Y256533D01*
Y257066D01*
X165533Y257599D01*
X164467D01*
X163934Y257066D01*
X167133Y257599D02*
X169265D01*
Y257066D01*
X167133Y254934D01*
Y254400D01*
X236867Y257066D02*
X236334Y257599D01*
X235268D01*
X234735Y257066D01*
Y256533D01*
X235268Y256000D01*
X236334D01*
X236867Y255467D01*
Y254934D01*
X236334Y254400D01*
X235268D01*
X234735Y254934D01*
X240066Y254400D02*
X237934D01*
X240066Y256533D01*
Y257066D01*
X239533Y257599D01*
X238467D01*
X237934Y257066D01*
X243265Y257599D02*
X242199Y257066D01*
X241133Y256000D01*
Y254934D01*
X241666Y254400D01*
X242732D01*
X243265Y254934D01*
Y255467D01*
X242732Y256000D01*
X241133D01*
X311867Y257066D02*
X311334Y257599D01*
X310268D01*
X309735Y257066D01*
Y256533D01*
X310268Y256000D01*
X311334D01*
X311867Y255467D01*
Y254934D01*
X311334Y254400D01*
X310268D01*
X309735Y254934D01*
X315066Y254400D02*
X312934D01*
X315066Y256533D01*
Y257066D01*
X314533Y257599D01*
X313467D01*
X312934Y257066D01*
X318265Y257599D02*
X316133D01*
Y256000D01*
X317199Y256533D01*
X317732D01*
X318265Y256000D01*
Y254934D01*
X317732Y254400D01*
X316666D01*
X316133Y254934D01*
X386867Y257066D02*
X386334Y257599D01*
X385268D01*
X384735Y257066D01*
Y256533D01*
X385268Y256000D01*
X386334D01*
X386867Y255467D01*
Y254934D01*
X386334Y254400D01*
X385268D01*
X384735Y254934D01*
X390066Y254400D02*
X387934D01*
X390066Y256533D01*
Y257066D01*
X389533Y257599D01*
X388467D01*
X387934Y257066D01*
X392732Y254400D02*
Y257599D01*
X391133Y256000D01*
X393265D01*
X461867Y257066D02*
X461334Y257599D01*
X460268D01*
X459735Y257066D01*
Y256533D01*
X460268Y256000D01*
X461334D01*
X461867Y255467D01*
Y254934D01*
X461334Y254400D01*
X460268D01*
X459735Y254934D01*
X465066Y254400D02*
X462934D01*
X465066Y256533D01*
Y257066D01*
X464533Y257599D01*
X463467D01*
X462934Y257066D01*
X466133D02*
X466666Y257599D01*
X467732D01*
X468265Y257066D01*
Y256533D01*
X467732Y256000D01*
X467199D01*
X467732D01*
X468265Y255467D01*
Y254934D01*
X467732Y254400D01*
X466666D01*
X466133Y254934D01*
X536867Y257066D02*
X536334Y257599D01*
X535268D01*
X534735Y257066D01*
Y256533D01*
X535268Y256000D01*
X536334D01*
X536867Y255467D01*
Y254934D01*
X536334Y254400D01*
X535268D01*
X534735Y254934D01*
X540066Y254400D02*
X537934D01*
X540066Y256533D01*
Y257066D01*
X539533Y257599D01*
X538467D01*
X537934Y257066D01*
X543265Y254400D02*
X541133D01*
X543265Y256533D01*
Y257066D01*
X542732Y257599D01*
X541666D01*
X541133Y257066D01*
X613401D02*
X612867Y257599D01*
X611801D01*
X611268Y257066D01*
Y256533D01*
X611801Y256000D01*
X612867D01*
X613401Y255467D01*
Y254934D01*
X612867Y254400D01*
X611801D01*
X611268Y254934D01*
X616600Y254400D02*
X614467D01*
X616600Y256533D01*
Y257066D01*
X616066Y257599D01*
X615000D01*
X614467Y257066D01*
X617666Y254400D02*
X618732D01*
X618199D01*
Y257599D01*
X617666Y257066D01*
X687867D02*
X687334Y257599D01*
X686268D01*
X685735Y257066D01*
Y256533D01*
X686268Y256000D01*
X687334D01*
X687867Y255467D01*
Y254934D01*
X687334Y254400D01*
X686268D01*
X685735Y254934D01*
X691066Y254400D02*
X688934D01*
X691066Y256533D01*
Y257066D01*
X690533Y257599D01*
X689467D01*
X688934Y257066D01*
X692133D02*
X692666Y257599D01*
X693732D01*
X694265Y257066D01*
Y254934D01*
X693732Y254400D01*
X692666D01*
X692133Y254934D01*
Y257066D01*
X763134D02*
X762601Y257599D01*
X761535D01*
X761001Y257066D01*
Y256533D01*
X761535Y256000D01*
X762601D01*
X763134Y255467D01*
Y254934D01*
X762601Y254400D01*
X761535D01*
X761001Y254934D01*
X764200Y254400D02*
X765267D01*
X764733D01*
Y257599D01*
X764200Y257066D01*
X766866Y254934D02*
X767399Y254400D01*
X768466D01*
X768999Y254934D01*
Y257066D01*
X768466Y257599D01*
X767399D01*
X766866Y257066D01*
Y256533D01*
X767399Y256000D01*
X768999D01*
X837134Y257066D02*
X836601Y257599D01*
X835534D01*
X835001Y257066D01*
Y256533D01*
X835534Y256000D01*
X836601D01*
X837134Y255467D01*
Y254934D01*
X836601Y254400D01*
X835534D01*
X835001Y254934D01*
X838200Y254400D02*
X839267D01*
X838733D01*
Y257599D01*
X838200Y257066D01*
X840866D02*
X841399Y257599D01*
X842466D01*
X842999Y257066D01*
Y256533D01*
X842466Y256000D01*
X842999Y255467D01*
Y254934D01*
X842466Y254400D01*
X841399D01*
X840866Y254934D01*
Y255467D01*
X841399Y256000D01*
X840866Y256533D01*
Y257066D01*
X841399Y256000D02*
X842466D01*
X913134Y257066D02*
X912601Y257599D01*
X911535D01*
X911001Y257066D01*
Y256533D01*
X911535Y256000D01*
X912601D01*
X913134Y255467D01*
Y254934D01*
X912601Y254400D01*
X911535D01*
X911001Y254934D01*
X914200Y254400D02*
X915267D01*
X914733D01*
Y257599D01*
X914200Y257066D01*
X916866Y257599D02*
X918999D01*
Y257066D01*
X916866Y254934D01*
Y254400D01*
X1081134Y257066D02*
X1080601Y257599D01*
X1079535D01*
X1079001Y257066D01*
Y256533D01*
X1079535Y256000D01*
X1080601D01*
X1081134Y255467D01*
Y254934D01*
X1080601Y254400D01*
X1079535D01*
X1079001Y254934D01*
X1082200Y254400D02*
X1083267D01*
X1082733D01*
Y257599D01*
X1082200Y257066D01*
X1086999Y257599D02*
X1084866D01*
Y256000D01*
X1085932Y256533D01*
X1086466D01*
X1086999Y256000D01*
Y254934D01*
X1086466Y254400D01*
X1085399D01*
X1084866Y254934D01*
X89134Y332066D02*
X88601Y332599D01*
X87534D01*
X87001Y332066D01*
Y331533D01*
X87534Y331000D01*
X88601D01*
X89134Y330467D01*
Y329934D01*
X88601Y329400D01*
X87534D01*
X87001Y329934D01*
X90200Y329400D02*
X91267D01*
X90733D01*
Y332599D01*
X90200Y332066D01*
X94466Y329400D02*
Y332599D01*
X92866Y331000D01*
X94999D01*
X201134Y332066D02*
X200601Y332599D01*
X199534D01*
X199001Y332066D01*
Y331533D01*
X199534Y331000D01*
X200601D01*
X201134Y330467D01*
Y329934D01*
X200601Y329400D01*
X199534D01*
X199001Y329934D01*
X202200Y329400D02*
X203267D01*
X202733D01*
Y332599D01*
X202200Y332066D01*
X204866D02*
X205399Y332599D01*
X206466D01*
X206999Y332066D01*
Y331533D01*
X206466Y331000D01*
X205932D01*
X206466D01*
X206999Y330467D01*
Y329934D01*
X206466Y329400D01*
X205399D01*
X204866Y329934D01*
X276134Y332066D02*
X275601Y332599D01*
X274535D01*
X274001Y332066D01*
Y331533D01*
X274535Y331000D01*
X275601D01*
X276134Y330467D01*
Y329934D01*
X275601Y329400D01*
X274535D01*
X274001Y329934D01*
X277200Y329400D02*
X278267D01*
X277733D01*
Y332599D01*
X277200Y332066D01*
X281999Y329400D02*
X279866D01*
X281999Y331533D01*
Y332066D01*
X281466Y332599D01*
X280399D01*
X279866Y332066D01*
X351667D02*
X351134Y332599D01*
X350068D01*
X349535Y332066D01*
Y331533D01*
X350068Y331000D01*
X351134D01*
X351667Y330467D01*
Y329934D01*
X351134Y329400D01*
X350068D01*
X349535Y329934D01*
X352733Y329400D02*
X353800D01*
X353267D01*
Y332599D01*
X352733Y332066D01*
X355399Y329400D02*
X356466D01*
X355932D01*
Y332599D01*
X355399Y332066D01*
X426134Y333066D02*
X425601Y333599D01*
X424535D01*
X424001Y333066D01*
Y332533D01*
X424535Y332000D01*
X425601D01*
X426134Y331467D01*
Y330934D01*
X425601Y330400D01*
X424535D01*
X424001Y330934D01*
X427200Y330400D02*
X428267D01*
X427733D01*
Y333599D01*
X427200Y333066D01*
X429866D02*
X430399Y333599D01*
X431465D01*
X431999Y333066D01*
Y330934D01*
X431465Y330400D01*
X430399D01*
X429866Y330934D01*
Y333066D01*
X502467Y332066D02*
X501934Y332599D01*
X500867D01*
X500334Y332066D01*
Y331533D01*
X500867Y331000D01*
X501934D01*
X502467Y330467D01*
Y329934D01*
X501934Y329400D01*
X500867D01*
X500334Y329934D01*
X503533D02*
X504066Y329400D01*
X505133D01*
X505666Y329934D01*
Y332066D01*
X505133Y332599D01*
X504066D01*
X503533Y332066D01*
Y331533D01*
X504066Y331000D01*
X505666D01*
X577467Y332066D02*
X576934Y332599D01*
X575867D01*
X575334Y332066D01*
Y331533D01*
X575867Y331000D01*
X576934D01*
X577467Y330467D01*
Y329934D01*
X576934Y329400D01*
X575867D01*
X575334Y329934D01*
X578533Y332066D02*
X579066Y332599D01*
X580133D01*
X580666Y332066D01*
Y331533D01*
X580133Y331000D01*
X580666Y330467D01*
Y329934D01*
X580133Y329400D01*
X579066D01*
X578533Y329934D01*
Y330467D01*
X579066Y331000D01*
X578533Y331533D01*
Y332066D01*
X579066Y331000D02*
X580133D01*
X652467Y332066D02*
X651934Y332599D01*
X650867D01*
X650334Y332066D01*
Y331533D01*
X650867Y331000D01*
X651934D01*
X652467Y330467D01*
Y329934D01*
X651934Y329400D01*
X650867D01*
X650334Y329934D01*
X653533Y332599D02*
X655666D01*
Y332066D01*
X653533Y329934D01*
Y329400D01*
X727467Y332066D02*
X726934Y332599D01*
X725867D01*
X725334Y332066D01*
Y331533D01*
X725867Y331000D01*
X726934D01*
X727467Y330467D01*
Y329934D01*
X726934Y329400D01*
X725867D01*
X725334Y329934D01*
X730666Y332599D02*
X729600Y332066D01*
X728533Y331000D01*
Y329934D01*
X729066Y329400D01*
X730133D01*
X730666Y329934D01*
Y330467D01*
X730133Y331000D01*
X728533D01*
X802467Y332066D02*
X801934Y332599D01*
X800867D01*
X800334Y332066D01*
Y331533D01*
X800867Y331000D01*
X801934D01*
X802467Y330467D01*
Y329934D01*
X801934Y329400D01*
X800867D01*
X800334Y329934D01*
X805666Y332599D02*
X803533D01*
Y331000D01*
X804599Y331533D01*
X805133D01*
X805666Y331000D01*
Y329934D01*
X805133Y329400D01*
X804066D01*
X803533Y329934D01*
X878467Y332066D02*
X877934Y332599D01*
X876867D01*
X876334Y332066D01*
Y331533D01*
X876867Y331000D01*
X877934D01*
X878467Y330467D01*
Y329934D01*
X877934Y329400D01*
X876867D01*
X876334Y329934D01*
X881133Y329400D02*
Y332599D01*
X879533Y331000D01*
X881666D01*
X952467Y332066D02*
X951934Y332599D01*
X950867D01*
X950334Y332066D01*
Y331533D01*
X950867Y331000D01*
X951934D01*
X952467Y330467D01*
Y329934D01*
X951934Y329400D01*
X950867D01*
X950334Y329934D01*
X953533Y332066D02*
X954066Y332599D01*
X955133D01*
X955666Y332066D01*
Y331533D01*
X955133Y331000D01*
X954599D01*
X955133D01*
X955666Y330467D01*
Y329934D01*
X955133Y329400D01*
X954066D01*
X953533Y329934D01*
X1027467Y332066D02*
X1026934Y332599D01*
X1025867D01*
X1025334Y332066D01*
Y331533D01*
X1025867Y331000D01*
X1026934D01*
X1027467Y330467D01*
Y329934D01*
X1026934Y329400D01*
X1025867D01*
X1025334Y329934D01*
X1030666Y329400D02*
X1028533D01*
X1030666Y331533D01*
Y332066D01*
X1030133Y332599D01*
X1029066D01*
X1028533Y332066D01*
X1104000D02*
X1103467Y332599D01*
X1102400D01*
X1101867Y332066D01*
Y331533D01*
X1102400Y331000D01*
X1103467D01*
X1104000Y330467D01*
Y329934D01*
X1103467Y329400D01*
X1102400D01*
X1101867Y329934D01*
X1105066Y329400D02*
X1106133D01*
X1105599D01*
Y332599D01*
X1105066Y332066D01*
D14*
X1111500Y94499D02*
Y92500D01*
X1105502D01*
Y94499D01*
X1111500Y103496D02*
X1105502D01*
X1107501Y105496D01*
X1105502Y107495D01*
X1111500D01*
X1105502Y113493D02*
Y111494D01*
Y112494D01*
X1110500D01*
X1111500Y111494D01*
Y110494D01*
X1110500Y109494D01*
X1111500Y115493D02*
X1105502D01*
X1107501Y117492D01*
X1105502Y119491D01*
X1111500D01*
Y127489D02*
X1107501Y131487D01*
X1111500Y143483D02*
Y139485D01*
X1107501Y143483D01*
X1106502D01*
X1105502Y142484D01*
Y140484D01*
X1106502Y139485D01*
Y145483D02*
X1105502Y146483D01*
Y148482D01*
X1106502Y149482D01*
X1110500D01*
X1111500Y148482D01*
Y146483D01*
X1110500Y145483D01*
X1106502D01*
X1111500Y155480D02*
Y151481D01*
X1107501Y155480D01*
X1106502D01*
X1105502Y154480D01*
Y152481D01*
X1106502Y151481D01*
X1111500Y161478D02*
Y157479D01*
X1107501Y161478D01*
X1106502D01*
X1105502Y160478D01*
Y158479D01*
X1106502Y157479D01*
X1111500Y169475D02*
Y171475D01*
X1105502D01*
Y169475D01*
X1111500Y180472D02*
X1105502D01*
Y183471D01*
X1106502Y184470D01*
X1108501D01*
X1109501Y183471D01*
Y180472D01*
Y182471D02*
X1111500Y184470D01*
X1105502Y190468D02*
Y186470D01*
X1111500D01*
Y190468D01*
X1108501Y186470D02*
Y188469D01*
X1105502Y192468D02*
X1109501D01*
X1111500Y194467D01*
X1109501Y196466D01*
X1105502D01*
X1107501Y198466D02*
Y199465D01*
X1108501D01*
Y198466D01*
X1107501D01*
X1110500D02*
Y199465D01*
X1111500D01*
Y198466D01*
X1110500D01*
X1106502Y209462D02*
X1105502Y210462D01*
Y212461D01*
X1106502Y213461D01*
X1110500D01*
X1111500Y212461D01*
Y210462D01*
X1110500Y209462D01*
X1106502D01*
X1111500Y215460D02*
X1110500D01*
Y216460D01*
X1111500D01*
Y215460D01*
X1106502Y220459D02*
X1105502Y221458D01*
Y223458D01*
X1106502Y224457D01*
X1110500D01*
X1111500Y223458D01*
Y221458D01*
X1110500Y220459D01*
X1106502D01*
X1111500Y226457D02*
X1110500D01*
Y227456D01*
X1111500D01*
Y226457D01*
Y235454D02*
Y231455D01*
X1107501Y235454D01*
X1106502D01*
X1105502Y234454D01*
Y232455D01*
X1106502Y231455D01*
M02*
