G04*
G04 #@! TF.GenerationSoftware,Altium Limited,Altium Designer,22.10.1 (41)*
G04*
G04 Layer_Color=32896*
%FSLAX25Y25*%
%MOIN*%
G70*
G04*
G04 #@! TF.SameCoordinates,D0DD9E95-2DC3-4DBF-B079-B465E915BBEF*
G04*
G04*
G04 #@! TF.FilePolarity,Positive*
G04*
G01*
G75*
%ADD13C,0.01000*%
D13*
X0Y-5000D02*
X1125000D01*
X0Y386500D02*
X1125000D01*
Y-5000D02*
Y386500D01*
X0Y-5000D02*
Y386500D01*
X419841Y351147D02*
Y364847D01*
X405141D02*
X419841D01*
X405141Y351147D02*
Y364847D01*
Y351147D02*
X419841D01*
X1019842D02*
Y364847D01*
X1005142D02*
X1019842D01*
X1005142Y351147D02*
Y364847D01*
Y351147D02*
X1019842D01*
X944842D02*
Y364847D01*
X930142D02*
X944842D01*
X930142Y351147D02*
Y364847D01*
Y351147D02*
X944842D01*
X869842D02*
Y364847D01*
X855142D02*
X869842D01*
X855142Y351147D02*
Y364847D01*
Y351147D02*
X869842D01*
X794842D02*
Y364847D01*
X780142D02*
X794842D01*
X780142Y351147D02*
Y364847D01*
Y351147D02*
X794842D01*
X719845D02*
Y364847D01*
X705145D02*
X719845D01*
X705145Y351147D02*
Y364847D01*
Y351147D02*
X719845D01*
X644845D02*
Y364847D01*
X630145D02*
X644845D01*
X630145Y351147D02*
Y364847D01*
Y351147D02*
X644845D01*
X569841D02*
Y364847D01*
X555141D02*
X569841D01*
X555141Y351147D02*
Y364847D01*
Y351147D02*
X569841D01*
X494841D02*
Y364847D01*
X480141D02*
X494841D01*
X480141Y351147D02*
Y364847D01*
Y351147D02*
X494841D01*
X344841D02*
Y364847D01*
X330141D02*
X344841D01*
X330141Y351147D02*
Y364847D01*
Y351147D02*
X344841D01*
X269841D02*
Y364847D01*
X255141D02*
X269841D01*
X255141Y351147D02*
Y364847D01*
Y351147D02*
X269841D01*
X194841D02*
Y364847D01*
X180141D02*
X194841D01*
X180141Y351147D02*
Y364847D01*
Y351147D02*
X194841D01*
X82341D02*
Y364847D01*
X67641D02*
X82341D01*
X67641Y351147D02*
Y364847D01*
Y351147D02*
X82341D01*
X48913Y276166D02*
Y289866D01*
Y276166D02*
X63613D01*
Y289866D01*
X48913D02*
X63613D01*
X142663Y276166D02*
Y289866D01*
Y276166D02*
X157363D01*
Y289866D01*
X142663D02*
X157363D01*
X217663Y276166D02*
Y289866D01*
Y276166D02*
X232363D01*
Y289866D01*
X217663D02*
X232363D01*
X292663Y276166D02*
Y289866D01*
Y276166D02*
X307363D01*
Y289866D01*
X292663D02*
X307363D01*
X367663Y276166D02*
Y289866D01*
Y276166D02*
X382363D01*
Y289866D01*
X367663D02*
X382363D01*
X442663Y276166D02*
Y289866D01*
Y276166D02*
X457363D01*
Y289866D01*
X442663D02*
X457363D01*
X517663Y276166D02*
Y289866D01*
Y276166D02*
X532363D01*
Y289866D01*
X517663D02*
X532363D01*
X592663Y276166D02*
Y289866D01*
Y276166D02*
X607363D01*
Y289866D01*
X592663D02*
X607363D01*
X667663Y276166D02*
Y289866D01*
Y276166D02*
X682363D01*
Y289866D01*
X667663D02*
X682363D01*
X742663Y276166D02*
Y289866D01*
Y276166D02*
X757363D01*
Y289866D01*
X742663D02*
X757363D01*
X817663Y276166D02*
Y289866D01*
Y276166D02*
X832363D01*
Y289866D01*
X817663D02*
X832363D01*
X892663Y276166D02*
Y289866D01*
Y276166D02*
X907363D01*
Y289866D01*
X892663D02*
X907363D01*
X967663Y276166D02*
Y289866D01*
Y276166D02*
X982363D01*
Y289866D01*
X967663D02*
X982363D01*
X1061413Y276166D02*
Y289866D01*
Y276166D02*
X1076113D01*
Y289866D01*
X1061413D02*
X1076113D01*
X1066719Y201161D02*
Y214861D01*
X1052019D02*
X1066719D01*
X1052019Y201161D02*
Y214861D01*
Y201161D02*
X1066719D01*
X963592D02*
Y214861D01*
X948892D02*
X963592D01*
X948892Y201161D02*
Y214861D01*
Y201161D02*
X963592D01*
X888592D02*
Y214861D01*
X873892D02*
X888592D01*
X873892Y201161D02*
Y214861D01*
Y201161D02*
X888592D01*
X813592D02*
Y214861D01*
X798892D02*
X813592D01*
X798892Y201161D02*
Y214861D01*
Y201161D02*
X813592D01*
X738591D02*
Y214861D01*
X723891D02*
X738591D01*
X723891Y201161D02*
Y214861D01*
Y201161D02*
X738591D01*
X663591D02*
Y214861D01*
X648891D02*
X663591D01*
X648891Y201161D02*
Y214861D01*
Y201161D02*
X663591D01*
X588591D02*
Y214861D01*
X573891D02*
X588591D01*
X573891Y201161D02*
Y214861D01*
Y201161D02*
X588591D01*
X513591D02*
Y214861D01*
X498891D02*
X513591D01*
X498891Y201161D02*
Y214861D01*
Y201161D02*
X513591D01*
X438591D02*
Y214861D01*
X423891D02*
X438591D01*
X423891Y201161D02*
Y214861D01*
Y201161D02*
X438591D01*
X363591D02*
Y214861D01*
X348891D02*
X363591D01*
X348891Y201161D02*
Y214861D01*
Y201161D02*
X363591D01*
X288591D02*
Y214861D01*
X273891D02*
X288591D01*
X273891Y201161D02*
Y214861D01*
Y201161D02*
X288591D01*
X213591D02*
Y214861D01*
X198891D02*
X213591D01*
X198891Y201161D02*
Y214861D01*
Y201161D02*
X213591D01*
X91719D02*
Y214861D01*
X77019D02*
X91719D01*
X77019Y201161D02*
Y214861D01*
Y201161D02*
X91719D01*
X95790Y126166D02*
Y139866D01*
Y126166D02*
X110491D01*
Y139866D01*
X95790D02*
X110491D01*
X236413Y126166D02*
Y139866D01*
Y126166D02*
X251113D01*
Y139866D01*
X236413D02*
X251113D01*
X311413Y126166D02*
Y139866D01*
Y126166D02*
X326113D01*
Y139866D01*
X311413D02*
X326113D01*
X386413Y126166D02*
Y139866D01*
Y126166D02*
X401113D01*
Y139866D01*
X386413D02*
X401113D01*
X461413Y126166D02*
Y139866D01*
Y126166D02*
X476113D01*
Y139866D01*
X461413D02*
X476113D01*
X536413Y126166D02*
Y139866D01*
Y126166D02*
X551113D01*
Y139866D01*
X536413D02*
X551113D01*
X611413Y126166D02*
Y139866D01*
Y126166D02*
X626113D01*
Y139866D01*
X611413D02*
X626113D01*
X686413Y126166D02*
Y139866D01*
Y126166D02*
X701113D01*
Y139866D01*
X686413D02*
X701113D01*
X761413Y126166D02*
Y139866D01*
Y126166D02*
X776113D01*
Y139866D01*
X761413D02*
X776113D01*
X836413Y126166D02*
Y139866D01*
Y126166D02*
X851113D01*
Y139866D01*
X836413D02*
X851113D01*
X911413Y126166D02*
Y139866D01*
Y126166D02*
X926113D01*
Y139866D01*
X911413D02*
X926113D01*
X1033288Y126166D02*
Y139866D01*
Y126166D02*
X1047988D01*
Y139866D01*
X1033288D02*
X1047988D01*
X1085467Y51161D02*
Y64861D01*
X1070767D02*
X1085467D01*
X1070767Y51161D02*
Y64861D01*
Y51161D02*
X1085467D01*
X991720Y51161D02*
Y64861D01*
X977020D02*
X991720D01*
X977020Y51161D02*
Y64861D01*
Y51161D02*
X991720D01*
X897967Y51161D02*
Y64861D01*
X883267D02*
X897967D01*
X883267Y51161D02*
Y64861D01*
Y51161D02*
X897967D01*
X616719Y51161D02*
Y64861D01*
X602019D02*
X616719D01*
X602019Y51161D02*
Y64861D01*
Y51161D02*
X616719D01*
X335467Y51161D02*
Y64861D01*
X320767D02*
X335467D01*
X320767Y51161D02*
Y64861D01*
Y51161D02*
X335467D01*
X241719Y51161D02*
Y64861D01*
X227019D02*
X241719D01*
X227019Y51161D02*
Y64861D01*
Y51161D02*
X241719D01*
X147967Y51161D02*
Y64861D01*
X133267D02*
X147967D01*
X133267Y51161D02*
Y64861D01*
Y51161D02*
X147967D01*
X54219Y51161D02*
Y64861D01*
X39519D02*
X54219D01*
X39519Y51161D02*
Y64861D01*
Y51161D02*
X54219D01*
X1094839Y351147D02*
Y364847D01*
X1080139D02*
X1094839D01*
X1080139Y351147D02*
Y364847D01*
Y351147D02*
X1094839D01*
X0Y-5000D02*
X1125000D01*
Y386500D01*
X0D02*
X1125000D01*
X0Y-5000D02*
Y386500D01*
M02*
