G04*
G04 #@! TF.GenerationSoftware,Altium Limited,Altium Designer,23.0.1 (38)*
G04*
G04 Layer_Color=8421504*
%FSLAX25Y25*%
%MOIN*%
G70*
G04*
G04 #@! TF.SameCoordinates,F13AFC00-E614-4CB8-86FD-9C2A6168B690*
G04*
G04*
G04 #@! TF.FilePolarity,Positive*
G04*
G01*
G75*
%ADD16R,0.10039X0.09843*%
%ADD17R,0.01968X0.02362*%
%ADD18R,0.07087X0.03228*%
%ADD19R,0.03150X0.03543*%
%ADD20R,0.03150X0.06299*%
%ADD21R,0.08268X0.11811*%
%ADD22R,0.01181X0.04724*%
%ADD23R,0.10630X0.11811*%
D16*
X205403Y27503D02*
D03*
X258356Y17503D02*
D03*
X111652Y27503D02*
D03*
X164604Y17503D02*
D03*
X739776Y102503D02*
D03*
X792729Y92503D02*
D03*
X1058526Y327503D02*
D03*
X1111479Y317503D02*
D03*
X983526Y327503D02*
D03*
X1036479Y317503D02*
D03*
X908526Y327503D02*
D03*
X961479Y317503D02*
D03*
X833526Y327503D02*
D03*
X886479Y317503D02*
D03*
X758526Y327503D02*
D03*
X811479Y317503D02*
D03*
X683529Y327503D02*
D03*
X736482Y317503D02*
D03*
X608530Y327503D02*
D03*
X661482Y317503D02*
D03*
X533526Y327503D02*
D03*
X586478Y317503D02*
D03*
X458526Y327503D02*
D03*
X511478Y317503D02*
D03*
X383526Y327503D02*
D03*
X436478Y317503D02*
D03*
X308526Y327503D02*
D03*
X361478Y317503D02*
D03*
X233526Y327503D02*
D03*
X286478Y317503D02*
D03*
X158526Y327503D02*
D03*
X211478Y317503D02*
D03*
X98978Y317503D02*
D03*
X46026Y327503D02*
D03*
X27276Y252503D02*
D03*
X80228Y242503D02*
D03*
X121026Y252503D02*
D03*
X173978Y242503D02*
D03*
X196026Y252503D02*
D03*
X248978Y242503D02*
D03*
X271026Y252503D02*
D03*
X323978Y242503D02*
D03*
X346026Y252503D02*
D03*
X398978Y242503D02*
D03*
X421026Y252503D02*
D03*
X473978Y242503D02*
D03*
X496026Y252503D02*
D03*
X548978Y242503D02*
D03*
X571026Y252503D02*
D03*
X623978Y242503D02*
D03*
X646026Y252503D02*
D03*
X698978Y242503D02*
D03*
X721026Y252503D02*
D03*
X773979Y242503D02*
D03*
X796026Y252503D02*
D03*
X848979Y242503D02*
D03*
X871026Y252503D02*
D03*
X923979Y242503D02*
D03*
X946026Y252503D02*
D03*
X998979Y242503D02*
D03*
X1039776Y252503D02*
D03*
X1092729Y242503D02*
D03*
X108356Y167503D02*
D03*
X55404Y177503D02*
D03*
X127106Y92502D02*
D03*
X74154Y102502D02*
D03*
X177276Y177503D02*
D03*
X230228Y167503D02*
D03*
X252276Y177503D02*
D03*
X305228Y167503D02*
D03*
X327276Y177503D02*
D03*
X380228Y167503D02*
D03*
X402276Y177503D02*
D03*
X455228Y167503D02*
D03*
X477276Y177503D02*
D03*
X530228Y167503D02*
D03*
X552276Y177503D02*
D03*
X605228Y167503D02*
D03*
X627276Y177503D02*
D03*
X680228Y167503D02*
D03*
X702275Y177503D02*
D03*
X755228Y167503D02*
D03*
X777276Y177503D02*
D03*
X830229Y167503D02*
D03*
X852276Y177503D02*
D03*
X905229Y167503D02*
D03*
X927276Y177503D02*
D03*
X980229Y167503D02*
D03*
X1030404Y177503D02*
D03*
X1083356Y167503D02*
D03*
X1064604Y92502D02*
D03*
X1011651Y102502D02*
D03*
X889776Y102503D02*
D03*
X942729Y92503D02*
D03*
X814776Y102503D02*
D03*
X867729Y92503D02*
D03*
X664776Y102503D02*
D03*
X717728Y92503D02*
D03*
X589776Y102503D02*
D03*
X642728Y92503D02*
D03*
X514776Y102503D02*
D03*
X567728Y92503D02*
D03*
X439776Y102503D02*
D03*
X492728Y92503D02*
D03*
X364776Y102503D02*
D03*
X417728Y92503D02*
D03*
X289776Y102503D02*
D03*
X342728Y92503D02*
D03*
X214776Y102503D02*
D03*
X267728Y92503D02*
D03*
X17903Y27503D02*
D03*
X70856Y17503D02*
D03*
X299152Y27503D02*
D03*
X352104Y17503D02*
D03*
X580404Y27503D02*
D03*
X633356Y17503D02*
D03*
X861651Y27503D02*
D03*
X914604Y17503D02*
D03*
X955404Y27503D02*
D03*
X1008357Y17503D02*
D03*
X1049151Y27503D02*
D03*
X1102104Y17503D02*
D03*
D17*
X550000Y162043D02*
D03*
Y167957D02*
D03*
X16000Y12043D02*
D03*
Y17957D02*
D03*
X110000Y12000D02*
D03*
Y17913D02*
D03*
X204000Y12043D02*
D03*
Y17957D02*
D03*
X298000Y12043D02*
D03*
Y17957D02*
D03*
X579000Y12000D02*
D03*
Y17913D02*
D03*
X860000Y12000D02*
D03*
Y17913D02*
D03*
X954000Y12043D02*
D03*
Y17957D02*
D03*
X1048000Y12043D02*
D03*
Y17957D02*
D03*
X72000Y87043D02*
D03*
Y92957D02*
D03*
X213000Y87000D02*
D03*
Y92913D02*
D03*
X288000Y87000D02*
D03*
Y92913D02*
D03*
X363000Y87043D02*
D03*
Y92957D02*
D03*
X438000Y87043D02*
D03*
Y92957D02*
D03*
X513000Y87043D02*
D03*
Y92957D02*
D03*
X588000Y87000D02*
D03*
Y92913D02*
D03*
X663000Y87043D02*
D03*
Y92957D02*
D03*
X738000Y87043D02*
D03*
Y92957D02*
D03*
X813000Y87000D02*
D03*
Y92913D02*
D03*
X888000Y87043D02*
D03*
Y92957D02*
D03*
X1009000Y87000D02*
D03*
Y92913D02*
D03*
X53000Y162043D02*
D03*
Y167957D02*
D03*
X175000Y162043D02*
D03*
Y167957D02*
D03*
X251000Y162043D02*
D03*
Y167957D02*
D03*
X325000Y162043D02*
D03*
Y167957D02*
D03*
X400000Y162043D02*
D03*
Y167957D02*
D03*
X475000Y162043D02*
D03*
Y167957D02*
D03*
X625000Y162043D02*
D03*
Y167957D02*
D03*
X700000Y162043D02*
D03*
Y167957D02*
D03*
X775000Y162043D02*
D03*
Y167957D02*
D03*
X850000Y162043D02*
D03*
Y167957D02*
D03*
X925000Y162043D02*
D03*
Y167957D02*
D03*
X1028000Y162043D02*
D03*
Y167957D02*
D03*
X25000Y237043D02*
D03*
Y242957D02*
D03*
X119000Y237043D02*
D03*
Y242957D02*
D03*
X194000Y237043D02*
D03*
Y242957D02*
D03*
X269000Y237043D02*
D03*
Y242957D02*
D03*
X344000Y237043D02*
D03*
Y242957D02*
D03*
X419000Y237043D02*
D03*
Y242957D02*
D03*
X494000Y237043D02*
D03*
Y242957D02*
D03*
X569000Y237043D02*
D03*
Y242957D02*
D03*
X644000Y237043D02*
D03*
Y242957D02*
D03*
X719000Y237043D02*
D03*
Y242957D02*
D03*
X794000Y237043D02*
D03*
Y242957D02*
D03*
X869000Y237043D02*
D03*
Y242957D02*
D03*
X944000Y237043D02*
D03*
Y242957D02*
D03*
X1038000Y237043D02*
D03*
Y242957D02*
D03*
X44000Y312043D02*
D03*
Y317957D02*
D03*
X157000Y312043D02*
D03*
Y317957D02*
D03*
X232000Y312043D02*
D03*
Y317957D02*
D03*
X307000Y312043D02*
D03*
Y317957D02*
D03*
X382000Y312043D02*
D03*
Y317957D02*
D03*
X457000Y312043D02*
D03*
Y317957D02*
D03*
X532000Y312043D02*
D03*
Y317957D02*
D03*
X607000Y312043D02*
D03*
Y317957D02*
D03*
X682000Y312043D02*
D03*
Y317957D02*
D03*
X757000Y312043D02*
D03*
Y317957D02*
D03*
X832000Y312043D02*
D03*
Y317957D02*
D03*
X908000Y312043D02*
D03*
Y317957D02*
D03*
X982000Y312043D02*
D03*
Y317957D02*
D03*
X1057000Y312043D02*
D03*
Y317957D02*
D03*
D18*
X59419Y55061D02*
D03*
Y60966D02*
D03*
X34341Y55061D02*
D03*
Y60966D02*
D03*
X153167Y55061D02*
D03*
Y60966D02*
D03*
X128089Y55061D02*
D03*
Y60966D02*
D03*
X246919Y55061D02*
D03*
Y60966D02*
D03*
X221841Y55061D02*
D03*
Y60966D02*
D03*
X340667Y55061D02*
D03*
Y60966D02*
D03*
X315589Y55061D02*
D03*
Y60966D02*
D03*
X621919Y55061D02*
D03*
Y60966D02*
D03*
X596841Y55061D02*
D03*
Y60966D02*
D03*
X903167Y55061D02*
D03*
Y60966D02*
D03*
X878088Y55061D02*
D03*
Y60966D02*
D03*
X996920Y55061D02*
D03*
Y60966D02*
D03*
X971841Y55061D02*
D03*
Y60966D02*
D03*
X1090667Y55061D02*
D03*
Y60966D02*
D03*
X1065588Y55061D02*
D03*
Y60966D02*
D03*
X1028088Y135966D02*
D03*
Y130060D02*
D03*
X1053167Y135966D02*
D03*
Y130060D02*
D03*
X906213Y135966D02*
D03*
Y130060D02*
D03*
X931292Y135966D02*
D03*
Y130060D02*
D03*
X831213Y135966D02*
D03*
Y130060D02*
D03*
X856292Y135966D02*
D03*
Y130060D02*
D03*
X756213Y135966D02*
D03*
Y130060D02*
D03*
X781292Y135966D02*
D03*
Y130060D02*
D03*
X681213Y135966D02*
D03*
Y130060D02*
D03*
X706291Y135966D02*
D03*
Y130060D02*
D03*
X606213Y135966D02*
D03*
Y130060D02*
D03*
X631291Y135966D02*
D03*
Y130060D02*
D03*
X531213Y135966D02*
D03*
Y130060D02*
D03*
X556291Y135966D02*
D03*
Y130060D02*
D03*
X456213Y135966D02*
D03*
Y130060D02*
D03*
X481291Y135966D02*
D03*
Y130060D02*
D03*
X381213Y135966D02*
D03*
Y130060D02*
D03*
X406291Y135966D02*
D03*
Y130060D02*
D03*
X306213Y135966D02*
D03*
Y130060D02*
D03*
X331291Y135966D02*
D03*
Y130060D02*
D03*
X231213Y135966D02*
D03*
Y130060D02*
D03*
X256291Y135966D02*
D03*
Y130060D02*
D03*
X90591Y135966D02*
D03*
Y130060D02*
D03*
X115669Y135966D02*
D03*
Y130060D02*
D03*
X96919Y205061D02*
D03*
Y210966D02*
D03*
X71841Y205061D02*
D03*
Y210966D02*
D03*
X218791Y205061D02*
D03*
Y210966D02*
D03*
X193713Y205061D02*
D03*
Y210966D02*
D03*
X293791Y205061D02*
D03*
Y210966D02*
D03*
X268713Y205061D02*
D03*
Y210966D02*
D03*
X368791Y205061D02*
D03*
Y210966D02*
D03*
X343713Y205061D02*
D03*
Y210966D02*
D03*
X443791Y205061D02*
D03*
Y210966D02*
D03*
X418713Y205061D02*
D03*
Y210966D02*
D03*
X518791Y205061D02*
D03*
Y210966D02*
D03*
X493713Y205061D02*
D03*
Y210966D02*
D03*
X593791Y205061D02*
D03*
Y210966D02*
D03*
X568713Y205061D02*
D03*
Y210966D02*
D03*
X668791Y205061D02*
D03*
Y210966D02*
D03*
X643713Y205061D02*
D03*
Y210966D02*
D03*
X743791Y205061D02*
D03*
Y210966D02*
D03*
X718712Y205061D02*
D03*
Y210966D02*
D03*
X818792Y205061D02*
D03*
Y210966D02*
D03*
X793713Y205061D02*
D03*
Y210966D02*
D03*
X893792Y205061D02*
D03*
Y210966D02*
D03*
X868713Y205061D02*
D03*
Y210966D02*
D03*
X968792Y205061D02*
D03*
Y210966D02*
D03*
X943713Y205061D02*
D03*
Y210966D02*
D03*
X1071919Y205061D02*
D03*
Y210966D02*
D03*
X1046841Y205061D02*
D03*
Y210966D02*
D03*
X1056213Y285966D02*
D03*
Y280061D02*
D03*
X1081292Y285966D02*
D03*
Y280061D02*
D03*
X962463Y285966D02*
D03*
Y280061D02*
D03*
X987542Y285966D02*
D03*
Y280061D02*
D03*
X887463Y285966D02*
D03*
Y280061D02*
D03*
X912542Y285966D02*
D03*
Y280061D02*
D03*
X812463Y285966D02*
D03*
Y280061D02*
D03*
X837542Y285966D02*
D03*
Y280061D02*
D03*
X737463Y285966D02*
D03*
Y280061D02*
D03*
X762542Y285966D02*
D03*
Y280061D02*
D03*
X662463Y285966D02*
D03*
Y280061D02*
D03*
X687541Y285966D02*
D03*
Y280061D02*
D03*
X587463Y285966D02*
D03*
Y280061D02*
D03*
X612541Y285966D02*
D03*
Y280061D02*
D03*
X512463Y285966D02*
D03*
Y280061D02*
D03*
X537541Y285966D02*
D03*
Y280061D02*
D03*
X437463Y285966D02*
D03*
Y280061D02*
D03*
X462541Y285966D02*
D03*
Y280061D02*
D03*
X362463Y285966D02*
D03*
Y280061D02*
D03*
X387541Y285966D02*
D03*
Y280061D02*
D03*
X287463Y285966D02*
D03*
Y280061D02*
D03*
X312541Y285966D02*
D03*
Y280061D02*
D03*
X212463Y285966D02*
D03*
Y280061D02*
D03*
X237541Y285966D02*
D03*
Y280061D02*
D03*
X137463Y285966D02*
D03*
Y280061D02*
D03*
X162541Y285966D02*
D03*
Y280061D02*
D03*
X43713Y285966D02*
D03*
Y280061D02*
D03*
X68792Y285966D02*
D03*
Y280061D02*
D03*
X87541Y355047D02*
D03*
Y360953D02*
D03*
X62463Y355047D02*
D03*
Y360953D02*
D03*
X200041Y355047D02*
D03*
Y360953D02*
D03*
X174963Y355047D02*
D03*
Y360953D02*
D03*
X275041Y355047D02*
D03*
Y360953D02*
D03*
X249963Y355047D02*
D03*
Y360953D02*
D03*
X350041Y355047D02*
D03*
Y360953D02*
D03*
X324963Y355047D02*
D03*
Y360953D02*
D03*
X425041Y355047D02*
D03*
Y360953D02*
D03*
X399963Y355047D02*
D03*
Y360953D02*
D03*
X500041Y355047D02*
D03*
Y360953D02*
D03*
X474963Y355047D02*
D03*
Y360953D02*
D03*
X575041Y355047D02*
D03*
Y360953D02*
D03*
X549963Y355047D02*
D03*
Y360953D02*
D03*
X650045Y355047D02*
D03*
Y360953D02*
D03*
X624967Y355047D02*
D03*
Y360953D02*
D03*
X725045Y355047D02*
D03*
Y360953D02*
D03*
X699966Y355047D02*
D03*
Y360953D02*
D03*
X800042Y355047D02*
D03*
Y360953D02*
D03*
X774963Y355047D02*
D03*
Y360953D02*
D03*
X875042Y355047D02*
D03*
Y360953D02*
D03*
X849963Y355047D02*
D03*
Y360953D02*
D03*
X950042Y355047D02*
D03*
Y360953D02*
D03*
X924963Y355047D02*
D03*
Y360953D02*
D03*
X1025042Y355047D02*
D03*
Y360953D02*
D03*
X999963Y355047D02*
D03*
Y360953D02*
D03*
X1100039Y355047D02*
D03*
Y360953D02*
D03*
X1074961Y355047D02*
D03*
Y360953D02*
D03*
D19*
X406047Y205000D02*
D03*
X411953D02*
D03*
X1062047Y355000D02*
D03*
X1067953D02*
D03*
X987047D02*
D03*
X992953D02*
D03*
X912047D02*
D03*
X917953D02*
D03*
X837047D02*
D03*
X842953D02*
D03*
X762047D02*
D03*
X767953D02*
D03*
X687047D02*
D03*
X692953D02*
D03*
X612047D02*
D03*
X617953D02*
D03*
X537047D02*
D03*
X542953D02*
D03*
X462047D02*
D03*
X467953D02*
D03*
X387047D02*
D03*
X392953D02*
D03*
X312047D02*
D03*
X317953D02*
D03*
X237047D02*
D03*
X242953D02*
D03*
X162047D02*
D03*
X167953D02*
D03*
X50047D02*
D03*
X55953D02*
D03*
X81953Y286000D02*
D03*
X76047D02*
D03*
X174953D02*
D03*
X169047D02*
D03*
X249953D02*
D03*
X244047D02*
D03*
X324953D02*
D03*
X319047D02*
D03*
X399953D02*
D03*
X394047D02*
D03*
X474953D02*
D03*
X469047D02*
D03*
X549953D02*
D03*
X544047D02*
D03*
X624953D02*
D03*
X619047D02*
D03*
X699953D02*
D03*
X694047D02*
D03*
X774953D02*
D03*
X769047D02*
D03*
X849953D02*
D03*
X844047D02*
D03*
X924953D02*
D03*
X919047D02*
D03*
X999953D02*
D03*
X994047D02*
D03*
X1093953D02*
D03*
X1088047D02*
D03*
X59047Y205000D02*
D03*
X64953D02*
D03*
X181047D02*
D03*
X186953D02*
D03*
X256047D02*
D03*
X261953D02*
D03*
X331047D02*
D03*
X336953D02*
D03*
X481047D02*
D03*
X486953D02*
D03*
X556047D02*
D03*
X561953D02*
D03*
X631047D02*
D03*
X636953D02*
D03*
X706047D02*
D03*
X711953D02*
D03*
X781047D02*
D03*
X786953D02*
D03*
X856047D02*
D03*
X861953D02*
D03*
X931047D02*
D03*
X936953D02*
D03*
X1034047D02*
D03*
X1039953D02*
D03*
X1065953Y136000D02*
D03*
X1060047D02*
D03*
X943953D02*
D03*
X938047D02*
D03*
X868953D02*
D03*
X863047D02*
D03*
X793953D02*
D03*
X788047D02*
D03*
X718953D02*
D03*
X713047D02*
D03*
X643953D02*
D03*
X638047D02*
D03*
X568953D02*
D03*
X563047D02*
D03*
X493953D02*
D03*
X488047D02*
D03*
X418953D02*
D03*
X413047D02*
D03*
X343953D02*
D03*
X338047D02*
D03*
X268953D02*
D03*
X263047D02*
D03*
X129000D02*
D03*
X123094D02*
D03*
X21047Y55000D02*
D03*
X26953D02*
D03*
X115047D02*
D03*
X120953D02*
D03*
X209047D02*
D03*
X214953D02*
D03*
X303047D02*
D03*
X308953D02*
D03*
X584047D02*
D03*
X589953D02*
D03*
X866047D02*
D03*
X871953D02*
D03*
X959047D02*
D03*
X964953D02*
D03*
X1053047D02*
D03*
X1058953D02*
D03*
D20*
X32461Y104291D02*
D03*
X27539D02*
D03*
D21*
X42500Y115709D02*
D03*
X17500D02*
D03*
D22*
X481378Y14000D02*
D03*
X483347D02*
D03*
X485315D02*
D03*
X487284D02*
D03*
X489252D02*
D03*
X491221D02*
D03*
X497126D02*
D03*
X499094D02*
D03*
X505000D02*
D03*
X506968D02*
D03*
X508937D02*
D03*
X510906D02*
D03*
X512874D02*
D03*
X503031D02*
D03*
X501063D02*
D03*
X495157D02*
D03*
X493189D02*
D03*
X479410D02*
D03*
X477441D02*
D03*
X475472D02*
D03*
D23*
X520472Y21323D02*
D03*
X467874D02*
D03*
M02*
