G04*
G04 #@! TF.GenerationSoftware,Altium Limited,Altium Designer,22.9.1 (49)*
G04*
G04 Layer_Color=65535*
%FSLAX25Y25*%
%MOIN*%
G70*
G04*
G04 #@! TF.SameCoordinates,45E33EA5-6A49-49B4-B035-B84F590C3FC8*
G04*
G04*
G04 #@! TF.FilePolarity,Positive*
G04*
G01*
G75*
%ADD10C,0.00984*%
%ADD11C,0.00500*%
%ADD12C,0.00787*%
%ADD13C,0.01000*%
D10*
X21953Y78476D02*
G03*
X21953Y78476I-492J0D01*
G01*
X17031Y25524D02*
G03*
X17031Y25524I-492J0D01*
G01*
D11*
X7098Y75842D02*
X31902D01*
X7098Y61158D02*
X31902D01*
X7098Y59342D02*
X31902D01*
X7098Y44657D02*
X31902D01*
X7098Y42843D02*
X31902D01*
X7098Y28157D02*
X31902D01*
D12*
X12209Y88516D02*
Y103476D01*
X25791D01*
Y88516D02*
Y103476D01*
X12209Y88516D02*
X25791D01*
X25791Y524D02*
Y15484D01*
X12209Y524D02*
X25791D01*
X12209D02*
Y15484D01*
X25791D01*
D13*
X23499Y71499D02*
Y65501D01*
X20500D01*
X19500Y66501D01*
Y68500D01*
X20500Y69500D01*
X23499D01*
X21499D02*
X19500Y71499D01*
X17501D02*
X15501D01*
X16501D01*
Y65501D01*
X17501Y66501D01*
X24498Y54999D02*
Y49001D01*
X21499D01*
X20500Y50001D01*
Y52000D01*
X21499Y53000D01*
X24498D01*
X22499D02*
X20500Y54999D01*
X14502D02*
X18500D01*
X14502Y51000D01*
Y50001D01*
X15501Y49001D01*
X17501D01*
X18500Y50001D01*
X24498Y38499D02*
Y32501D01*
X21499D01*
X20500Y33501D01*
Y35500D01*
X21499Y36500D01*
X24498D01*
X22499D02*
X20500Y38499D01*
X18500Y33501D02*
X17501Y32501D01*
X15501D01*
X14502Y33501D01*
Y34500D01*
X15501Y35500D01*
X16501D01*
X15501D01*
X14502Y36500D01*
Y37499D01*
X15501Y38499D01*
X17501D01*
X18500Y37499D01*
X35133Y87099D02*
Y83900D01*
X33533D01*
X33000Y84434D01*
Y85500D01*
X33533Y86033D01*
X35133D01*
X31934Y87099D02*
X30867D01*
X31400D01*
Y83900D01*
X31934Y84434D01*
X2834Y17401D02*
Y20599D01*
X4434D01*
X4967Y20066D01*
Y19000D01*
X4434Y18467D01*
X2834D01*
X8166Y17401D02*
X6033D01*
X8166Y19533D01*
Y20066D01*
X7633Y20599D01*
X6566D01*
X6033Y20066D01*
M02*
