G04*
G04 #@! TF.GenerationSoftware,Altium Limited,Altium Designer,22.9.1 (49)*
G04*
G04 Layer_Physical_Order=1*
G04 Layer_Color=255*
%FSLAX25Y25*%
%MOIN*%
G70*
G04*
G04 #@! TF.SameCoordinates,45E33EA5-6A49-49B4-B035-B84F590C3FC8*
G04*
G04*
G04 #@! TF.FilePolarity,Positive*
G04*
G01*
G75*
G04:AMPARAMS|DCode=17|XSize=74.8mil|YSize=132.68mil|CornerRadius=2.62mil|HoleSize=0mil|Usage=FLASHONLY|Rotation=180.000|XOffset=0mil|YOffset=0mil|HoleType=Round|Shape=RoundedRectangle|*
%AMROUNDEDRECTD17*
21,1,0.07480,0.12744,0,0,180.0*
21,1,0.06957,0.13268,0,0,180.0*
1,1,0.00524,-0.03478,0.06372*
1,1,0.00524,0.03478,0.06372*
1,1,0.00524,0.03478,-0.06372*
1,1,0.00524,-0.03478,-0.06372*
%
%ADD17ROUNDEDRECTD17*%
%ADD18R,0.08268X0.11811*%
%ADD19R,0.03150X0.06299*%
%ADD20C,0.03000*%
%ADD21C,0.01811*%
G36*
X26366Y88303D02*
X36471D01*
Y15697D01*
X26366D01*
Y1886D01*
X26020Y1529D01*
X11981D01*
X11634Y1886D01*
Y15697D01*
X1529D01*
Y88303D01*
X11634D01*
Y101971D01*
X26366D01*
Y88303D01*
D02*
G37*
%LPC*%
G36*
X21961Y87541D02*
Y84291D01*
X23635D01*
Y87541D01*
X21961D01*
D02*
G37*
G36*
X23635Y83291D02*
X21961D01*
Y80042D01*
X23635D01*
Y83291D01*
D02*
G37*
G36*
X33451Y76159D02*
X26494D01*
X26002Y76061D01*
X25584Y75782D01*
X25306Y75364D01*
X25208Y74872D01*
Y62128D01*
X25306Y61636D01*
X25584Y61218D01*
X26002Y60939D01*
X26494Y60841D01*
X27424D01*
Y59659D01*
X26494D01*
X26002Y59561D01*
X25584Y59282D01*
X25306Y58864D01*
X25208Y58372D01*
Y45628D01*
X25306Y45136D01*
X25584Y44718D01*
X26002Y44439D01*
X26494Y44341D01*
X27424D01*
Y43159D01*
X26494D01*
X26002Y43061D01*
X25584Y42782D01*
X25306Y42364D01*
X25208Y41872D01*
Y35039D01*
X23490D01*
X22514Y34845D01*
X21687Y34292D01*
X14737Y27342D01*
X14184Y26515D01*
X13990Y25539D01*
Y24358D01*
X13965D01*
Y16059D01*
X19044D01*
X19044Y16059D01*
X19114D01*
X19356Y16459D01*
X19614Y16459D01*
X20961D01*
Y20209D01*
Y23958D01*
X19356Y23958D01*
X19114Y24358D01*
X19361Y24756D01*
X24545Y29941D01*
X25208D01*
Y29128D01*
X25306Y28636D01*
X25584Y28218D01*
X26002Y27939D01*
X26494Y27841D01*
X33451D01*
X33943Y27939D01*
X34361Y28218D01*
X34639Y28636D01*
X34737Y29128D01*
Y41872D01*
X34639Y42364D01*
X34361Y42782D01*
X33943Y43061D01*
X33451Y43159D01*
X32521D01*
Y44341D01*
X33451D01*
X33943Y44439D01*
X34361Y44718D01*
X34639Y45136D01*
X34737Y45628D01*
Y58372D01*
X34639Y58864D01*
X34361Y59282D01*
X33943Y59561D01*
X33451Y59659D01*
X32521D01*
Y60841D01*
X33451D01*
X33943Y60939D01*
X34361Y61218D01*
X34639Y61636D01*
X34737Y62128D01*
Y74872D01*
X34639Y75364D01*
X34361Y75782D01*
X33943Y76061D01*
X33451Y76159D01*
D02*
G37*
G36*
X19114Y87941D02*
X19044Y87941D01*
X19044Y87941D01*
X13965D01*
Y79935D01*
X10188Y76159D01*
X5549D01*
X5057Y76061D01*
X4640Y75782D01*
X4361Y75364D01*
X4263Y74872D01*
Y62128D01*
X4361Y61636D01*
X4640Y61218D01*
X5057Y60939D01*
X5549Y60841D01*
X6479D01*
Y59659D01*
X5549D01*
X5057Y59561D01*
X4640Y59282D01*
X4361Y58864D01*
X4263Y58372D01*
Y45628D01*
X4361Y45136D01*
X4640Y44718D01*
X5057Y44439D01*
X5549Y44341D01*
X6479D01*
Y43159D01*
X5549D01*
X5057Y43061D01*
X4640Y42782D01*
X4361Y42364D01*
X4263Y41872D01*
Y29128D01*
X4361Y28636D01*
X4640Y28218D01*
X5057Y27939D01*
X5549Y27841D01*
X12506D01*
X12998Y27939D01*
X13416Y28218D01*
X13694Y28636D01*
X13792Y29128D01*
Y41872D01*
X13694Y42364D01*
X13416Y42782D01*
X12998Y43061D01*
X12506Y43159D01*
X11576D01*
Y44341D01*
X12506D01*
X12998Y44439D01*
X13416Y44718D01*
X13694Y45136D01*
X13792Y45628D01*
Y58372D01*
X13694Y58864D01*
X13416Y59282D01*
X12998Y59561D01*
X12506Y59659D01*
X11576D01*
Y60841D01*
X12506D01*
X12998Y60939D01*
X13416Y61218D01*
X13694Y61636D01*
X13792Y62128D01*
Y72554D01*
X18342Y77103D01*
X18894Y77930D01*
X19088Y78905D01*
Y79624D01*
X19097Y79642D01*
X19114D01*
X19356Y80042D01*
X19614Y80042D01*
X20961D01*
Y83791D01*
Y87541D01*
X19356Y87541D01*
X19333Y87579D01*
X19114Y87941D01*
D02*
G37*
G36*
X21961Y23958D02*
Y20709D01*
X23635D01*
Y23958D01*
X21961D01*
D02*
G37*
G36*
X23635Y19709D02*
X21961D01*
Y16459D01*
X23635D01*
Y19709D01*
D02*
G37*
%LPD*%
D17*
X9028Y68500D02*
D03*
X29972D02*
D03*
X9028Y52000D02*
D03*
X29972D02*
D03*
X9028Y35500D02*
D03*
X29972D02*
D03*
D18*
X6500Y95209D02*
D03*
X31500D02*
D03*
X31500Y8791D02*
D03*
X6500D02*
D03*
D19*
X16539Y83791D02*
D03*
X21461D02*
D03*
X21461Y20209D02*
D03*
X16539D02*
D03*
D20*
Y25539D02*
X23490Y32490D01*
X27732D02*
X29972Y34730D01*
X23490Y32490D02*
X27732D01*
X29972Y34730D02*
Y52000D01*
X16539Y20209D02*
Y25539D01*
X29972Y52000D02*
Y68500D01*
X9028Y35500D02*
Y52000D01*
Y68500D01*
Y71394D02*
X16539Y78905D01*
Y83791D01*
X9028Y68500D02*
Y71394D01*
D21*
X28500Y85000D02*
D03*
Y79000D02*
D03*
Y82000D02*
D03*
X29000Y25000D02*
D03*
Y19000D02*
D03*
Y22000D02*
D03*
X26000Y86500D02*
D03*
Y80500D02*
D03*
Y83500D02*
D03*
Y20500D02*
D03*
Y17500D02*
D03*
Y23500D02*
D03*
M02*
