M48
;Layer_Color=9474304
;FILE_FORMAT=2:4
INCH,TZ
;TYPE=PLATED
T1F00S00C0.0079
;TYPE=NON_PLATED
T2F00S00C0.1181
T3F00S00C0.1200
T4F00S00C0.1570
%
T01
X1600Y700
X3400Y4800
X6600Y5500
X12800Y4800
X15900Y5500
X16522Y400
X20400Y700
X11000
X22100Y4800
X25500Y5500
X26773Y2687
X29800Y700
X31500Y4800
X34600Y5500
X35300Y4100
X47300
X47900Y3000
X47941Y563
X57900Y700
X59600Y4800
X62900Y5500
X87800Y4800
X90900Y5500
X97200Y4800
X95400Y700
X86000
X99700Y5100
X104100Y5300
X105900Y4800
X109073Y4849
X104800Y700
X106000Y6100
X105748Y9685
X108898
X112047
X110200Y6900
X110472Y6535
Y12835
X112047Y15984
X110472Y19134
X107323
X108600Y20500
X104600Y19800
X104173Y19134
X104100Y21100
X101024Y19134
X102800Y15800
X102200Y13600
X105300Y14400
X105748Y15984
X100900Y8300
X100500Y7300
X101024Y6535
X96600Y6100
X94724Y6535
X91575
X88800Y8200
X88300Y7700
X87200Y6100
X86200Y13000
X85700Y14400
X85000Y15800
X85276Y19134
X86800Y19800
X86200Y21100
X90000Y20500
X91575Y19134
X94724
X94300Y19800
X93800Y21100
X97500Y20500
X92500Y15800
X93100Y14400
X93700Y13000
X90100Y13600
X82400
X82126Y12835
X78800Y13000
X78200Y14400
X77500Y15800
X74900Y13600
X72100Y12200
X71200Y13000
X70600Y14400
X70000Y15800
X69528Y19134
X71800Y19800
X71200Y21100
X75100Y20500
X75827Y19134
X78976
X79300Y19800
X78700Y21100
X82500Y20500
X82126Y19134
X83701Y9685
X80551
X81300Y8200
X82126Y6535
X78976
X77700Y7700
X75827Y6535
X72677
X73800Y8200
X69528Y6535
X66378
X66300Y8200
X63228Y6535
X59000Y6100
X58800Y8200
X56929Y6535
X53780
X57200Y10200
X56200Y13000
X55700Y14400
X55400Y16200
X56600Y15800
X56929Y19134
X56800Y19800
X56300Y21100
X60000Y20500
X60079Y19134
X63228
X64300Y19800
X63700Y21100
X67500Y20500
Y13600
X63900Y13000
X63200Y14400
X62500Y15800
X60000Y13600
X60079Y12835
X61654Y9685
X52500Y13600
X53780Y19134
X52500Y20500
X49300Y19800
X48700Y21100
X47480Y19134
X44331
X45100Y20500
X41800Y19800
X41181Y19134
X41200Y21100
X37600Y20500
X37500Y13600
X40600Y14400
X40000Y15800
X41200Y13000
X45000Y13600
X48200Y14400
X48700Y13000
X50100Y12200
X47500Y10200
X47900Y7900
Y7100
X47500Y6800
X48700Y7400
X49200Y7700
X51300Y8200
X52205Y9685
X45500Y7900
X43800Y8200
X42756Y9685
X39606
X38031Y6535
X44500Y5900
X47500Y15800
X32500
X33200Y14400
X33700Y13000
X30000Y13600
X26200Y13000
X25700Y14400
X25100Y15800
X25433Y19134
X26800Y19800
X26300Y21100
X30000Y20500
X31732Y19134
X34300Y19800
X33800Y21100
X22500Y20500
X22283Y19134
X22500Y13600
X22283Y12835
X23858Y9685
X21300Y8200
X21600Y6100
X22283Y6535
X25433
X28583
X28800Y8200
X30900Y6100
X31732Y6535
X34882
X36300Y8200
X20709Y9685
X17559
X14409
X16200Y6900
X15984Y6535
X19134
X12835
X12200Y6100
X6535Y6535
X7200Y8200
X8110Y9685
X6535Y12835
X7000Y13600
X8110Y15984
X11260
X12000Y16300
X11500Y14400
X12200Y13000
X14409Y15984
X17500Y15800
X19134Y19134
X19300Y19800
X18800Y21100
X12835Y19134
X9685
X10200Y20500
X7100Y19800
X6535Y19134
X5600Y16200
X3900Y13200
X2500Y23300
X4400Y30800
X6535Y31732
X6900Y29300
X7500Y28000
X6535Y25433
X9685
X11900Y23300
X11260Y22283
X11000Y22100
X14409Y22283
X17559
X19400Y23300
X20709Y22283
X20700Y28600
X16800Y28000
X16300Y29300
X15700Y30700
X12835Y31732
X13200Y28600
X11260Y28583
X15984Y25433
X17400Y34800
X16800Y36100
X20600Y35500
X9400
X6200Y34800
X7100Y22100
X23858Y22283
X27008
X26900Y23300
X25433Y25433
X24300Y28000
X23800Y29300
X22900Y31200
X22283Y31732
X25433
X24900Y34800
X24400Y36100
X28100Y35500
X31900Y36100
X32400Y34800
X31732Y31732
X30700Y30700
X31300Y29300
X31800Y28000
X33307Y28583
X35700Y28600
X34400Y23300
X33307Y22283
X36457
X30157
X31732Y25433
X28200Y28600
X35700Y35500
X39300Y36100
X39900Y34800
X43100Y35500
X46900Y36100
X47400Y34800
X47480Y31732
X45700Y30700
X46300Y29300
X46800Y28000
X43200Y28600
X42756Y28583
X39300Y28000
X38800Y29300
X38200Y30700
X41181Y31732
Y25433
X41900Y23300
X42756Y22283
X45906
X49055
X49400Y23300
X52205Y22283
X50700Y28600
X50600Y35500
X44331Y25433
X39606Y22283
X54100Y22487
X53780Y25433
X54300Y28000
X55354Y28583
X53800Y29300
X53200Y30700
X53780Y31732
X54900Y34800
X54400Y36100
X58100Y35500
X61900Y36100
X62500Y34800
X63228Y31732
X60079
X60700Y30700
X61300Y29300
X61800Y28000
X58200Y28600
X56900Y23300
X62700
X64400
X65700Y28600
X65600Y35500
X69400Y36100
X69900Y34800
X69528Y31732
X68200Y30700
X68800Y29300
X69300Y28000
X71102Y28583
X73200Y28600
X76300Y29300
X76800Y28000
X75827Y25433
X75700Y30700
X77400Y34800
X76900Y36100
X80600Y35500
X82126Y31732
X83200Y30700
X83700Y29300
X80700Y28600
X79400Y23300
X71900
X69528Y25433
X73100Y35500
X84400Y36100
X84900Y34800
X85276Y31732
X84300Y28000
X85276Y25433
X86900Y23300
X88200Y28600
X91300Y29300
Y30700
X91575Y31732
X92400Y34800
X91900Y36100
X95600Y35500
X97874Y31732
X98200Y30700
X98800Y29300
X99300Y28000
X95700Y28600
X93150Y28583
X91800Y28000
X91575Y25433
X94400Y23300
X88100Y35500
X99400Y36100
X99900Y34800
X103100Y35500
X106900Y36100
X107400Y34800
X108898Y34882
X112047
Y28583
X110200Y28000
X108200Y29300
X107323Y31732
X105700Y30700
X105100Y28600
X102598Y28583
X101024Y31732
X103800Y23300
X109700Y22500
X112047Y22283
X110472Y38031
X107323
X104173
X101024
X97874
X94724
X91575
X88425
X85276
X82126
X78976
X75827
X72677
X69528
X66378
X63228
X60079
X56929
X53780
X50630
X47480
X44331
X41181
X38031
X34882
X31732
X28583
X25433
X22283
X19134
X15984
X12835
X9685
X6535
T02
X3188Y2750
X5688Y1750
X12563Y2750
X15063Y1750
X21938Y2750
X24438Y1750
X31313Y2750
X33813Y1750
X59438Y2750
X61938Y1750
X87563Y2750
X90063Y1750
X96938Y2750
X99438Y1750
X106313Y2750
X108813Y1750
X105063Y9250
X102563Y10250
X104438Y17750
X106938Y16750
X96625
X94125Y17750
X89125Y16750
X88100Y15000
X86625Y17750
X85375Y9250
X90375Y10250
X92875Y9250
X82875Y10250
X77875Y9250
X75375Y10250
X70375Y9250
X71625Y17750
X74125Y16750
X79125Y17750
X81625Y16750
X66625
X64125Y17750
X59125Y16750
X56625Y17750
X54200Y15300
X52875Y10250
X55375Y9250
X60375Y10250
X62875Y9250
X67875Y10250
X47875Y9250
X45375Y10250
X40375Y9250
X37875Y10250
X41625Y17750
X44125Y16750
X49125Y17750
X51625Y16750
X36625
X34125Y17750
X29125Y16750
X26625Y17750
X21625Y16750
X22875Y10250
X25375Y9250
X30375Y10250
X32875Y9250
X18600Y14400
X19125Y17750
X9438Y16750
X6938Y17750
X8813Y10250
X11313Y9250
X4125Y25250
X6625Y24250
X13500Y25250
X16000Y24250
X21000Y25250
X19750Y31750
X17250Y32750
X8500Y31750
X6000Y32750
X24750Y32750
X27250Y31750
X32250Y32750
X34750Y31750
X36000Y25250
X31000Y24250
X28500Y25250
X23500Y24250
X22300Y30200
X39750Y32750
X42250Y31750
X47250Y32750
X49750Y31750
X51000Y25250
X46000Y24250
X43500Y25250
X38500Y24250
X53500
X58500Y25250
X61000Y24250
X66000Y25250
X64751Y31750
X62251Y32750
X57250Y31750
X54750Y32750
X69751
X72251Y31750
X77250Y32750
X79750Y31750
X81000Y25250
X83500Y24250
X76000
X73500Y25250
X68500Y24250
X88500Y25250
X91000Y24250
X96000Y25250
X98500Y24250
X94750Y31750
X92250Y32750
X89800Y30300
X87250Y31750
X84750Y32750
X99750
X102250Y31750
X107250Y32750
X109750Y31750
X107875Y24250
X105375Y25250
T03
X41253Y1000
X80623
X108763Y8500
X99363
X15013
X13138Y16000
X3738
X5613Y8500
X2800Y31000
X12200
T04
X4688Y3750
X14063
X23438
X32813
X60938Y3750
X89063Y3750
X98438
X107813
X104063Y11250
X108763Y14500
X105938Y18750
X95625
X88125
X91875Y11250
X84375
X99363Y14500
X80625Y18750
X73125
X69375Y11250
X76875
X80623Y7000
X61875Y11250
X54375
X58125Y18750
X65625
X50625
X43125
X46875Y11250
X39375
X41253Y7000
X31875Y11250
X24375
X28125Y18750
X35625
X20625
X15013Y14500
X10313Y11250
X8438Y18750
X5613Y14500
X3738Y22000
X5625Y26250
X15000
X13138Y22000
X18750Y33750
X7500Y33750
X26250Y33750
X33750
X30000Y26250
X22500
X37500
X45000
X48750Y33750
X41250
X56250
X63751
X67500Y26250
X60000
X52500
X75000
X82500
X78750Y33750
X71251
X86250
X93750
X90000Y26250
X97500
X106875
X108750Y33750
X101250
X12200Y37000
X2800
M30
