M48
;Layer_Color=9474304
;FILE_FORMAT=2:4
INCH,TZ
;TYPE=PLATED
T1F00S00C0.0079
;TYPE=NON_PLATED
T2F00S00C0.1181
T3F00S00C0.1200
T4F00S00C0.1570
%
T01
X2600Y5300
X9900Y1800
X18700
X26800
X36000Y2500
X47900Y3900
X48600Y3600
X48700Y4200
X49300Y3100
X49541Y2800
X49781Y2500
X50300Y3500
X51300Y3800
X51100Y4200
X51500Y3400
X47700Y700
X60200Y1400
X65400Y1900
X69300Y1300
X72800Y1200
X91500Y2700
X93600Y900
X99900Y0
X101024Y6535
X104173
Y9685
X107323
X107600Y10400
X110472Y12835
Y15984
X109300Y17100
X107323Y15984
Y19134
X110472
X104173
Y15984
X101024
X101400Y16800
X101024Y19134
X110472Y6535
X97874Y9685
X94700Y7600
X91575Y9685
X88800Y9200
X88425Y12835
Y15984
X90500Y15800
X91575Y15984
X94724
X97874
Y19134
X94724
X91575
X85276
Y15984
X83900Y16700
X85276Y6535
X82126
X78976
X75827
X72677
Y9685
X71801Y10103
X69528Y9685
Y6535
Y15984
X72677
X75827
X76400Y17200
X75827Y19134
X78976
X82126
Y15984
Y12835
X79300Y10100
X78976Y15984
X68100Y17600
X66378Y15984
Y12835
X65400Y9200
X66378Y6535
X63228
X56929
X56800Y10100
X53780Y9685
Y15984
X56929
Y19134
X57000Y19700
X53780Y19134
X63228
Y15984
X60500Y16000
X60079Y12835
X50630
X48900Y12200
X49100Y8300
X48700Y7400
X47480Y6535
X50630
Y9685
X51400Y9300
Y15100
X50630Y15984
X47480
X45600Y15800
X44331Y15984
Y19134
X47480
X41181
Y15984
X38031
Y19134
X44331Y12835
X41800Y10000
X44331Y6535
X38031
X34882
X31732
Y9685
X36000Y9100
X36011Y14711
X34882Y15984
X31732
Y19134
X28583Y15984
X28911Y15111
X25433Y15984
X24200Y16800
X22283Y15984
Y19134
X25433
X22283Y12835
Y9685
Y6535
X25433
X28583
X26800Y10000
X19134Y9685
Y6535
X12835
X12700Y8300
X9685Y9685
Y6535
X6535
Y9685
Y15984
X9685
Y19134
X12835
X15984
X19134
Y15984
X12696Y14900
X12300Y13900
X6535Y19134
X6400Y20300
X2600Y8600
X5500Y35300
X6535Y31732
X7700Y28800
X6535Y25433
X9685
X11089Y24200
X9685Y22283
X15984
Y25433
X19200Y24200
Y29800
X15984Y31732
X12835
X11079Y30579
X22283Y31732
X25433
X26600Y29712
X25433Y25433
X26600Y24200
X25433Y22283
X28583
X31732
X34882
X34100Y24200
X31732Y25433
Y31732
X34100Y29700
X22283Y22283
X38031
X41181
X41900Y24200
X44331Y25433
X47480
X49200Y24300
X50630Y22283
X47480
X44331
X41900Y30012
X41181Y31732
X38031
X47480
X49199Y29782
X53780Y31732
X56900Y30000
X60079Y31732
X63228
X64400Y30000
X62400Y27200
X64400Y24300
X66378Y22283
X60079
X56908Y24295
X53780Y25433
Y22283
X66100Y34700
X69528Y31732
X71500Y29600
Y24200
X72677Y22283
X75827
X78976
X79600Y24200
X82126Y22283
Y31732
X79598Y30192
X75827Y31732
Y25433
X69528
Y22283
X86600Y23800
X85276Y25433
X86600Y29712
X85276Y31732
X91575
X94500Y30100
X97874Y31732
Y22283
X94724
X94500Y24300
X91575Y25433
Y22283
X88425
X101024
X101400Y24200
X101024Y25433
X101400Y29500
X101024Y31732
X107323
X109300Y29912
X110472Y28583
X109300Y25100
X110472Y22283
X107323
X104173
Y38031
X107323
X110472
X101024
X97874
X94724
X91575
X88425
X85276
X82126
X78976
X75827
X72677
X69528
X66378
X63228
X60079
X56929
X53780
X50630
X47480
X44331
X41181
X38031
X34882
X31732
X28583
X25433
X22283
X19134
X15984
X12835
X9685
X6535
T02
X3188Y2750
X5688Y1750
X12563Y2750
X15063Y1750
X21938Y2750
X24438Y1750
X31313Y2750
X33813Y1750
X59438Y2750
X61938Y1750
X87563Y2750
X90063Y1750
X96938Y2750
X99438Y1750
X106313Y2750
X108813Y1750
X105063Y9250
X102563Y10250
X104438Y17750
X106938Y16750
X96625
X94125Y17750
X89125Y16750
X88100Y15000
X86625Y17750
X85375Y9250
X90375Y10250
X92875Y9250
X82875Y10250
X77875Y9250
X75375Y10250
X70375Y9250
X71625Y17750
X74125Y16750
X79125Y17750
X81625Y16750
X66625
X64125Y17750
X59125Y16750
X56625Y17750
X54200Y15300
X52875Y10250
X55375Y9250
X60375Y10250
X62875Y9250
X67875Y10250
X47875Y9250
X45375Y10250
X40375Y9250
X37875Y10250
X41625Y17750
X44125Y16750
X49125Y17750
X51625Y16750
X36625
X34125Y17750
X29125Y16750
X26625Y17750
X21625Y16750
X22875Y10250
X25375Y9250
X30375Y10250
X32875Y9250
X18600Y14400
X19125Y17750
X9438Y16750
X6938Y17750
X8813Y10250
X11313Y9250
X4125Y25250
X6625Y24250
X13500Y25250
X16000Y24250
X21000Y25250
X19750Y31750
X17250Y32750
X8500Y31750
X6000Y32750
X24750Y32750
X27250Y31750
X32250Y32750
X34750Y31750
X36000Y25250
X31000Y24250
X28500Y25250
X23500Y24250
X22300Y30200
X39750Y32750
X42250Y31750
X47250Y32750
X49750Y31750
X51000Y25250
X46000Y24250
X43500Y25250
X38500Y24250
X53500
X58500Y25250
X61000Y24250
X66000Y25250
X64751Y31750
X62251Y32750
X57250Y31750
X54750Y32750
X69751
X72251Y31750
X77250Y32750
X79750Y31750
X81000Y25250
X83500Y24250
X76000
X73500Y25250
X68500Y24250
X88500Y25250
X91000Y24250
X96000Y25250
X98500Y24250
X94750Y31750
X92250Y32750
X89800Y30300
X87250Y31750
X84750Y32750
X99750
X102250Y31750
X107250Y32750
X109750Y31750
X107875Y24250
X105375Y25250
T03
X41253Y1000
X80623
X108763Y8500
X99363
X15013
X13138Y16000
X3738
X5613Y8500
X2800Y31000
X12200
T04
X4688Y3750
X14063
X23438
X32813
X60938Y3750
X89063Y3750
X98438
X107813
X104063Y11250
X108763Y14500
X105938Y18750
X95625
X88125
X91875Y11250
X84375
X99363Y14500
X80625Y18750
X73125
X69375Y11250
X76875
X80623Y7000
X61875Y11250
X54375
X58125Y18750
X65625
X50625
X43125
X46875Y11250
X39375
X41253Y7000
X31875Y11250
X24375
X28125Y18750
X35625
X20625
X15013Y14500
X10313Y11250
X8438Y18750
X5613Y14500
X3738Y22000
X5625Y26250
X15000
X13138Y22000
X18750Y33750
X7500Y33750
X26250Y33750
X33750
X30000Y26250
X22500
X37500
X45000
X48750Y33750
X41250
X56250
X63751
X67500Y26250
X60000
X52500
X75000
X82500
X78750Y33750
X71251
X86250
X93750
X90000Y26250
X97500
X106875
X108750Y33750
X101250
X12200Y37000
X2800
M30
